<?xml version="1.0" encoding="utf-8" standalone="no"?>
<!DOCTYPE svg PUBLIC "-//W3C//DTD SVG 1.1//EN"
  "http://www.w3.org/Graphics/SVG/1.1/DTD/svg11.dtd">
<svg xmlns:xlink="http://www.w3.org/1999/xlink" width="576pt" height="216pt" viewBox="0 0 576 216" xmlns="http://www.w3.org/2000/svg" version="1.1">
 <metadata>
  <rdf:RDF xmlns:dc="http://purl.org/dc/elements/1.1/" xmlns:cc="http://creativecommons.org/ns#" xmlns:rdf="http://www.w3.org/1999/02/22-rdf-syntax-ns#">
   <cc:Work>
    <dc:type rdf:resource="http://purl.org/dc/dcmitype/StillImage"/>
    <dc:date>2024-02-01T19:04:36.078443</dc:date>
    <dc:format>image/svg+xml</dc:format>
    <dc:creator>
     <cc:Agent>
      <dc:title>Matplotlib v3.7.4, https://matplotlib.org/</dc:title>
     </cc:Agent>
    </dc:creator>
   </cc:Work>
  </rdf:RDF>
 </metadata>
 <defs>
  <style type="text/css">*{stroke-linejoin: round; stroke-linecap: butt}</style>
 </defs>
 <g id="figure_1">
  <g id="patch_1">
   <path d="M 0 216 
L 576 216 
L 576 0 
L 0 0 
z
" style="fill: #ffffff"/>
  </g>
  <g id="axes_1">
   <g id="patch_2">
    <path d="M 72 192.24 
L 274.909091 192.24 
L 274.909091 25.92 
L 72 25.92 
z
" style="fill: #ffffff"/>
   </g>
   <g id="matplotlib.axis_1">
    <g id="xtick_1">
     <g id="line2d_1">
      <defs>
       <path id="m88f1fc163b" d="M 0 0 
L 0 3.5 
" style="stroke: #000000; stroke-width: 0.8"/>
      </defs>
      <g>
       <use xlink:href="#m88f1fc163b" x="80.296192" y="192.24" style="stroke: #000000; stroke-width: 0.8"/>
      </g>
     </g>
     <g id="text_1">
      <!-- 0 -->
      <g transform="translate(77.114942 206.838437) scale(0.1 -0.1)">
       <defs>
        <path id="DejaVuSans-30" d="M 2034 4250 
Q 1547 4250 1301 3770 
Q 1056 3291 1056 2328 
Q 1056 1369 1301 889 
Q 1547 409 2034 409 
Q 2525 409 2770 889 
Q 3016 1369 3016 2328 
Q 3016 3291 2770 3770 
Q 2525 4250 2034 4250 
z
M 2034 4750 
Q 2819 4750 3233 4129 
Q 3647 3509 3647 2328 
Q 3647 1150 3233 529 
Q 2819 -91 2034 -91 
Q 1250 -91 836 529 
Q 422 1150 422 2328 
Q 422 3509 836 4129 
Q 1250 4750 2034 4750 
z
" transform="scale(0.015625)"/>
       </defs>
       <use xlink:href="#DejaVuSans-30"/>
      </g>
     </g>
    </g>
    <g id="xtick_2">
     <g id="line2d_2">
      <g>
       <use xlink:href="#m88f1fc163b" x="126.643631" y="192.24" style="stroke: #000000; stroke-width: 0.8"/>
      </g>
     </g>
     <g id="text_2">
      <!-- 50 -->
      <g transform="translate(120.281131 206.838437) scale(0.1 -0.1)">
       <defs>
        <path id="DejaVuSans-35" d="M 691 4666 
L 3169 4666 
L 3169 4134 
L 1269 4134 
L 1269 2991 
Q 1406 3038 1543 3061 
Q 1681 3084 1819 3084 
Q 2600 3084 3056 2656 
Q 3513 2228 3513 1497 
Q 3513 744 3044 326 
Q 2575 -91 1722 -91 
Q 1428 -91 1123 -41 
Q 819 9 494 109 
L 494 744 
Q 775 591 1075 516 
Q 1375 441 1709 441 
Q 2250 441 2565 725 
Q 2881 1009 2881 1497 
Q 2881 1984 2565 2268 
Q 2250 2553 1709 2553 
Q 1456 2553 1204 2497 
Q 953 2441 691 2322 
L 691 4666 
z
" transform="scale(0.015625)"/>
       </defs>
       <use xlink:href="#DejaVuSans-35"/>
       <use xlink:href="#DejaVuSans-30" x="63.623047"/>
      </g>
     </g>
    </g>
    <g id="xtick_3">
     <g id="line2d_3">
      <g>
       <use xlink:href="#m88f1fc163b" x="172.991071" y="192.24" style="stroke: #000000; stroke-width: 0.8"/>
      </g>
     </g>
     <g id="text_3">
      <!-- 100 -->
      <g transform="translate(163.447321 206.838437) scale(0.1 -0.1)">
       <defs>
        <path id="DejaVuSans-31" d="M 794 531 
L 1825 531 
L 1825 4091 
L 703 3866 
L 703 4441 
L 1819 4666 
L 2450 4666 
L 2450 531 
L 3481 531 
L 3481 0 
L 794 0 
L 794 531 
z
" transform="scale(0.015625)"/>
       </defs>
       <use xlink:href="#DejaVuSans-31"/>
       <use xlink:href="#DejaVuSans-30" x="63.623047"/>
       <use xlink:href="#DejaVuSans-30" x="127.246094"/>
      </g>
     </g>
    </g>
    <g id="xtick_4">
     <g id="line2d_4">
      <g>
       <use xlink:href="#m88f1fc163b" x="219.338511" y="192.24" style="stroke: #000000; stroke-width: 0.8"/>
      </g>
     </g>
     <g id="text_4">
      <!-- 150 -->
      <g transform="translate(209.794761 206.838437) scale(0.1 -0.1)">
       <use xlink:href="#DejaVuSans-31"/>
       <use xlink:href="#DejaVuSans-35" x="63.623047"/>
       <use xlink:href="#DejaVuSans-30" x="127.246094"/>
      </g>
     </g>
    </g>
    <g id="xtick_5">
     <g id="line2d_5">
      <g>
       <use xlink:href="#m88f1fc163b" x="265.68595" y="192.24" style="stroke: #000000; stroke-width: 0.8"/>
      </g>
     </g>
     <g id="text_5">
      <!-- 200 -->
      <g transform="translate(256.1422 206.838437) scale(0.1 -0.1)">
       <defs>
        <path id="DejaVuSans-32" d="M 1228 531 
L 3431 531 
L 3431 0 
L 469 0 
L 469 531 
Q 828 903 1448 1529 
Q 2069 2156 2228 2338 
Q 2531 2678 2651 2914 
Q 2772 3150 2772 3378 
Q 2772 3750 2511 3984 
Q 2250 4219 1831 4219 
Q 1534 4219 1204 4116 
Q 875 4013 500 3803 
L 500 4441 
Q 881 4594 1212 4672 
Q 1544 4750 1819 4750 
Q 2544 4750 2975 4387 
Q 3406 4025 3406 3419 
Q 3406 3131 3298 2873 
Q 3191 2616 2906 2266 
Q 2828 2175 2409 1742 
Q 1991 1309 1228 531 
z
" transform="scale(0.015625)"/>
       </defs>
       <use xlink:href="#DejaVuSans-32"/>
       <use xlink:href="#DejaVuSans-30" x="63.623047"/>
       <use xlink:href="#DejaVuSans-30" x="127.246094"/>
      </g>
     </g>
    </g>
    <g id="text_6">
     <!-- Epochs -->
     <g transform="translate(155.53892 220.516562) scale(0.1 -0.1)">
      <defs>
       <path id="DejaVuSans-45" d="M 628 4666 
L 3578 4666 
L 3578 4134 
L 1259 4134 
L 1259 2753 
L 3481 2753 
L 3481 2222 
L 1259 2222 
L 1259 531 
L 3634 531 
L 3634 0 
L 628 0 
L 628 4666 
z
" transform="scale(0.015625)"/>
       <path id="DejaVuSans-70" d="M 1159 525 
L 1159 -1331 
L 581 -1331 
L 581 3500 
L 1159 3500 
L 1159 2969 
Q 1341 3281 1617 3432 
Q 1894 3584 2278 3584 
Q 2916 3584 3314 3078 
Q 3713 2572 3713 1747 
Q 3713 922 3314 415 
Q 2916 -91 2278 -91 
Q 1894 -91 1617 61 
Q 1341 213 1159 525 
z
M 3116 1747 
Q 3116 2381 2855 2742 
Q 2594 3103 2138 3103 
Q 1681 3103 1420 2742 
Q 1159 2381 1159 1747 
Q 1159 1113 1420 752 
Q 1681 391 2138 391 
Q 2594 391 2855 752 
Q 3116 1113 3116 1747 
z
" transform="scale(0.015625)"/>
       <path id="DejaVuSans-6f" d="M 1959 3097 
Q 1497 3097 1228 2736 
Q 959 2375 959 1747 
Q 959 1119 1226 758 
Q 1494 397 1959 397 
Q 2419 397 2687 759 
Q 2956 1122 2956 1747 
Q 2956 2369 2687 2733 
Q 2419 3097 1959 3097 
z
M 1959 3584 
Q 2709 3584 3137 3096 
Q 3566 2609 3566 1747 
Q 3566 888 3137 398 
Q 2709 -91 1959 -91 
Q 1206 -91 779 398 
Q 353 888 353 1747 
Q 353 2609 779 3096 
Q 1206 3584 1959 3584 
z
" transform="scale(0.015625)"/>
       <path id="DejaVuSans-63" d="M 3122 3366 
L 3122 2828 
Q 2878 2963 2633 3030 
Q 2388 3097 2138 3097 
Q 1578 3097 1268 2742 
Q 959 2388 959 1747 
Q 959 1106 1268 751 
Q 1578 397 2138 397 
Q 2388 397 2633 464 
Q 2878 531 3122 666 
L 3122 134 
Q 2881 22 2623 -34 
Q 2366 -91 2075 -91 
Q 1284 -91 818 406 
Q 353 903 353 1747 
Q 353 2603 823 3093 
Q 1294 3584 2113 3584 
Q 2378 3584 2631 3529 
Q 2884 3475 3122 3366 
z
" transform="scale(0.015625)"/>
       <path id="DejaVuSans-68" d="M 3513 2113 
L 3513 0 
L 2938 0 
L 2938 2094 
Q 2938 2591 2744 2837 
Q 2550 3084 2163 3084 
Q 1697 3084 1428 2787 
Q 1159 2491 1159 1978 
L 1159 0 
L 581 0 
L 581 4863 
L 1159 4863 
L 1159 2956 
Q 1366 3272 1645 3428 
Q 1925 3584 2291 3584 
Q 2894 3584 3203 3211 
Q 3513 2838 3513 2113 
z
" transform="scale(0.015625)"/>
       <path id="DejaVuSans-73" d="M 2834 3397 
L 2834 2853 
Q 2591 2978 2328 3040 
Q 2066 3103 1784 3103 
Q 1356 3103 1142 2972 
Q 928 2841 928 2578 
Q 928 2378 1081 2264 
Q 1234 2150 1697 2047 
L 1894 2003 
Q 2506 1872 2764 1633 
Q 3022 1394 3022 966 
Q 3022 478 2636 193 
Q 2250 -91 1575 -91 
Q 1294 -91 989 -36 
Q 684 19 347 128 
L 347 722 
Q 666 556 975 473 
Q 1284 391 1588 391 
Q 1994 391 2212 530 
Q 2431 669 2431 922 
Q 2431 1156 2273 1281 
Q 2116 1406 1581 1522 
L 1381 1569 
Q 847 1681 609 1914 
Q 372 2147 372 2553 
Q 372 3047 722 3315 
Q 1072 3584 1716 3584 
Q 2034 3584 2315 3537 
Q 2597 3491 2834 3397 
z
" transform="scale(0.015625)"/>
      </defs>
      <use xlink:href="#DejaVuSans-45"/>
      <use xlink:href="#DejaVuSans-70" x="63.183594"/>
      <use xlink:href="#DejaVuSans-6f" x="126.660156"/>
      <use xlink:href="#DejaVuSans-63" x="187.841797"/>
      <use xlink:href="#DejaVuSans-68" x="242.822266"/>
      <use xlink:href="#DejaVuSans-73" x="306.201172"/>
     </g>
    </g>
   </g>
   <g id="matplotlib.axis_2">
    <g id="ytick_1">
     <g id="line2d_6">
      <defs>
       <path id="m415a20302d" d="M 0 0 
L -3.5 0 
" style="stroke: #000000; stroke-width: 0.8"/>
      </defs>
      <g>
       <use xlink:href="#m415a20302d" x="72" y="167.1801" style="stroke: #000000; stroke-width: 0.8"/>
      </g>
     </g>
     <g id="text_7">
      <!-- 0.46 -->
      <g transform="translate(42.734375 170.979318) scale(0.1 -0.1)">
       <defs>
        <path id="DejaVuSans-2e" d="M 684 794 
L 1344 794 
L 1344 0 
L 684 0 
L 684 794 
z
" transform="scale(0.015625)"/>
        <path id="DejaVuSans-34" d="M 2419 4116 
L 825 1625 
L 2419 1625 
L 2419 4116 
z
M 2253 4666 
L 3047 4666 
L 3047 1625 
L 3713 1625 
L 3713 1100 
L 3047 1100 
L 3047 0 
L 2419 0 
L 2419 1100 
L 313 1100 
L 313 1709 
L 2253 4666 
z
" transform="scale(0.015625)"/>
        <path id="DejaVuSans-36" d="M 2113 2584 
Q 1688 2584 1439 2293 
Q 1191 2003 1191 1497 
Q 1191 994 1439 701 
Q 1688 409 2113 409 
Q 2538 409 2786 701 
Q 3034 994 3034 1497 
Q 3034 2003 2786 2293 
Q 2538 2584 2113 2584 
z
M 3366 4563 
L 3366 3988 
Q 3128 4100 2886 4159 
Q 2644 4219 2406 4219 
Q 1781 4219 1451 3797 
Q 1122 3375 1075 2522 
Q 1259 2794 1537 2939 
Q 1816 3084 2150 3084 
Q 2853 3084 3261 2657 
Q 3669 2231 3669 1497 
Q 3669 778 3244 343 
Q 2819 -91 2113 -91 
Q 1303 -91 875 529 
Q 447 1150 447 2328 
Q 447 3434 972 4092 
Q 1497 4750 2381 4750 
Q 2619 4750 2861 4703 
Q 3103 4656 3366 4563 
z
" transform="scale(0.015625)"/>
       </defs>
       <use xlink:href="#DejaVuSans-30"/>
       <use xlink:href="#DejaVuSans-2e" x="63.623047"/>
       <use xlink:href="#DejaVuSans-34" x="95.410156"/>
       <use xlink:href="#DejaVuSans-36" x="159.033203"/>
      </g>
     </g>
    </g>
    <g id="ytick_2">
     <g id="line2d_7">
      <g>
       <use xlink:href="#m415a20302d" x="72" y="137.732865" style="stroke: #000000; stroke-width: 0.8"/>
      </g>
     </g>
     <g id="text_8">
      <!-- 0.48 -->
      <g transform="translate(42.734375 141.532084) scale(0.1 -0.1)">
       <defs>
        <path id="DejaVuSans-38" d="M 2034 2216 
Q 1584 2216 1326 1975 
Q 1069 1734 1069 1313 
Q 1069 891 1326 650 
Q 1584 409 2034 409 
Q 2484 409 2743 651 
Q 3003 894 3003 1313 
Q 3003 1734 2745 1975 
Q 2488 2216 2034 2216 
z
M 1403 2484 
Q 997 2584 770 2862 
Q 544 3141 544 3541 
Q 544 4100 942 4425 
Q 1341 4750 2034 4750 
Q 2731 4750 3128 4425 
Q 3525 4100 3525 3541 
Q 3525 3141 3298 2862 
Q 3072 2584 2669 2484 
Q 3125 2378 3379 2068 
Q 3634 1759 3634 1313 
Q 3634 634 3220 271 
Q 2806 -91 2034 -91 
Q 1263 -91 848 271 
Q 434 634 434 1313 
Q 434 1759 690 2068 
Q 947 2378 1403 2484 
z
M 1172 3481 
Q 1172 3119 1398 2916 
Q 1625 2713 2034 2713 
Q 2441 2713 2670 2916 
Q 2900 3119 2900 3481 
Q 2900 3844 2670 4047 
Q 2441 4250 2034 4250 
Q 1625 4250 1398 4047 
Q 1172 3844 1172 3481 
z
" transform="scale(0.015625)"/>
       </defs>
       <use xlink:href="#DejaVuSans-30"/>
       <use xlink:href="#DejaVuSans-2e" x="63.623047"/>
       <use xlink:href="#DejaVuSans-34" x="95.410156"/>
       <use xlink:href="#DejaVuSans-38" x="159.033203"/>
      </g>
     </g>
    </g>
    <g id="ytick_3">
     <g id="line2d_8">
      <g>
       <use xlink:href="#m415a20302d" x="72" y="108.285631" style="stroke: #000000; stroke-width: 0.8"/>
      </g>
     </g>
     <g id="text_9">
      <!-- 0.50 -->
      <g transform="translate(42.734375 112.08485) scale(0.1 -0.1)">
       <use xlink:href="#DejaVuSans-30"/>
       <use xlink:href="#DejaVuSans-2e" x="63.623047"/>
       <use xlink:href="#DejaVuSans-35" x="95.410156"/>
       <use xlink:href="#DejaVuSans-30" x="159.033203"/>
      </g>
     </g>
    </g>
    <g id="ytick_4">
     <g id="line2d_9">
      <g>
       <use xlink:href="#m415a20302d" x="72" y="78.838397" style="stroke: #000000; stroke-width: 0.8"/>
      </g>
     </g>
     <g id="text_10">
      <!-- 0.52 -->
      <g transform="translate(42.734375 82.637615) scale(0.1 -0.1)">
       <use xlink:href="#DejaVuSans-30"/>
       <use xlink:href="#DejaVuSans-2e" x="63.623047"/>
       <use xlink:href="#DejaVuSans-35" x="95.410156"/>
       <use xlink:href="#DejaVuSans-32" x="159.033203"/>
      </g>
     </g>
    </g>
    <g id="ytick_5">
     <g id="line2d_10">
      <g>
       <use xlink:href="#m415a20302d" x="72" y="49.391162" style="stroke: #000000; stroke-width: 0.8"/>
      </g>
     </g>
     <g id="text_11">
      <!-- 0.54 -->
      <g transform="translate(42.734375 53.190381) scale(0.1 -0.1)">
       <use xlink:href="#DejaVuSans-30"/>
       <use xlink:href="#DejaVuSans-2e" x="63.623047"/>
       <use xlink:href="#DejaVuSans-35" x="95.410156"/>
       <use xlink:href="#DejaVuSans-34" x="159.033203"/>
      </g>
     </g>
    </g>
   </g>
   <g id="line2d_11">
    <path d="M 81.22314 184.68 
L 82.150089 179.060036 
L 83.077038 179.11649 
L 84.003987 157.12388 
L 84.930936 151.590764 
L 85.857884 143.642196 
L 86.784833 137.272389 
L 87.711782 141.171555 
L 88.638731 138.99453 
L 89.56568 137.511539 
L 90.492628 126.603864 
L 91.419577 125.193461 
L 92.346526 120.047916 
L 93.273475 118.700741 
L 94.200424 116.923107 
L 95.127372 118.376662 
L 96.054321 116.768471 
L 96.98127 111.064247 
L 97.908219 113.632516 
L 98.835168 114.33053 
L 99.762116 119.37449 
L 100.689065 113.167351 
L 101.616014 113.320249 
L 102.542963 113.224552 
L 103.469912 108.017521 
L 104.39686 104.414982 
L 105.323809 104.552051 
L 106.250758 100.581392 
L 107.177707 95.102942 
L 108.104656 91.544968 
L 109.031604 86.603861 
L 109.958553 84.136659 
L 110.885502 77.958901 
L 111.812451 79.586983 
L 112.739399 80.982596 
L 113.666348 83.813558 
L 114.593297 83.559174 
L 115.520246 85.93247 
L 116.447195 87.251602 
L 117.374143 85.723691 
L 118.301092 86.349125 
L 119.228041 88.8223 
L 120.15499 91.718867 
L 121.081939 91.819571 
L 122.008887 95.037702 
L 122.935836 95.008302 
L 123.862785 99.709583 
L 124.789734 100.247959 
L 125.716683 101.020907 
L 126.643631 104.072666 
L 127.57058 103.689081 
L 128.497529 105.622541 
L 129.424478 103.69719 
L 130.351427 105.301307 
L 131.278375 102.154349 
L 132.205324 99.440086 
L 133.132273 96.051185 
L 134.059222 100.558433 
L 134.986171 101.055204 
L 135.913119 104.005849 
L 136.840068 109.031666 
L 137.767017 111.695472 
L 138.693966 113.352679 
L 139.620914 116.493755 
L 141.474812 125.713572 
L 142.401761 123.209948 
L 143.32871 118.392049 
L 144.255658 118.501994 
L 145.182607 116.469995 
L 146.109556 113.854007 
L 147.036505 108.61079 
L 147.963454 108.297493 
L 148.890402 105.706675 
L 149.817351 106.403072 
L 150.7443 101.810825 
L 151.671249 101.227658 
L 152.598198 104.383641 
L 153.525146 102.30838 
L 154.452095 96.304813 
L 155.379044 93.752791 
L 156.305993 94.745522 
L 157.232942 99.975142 
L 158.15989 100.341473 
L 160.013788 109.207195 
L 160.940737 116.027718 
L 161.867686 111.715079 
L 162.794634 111.386239 
L 163.721583 114.450101 
L 164.648532 115.927968 
L 165.575481 116.531226 
L 166.50243 113.131579 
L 167.429378 114.208673 
L 168.356327 104.062029 
L 169.283276 102.004052 
L 170.210225 101.849706 
L 171.137173 101.861898 
L 172.064122 101.693289 
L 172.991071 102.557626 
L 173.91802 107.490486 
L 174.844969 104.053936 
L 175.771917 103.936718 
L 176.698866 99.03514 
L 177.625815 100.784694 
L 178.552764 100.447757 
L 179.479713 93.464729 
L 180.406661 92.613777 
L 181.33361 88.323301 
L 182.260559 85.77146 
L 183.187508 77.164334 
L 184.114457 78.271249 
L 185.041405 73.979333 
L 185.968354 75.271193 
L 186.895303 75.460148 
L 187.822252 73.078099 
L 188.749201 72.475583 
L 189.676149 73.356931 
L 190.603098 75.649642 
L 191.530047 76.567179 
L 192.456996 79.167923 
L 193.383945 78.376481 
L 194.310893 81.900294 
L 195.237842 81.083838 
L 196.164791 79.008442 
L 197.09174 82.712395 
L 198.018688 84.792036 
L 198.945637 83.154303 
L 199.872586 83.426622 
L 200.799535 82.224313 
L 201.726484 81.358121 
L 202.653432 79.8082 
L 203.580381 75.960169 
L 204.50733 75.659767 
L 205.434279 73.971841 
L 206.361228 70.055864 
L 207.288176 69.403507 
L 208.215125 69.550483 
L 209.142074 67.701458 
L 210.069023 64.675945 
L 210.995972 64.01471 
L 211.92292 63.926672 
L 212.849869 64.077458 
L 213.776818 61.874754 
L 214.703767 65.766518 
L 215.630716 63.285448 
L 216.557664 63.565939 
L 217.484613 62.72314 
L 218.411562 64.492853 
L 219.338511 68.439989 
L 220.26546 66.726751 
L 221.192408 66.113355 
L 222.119357 67.284656 
L 223.046306 67.248279 
L 223.973255 64.545472 
L 224.900203 65.871484 
L 225.827152 64.729765 
L 226.754101 65.320491 
L 228.607999 61.878536 
L 230.461896 67.349098 
L 231.388845 65.658807 
L 232.315794 66.953889 
L 233.242743 67.854742 
L 234.169691 67.999421 
L 235.09664 67.230064 
L 236.023589 69.113543 
L 236.950538 70.198648 
L 237.877487 69.347231 
L 238.804435 68.142926 
L 239.731384 69.009017 
L 240.658333 70.948307 
L 241.585282 71.13209 
L 242.512231 69.921572 
L 243.439179 69.398597 
L 244.366128 71.751437 
L 245.293077 69.810365 
L 246.220026 69.215875 
L 247.146975 70.48364 
L 248.073923 70.686754 
L 249.000872 69.678373 
L 250.85477 66.492059 
L 252.708667 67.705831 
L 253.635616 66.132734 
L 254.562565 65.766657 
L 255.489514 66.405154 
L 256.416462 66.415075 
L 257.343411 66.260411 
L 258.27036 64.903082 
L 259.197309 66.419887 
L 260.124258 68.277744 
L 261.051206 68.975981 
L 261.978155 69.439791 
L 262.905104 71.47704 
L 263.832053 71.725251 
L 265.68595 70.932384 
L 265.68595 70.932384 
" clip-path="url(#p9fe2f5bf4a)" style="fill: none; stroke: #1f77b4; stroke-width: 1.5; stroke-linecap: square"/>
   </g>
   <g id="line2d_12">
    <path d="M 81.22314 173.370383 
L 82.150089 155.696684 
L 83.077038 157.080102 
L 84.003987 145.079595 
L 84.930936 147.005966 
L 85.857884 131.665349 
L 86.784833 124.006586 
L 87.711782 132.227834 
L 88.638731 134.553364 
L 89.56568 133.480339 
L 90.492628 124.894865 
L 91.419577 126.384979 
L 92.346526 126.028422 
L 93.273475 125.307626 
L 94.200424 119.864848 
L 95.127372 128.091838 
L 96.054321 132.537934 
L 96.98127 124.935316 
L 97.908219 125.859119 
L 98.835168 127.852358 
L 99.762116 133.477216 
L 100.689065 128.554211 
L 101.616014 129.608273 
L 102.542963 130.858239 
L 103.469912 125.576941 
L 104.39686 124.825018 
L 106.250758 119.836882 
L 107.177707 112.68568 
L 109.031604 109.213496 
L 109.958553 110.272393 
L 110.885502 107.003143 
L 111.812451 107.409151 
L 112.739399 115.433645 
L 113.666348 118.754223 
L 114.593297 119.148087 
L 115.520246 121.96994 
L 116.447195 125.841939 
L 117.374143 121.134646 
L 118.301092 120.095246 
L 119.228041 122.659607 
L 120.15499 120.507421 
L 121.081939 121.413471 
L 122.008887 123.161823 
L 122.935836 120.315103 
L 123.862785 124.432736 
L 125.716683 125.138918 
L 126.643631 131.332231 
L 127.57058 131.36085 
L 128.497529 128.196749 
L 129.424478 127.241374 
L 130.351427 127.428429 
L 131.278375 119.912762 
L 132.205324 116.318609 
L 133.132273 114.684848 
L 134.059222 117.571937 
L 134.986171 118.347322 
L 135.913119 118.905787 
L 136.840068 121.822998 
L 137.767017 128.566639 
L 139.620914 134.178331 
L 140.547863 142.768262 
L 141.474812 147.125499 
L 142.401761 143.958542 
L 143.32871 139.937499 
L 144.255658 139.226213 
L 145.182607 141.741604 
L 146.109556 139.812479 
L 147.036505 135.703282 
L 147.963454 135.616431 
L 148.890402 133.768009 
L 149.817351 135.852265 
L 150.7443 132.395666 
L 151.671249 131.382509 
L 152.598198 134.362839 
L 153.525146 129.27685 
L 154.452095 118.462084 
L 155.379044 114.307859 
L 156.305993 115.619951 
L 157.232942 120.754272 
L 159.086839 115.928373 
L 160.013788 119.599932 
L 160.940737 126.844326 
L 161.867686 121.146551 
L 162.794634 124.497323 
L 163.721583 130.185575 
L 164.648532 129.240999 
L 165.575481 124.925264 
L 166.50243 121.372281 
L 167.429378 127.084766 
L 168.356327 121.456824 
L 169.283276 118.084602 
L 170.210225 113.578668 
L 171.137173 117.500499 
L 172.064122 118.955471 
L 172.991071 118.039107 
L 173.91802 127.525115 
L 174.844969 123.489812 
L 175.771917 118.914077 
L 176.698866 112.740897 
L 177.625815 115.169907 
L 178.552764 115.454208 
L 179.479713 112.747219 
L 180.406661 107.75057 
L 181.33361 97.432195 
L 182.260559 89.261039 
L 183.187508 77.124675 
L 184.114457 79.381982 
L 185.968354 76.081238 
L 186.895303 68.469939 
L 187.822252 64.796858 
L 188.749201 65.139916 
L 189.676149 66.790631 
L 190.603098 69.370495 
L 191.530047 74.135031 
L 192.456996 75.362746 
L 193.383945 74.448897 
L 194.310893 74.795814 
L 195.237842 73.047494 
L 196.164791 76.930324 
L 197.09174 79.129014 
L 198.018688 81.647641 
L 198.945637 83.33599 
L 199.872586 89.090837 
L 200.799535 88.857003 
L 201.726484 90.292898 
L 202.653432 88.601874 
L 203.580381 88.887582 
L 204.50733 92.449581 
L 205.434279 88.084907 
L 206.361228 85.87809 
L 207.288176 84.692788 
L 208.215125 85.439785 
L 209.142074 80.735825 
L 210.069023 81.537938 
L 210.995972 81.8251 
L 211.92292 82.452015 
L 212.849869 81.505403 
L 213.776818 78.811021 
L 214.703767 87.375721 
L 217.484613 82.519077 
L 218.411562 81.420317 
L 219.338511 81.916737 
L 220.26546 81.146755 
L 221.192408 81.380887 
L 223.046306 78.322494 
L 223.973255 73.115575 
L 224.900203 74.40739 
L 225.827152 75.085698 
L 226.754101 72.829247 
L 227.68105 72.43734 
L 228.607999 71.425856 
L 229.534947 72.25063 
L 230.461896 74.468511 
L 231.388845 72.201896 
L 232.315794 72.356394 
L 233.242743 73.937353 
L 234.169691 72.806378 
L 235.09664 70.707973 
L 236.023589 70.385711 
L 236.950538 75.229086 
L 237.877487 73.989727 
L 238.804435 74.001623 
L 239.731384 73.857031 
L 240.658333 76.408874 
L 241.585282 76.141777 
L 242.512231 74.812442 
L 243.439179 74.129225 
L 244.366128 73.083388 
L 245.293077 73.251637 
L 246.220026 69.352443 
L 247.146975 70.266317 
L 249.000872 68.725294 
L 249.927821 70.022317 
L 250.85477 69.005819 
L 251.781719 69.415276 
L 252.708667 70.128755 
L 253.635616 70.991516 
L 254.562565 70.816103 
L 255.489514 72.760702 
L 256.416462 73.834273 
L 257.343411 72.337771 
L 258.27036 72.549557 
L 259.197309 73.339408 
L 260.124258 75.497311 
L 261.051206 77.356624 
L 261.978155 80.887089 
L 262.905104 83.929825 
L 263.832053 83.481445 
L 264.759002 83.691447 
L 265.68595 83.601807 
L 265.68595 83.601807 
" clip-path="url(#p9fe2f5bf4a)" style="fill: none; stroke: #ff7f0e; stroke-width: 1.5; stroke-linecap: square"/>
   </g>
   <g id="line2d_13">
    <path d="M 81.22314 165.71818 
L 82.150089 168.097954 
L 83.077038 168.6749 
L 84.003987 146.364164 
L 84.930936 144.467954 
L 85.857884 140.192307 
L 86.784833 133.793451 
L 87.711782 137.75699 
L 88.638731 133.772651 
L 89.56568 127.892814 
L 90.492628 118.603734 
L 91.419577 115.867531 
L 92.346526 112.026242 
L 93.273475 113.869844 
L 94.200424 109.926251 
L 95.127372 109.539634 
L 96.054321 107.007157 
L 96.98127 99.922247 
L 97.908219 104.500703 
L 98.835168 108.48477 
L 99.762116 117.255105 
L 100.689065 113.524781 
L 102.542963 108.389353 
L 104.39686 100.727252 
L 105.323809 104.071252 
L 106.250758 101.104075 
L 107.177707 95.018568 
L 108.104656 91.996131 
L 109.031604 85.394826 
L 109.958553 81.723626 
L 110.885502 81.398242 
L 111.812451 81.381566 
L 112.739399 81.009857 
L 113.666348 86.878598 
L 114.593297 82.896452 
L 115.520246 87.146821 
L 116.447195 88.321852 
L 117.374143 87.840543 
L 118.301092 88.892315 
L 119.228041 92.088298 
L 120.15499 92.740824 
L 121.081939 92.827348 
L 122.008887 98.983147 
L 122.935836 95.71107 
L 123.862785 101.573957 
L 124.789734 100.774803 
L 126.643631 104.321407 
L 127.57058 102.385125 
L 128.497529 101.104445 
L 129.424478 98.84695 
L 130.351427 103.887993 
L 131.278375 99.906179 
L 132.205324 96.674369 
L 133.132273 92.055871 
L 134.059222 97.058966 
L 134.986171 98.149745 
L 136.840068 105.851989 
L 137.767017 112.337624 
L 138.693966 112.752781 
L 139.620914 112.509035 
L 140.547863 115.785287 
L 141.474812 124.970987 
L 142.401761 123.96453 
L 143.32871 119.597195 
L 144.255658 118.038895 
L 145.182607 117.536399 
L 146.109556 117.303195 
L 147.036505 114.960373 
L 147.963454 114.874532 
L 148.890402 115.531855 
L 149.817351 119.975996 
L 150.7443 112.636446 
L 151.671249 114.409559 
L 152.598198 117.373896 
L 153.525146 113.884822 
L 155.379044 99.146935 
L 156.305993 97.007336 
L 157.232942 104.241538 
L 158.15989 99.853216 
L 159.086839 100.931487 
L 160.013788 101.77585 
L 160.940737 105.373043 
L 161.867686 97.860496 
L 162.794634 97.059747 
L 164.648532 99.401257 
L 165.575481 93.96066 
L 166.50243 86.784075 
L 167.429378 90.281374 
L 168.356327 80.248584 
L 169.283276 82.209115 
L 171.137173 87.71604 
L 172.064122 89.367252 
L 172.991071 90.382731 
L 173.91802 96.406372 
L 174.844969 95.919725 
L 175.771917 94.718276 
L 176.698866 90.00531 
L 177.625815 88.703797 
L 178.552764 89.24178 
L 179.479713 78.973649 
L 180.406661 75.681428 
L 181.33361 69.666941 
L 182.260559 65.952066 
L 183.187508 58.67951 
L 184.114457 60.227675 
L 185.041405 58.841172 
L 186.895303 62.952261 
L 187.822252 58.978685 
L 188.749201 58.859718 
L 189.676149 63.848231 
L 190.603098 68.162509 
L 191.530047 70.412965 
L 192.456996 75.61918 
L 193.383945 75.022924 
L 194.310893 78.625202 
L 195.237842 76.831575 
L 196.164791 74.223295 
L 197.09174 79.243739 
L 198.018688 81.532111 
L 198.945637 74.065479 
L 199.872586 73.453674 
L 200.799535 72.599865 
L 201.726484 69.171997 
L 202.653432 68.32872 
L 203.580381 62.603046 
L 204.50733 62.067513 
L 205.434279 62.674884 
L 206.361228 59.836222 
L 207.288176 60.194631 
L 208.215125 64.573751 
L 209.142074 63.093742 
L 210.069023 60.428422 
L 210.995972 59.283278 
L 211.92292 59.334574 
L 212.849869 59.209807 
L 213.776818 56.166835 
L 214.703767 57.450056 
L 215.630716 50.307977 
L 216.557664 48.64153 
L 217.484613 45.111928 
L 218.411562 46.540455 
L 219.338511 49.45673 
L 220.26546 47.759266 
L 221.192408 46.740317 
L 222.119357 48.429302 
L 223.046306 49.694211 
L 223.973255 48.976147 
L 224.900203 50.752042 
L 225.827152 49.997403 
L 226.754101 51.954003 
L 228.607999 46.574799 
L 229.534947 46.669391 
L 230.461896 47.792726 
L 231.388845 46.213016 
L 233.242743 47.034724 
L 234.169691 47.504827 
L 235.09664 46.324381 
L 236.023589 46.356332 
L 236.950538 47.455405 
L 237.877487 50.059657 
L 238.804435 50.202629 
L 239.731384 51.321233 
L 240.658333 53.381352 
L 241.585282 52.849379 
L 242.512231 51.89322 
L 243.439179 52.292539 
L 244.366128 54.550979 
L 245.293077 53.685643 
L 246.220026 53.885914 
L 247.146975 52.359186 
L 248.073923 52.026808 
L 249.927821 45.693959 
L 250.85477 44.051165 
L 251.781719 40.956285 
L 252.708667 38.674241 
L 253.635616 35.768413 
L 254.562565 34.28563 
L 255.489514 33.48 
L 256.416462 33.878158 
L 258.27036 36.781887 
L 259.197309 40.468591 
L 261.051206 45.562603 
L 261.978155 45.158301 
L 262.905104 47.573267 
L 263.832053 48.661545 
L 265.68595 47.040741 
L 265.68595 47.040741 
" clip-path="url(#p9fe2f5bf4a)" style="fill: none; stroke: #2ca02c; stroke-width: 1.5; stroke-linecap: square"/>
   </g>
   <g id="patch_3">
    <path d="M 72 192.24 
L 72 25.92 
" style="fill: none; stroke: #000000; stroke-width: 0.8; stroke-linejoin: miter; stroke-linecap: square"/>
   </g>
   <g id="patch_4">
    <path d="M 274.909091 192.24 
L 274.909091 25.92 
" style="fill: none; stroke: #000000; stroke-width: 0.8; stroke-linejoin: miter; stroke-linecap: square"/>
   </g>
   <g id="patch_5">
    <path d="M 72 192.24 
L 274.909091 192.24 
" style="fill: none; stroke: #000000; stroke-width: 0.8; stroke-linejoin: miter; stroke-linecap: square"/>
   </g>
   <g id="patch_6">
    <path d="M 72 25.92 
L 274.909091 25.92 
" style="fill: none; stroke: #000000; stroke-width: 0.8; stroke-linejoin: miter; stroke-linecap: square"/>
   </g>
   <g id="text_12">
    <!-- Precision -->
    <g transform="translate(146.686108 19.92) scale(0.12 -0.12)">
     <defs>
      <path id="DejaVuSans-50" d="M 1259 4147 
L 1259 2394 
L 2053 2394 
Q 2494 2394 2734 2622 
Q 2975 2850 2975 3272 
Q 2975 3691 2734 3919 
Q 2494 4147 2053 4147 
L 1259 4147 
z
M 628 4666 
L 2053 4666 
Q 2838 4666 3239 4311 
Q 3641 3956 3641 3272 
Q 3641 2581 3239 2228 
Q 2838 1875 2053 1875 
L 1259 1875 
L 1259 0 
L 628 0 
L 628 4666 
z
" transform="scale(0.015625)"/>
      <path id="DejaVuSans-72" d="M 2631 2963 
Q 2534 3019 2420 3045 
Q 2306 3072 2169 3072 
Q 1681 3072 1420 2755 
Q 1159 2438 1159 1844 
L 1159 0 
L 581 0 
L 581 3500 
L 1159 3500 
L 1159 2956 
Q 1341 3275 1631 3429 
Q 1922 3584 2338 3584 
Q 2397 3584 2469 3576 
Q 2541 3569 2628 3553 
L 2631 2963 
z
" transform="scale(0.015625)"/>
      <path id="DejaVuSans-65" d="M 3597 1894 
L 3597 1613 
L 953 1613 
Q 991 1019 1311 708 
Q 1631 397 2203 397 
Q 2534 397 2845 478 
Q 3156 559 3463 722 
L 3463 178 
Q 3153 47 2828 -22 
Q 2503 -91 2169 -91 
Q 1331 -91 842 396 
Q 353 884 353 1716 
Q 353 2575 817 3079 
Q 1281 3584 2069 3584 
Q 2775 3584 3186 3129 
Q 3597 2675 3597 1894 
z
M 3022 2063 
Q 3016 2534 2758 2815 
Q 2500 3097 2075 3097 
Q 1594 3097 1305 2825 
Q 1016 2553 972 2059 
L 3022 2063 
z
" transform="scale(0.015625)"/>
      <path id="DejaVuSans-69" d="M 603 3500 
L 1178 3500 
L 1178 0 
L 603 0 
L 603 3500 
z
M 603 4863 
L 1178 4863 
L 1178 4134 
L 603 4134 
L 603 4863 
z
" transform="scale(0.015625)"/>
      <path id="DejaVuSans-6e" d="M 3513 2113 
L 3513 0 
L 2938 0 
L 2938 2094 
Q 2938 2591 2744 2837 
Q 2550 3084 2163 3084 
Q 1697 3084 1428 2787 
Q 1159 2491 1159 1978 
L 1159 0 
L 581 0 
L 581 3500 
L 1159 3500 
L 1159 2956 
Q 1366 3272 1645 3428 
Q 1925 3584 2291 3584 
Q 2894 3584 3203 3211 
Q 3513 2838 3513 2113 
z
" transform="scale(0.015625)"/>
     </defs>
     <use xlink:href="#DejaVuSans-50"/>
     <use xlink:href="#DejaVuSans-72" x="58.552734"/>
     <use xlink:href="#DejaVuSans-65" x="97.416016"/>
     <use xlink:href="#DejaVuSans-63" x="158.939453"/>
     <use xlink:href="#DejaVuSans-69" x="213.919922"/>
     <use xlink:href="#DejaVuSans-73" x="241.703125"/>
     <use xlink:href="#DejaVuSans-69" x="293.802734"/>
     <use xlink:href="#DejaVuSans-6f" x="321.585938"/>
     <use xlink:href="#DejaVuSans-6e" x="382.767578"/>
    </g>
   </g>
   <g id="legend_1">
    <g id="patch_7">
     <path d="M 79 77.954375 
L 134.275 77.954375 
Q 136.275 77.954375 136.275 75.954375 
L 136.275 32.92 
Q 136.275 30.92 134.275 30.92 
L 79 30.92 
Q 77 30.92 77 32.92 
L 77 75.954375 
Q 77 77.954375 79 77.954375 
z
" style="fill: #ffffff; opacity: 0.8; stroke: #cccccc; stroke-linejoin: miter"/>
    </g>
    <g id="line2d_14">
     <path d="M 81 39.018438 
L 91 39.018438 
L 101 39.018438 
" style="fill: none; stroke: #1f77b4; stroke-width: 1.5; stroke-linecap: square"/>
    </g>
    <g id="text_13">
     <!-- train -->
     <g transform="translate(109 42.518438) scale(0.1 -0.1)">
      <defs>
       <path id="DejaVuSans-74" d="M 1172 4494 
L 1172 3500 
L 2356 3500 
L 2356 3053 
L 1172 3053 
L 1172 1153 
Q 1172 725 1289 603 
Q 1406 481 1766 481 
L 2356 481 
L 2356 0 
L 1766 0 
Q 1100 0 847 248 
Q 594 497 594 1153 
L 594 3053 
L 172 3053 
L 172 3500 
L 594 3500 
L 594 4494 
L 1172 4494 
z
" transform="scale(0.015625)"/>
       <path id="DejaVuSans-61" d="M 2194 1759 
Q 1497 1759 1228 1600 
Q 959 1441 959 1056 
Q 959 750 1161 570 
Q 1363 391 1709 391 
Q 2188 391 2477 730 
Q 2766 1069 2766 1631 
L 2766 1759 
L 2194 1759 
z
M 3341 1997 
L 3341 0 
L 2766 0 
L 2766 531 
Q 2569 213 2275 61 
Q 1981 -91 1556 -91 
Q 1019 -91 701 211 
Q 384 513 384 1019 
Q 384 1609 779 1909 
Q 1175 2209 1959 2209 
L 2766 2209 
L 2766 2266 
Q 2766 2663 2505 2880 
Q 2244 3097 1772 3097 
Q 1472 3097 1187 3025 
Q 903 2953 641 2809 
L 641 3341 
Q 956 3463 1253 3523 
Q 1550 3584 1831 3584 
Q 2591 3584 2966 3190 
Q 3341 2797 3341 1997 
z
" transform="scale(0.015625)"/>
      </defs>
      <use xlink:href="#DejaVuSans-74"/>
      <use xlink:href="#DejaVuSans-72" x="39.208984"/>
      <use xlink:href="#DejaVuSans-61" x="80.322266"/>
      <use xlink:href="#DejaVuSans-69" x="141.601562"/>
      <use xlink:href="#DejaVuSans-6e" x="169.384766"/>
     </g>
    </g>
    <g id="line2d_15">
     <path d="M 81 53.696562 
L 91 53.696562 
L 101 53.696562 
" style="fill: none; stroke: #ff7f0e; stroke-width: 1.5; stroke-linecap: square"/>
    </g>
    <g id="text_14">
     <!-- eval -->
     <g transform="translate(109 57.196562) scale(0.1 -0.1)">
      <defs>
       <path id="DejaVuSans-76" d="M 191 3500 
L 800 3500 
L 1894 563 
L 2988 3500 
L 3597 3500 
L 2284 0 
L 1503 0 
L 191 3500 
z
" transform="scale(0.015625)"/>
       <path id="DejaVuSans-6c" d="M 603 4863 
L 1178 4863 
L 1178 0 
L 603 0 
L 603 4863 
z
" transform="scale(0.015625)"/>
      </defs>
      <use xlink:href="#DejaVuSans-65"/>
      <use xlink:href="#DejaVuSans-76" x="61.523438"/>
      <use xlink:href="#DejaVuSans-61" x="120.703125"/>
      <use xlink:href="#DejaVuSans-6c" x="181.982422"/>
     </g>
    </g>
    <g id="line2d_16">
     <path d="M 81 68.374687 
L 91 68.374687 
L 101 68.374687 
" style="fill: none; stroke: #2ca02c; stroke-width: 1.5; stroke-linecap: square"/>
    </g>
    <g id="text_15">
     <!-- test -->
     <g transform="translate(109 71.874687) scale(0.1 -0.1)">
      <use xlink:href="#DejaVuSans-74"/>
      <use xlink:href="#DejaVuSans-65" x="39.208984"/>
      <use xlink:href="#DejaVuSans-73" x="100.732422"/>
      <use xlink:href="#DejaVuSans-74" x="152.832031"/>
     </g>
    </g>
   </g>
  </g>
  <g id="axes_2">
   <g id="patch_8">
    <path d="M 315.490909 192.24 
L 518.4 192.24 
L 518.4 25.92 
L 315.490909 25.92 
z
" style="fill: #ffffff"/>
   </g>
   <g id="matplotlib.axis_3">
    <g id="xtick_6">
     <g id="line2d_17">
      <g>
       <use xlink:href="#m88f1fc163b" x="323.787101" y="192.24" style="stroke: #000000; stroke-width: 0.8"/>
      </g>
     </g>
     <g id="text_16">
      <!-- 0 -->
      <g transform="translate(320.605851 206.838437) scale(0.1 -0.1)">
       <use xlink:href="#DejaVuSans-30"/>
      </g>
     </g>
    </g>
    <g id="xtick_7">
     <g id="line2d_18">
      <g>
       <use xlink:href="#m88f1fc163b" x="370.13454" y="192.24" style="stroke: #000000; stroke-width: 0.8"/>
      </g>
     </g>
     <g id="text_17">
      <!-- 50 -->
      <g transform="translate(363.77204 206.838437) scale(0.1 -0.1)">
       <use xlink:href="#DejaVuSans-35"/>
       <use xlink:href="#DejaVuSans-30" x="63.623047"/>
      </g>
     </g>
    </g>
    <g id="xtick_8">
     <g id="line2d_19">
      <g>
       <use xlink:href="#m88f1fc163b" x="416.48198" y="192.24" style="stroke: #000000; stroke-width: 0.8"/>
      </g>
     </g>
     <g id="text_18">
      <!-- 100 -->
      <g transform="translate(406.93823 206.838437) scale(0.1 -0.1)">
       <use xlink:href="#DejaVuSans-31"/>
       <use xlink:href="#DejaVuSans-30" x="63.623047"/>
       <use xlink:href="#DejaVuSans-30" x="127.246094"/>
      </g>
     </g>
    </g>
    <g id="xtick_9">
     <g id="line2d_20">
      <g>
       <use xlink:href="#m88f1fc163b" x="462.82942" y="192.24" style="stroke: #000000; stroke-width: 0.8"/>
      </g>
     </g>
     <g id="text_19">
      <!-- 150 -->
      <g transform="translate(453.28567 206.838437) scale(0.1 -0.1)">
       <use xlink:href="#DejaVuSans-31"/>
       <use xlink:href="#DejaVuSans-35" x="63.623047"/>
       <use xlink:href="#DejaVuSans-30" x="127.246094"/>
      </g>
     </g>
    </g>
    <g id="xtick_10">
     <g id="line2d_21">
      <g>
       <use xlink:href="#m88f1fc163b" x="509.17686" y="192.24" style="stroke: #000000; stroke-width: 0.8"/>
      </g>
     </g>
     <g id="text_20">
      <!-- 200 -->
      <g transform="translate(499.63311 206.838437) scale(0.1 -0.1)">
       <use xlink:href="#DejaVuSans-32"/>
       <use xlink:href="#DejaVuSans-30" x="63.623047"/>
       <use xlink:href="#DejaVuSans-30" x="127.246094"/>
      </g>
     </g>
    </g>
    <g id="text_21">
     <!-- Epochs -->
     <g transform="translate(399.02983 220.516562) scale(0.1 -0.1)">
      <use xlink:href="#DejaVuSans-45"/>
      <use xlink:href="#DejaVuSans-70" x="63.183594"/>
      <use xlink:href="#DejaVuSans-6f" x="126.660156"/>
      <use xlink:href="#DejaVuSans-63" x="187.841797"/>
      <use xlink:href="#DejaVuSans-68" x="242.822266"/>
      <use xlink:href="#DejaVuSans-73" x="306.201172"/>
     </g>
    </g>
   </g>
   <g id="matplotlib.axis_4">
    <g id="ytick_6">
     <g id="line2d_22">
      <g>
       <use xlink:href="#m415a20302d" x="315.490909" y="186.819767" style="stroke: #000000; stroke-width: 0.8"/>
      </g>
     </g>
     <g id="text_22">
      <!-- 0.60 -->
      <g transform="translate(286.225284 190.618985) scale(0.1 -0.1)">
       <use xlink:href="#DejaVuSans-30"/>
       <use xlink:href="#DejaVuSans-2e" x="63.623047"/>
       <use xlink:href="#DejaVuSans-36" x="95.410156"/>
       <use xlink:href="#DejaVuSans-30" x="159.033203"/>
      </g>
     </g>
    </g>
    <g id="ytick_7">
     <g id="line2d_23">
      <g>
       <use xlink:href="#m415a20302d" x="315.490909" y="145.522271" style="stroke: #000000; stroke-width: 0.8"/>
      </g>
     </g>
     <g id="text_23">
      <!-- 0.62 -->
      <g transform="translate(286.225284 149.321489) scale(0.1 -0.1)">
       <use xlink:href="#DejaVuSans-30"/>
       <use xlink:href="#DejaVuSans-2e" x="63.623047"/>
       <use xlink:href="#DejaVuSans-36" x="95.410156"/>
       <use xlink:href="#DejaVuSans-32" x="159.033203"/>
      </g>
     </g>
    </g>
    <g id="ytick_8">
     <g id="line2d_24">
      <g>
       <use xlink:href="#m415a20302d" x="315.490909" y="104.224775" style="stroke: #000000; stroke-width: 0.8"/>
      </g>
     </g>
     <g id="text_24">
      <!-- 0.64 -->
      <g transform="translate(286.225284 108.023994) scale(0.1 -0.1)">
       <use xlink:href="#DejaVuSans-30"/>
       <use xlink:href="#DejaVuSans-2e" x="63.623047"/>
       <use xlink:href="#DejaVuSans-36" x="95.410156"/>
       <use xlink:href="#DejaVuSans-34" x="159.033203"/>
      </g>
     </g>
    </g>
    <g id="ytick_9">
     <g id="line2d_25">
      <g>
       <use xlink:href="#m415a20302d" x="315.490909" y="62.927279" style="stroke: #000000; stroke-width: 0.8"/>
      </g>
     </g>
     <g id="text_25">
      <!-- 0.66 -->
      <g transform="translate(286.225284 66.726498) scale(0.1 -0.1)">
       <use xlink:href="#DejaVuSans-30"/>
       <use xlink:href="#DejaVuSans-2e" x="63.623047"/>
       <use xlink:href="#DejaVuSans-36" x="95.410156"/>
       <use xlink:href="#DejaVuSans-36" x="159.033203"/>
      </g>
     </g>
    </g>
   </g>
   <g id="line2d_26">
    <path d="M 324.71405 146.577105 
L 325.640998 126.708646 
L 326.567947 128.394455 
L 327.494896 121.289975 
L 328.421845 127.214389 
L 329.348794 125.083045 
L 330.275742 125.470093 
L 331.202691 127.973002 
L 332.12964 123.738412 
L 333.056589 120.386863 
L 333.983538 114.028956 
L 334.910486 114.534699 
L 335.837435 113.739961 
L 336.764384 117.822026 
L 337.691333 116.702167 
L 338.618281 119.917245 
L 340.472179 114.354077 
L 341.399128 114.823695 
L 342.326077 116.48542 
L 343.253025 119.95337 
L 344.179974 117.85815 
L 345.106923 113.450965 
L 346.033872 107.526552 
L 346.960821 100.699026 
L 347.887769 95.099733 
L 348.814718 91.776282 
L 349.741667 88.994698 
L 350.668616 87.224598 
L 351.595565 85.129379 
L 352.522513 79.674584 
L 353.449462 77.615489 
L 354.376411 77.254244 
L 355.30336 74.942278 
L 356.230309 73.208304 
L 357.157257 70.571217 
L 358.084206 70.209972 
L 359.011155 66.778148 
L 360.865053 61.46785 
L 361.792001 61.79297 
L 362.71895 60.673112 
L 363.645899 58.180523 
L 364.572848 57.277412 
L 365.499797 57.674781 
L 366.426745 57.494158 
L 367.353694 57.096789 
L 368.280643 57.132914 
L 369.207592 57.855403 
L 370.13454 57.566407 
L 371.061489 57.783154 
L 371.988438 57.855403 
L 372.915387 60.962108 
L 374.769284 64.755177 
L 375.696233 64.719053 
L 376.623182 65.622164 
L 377.550131 65.766662 
L 378.47708 66.055658 
L 379.404028 68.259251 
L 380.330977 68.801118 
L 381.257926 70.824088 
L 382.184875 75.917639 
L 383.111824 76.784626 
L 384.038772 76.820751 
L 384.965721 78.554725 
L 385.89267 78.410227 
L 386.819619 81.119563 
L 387.746568 80.686069 
L 388.673516 83.395404 
L 389.600465 83.03416 
L 390.527414 84.768134 
L 391.454363 81.805928 
L 392.381312 84.226267 
L 393.30826 88.236084 
L 394.235209 90.259054 
L 395.162158 95.497102 
L 396.089107 93.076763 
L 397.016055 95.063609 
L 397.943004 93.004514 
L 398.869953 92.101402 
L 399.796902 92.282025 
L 401.650799 88.488955 
L 402.577748 81.589181 
L 404.431646 71.546578 
L 405.358595 76.856875 
L 406.285543 78.337978 
L 407.212492 78.410227 
L 408.139441 80.541571 
L 409.06639 76.387257 
L 409.993339 75.809265 
L 410.920287 75.664768 
L 411.847236 77.470991 
L 412.774185 78.229605 
L 413.701134 79.493962 
L 414.628083 77.54324 
L 415.555031 75.050652 
L 416.48198 73.605673 
L 417.408929 72.44969 
L 418.335878 73.027681 
L 419.262827 69.487483 
L 421.116724 64.53843 
L 422.043673 62.804456 
L 422.970622 59.047511 
L 423.89757 52.90635 
L 424.824519 49.763521 
L 425.751468 49.402277 
L 427.605366 44.489349 
L 428.532314 44.453224 
L 429.459263 45.681456 
L 430.386212 45.898203 
L 431.313161 48.426916 
L 432.24011 49.727397 
L 434.094007 53.267595 
L 435.020956 50.847256 
L 435.947905 52.508981 
L 436.874854 54.857072 
L 437.801802 54.712574 
L 438.728751 50.594384 
L 439.6557 49.822411 
L 440.582649 49.341774 
L 441.509598 49.981154 
L 442.436546 51.126213 
L 444.290444 55.368254 
L 446.144342 49.272308 
L 447.07129 48.970396 
L 447.998239 53.476075 
L 448.925188 54.452289 
L 449.852137 51.234397 
L 452.632983 45.521733 
L 453.559932 43.280055 
L 454.486881 45.774826 
L 455.413829 47.546475 
L 456.340778 48.197284 
L 457.267727 45.847138 
L 458.194676 47.329538 
L 459.121625 47.944192 
L 460.048573 47.040289 
L 460.975522 46.895665 
L 461.902471 46.57026 
L 462.82942 46.678728 
L 463.756369 46.581532 
L 464.683317 45.762795 
L 465.610266 44.438537 
L 467.464164 39.259757 
L 468.391113 40.103916 
L 469.318061 39.864341 
L 470.24501 38.937705 
L 471.171959 37.757692 
L 472.098908 35.949887 
L 473.025857 33.48 
L 473.952805 33.90102 
L 474.879754 34.791405 
L 476.733652 38.415472 
L 477.660601 38.475216 
L 478.587549 38.714791 
L 479.514498 39.786051 
L 480.441447 40.17063 
L 481.368396 40.929908 
L 482.295344 41.110689 
L 483.222293 40.423723 
L 484.149242 39.881382 
L 485.076191 39.700601 
L 486.00314 38.290513 
L 486.930088 37.495079 
L 487.857037 37.85664 
L 488.783986 37.169674 
L 489.710935 37.241986 
L 491.564832 38.50745 
L 492.491781 38.579762 
L 493.41873 39.049791 
L 494.345679 38.218201 
L 495.272628 39.411352 
L 496.199576 39.953694 
L 497.126525 40.134474 
L 498.980423 39.085947 
L 499.907372 38.760543 
L 500.83432 37.892796 
L 501.761269 37.278143 
L 502.688218 37.314299 
L 503.615167 38.073577 
L 504.542116 38.254357 
L 506.396013 37.097362 
L 508.249911 37.639703 
L 509.17686 37.712016 
L 509.17686 37.712016 
" clip-path="url(#p5589fdb844)" style="fill: none; stroke: #1f77b4; stroke-width: 1.5; stroke-linecap: square"/>
   </g>
   <g id="line2d_27">
    <path d="M 324.71405 184.68 
L 325.640998 153.920855 
L 326.567947 151.691931 
L 327.494896 159.938948 
L 328.421845 162.747392 
L 329.348794 152.137716 
L 330.275742 154.876108 
L 331.202691 155.258209 
L 332.12964 149.908792 
L 333.056589 147.234084 
L 333.983538 139.744901 
L 334.910486 139.47743 
L 335.837435 142.68708 
L 336.764384 142.954551 
L 337.691333 143.756963 
L 338.618281 155.52568 
L 339.54523 152.048559 
L 340.472179 153.653384 
L 341.399128 157.397976 
L 342.326077 158.200388 
L 343.253025 163.014863 
L 344.179974 164.084746 
L 345.106923 157.130505 
L 346.033872 152.583501 
L 346.960821 143.756963 
L 347.887769 139.744901 
L 348.814718 137.337663 
L 349.741667 133.593072 
L 350.668616 128.511126 
L 351.595565 128.511126 
L 352.522513 125.034005 
L 353.449462 124.231593 
L 354.376411 127.173772 
L 355.30336 121.556884 
L 356.230309 121.556884 
L 357.157257 112.997818 
L 358.084206 111.660464 
L 359.011155 107.648401 
L 359.938104 106.311047 
L 360.865053 99.089335 
L 361.792001 95.879685 
L 362.71895 92.135093 
L 363.645899 84.913381 
L 364.572848 84.110969 
L 365.499797 83.041085 
L 366.426745 82.238673 
L 368.280643 79.029023 
L 369.207592 80.098906 
L 371.061489 88.390502 
L 371.988438 88.657973 
L 373.842336 95.077272 
L 374.769284 99.356806 
L 375.696233 100.961631 
L 376.623182 101.764043 
L 377.550131 105.508635 
L 378.47708 106.578518 
L 379.404028 109.788168 
L 380.330977 111.927935 
L 381.257926 118.347235 
L 382.184875 129.313539 
L 383.111824 129.046068 
L 384.038772 129.581009 
L 384.965721 134.395484 
L 385.89267 134.662955 
L 386.819619 135.197897 
L 387.746568 133.860543 
L 388.673516 139.744901 
L 389.600465 134.930426 
L 390.527414 132.523188 
L 391.454363 127.173772 
L 392.381312 130.650893 
L 393.30826 136.26778 
L 394.235209 136.000309 
L 395.162158 144.024434 
L 396.089107 142.419609 
L 397.016055 142.68708 
L 397.943004 135.197897 
L 398.869953 132.523188 
L 399.796902 139.47743 
L 400.723851 137.605134 
L 401.650799 136.802722 
L 402.577748 128.511126 
L 403.504697 126.371359 
L 404.431646 118.882176 
L 405.358595 124.499064 
L 406.285543 128.778597 
L 407.212492 132.523188 
L 408.139441 132.523188 
L 409.06639 121.289414 
L 409.993339 120.754472 
L 410.920287 122.626768 
L 411.847236 121.824355 
L 412.774185 119.684589 
L 413.701134 116.474939 
L 414.628083 114.602643 
L 415.555031 109.788168 
L 416.48198 106.578518 
L 417.408929 110.590581 
L 418.335878 111.927935 
L 420.189775 100.961631 
L 421.116724 98.821864 
L 422.043673 96.147156 
L 422.970622 101.229102 
L 423.89757 93.472448 
L 424.824519 89.995327 
L 426.678417 82.238673 
L 427.605366 82.773614 
L 428.532314 85.180852 
L 429.459263 84.64591 
L 430.386212 83.843498 
L 431.313161 89.192914 
L 432.24011 87.85556 
L 433.167058 92.135093 
L 434.094007 95.612214 
L 435.020956 94.542331 
L 435.947905 93.204977 
L 436.874854 91.332681 
L 437.801802 89.727856 
L 438.728751 84.110969 
L 439.6557 85.191982 
L 440.582649 80.389681 
L 441.509598 80.142731 
L 442.436546 81.508954 
L 443.363495 84.476871 
L 444.290444 89.855157 
L 445.217393 89.863156 
L 446.144342 88.80336 
L 447.07129 89.890634 
L 447.998239 100.626683 
L 448.925188 103.043312 
L 449.852137 101.163712 
L 450.779086 98.478569 
L 451.706034 96.867484 
L 452.632983 94.450855 
L 453.559932 91.497198 
L 454.486881 96.330455 
L 455.413829 99.821141 
L 456.340778 99.552626 
L 457.267727 96.061941 
L 458.194676 97.135998 
L 460.048573 96.598969 
L 460.975522 94.987884 
L 461.902471 94.987884 
L 463.756369 92.281176 
L 464.683317 90.6527 
L 465.610266 90.101411 
L 466.537215 87.937993 
L 467.464164 86.843414 
L 468.391113 90.316709 
L 469.318061 92.179962 
L 470.24501 92.431085 
L 471.171959 91.625542 
L 472.098908 91.088514 
L 473.025857 90.036021 
L 473.952805 90.321926 
L 474.879754 89.26213 
L 475.806703 89.008919 
L 476.733652 89.834983 
L 477.660601 90.926431 
L 478.587549 91.211293 
L 479.514498 90.691655 
L 480.441447 91.228684 
L 481.368396 92.034227 
L 482.295344 91.497198 
L 483.222293 90.691655 
L 484.149242 92.571255 
L 485.076191 93.376798 
L 486.00314 91.765712 
L 486.930088 91.765712 
L 487.857037 92.839769 
L 488.783986 92.571255 
L 489.710935 93.913827 
L 490.637884 96.330455 
L 491.564832 97.673026 
L 492.491781 97.404512 
L 493.41873 97.673026 
L 494.345679 98.210055 
L 495.272628 97.941541 
L 496.199576 97.135998 
L 497.126525 96.598969 
L 498.053474 97.135998 
L 498.980423 95.793426 
L 499.907372 94.719369 
L 500.83432 94.450855 
L 501.761269 95.793426 
L 502.688218 96.061941 
L 503.615167 94.987884 
L 504.542116 96.867484 
L 505.469064 97.135998 
L 506.396013 96.598969 
L 508.249911 99.284112 
L 509.17686 99.821141 
L 509.17686 99.821141 
" clip-path="url(#p5589fdb844)" style="fill: none; stroke: #ff7f0e; stroke-width: 1.5; stroke-linecap: square"/>
   </g>
   <g id="line2d_28">
    <path d="M 324.71405 138.733641 
L 325.640998 123.176365 
L 326.567947 149.105158 
L 327.494896 140.147939 
L 328.421845 152.3109 
L 329.348794 153.348052 
L 330.275742 158.937896 
L 331.202691 159.948108 
L 332.12964 154.448061 
L 333.056589 150.896602 
L 333.983538 150.330883 
L 334.910486 156.836653 
L 335.837435 152.876619 
L 336.764384 162.493844 
L 337.691333 158.250951 
L 338.618281 161.079547 
L 339.54523 155.422355 
L 340.472179 156.836653 
L 342.326077 165.03958 
L 343.253025 172.111069 
L 344.179974 170.696772 
L 345.106923 168.433895 
L 346.033872 160.796687 
L 347.887769 153.159479 
L 348.814718 150.330883 
L 349.741667 142.410816 
L 350.668616 140.147939 
L 351.595565 135.056467 
L 352.522513 126.287821 
L 353.449462 121.479208 
L 354.376411 120.913489 
L 355.30336 118.367753 
L 356.230309 116.387736 
L 357.157257 118.084893 
L 358.084206 118.650612 
L 359.011155 120.913489 
L 359.938104 120.34777 
L 361.792001 125.156382 
L 362.71895 125.722101 
L 363.645899 124.024944 
L 364.572848 124.024944 
L 365.499797 126.004961 
L 366.426745 121.196348 
L 367.353694 121.479208 
L 368.280643 119.782051 
L 369.207592 118.933472 
L 370.13454 118.367753 
L 371.061489 118.933472 
L 371.988438 121.762068 
L 374.769284 128.833557 
L 375.696233 129.399276 
L 376.623182 125.156382 
L 377.550131 128.267837 
L 379.404028 131.096433 
L 380.330977 129.116416 
L 381.257926 128.550697 
L 382.184875 129.399276 
L 383.111824 128.267837 
L 384.038772 126.004961 
L 384.965721 128.833557 
L 385.89267 133.642169 
L 386.819619 133.642169 
L 387.746568 132.79359 
L 388.673516 134.490748 
L 389.600465 134.207888 
L 390.527414 135.339327 
L 391.454363 135.339327 
L 392.381312 138.450782 
L 393.30826 144.107973 
L 394.235209 144.673692 
L 395.162158 152.028041 
L 396.089107 151.745181 
L 397.016055 152.3109 
L 398.869953 148.916585 
L 399.796902 146.936569 
L 400.723851 145.239411 
L 401.650799 142.976535 
L 402.577748 134.773607 
L 403.504697 127.702118 
L 404.431646 116.953455 
L 405.358595 118.650612 
L 406.285543 118.933472 
L 407.212492 114.973438 
L 408.139441 118.933472 
L 409.993339 114.973438 
L 410.920287 113.842 
L 411.847236 115.539157 
L 412.774185 116.387736 
L 413.701134 120.913489 
L 414.628083 120.630629 
L 415.555031 120.913489 
L 416.48198 121.762068 
L 417.408929 118.933472 
L 418.335878 119.499191 
L 419.262827 116.670595 
L 420.189775 114.690579 
L 421.116724 113.55914 
L 422.043673 114.124859 
L 422.970622 110.730545 
L 423.89757 105.639073 
L 425.751468 100.264741 
L 426.678417 99.981881 
L 427.605366 97.436145 
L 428.532314 100.264741 
L 429.459263 105.356213 
L 430.386212 103.941915 
L 433.167058 111.296264 
L 434.094007 109.599106 
L 435.020956 109.316247 
L 435.947905 110.730545 
L 436.874854 112.427702 
L 437.801802 108.750528 
L 438.728751 100.83046 
L 439.6557 98.866071 
L 441.509598 91.573451 
L 442.436546 88.783925 
L 443.363495 92.523609 
L 444.290444 95.117791 
L 445.217393 91.189794 
L 446.144342 88.671406 
L 447.07129 89.832537 
L 448.925188 95.269379 
L 449.852137 96.12499 
L 450.779086 98.691823 
L 451.706034 99.26223 
L 452.632983 97.265805 
L 453.559932 96.12499 
L 454.486881 97.836212 
L 455.413829 98.691823 
L 456.340778 99.26223 
L 458.194676 97.551008 
L 459.121625 96.410193 
L 460.048573 93.272953 
L 460.975522 91.276527 
L 461.902471 89.850508 
L 462.82942 90.377158 
L 463.756369 90.048197 
L 464.683317 91.145255 
L 465.610266 91.393734 
L 466.537215 91.076494 
L 467.464164 92.461099 
L 468.391113 93.562845 
L 469.318061 95.234998 
L 470.24501 95.490509 
L 471.171959 95.490509 
L 472.098908 93.252637 
L 473.025857 92.155579 
L 473.952805 90.773318 
L 474.879754 90.239636 
L 475.806703 90.84208 
L 476.733652 89.742678 
L 477.660601 90.352154 
L 478.587549 88.680001 
L 479.514498 88.994897 
L 480.441447 89.565305 
L 481.368396 90.991323 
L 482.295344 90.135712 
L 483.222293 88.994897 
L 484.149242 89.850508 
L 485.076191 89.565305 
L 486.00314 90.991323 
L 486.930088 90.135712 
L 487.857037 90.991323 
L 488.783986 90.135712 
L 489.710935 89.850508 
L 490.637884 89.280101 
L 492.491781 90.991323 
L 493.41873 89.850508 
L 494.345679 89.280101 
L 495.272628 87.283675 
L 496.199576 86.713268 
L 497.126525 85.572453 
L 498.053474 85.572453 
L 498.980423 83.290823 
L 499.907372 82.720416 
L 500.83432 81.009194 
L 501.761269 80.72399 
L 503.615167 79.012768 
L 504.542116 80.153582 
L 505.469064 79.012768 
L 506.396013 79.012768 
L 507.322962 79.583175 
L 508.249911 80.438786 
L 509.17686 80.153582 
L 509.17686 80.153582 
" clip-path="url(#p5589fdb844)" style="fill: none; stroke: #2ca02c; stroke-width: 1.5; stroke-linecap: square"/>
   </g>
   <g id="patch_9">
    <path d="M 315.490909 192.24 
L 315.490909 25.92 
" style="fill: none; stroke: #000000; stroke-width: 0.8; stroke-linejoin: miter; stroke-linecap: square"/>
   </g>
   <g id="patch_10">
    <path d="M 518.4 192.24 
L 518.4 25.92 
" style="fill: none; stroke: #000000; stroke-width: 0.8; stroke-linejoin: miter; stroke-linecap: square"/>
   </g>
   <g id="patch_11">
    <path d="M 315.490909 192.24 
L 518.4 192.24 
" style="fill: none; stroke: #000000; stroke-width: 0.8; stroke-linejoin: miter; stroke-linecap: square"/>
   </g>
   <g id="patch_12">
    <path d="M 315.490909 25.92 
L 518.4 25.92 
" style="fill: none; stroke: #000000; stroke-width: 0.8; stroke-linejoin: miter; stroke-linecap: square"/>
   </g>
   <g id="text_26">
    <!-- Recall -->
    <g transform="translate(399.04483 19.92) scale(0.12 -0.12)">
     <defs>
      <path id="DejaVuSans-52" d="M 2841 2188 
Q 3044 2119 3236 1894 
Q 3428 1669 3622 1275 
L 4263 0 
L 3584 0 
L 2988 1197 
Q 2756 1666 2539 1819 
Q 2322 1972 1947 1972 
L 1259 1972 
L 1259 0 
L 628 0 
L 628 4666 
L 2053 4666 
Q 2853 4666 3247 4331 
Q 3641 3997 3641 3322 
Q 3641 2881 3436 2590 
Q 3231 2300 2841 2188 
z
M 1259 4147 
L 1259 2491 
L 2053 2491 
Q 2509 2491 2742 2702 
Q 2975 2913 2975 3322 
Q 2975 3731 2742 3939 
Q 2509 4147 2053 4147 
L 1259 4147 
z
" transform="scale(0.015625)"/>
     </defs>
     <use xlink:href="#DejaVuSans-52"/>
     <use xlink:href="#DejaVuSans-65" x="64.982422"/>
     <use xlink:href="#DejaVuSans-63" x="126.505859"/>
     <use xlink:href="#DejaVuSans-61" x="181.486328"/>
     <use xlink:href="#DejaVuSans-6c" x="242.765625"/>
     <use xlink:href="#DejaVuSans-6c" x="270.548828"/>
    </g>
   </g>
   <g id="legend_2">
    <g id="patch_13">
     <path d="M 456.125 187.24 
L 511.4 187.24 
Q 513.4 187.24 513.4 185.24 
L 513.4 142.205625 
Q 513.4 140.205625 511.4 140.205625 
L 456.125 140.205625 
Q 454.125 140.205625 454.125 142.205625 
L 454.125 185.24 
Q 454.125 187.24 456.125 187.24 
z
" style="fill: #ffffff; opacity: 0.8; stroke: #cccccc; stroke-linejoin: miter"/>
    </g>
    <g id="line2d_29">
     <path d="M 458.125 148.304062 
L 468.125 148.304062 
L 478.125 148.304062 
" style="fill: none; stroke: #1f77b4; stroke-width: 1.5; stroke-linecap: square"/>
    </g>
    <g id="text_27">
     <!-- train -->
     <g transform="translate(486.125 151.804062) scale(0.1 -0.1)">
      <use xlink:href="#DejaVuSans-74"/>
      <use xlink:href="#DejaVuSans-72" x="39.208984"/>
      <use xlink:href="#DejaVuSans-61" x="80.322266"/>
      <use xlink:href="#DejaVuSans-69" x="141.601562"/>
      <use xlink:href="#DejaVuSans-6e" x="169.384766"/>
     </g>
    </g>
    <g id="line2d_30">
     <path d="M 458.125 162.982188 
L 468.125 162.982188 
L 478.125 162.982188 
" style="fill: none; stroke: #ff7f0e; stroke-width: 1.5; stroke-linecap: square"/>
    </g>
    <g id="text_28">
     <!-- eval -->
     <g transform="translate(486.125 166.482188) scale(0.1 -0.1)">
      <use xlink:href="#DejaVuSans-65"/>
      <use xlink:href="#DejaVuSans-76" x="61.523438"/>
      <use xlink:href="#DejaVuSans-61" x="120.703125"/>
      <use xlink:href="#DejaVuSans-6c" x="181.982422"/>
     </g>
    </g>
    <g id="line2d_31">
     <path d="M 458.125 177.660313 
L 468.125 177.660313 
L 478.125 177.660313 
" style="fill: none; stroke: #2ca02c; stroke-width: 1.5; stroke-linecap: square"/>
    </g>
    <g id="text_29">
     <!-- test -->
     <g transform="translate(486.125 181.160313) scale(0.1 -0.1)">
      <use xlink:href="#DejaVuSans-74"/>
      <use xlink:href="#DejaVuSans-65" x="39.208984"/>
      <use xlink:href="#DejaVuSans-73" x="100.732422"/>
      <use xlink:href="#DejaVuSans-74" x="152.832031"/>
     </g>
    </g>
   </g>
  </g>
 </g>
 <defs>
  <clipPath id="p9fe2f5bf4a">
   <rect x="72" y="25.92" width="202.909091" height="166.32"/>
  </clipPath>
  <clipPath id="p5589fdb844">
   <rect x="315.490909" y="25.92" width="202.909091" height="166.32"/>
  </clipPath>
 </defs>
</svg>
