<?xml version="1.0" encoding="utf-8" standalone="no"?>
<!DOCTYPE svg PUBLIC "-//W3C//DTD SVG 1.1//EN"
  "http://www.w3.org/Graphics/SVG/1.1/DTD/svg11.dtd">
<svg xmlns:xlink="http://www.w3.org/1999/xlink" width="576pt" height="216pt" viewBox="0 0 576 216" xmlns="http://www.w3.org/2000/svg" version="1.1">
 <metadata>
  <rdf:RDF xmlns:dc="http://purl.org/dc/elements/1.1/" xmlns:cc="http://creativecommons.org/ns#" xmlns:rdf="http://www.w3.org/1999/02/22-rdf-syntax-ns#">
   <cc:Work>
    <dc:type rdf:resource="http://purl.org/dc/dcmitype/StillImage"/>
    <dc:date>2024-02-01T19:04:35.499626</dc:date>
    <dc:format>image/svg+xml</dc:format>
    <dc:creator>
     <cc:Agent>
      <dc:title>Matplotlib v3.7.4, https://matplotlib.org/</dc:title>
     </cc:Agent>
    </dc:creator>
   </cc:Work>
  </rdf:RDF>
 </metadata>
 <defs>
  <style type="text/css">*{stroke-linejoin: round; stroke-linecap: butt}</style>
 </defs>
 <g id="figure_1">
  <g id="patch_1">
   <path d="M 0 216 
L 576 216 
L 576 0 
L 0 0 
z
" style="fill: #ffffff"/>
  </g>
  <g id="axes_1">
   <g id="patch_2">
    <path d="M 72 192.24 
L 274.909091 192.24 
L 274.909091 25.92 
L 72 25.92 
z
" style="fill: #ffffff"/>
   </g>
   <g id="matplotlib.axis_1">
    <g id="xtick_1">
     <g id="line2d_1">
      <defs>
       <path id="mee83d9a2ec" d="M 0 0 
L 0 3.5 
" style="stroke: #000000; stroke-width: 0.8"/>
      </defs>
      <g>
       <use xlink:href="#mee83d9a2ec" x="80.296192" y="192.24" style="stroke: #000000; stroke-width: 0.8"/>
      </g>
     </g>
     <g id="text_1">
      <!-- 0 -->
      <g transform="translate(77.114942 206.838437) scale(0.1 -0.1)">
       <defs>
        <path id="DejaVuSans-30" d="M 2034 4250 
Q 1547 4250 1301 3770 
Q 1056 3291 1056 2328 
Q 1056 1369 1301 889 
Q 1547 409 2034 409 
Q 2525 409 2770 889 
Q 3016 1369 3016 2328 
Q 3016 3291 2770 3770 
Q 2525 4250 2034 4250 
z
M 2034 4750 
Q 2819 4750 3233 4129 
Q 3647 3509 3647 2328 
Q 3647 1150 3233 529 
Q 2819 -91 2034 -91 
Q 1250 -91 836 529 
Q 422 1150 422 2328 
Q 422 3509 836 4129 
Q 1250 4750 2034 4750 
z
" transform="scale(0.015625)"/>
       </defs>
       <use xlink:href="#DejaVuSans-30"/>
      </g>
     </g>
    </g>
    <g id="xtick_2">
     <g id="line2d_2">
      <g>
       <use xlink:href="#mee83d9a2ec" x="126.643631" y="192.24" style="stroke: #000000; stroke-width: 0.8"/>
      </g>
     </g>
     <g id="text_2">
      <!-- 50 -->
      <g transform="translate(120.281131 206.838437) scale(0.1 -0.1)">
       <defs>
        <path id="DejaVuSans-35" d="M 691 4666 
L 3169 4666 
L 3169 4134 
L 1269 4134 
L 1269 2991 
Q 1406 3038 1543 3061 
Q 1681 3084 1819 3084 
Q 2600 3084 3056 2656 
Q 3513 2228 3513 1497 
Q 3513 744 3044 326 
Q 2575 -91 1722 -91 
Q 1428 -91 1123 -41 
Q 819 9 494 109 
L 494 744 
Q 775 591 1075 516 
Q 1375 441 1709 441 
Q 2250 441 2565 725 
Q 2881 1009 2881 1497 
Q 2881 1984 2565 2268 
Q 2250 2553 1709 2553 
Q 1456 2553 1204 2497 
Q 953 2441 691 2322 
L 691 4666 
z
" transform="scale(0.015625)"/>
       </defs>
       <use xlink:href="#DejaVuSans-35"/>
       <use xlink:href="#DejaVuSans-30" x="63.623047"/>
      </g>
     </g>
    </g>
    <g id="xtick_3">
     <g id="line2d_3">
      <g>
       <use xlink:href="#mee83d9a2ec" x="172.991071" y="192.24" style="stroke: #000000; stroke-width: 0.8"/>
      </g>
     </g>
     <g id="text_3">
      <!-- 100 -->
      <g transform="translate(163.447321 206.838437) scale(0.1 -0.1)">
       <defs>
        <path id="DejaVuSans-31" d="M 794 531 
L 1825 531 
L 1825 4091 
L 703 3866 
L 703 4441 
L 1819 4666 
L 2450 4666 
L 2450 531 
L 3481 531 
L 3481 0 
L 794 0 
L 794 531 
z
" transform="scale(0.015625)"/>
       </defs>
       <use xlink:href="#DejaVuSans-31"/>
       <use xlink:href="#DejaVuSans-30" x="63.623047"/>
       <use xlink:href="#DejaVuSans-30" x="127.246094"/>
      </g>
     </g>
    </g>
    <g id="xtick_4">
     <g id="line2d_4">
      <g>
       <use xlink:href="#mee83d9a2ec" x="219.338511" y="192.24" style="stroke: #000000; stroke-width: 0.8"/>
      </g>
     </g>
     <g id="text_4">
      <!-- 150 -->
      <g transform="translate(209.794761 206.838437) scale(0.1 -0.1)">
       <use xlink:href="#DejaVuSans-31"/>
       <use xlink:href="#DejaVuSans-35" x="63.623047"/>
       <use xlink:href="#DejaVuSans-30" x="127.246094"/>
      </g>
     </g>
    </g>
    <g id="xtick_5">
     <g id="line2d_5">
      <g>
       <use xlink:href="#mee83d9a2ec" x="265.68595" y="192.24" style="stroke: #000000; stroke-width: 0.8"/>
      </g>
     </g>
     <g id="text_5">
      <!-- 200 -->
      <g transform="translate(256.1422 206.838437) scale(0.1 -0.1)">
       <defs>
        <path id="DejaVuSans-32" d="M 1228 531 
L 3431 531 
L 3431 0 
L 469 0 
L 469 531 
Q 828 903 1448 1529 
Q 2069 2156 2228 2338 
Q 2531 2678 2651 2914 
Q 2772 3150 2772 3378 
Q 2772 3750 2511 3984 
Q 2250 4219 1831 4219 
Q 1534 4219 1204 4116 
Q 875 4013 500 3803 
L 500 4441 
Q 881 4594 1212 4672 
Q 1544 4750 1819 4750 
Q 2544 4750 2975 4387 
Q 3406 4025 3406 3419 
Q 3406 3131 3298 2873 
Q 3191 2616 2906 2266 
Q 2828 2175 2409 1742 
Q 1991 1309 1228 531 
z
" transform="scale(0.015625)"/>
       </defs>
       <use xlink:href="#DejaVuSans-32"/>
       <use xlink:href="#DejaVuSans-30" x="63.623047"/>
       <use xlink:href="#DejaVuSans-30" x="127.246094"/>
      </g>
     </g>
    </g>
    <g id="text_6">
     <!-- Epochs -->
     <g transform="translate(155.53892 220.516562) scale(0.1 -0.1)">
      <defs>
       <path id="DejaVuSans-45" d="M 628 4666 
L 3578 4666 
L 3578 4134 
L 1259 4134 
L 1259 2753 
L 3481 2753 
L 3481 2222 
L 1259 2222 
L 1259 531 
L 3634 531 
L 3634 0 
L 628 0 
L 628 4666 
z
" transform="scale(0.015625)"/>
       <path id="DejaVuSans-70" d="M 1159 525 
L 1159 -1331 
L 581 -1331 
L 581 3500 
L 1159 3500 
L 1159 2969 
Q 1341 3281 1617 3432 
Q 1894 3584 2278 3584 
Q 2916 3584 3314 3078 
Q 3713 2572 3713 1747 
Q 3713 922 3314 415 
Q 2916 -91 2278 -91 
Q 1894 -91 1617 61 
Q 1341 213 1159 525 
z
M 3116 1747 
Q 3116 2381 2855 2742 
Q 2594 3103 2138 3103 
Q 1681 3103 1420 2742 
Q 1159 2381 1159 1747 
Q 1159 1113 1420 752 
Q 1681 391 2138 391 
Q 2594 391 2855 752 
Q 3116 1113 3116 1747 
z
" transform="scale(0.015625)"/>
       <path id="DejaVuSans-6f" d="M 1959 3097 
Q 1497 3097 1228 2736 
Q 959 2375 959 1747 
Q 959 1119 1226 758 
Q 1494 397 1959 397 
Q 2419 397 2687 759 
Q 2956 1122 2956 1747 
Q 2956 2369 2687 2733 
Q 2419 3097 1959 3097 
z
M 1959 3584 
Q 2709 3584 3137 3096 
Q 3566 2609 3566 1747 
Q 3566 888 3137 398 
Q 2709 -91 1959 -91 
Q 1206 -91 779 398 
Q 353 888 353 1747 
Q 353 2609 779 3096 
Q 1206 3584 1959 3584 
z
" transform="scale(0.015625)"/>
       <path id="DejaVuSans-63" d="M 3122 3366 
L 3122 2828 
Q 2878 2963 2633 3030 
Q 2388 3097 2138 3097 
Q 1578 3097 1268 2742 
Q 959 2388 959 1747 
Q 959 1106 1268 751 
Q 1578 397 2138 397 
Q 2388 397 2633 464 
Q 2878 531 3122 666 
L 3122 134 
Q 2881 22 2623 -34 
Q 2366 -91 2075 -91 
Q 1284 -91 818 406 
Q 353 903 353 1747 
Q 353 2603 823 3093 
Q 1294 3584 2113 3584 
Q 2378 3584 2631 3529 
Q 2884 3475 3122 3366 
z
" transform="scale(0.015625)"/>
       <path id="DejaVuSans-68" d="M 3513 2113 
L 3513 0 
L 2938 0 
L 2938 2094 
Q 2938 2591 2744 2837 
Q 2550 3084 2163 3084 
Q 1697 3084 1428 2787 
Q 1159 2491 1159 1978 
L 1159 0 
L 581 0 
L 581 4863 
L 1159 4863 
L 1159 2956 
Q 1366 3272 1645 3428 
Q 1925 3584 2291 3584 
Q 2894 3584 3203 3211 
Q 3513 2838 3513 2113 
z
" transform="scale(0.015625)"/>
       <path id="DejaVuSans-73" d="M 2834 3397 
L 2834 2853 
Q 2591 2978 2328 3040 
Q 2066 3103 1784 3103 
Q 1356 3103 1142 2972 
Q 928 2841 928 2578 
Q 928 2378 1081 2264 
Q 1234 2150 1697 2047 
L 1894 2003 
Q 2506 1872 2764 1633 
Q 3022 1394 3022 966 
Q 3022 478 2636 193 
Q 2250 -91 1575 -91 
Q 1294 -91 989 -36 
Q 684 19 347 128 
L 347 722 
Q 666 556 975 473 
Q 1284 391 1588 391 
Q 1994 391 2212 530 
Q 2431 669 2431 922 
Q 2431 1156 2273 1281 
Q 2116 1406 1581 1522 
L 1381 1569 
Q 847 1681 609 1914 
Q 372 2147 372 2553 
Q 372 3047 722 3315 
Q 1072 3584 1716 3584 
Q 2034 3584 2315 3537 
Q 2597 3491 2834 3397 
z
" transform="scale(0.015625)"/>
      </defs>
      <use xlink:href="#DejaVuSans-45"/>
      <use xlink:href="#DejaVuSans-70" x="63.183594"/>
      <use xlink:href="#DejaVuSans-6f" x="126.660156"/>
      <use xlink:href="#DejaVuSans-63" x="187.841797"/>
      <use xlink:href="#DejaVuSans-68" x="242.822266"/>
      <use xlink:href="#DejaVuSans-73" x="306.201172"/>
     </g>
    </g>
   </g>
   <g id="matplotlib.axis_2">
    <g id="ytick_1">
     <g id="line2d_6">
      <defs>
       <path id="m0916454878" d="M 0 0 
L -3.5 0 
" style="stroke: #000000; stroke-width: 0.8"/>
      </defs>
      <g>
       <use xlink:href="#m0916454878" x="72" y="187.170213" style="stroke: #000000; stroke-width: 0.8"/>
      </g>
     </g>
     <g id="text_7">
      <!-- 0.34 -->
      <g transform="translate(42.734375 190.969432) scale(0.1 -0.1)">
       <defs>
        <path id="DejaVuSans-2e" d="M 684 794 
L 1344 794 
L 1344 0 
L 684 0 
L 684 794 
z
" transform="scale(0.015625)"/>
        <path id="DejaVuSans-33" d="M 2597 2516 
Q 3050 2419 3304 2112 
Q 3559 1806 3559 1356 
Q 3559 666 3084 287 
Q 2609 -91 1734 -91 
Q 1441 -91 1130 -33 
Q 819 25 488 141 
L 488 750 
Q 750 597 1062 519 
Q 1375 441 1716 441 
Q 2309 441 2620 675 
Q 2931 909 2931 1356 
Q 2931 1769 2642 2001 
Q 2353 2234 1838 2234 
L 1294 2234 
L 1294 2753 
L 1863 2753 
Q 2328 2753 2575 2939 
Q 2822 3125 2822 3475 
Q 2822 3834 2567 4026 
Q 2313 4219 1838 4219 
Q 1578 4219 1281 4162 
Q 984 4106 628 3988 
L 628 4550 
Q 988 4650 1302 4700 
Q 1616 4750 1894 4750 
Q 2613 4750 3031 4423 
Q 3450 4097 3450 3541 
Q 3450 3153 3228 2886 
Q 3006 2619 2597 2516 
z
" transform="scale(0.015625)"/>
        <path id="DejaVuSans-34" d="M 2419 4116 
L 825 1625 
L 2419 1625 
L 2419 4116 
z
M 2253 4666 
L 3047 4666 
L 3047 1625 
L 3713 1625 
L 3713 1100 
L 3047 1100 
L 3047 0 
L 2419 0 
L 2419 1100 
L 313 1100 
L 313 1709 
L 2253 4666 
z
" transform="scale(0.015625)"/>
       </defs>
       <use xlink:href="#DejaVuSans-30"/>
       <use xlink:href="#DejaVuSans-2e" x="63.623047"/>
       <use xlink:href="#DejaVuSans-33" x="95.410156"/>
       <use xlink:href="#DejaVuSans-34" x="159.033203"/>
      </g>
     </g>
    </g>
    <g id="ytick_2">
     <g id="line2d_7">
      <g>
       <use xlink:href="#m0916454878" x="72" y="163.834089" style="stroke: #000000; stroke-width: 0.8"/>
      </g>
     </g>
     <g id="text_8">
      <!-- 0.36 -->
      <g transform="translate(42.734375 167.633308) scale(0.1 -0.1)">
       <defs>
        <path id="DejaVuSans-36" d="M 2113 2584 
Q 1688 2584 1439 2293 
Q 1191 2003 1191 1497 
Q 1191 994 1439 701 
Q 1688 409 2113 409 
Q 2538 409 2786 701 
Q 3034 994 3034 1497 
Q 3034 2003 2786 2293 
Q 2538 2584 2113 2584 
z
M 3366 4563 
L 3366 3988 
Q 3128 4100 2886 4159 
Q 2644 4219 2406 4219 
Q 1781 4219 1451 3797 
Q 1122 3375 1075 2522 
Q 1259 2794 1537 2939 
Q 1816 3084 2150 3084 
Q 2853 3084 3261 2657 
Q 3669 2231 3669 1497 
Q 3669 778 3244 343 
Q 2819 -91 2113 -91 
Q 1303 -91 875 529 
Q 447 1150 447 2328 
Q 447 3434 972 4092 
Q 1497 4750 2381 4750 
Q 2619 4750 2861 4703 
Q 3103 4656 3366 4563 
z
" transform="scale(0.015625)"/>
       </defs>
       <use xlink:href="#DejaVuSans-30"/>
       <use xlink:href="#DejaVuSans-2e" x="63.623047"/>
       <use xlink:href="#DejaVuSans-33" x="95.410156"/>
       <use xlink:href="#DejaVuSans-36" x="159.033203"/>
      </g>
     </g>
    </g>
    <g id="ytick_3">
     <g id="line2d_8">
      <g>
       <use xlink:href="#m0916454878" x="72" y="140.497965" style="stroke: #000000; stroke-width: 0.8"/>
      </g>
     </g>
     <g id="text_9">
      <!-- 0.38 -->
      <g transform="translate(42.734375 144.297184) scale(0.1 -0.1)">
       <defs>
        <path id="DejaVuSans-38" d="M 2034 2216 
Q 1584 2216 1326 1975 
Q 1069 1734 1069 1313 
Q 1069 891 1326 650 
Q 1584 409 2034 409 
Q 2484 409 2743 651 
Q 3003 894 3003 1313 
Q 3003 1734 2745 1975 
Q 2488 2216 2034 2216 
z
M 1403 2484 
Q 997 2584 770 2862 
Q 544 3141 544 3541 
Q 544 4100 942 4425 
Q 1341 4750 2034 4750 
Q 2731 4750 3128 4425 
Q 3525 4100 3525 3541 
Q 3525 3141 3298 2862 
Q 3072 2584 2669 2484 
Q 3125 2378 3379 2068 
Q 3634 1759 3634 1313 
Q 3634 634 3220 271 
Q 2806 -91 2034 -91 
Q 1263 -91 848 271 
Q 434 634 434 1313 
Q 434 1759 690 2068 
Q 947 2378 1403 2484 
z
M 1172 3481 
Q 1172 3119 1398 2916 
Q 1625 2713 2034 2713 
Q 2441 2713 2670 2916 
Q 2900 3119 2900 3481 
Q 2900 3844 2670 4047 
Q 2441 4250 2034 4250 
Q 1625 4250 1398 4047 
Q 1172 3844 1172 3481 
z
" transform="scale(0.015625)"/>
       </defs>
       <use xlink:href="#DejaVuSans-30"/>
       <use xlink:href="#DejaVuSans-2e" x="63.623047"/>
       <use xlink:href="#DejaVuSans-33" x="95.410156"/>
       <use xlink:href="#DejaVuSans-38" x="159.033203"/>
      </g>
     </g>
    </g>
    <g id="ytick_4">
     <g id="line2d_9">
      <g>
       <use xlink:href="#m0916454878" x="72" y="117.161841" style="stroke: #000000; stroke-width: 0.8"/>
      </g>
     </g>
     <g id="text_10">
      <!-- 0.40 -->
      <g transform="translate(42.734375 120.96106) scale(0.1 -0.1)">
       <use xlink:href="#DejaVuSans-30"/>
       <use xlink:href="#DejaVuSans-2e" x="63.623047"/>
       <use xlink:href="#DejaVuSans-34" x="95.410156"/>
       <use xlink:href="#DejaVuSans-30" x="159.033203"/>
      </g>
     </g>
    </g>
    <g id="ytick_5">
     <g id="line2d_10">
      <g>
       <use xlink:href="#m0916454878" x="72" y="93.825717" style="stroke: #000000; stroke-width: 0.8"/>
      </g>
     </g>
     <g id="text_11">
      <!-- 0.42 -->
      <g transform="translate(42.734375 97.624935) scale(0.1 -0.1)">
       <use xlink:href="#DejaVuSans-30"/>
       <use xlink:href="#DejaVuSans-2e" x="63.623047"/>
       <use xlink:href="#DejaVuSans-34" x="95.410156"/>
       <use xlink:href="#DejaVuSans-32" x="159.033203"/>
      </g>
     </g>
    </g>
    <g id="ytick_6">
     <g id="line2d_11">
      <g>
       <use xlink:href="#m0916454878" x="72" y="70.489592" style="stroke: #000000; stroke-width: 0.8"/>
      </g>
     </g>
     <g id="text_12">
      <!-- 0.44 -->
      <g transform="translate(42.734375 74.288811) scale(0.1 -0.1)">
       <use xlink:href="#DejaVuSans-30"/>
       <use xlink:href="#DejaVuSans-2e" x="63.623047"/>
       <use xlink:href="#DejaVuSans-34" x="95.410156"/>
       <use xlink:href="#DejaVuSans-34" x="159.033203"/>
      </g>
     </g>
    </g>
    <g id="ytick_7">
     <g id="line2d_12">
      <g>
       <use xlink:href="#m0916454878" x="72" y="47.153468" style="stroke: #000000; stroke-width: 0.8"/>
      </g>
     </g>
     <g id="text_13">
      <!-- 0.46 -->
      <g transform="translate(42.734375 50.952687) scale(0.1 -0.1)">
       <use xlink:href="#DejaVuSans-30"/>
       <use xlink:href="#DejaVuSans-2e" x="63.623047"/>
       <use xlink:href="#DejaVuSans-34" x="95.410156"/>
       <use xlink:href="#DejaVuSans-36" x="159.033203"/>
      </g>
     </g>
    </g>
   </g>
   <g id="line2d_13">
    <path d="M 81.22314 170.600933 
L 82.150089 167.077867 
L 83.077038 137.176744 
L 84.003987 131.901137 
L 84.930936 117.87919 
L 85.857884 125.140964 
L 86.784833 126.275181 
L 87.711782 126.60089 
L 88.638731 125.222419 
L 89.56568 126.508341 
L 90.492628 122.900149 
L 91.419577 121.392866 
L 92.346526 134.309013 
L 93.273475 132.932041 
L 94.200424 138.479329 
L 95.127372 127.714231 
L 96.054321 125.828299 
L 96.98127 123.442989 
L 97.908219 127.897884 
L 98.835168 124.812506 
L 99.762116 119.260819 
L 100.689065 117.006129 
L 101.616014 107.508956 
L 102.542963 107.427148 
L 103.469912 108.465499 
L 104.39686 114.036898 
L 105.323809 106.797102 
L 106.250758 104.210451 
L 107.177707 94.585525 
L 108.104656 90.280453 
L 109.031604 91.914662 
L 109.958553 90.411606 
L 110.885502 88.481995 
L 111.812451 86.170332 
L 112.739399 84.417288 
L 113.666348 80.522103 
L 114.593297 84.237652 
L 115.520246 82.335123 
L 116.447195 81.6307 
L 117.374143 81.944547 
L 120.15499 69.078889 
L 121.081939 68.056994 
L 122.008887 65.28257 
L 122.935836 65.974911 
L 123.862785 66.090252 
L 124.789734 67.232046 
L 125.716683 69.705049 
L 126.643631 71.236218 
L 127.57058 79.417002 
L 128.497529 91.384288 
L 129.424478 97.902931 
L 130.351427 97.437527 
L 131.278375 95.047391 
L 132.205324 96.897078 
L 133.132273 96.103083 
L 134.059222 93.406358 
L 134.986171 91.766971 
L 135.913119 90.527346 
L 137.767017 73.158569 
L 138.693966 70.564736 
L 139.620914 74.484653 
L 140.547863 79.712579 
L 141.474812 76.799664 
L 142.401761 79.506792 
L 143.32871 84.002162 
L 144.255658 89.402638 
L 145.182607 93.343477 
L 146.109556 98.380366 
L 147.036505 101.353182 
L 147.963454 101.701364 
L 148.890402 100.435403 
L 149.817351 93.889005 
L 150.7443 93.188552 
L 151.671249 89.472279 
L 152.598198 86.797592 
L 153.525146 83.318175 
L 154.452095 78.943071 
L 155.379044 77.272868 
L 156.305993 72.287614 
L 157.232942 68.145537 
L 158.15989 69.225618 
L 159.086839 71.514782 
L 160.013788 72.691959 
L 160.940737 72.918293 
L 161.867686 72.987064 
L 162.794634 70.221272 
L 163.721583 70.535205 
L 164.648532 69.447974 
L 165.575481 69.072988 
L 166.50243 72.651456 
L 167.429378 70.852748 
L 169.283276 73.310787 
L 170.210225 74.96339 
L 172.064122 80.476907 
L 172.991071 81.47711 
L 173.91802 83.791052 
L 174.844969 83.495649 
L 175.771917 75.343334 
L 176.698866 77.347112 
L 177.625815 73.088171 
L 178.552764 71.194961 
L 179.479713 65.250252 
L 181.33361 60.164364 
L 182.260559 61.314714 
L 183.187508 62.200219 
L 184.114457 61.097064 
L 185.041405 70.532292 
L 185.968354 66.580617 
L 186.895303 68.598161 
L 187.822252 69.030634 
L 188.749201 74.000326 
L 189.676149 74.477921 
L 190.603098 79.800568 
L 191.530047 78.457971 
L 192.456996 79.395384 
L 193.383945 78.197342 
L 194.310893 74.546677 
L 195.237842 73.699078 
L 196.164791 72.403662 
L 197.09174 71.45043 
L 198.018688 70.302879 
L 198.945637 66.9522 
L 199.872586 61.684737 
L 200.799535 60.709921 
L 201.726484 57.372455 
L 202.653432 61.081899 
L 203.580381 65.568716 
L 204.50733 66.868468 
L 205.434279 69.615227 
L 206.361228 71.117425 
L 207.288176 73.297289 
L 208.215125 75.88823 
L 209.142074 75.871276 
L 210.069023 74.769745 
L 210.995972 74.953501 
L 211.92292 72.516774 
L 213.776818 78.340922 
L 214.703767 77.385273 
L 215.630716 75.535818 
L 216.557664 76.720591 
L 217.484613 77.475818 
L 218.411562 76.30539 
L 219.338511 77.921526 
L 220.26546 76.633185 
L 221.192408 77.454787 
L 222.119357 68.333649 
L 223.046306 66.144054 
L 223.973255 67.957514 
L 224.900203 68.063973 
L 225.827152 64.973668 
L 226.754101 65.523865 
L 227.68105 67.551222 
L 228.607999 67.043614 
L 229.534947 65.699439 
L 230.461896 66.056338 
L 231.388845 66.977518 
L 232.315794 65.928894 
L 233.242743 65.392457 
L 234.169691 68.109008 
L 235.09664 68.388684 
L 236.023589 68.068294 
L 236.950538 67.876103 
L 237.877487 67.509967 
L 238.804435 70.322174 
L 239.731384 70.969091 
L 241.585282 73.88639 
L 242.512231 72.76506 
L 243.439179 70.295229 
L 245.293077 72.227001 
L 246.220026 71.641433 
L 247.146975 71.447719 
L 248.073923 69.065425 
L 249.000872 68.364502 
L 249.927821 66.884877 
L 250.85477 66.316636 
L 251.781719 66.946292 
L 252.708667 68.783196 
L 253.635616 67.525382 
L 254.562565 66.550877 
L 255.489514 69.004935 
L 256.416462 69.71578 
L 257.343411 70.058916 
L 258.27036 70.150709 
L 259.197309 70.706438 
L 260.124258 70.79539 
L 261.051206 70.52113 
L 261.978155 69.525411 
L 263.832053 70.754762 
L 264.759002 69.824143 
L 265.68595 70.280831 
L 265.68595 70.280831 
" clip-path="url(#pe4d933fa1a)" style="fill: none; stroke: #1f77b4; stroke-width: 1.5; stroke-linecap: square"/>
   </g>
   <g id="line2d_14">
    <path d="M 81.22314 139.227517 
L 82.150089 149.21435 
L 83.077038 122.86657 
L 84.003987 114.31199 
L 84.930936 96.110359 
L 85.857884 104.968194 
L 86.784833 99.180003 
L 87.711782 101.184901 
L 88.638731 99.294757 
L 89.56568 100.684354 
L 90.492628 96.105036 
L 91.419577 90.096762 
L 92.346526 103.841444 
L 93.273475 102.834074 
L 94.200424 111.131661 
L 95.127372 99.917275 
L 96.054321 102.64921 
L 96.98127 101.427685 
L 97.908219 109.047221 
L 98.835168 103.771462 
L 99.762116 99.37004 
L 100.689065 95.620586 
L 101.616014 83.761068 
L 102.542963 85.85858 
L 103.469912 86.946793 
L 104.39686 91.877261 
L 105.323809 85.67234 
L 106.250758 82.543727 
L 107.177707 70.009742 
L 108.104656 70.02017 
L 109.031604 72.025447 
L 109.958553 68.981721 
L 110.885502 63.312093 
L 111.812451 59.474622 
L 112.739399 54.111966 
L 113.666348 51.176273 
L 114.593297 53.991721 
L 115.520246 51.434944 
L 116.447195 53.408611 
L 118.301092 49.937048 
L 119.228041 52.467678 
L 120.15499 53.350462 
L 122.008887 51.295884 
L 122.935836 51.93008 
L 123.862785 51.696793 
L 124.789734 51.959827 
L 125.716683 50.63096 
L 126.643631 51.463044 
L 127.57058 59.241216 
L 129.424478 76.256624 
L 130.351427 76.9428 
L 131.278375 75.094845 
L 132.205324 76.916981 
L 133.132273 76.407734 
L 134.059222 74.23569 
L 134.986171 74.242737 
L 135.913119 76.353256 
L 137.767017 60.243197 
L 138.693966 57.457387 
L 139.620914 60.236289 
L 140.547863 64.304021 
L 141.474812 62.295767 
L 142.401761 65.262419 
L 144.255658 73.598903 
L 145.182607 75.363943 
L 146.109556 74.114921 
L 147.036505 78.801421 
L 147.963454 75.69993 
L 148.890402 74.186796 
L 149.817351 69.730129 
L 150.7443 67.16177 
L 151.671249 62.77269 
L 153.525146 57.32724 
L 154.452095 50.621335 
L 155.379044 53.641173 
L 156.305993 47.389842 
L 157.232942 45.356612 
L 158.15989 45.53308 
L 159.086839 45.411776 
L 160.013788 46.906601 
L 160.940737 47.417238 
L 161.867686 45.050846 
L 162.794634 41.95751 
L 163.721583 44.521966 
L 164.648532 41.805988 
L 165.575481 41.700938 
L 166.50243 44.111374 
L 167.429378 41.332638 
L 168.356327 43.747791 
L 169.283276 43.472604 
L 170.210225 44.518413 
L 171.137173 49.463696 
L 172.064122 51.571482 
L 172.991071 51.261305 
L 173.91802 55.297824 
L 174.844969 56.216498 
L 175.771917 48.712811 
L 176.698866 52.275133 
L 177.625815 47.962827 
L 178.552764 45.977288 
L 180.406661 40.904619 
L 181.33361 40.055312 
L 182.260559 41.186944 
L 183.187508 41.482791 
L 184.114457 38.619526 
L 185.041405 45.319364 
L 185.968354 40.867321 
L 186.895303 42.355724 
L 187.822252 46.148733 
L 188.749201 50.853634 
L 189.676149 51.498972 
L 190.603098 55.018798 
L 192.456996 55.57648 
L 193.383945 54.354414 
L 194.310893 52.537792 
L 195.237842 51.450339 
L 196.164791 53.484846 
L 198.018688 48.885912 
L 199.872586 42.55587 
L 200.799535 41.658032 
L 201.726484 38.042098 
L 202.653432 43.972834 
L 203.580381 47.796965 
L 205.434279 51.853259 
L 206.361228 52.215463 
L 207.288176 54.689689 
L 208.215125 58.115509 
L 209.142074 59.671651 
L 210.069023 58.240469 
L 210.995972 60.547784 
L 211.92292 58.714453 
L 212.849869 64.439543 
L 213.776818 66.349294 
L 214.703767 65.384523 
L 215.630716 64.708114 
L 216.557664 65.695507 
L 217.484613 68.724466 
L 218.411562 64.464903 
L 219.338511 67.567333 
L 220.26546 63.278652 
L 221.192408 61.506789 
L 222.119357 51.683692 
L 223.046306 52.088286 
L 223.973255 54.494049 
L 224.900203 55.874542 
L 225.827152 53.380947 
L 226.754101 51.409408 
L 227.68105 54.405224 
L 228.607999 52.905798 
L 229.534947 53.981179 
L 230.461896 57.111815 
L 231.388845 58.911721 
L 232.315794 58.014944 
L 233.242743 54.008714 
L 234.169691 54.701997 
L 235.09664 56.789997 
L 236.023589 55.100504 
L 236.950538 56.614667 
L 237.877487 57.334234 
L 238.804435 58.64945 
L 239.731384 58.801557 
L 241.585282 57.388933 
L 242.512231 57.515075 
L 243.439179 56.4918 
L 244.366128 53.766158 
L 245.293077 56.563577 
L 246.220026 54.991965 
L 247.146975 54.608857 
L 248.073923 55.595491 
L 249.000872 53.557629 
L 249.927821 52.740827 
L 250.85477 52.603983 
L 251.781719 55.892984 
L 252.708667 56.414775 
L 254.562565 54.675085 
L 255.489514 57.086488 
L 256.416462 56.887322 
L 257.343411 54.222169 
L 258.27036 53.178013 
L 259.197309 55.797951 
L 260.124258 56.623842 
L 261.051206 53.694383 
L 261.978155 52.155838 
L 262.905104 54.076874 
L 263.832053 54.30368 
L 264.759002 52.392669 
L 265.68595 52.669942 
L 265.68595 52.669942 
" clip-path="url(#pe4d933fa1a)" style="fill: none; stroke: #ff7f0e; stroke-width: 1.5; stroke-linecap: square"/>
   </g>
   <g id="line2d_15">
    <path d="M 81.22314 184.68 
L 82.150089 171.384515 
L 83.077038 139.851218 
L 84.003987 126.609629 
L 84.930936 107.931493 
L 85.857884 113.72584 
L 86.784833 108.132945 
L 88.638731 106.112931 
L 89.56568 109.62753 
L 90.492628 103.475474 
L 91.419577 98.968505 
L 92.346526 111.334278 
L 93.273475 111.820997 
L 94.200424 116.902132 
L 95.127372 108.483983 
L 96.054321 109.326155 
L 96.98127 106.449104 
L 97.908219 110.778957 
L 98.835168 102.617598 
L 99.762116 92.770859 
L 100.689065 91.099514 
L 101.616014 80.122192 
L 102.542963 81.779025 
L 103.469912 81.063919 
L 104.39686 82.76133 
L 105.323809 75.96419 
L 106.250758 72.763153 
L 107.177707 59.410841 
L 108.104656 60.893688 
L 109.031604 63.803191 
L 109.958553 60.221029 
L 110.885502 59.657354 
L 111.812451 56.175015 
L 112.739399 60.86783 
L 113.666348 60.024171 
L 114.593297 65.01975 
L 115.520246 66.330664 
L 116.447195 71.508359 
L 117.374143 68.886347 
L 118.301092 65.790726 
L 119.228041 66.225534 
L 120.15499 60.713848 
L 121.081939 58.636778 
L 122.008887 51.528665 
L 122.935836 50.856898 
L 123.862785 49.631357 
L 124.789734 47.546464 
L 125.716683 46.920666 
L 126.643631 47.433907 
L 127.57058 54.595585 
L 128.497529 66.302886 
L 129.424478 73.901307 
L 130.351427 73.10676 
L 131.278375 72.750188 
L 132.205324 70.772831 
L 133.132273 70.604989 
L 134.059222 66.928492 
L 134.986171 69.267411 
L 135.913119 65.418361 
L 136.840068 58.564955 
L 137.767017 43.626415 
L 138.693966 39.405369 
L 139.620914 42.937146 
L 140.547863 44.488763 
L 141.474812 40.243815 
L 142.401761 42.026088 
L 143.32871 45.957128 
L 144.255658 43.657544 
L 145.182607 52.27947 
L 147.036505 64.334742 
L 147.963454 63.932518 
L 148.890402 61.754827 
L 149.817351 56.34248 
L 150.7443 58.277049 
L 151.671249 55.569041 
L 152.598198 53.851672 
L 153.525146 52.427601 
L 154.452095 44.122858 
L 155.379044 39.868914 
L 156.305993 36.366956 
L 157.232942 33.48 
L 158.15989 34.300518 
L 160.013788 36.876833 
L 160.940737 36.383081 
L 161.867686 37.399425 
L 162.794634 35.451629 
L 163.721583 36.399518 
L 164.648532 35.943918 
L 165.575481 35.843437 
L 166.50243 38.871312 
L 167.429378 36.077924 
L 168.356327 40.248524 
L 169.283276 42.726031 
L 170.210225 43.230072 
L 172.064122 50.851296 
L 172.991071 52.498541 
L 173.91802 55.729175 
L 174.844969 55.298269 
L 175.771917 48.735834 
L 176.698866 50.779853 
L 177.625815 47.211135 
L 178.552764 45.722855 
L 179.479713 42.224506 
L 180.406661 38.171423 
L 181.33361 36.490425 
L 182.260559 37.898676 
L 183.187508 36.965561 
L 184.114457 36.472659 
L 185.041405 46.443709 
L 185.968354 42.551513 
L 186.895303 45.252792 
L 187.822252 42.99518 
L 188.749201 46.919356 
L 189.676149 46.656447 
L 190.603098 53.231372 
L 191.530047 51.249996 
L 192.456996 55.481072 
L 193.383945 53.71955 
L 194.310893 48.498429 
L 195.237842 53.081631 
L 196.164791 52.620892 
L 197.09174 54.090614 
L 198.018688 52.848665 
L 198.945637 55.109031 
L 199.872586 47.073838 
L 200.799535 47.192371 
L 201.726484 43.789008 
L 202.653432 46.717461 
L 203.580381 52.294092 
L 204.50733 49.361893 
L 205.434279 50.009428 
L 206.361228 51.487172 
L 207.288176 54.272533 
L 208.215125 54.042276 
L 210.069023 52.48069 
L 210.995972 49.648994 
L 211.92292 49.31313 
L 212.849869 53.292416 
L 213.776818 57.896317 
L 214.703767 56.754986 
L 215.630716 57.545349 
L 216.557664 60.758686 
L 217.484613 62.795478 
L 218.411562 64.237331 
L 219.338511 66.703726 
L 220.26546 66.886729 
L 221.192408 65.563857 
L 222.119357 57.771764 
L 223.046306 53.752049 
L 223.973255 56.853886 
L 224.900203 55.761402 
L 225.827152 53.704195 
L 226.754101 54.219903 
L 227.68105 53.223926 
L 228.607999 53.354105 
L 229.534947 52.91561 
L 230.461896 54.017065 
L 231.388845 52.903951 
L 232.315794 53.561418 
L 233.242743 50.315345 
L 234.169691 49.980395 
L 235.09664 49.16456 
L 236.023589 46.21689 
L 236.950538 46.143854 
L 237.877487 47.349263 
L 238.804435 51.062526 
L 239.731384 50.18441 
L 240.658333 51.816278 
L 241.585282 54.762346 
L 242.512231 55.57266 
L 243.439179 55.210238 
L 244.366128 54.55114 
L 245.293077 59.200205 
L 246.220026 62.350859 
L 247.146975 60.93639 
L 248.073923 57.213544 
L 249.000872 55.680817 
L 249.927821 52.158477 
L 250.85477 49.777126 
L 251.781719 49.567031 
L 252.708667 51.753801 
L 253.635616 52.428785 
L 254.562565 48.170551 
L 255.489514 48.323873 
L 256.416462 49.745985 
L 257.343411 50.884767 
L 258.27036 53.360366 
L 259.197309 54.467816 
L 260.124258 54.610457 
L 261.051206 53.817857 
L 262.905104 49.647111 
L 263.832053 52.799016 
L 264.759002 54.434659 
L 265.68595 53.784319 
L 265.68595 53.784319 
" clip-path="url(#pe4d933fa1a)" style="fill: none; stroke: #2ca02c; stroke-width: 1.5; stroke-linecap: square"/>
   </g>
   <g id="patch_3">
    <path d="M 72 192.24 
L 72 25.92 
" style="fill: none; stroke: #000000; stroke-width: 0.8; stroke-linejoin: miter; stroke-linecap: square"/>
   </g>
   <g id="patch_4">
    <path d="M 274.909091 192.24 
L 274.909091 25.92 
" style="fill: none; stroke: #000000; stroke-width: 0.8; stroke-linejoin: miter; stroke-linecap: square"/>
   </g>
   <g id="patch_5">
    <path d="M 72 192.24 
L 274.909091 192.24 
" style="fill: none; stroke: #000000; stroke-width: 0.8; stroke-linejoin: miter; stroke-linecap: square"/>
   </g>
   <g id="patch_6">
    <path d="M 72 25.92 
L 274.909091 25.92 
" style="fill: none; stroke: #000000; stroke-width: 0.8; stroke-linejoin: miter; stroke-linecap: square"/>
   </g>
   <g id="text_14">
    <!-- Precision -->
    <g transform="translate(146.686108 19.92) scale(0.12 -0.12)">
     <defs>
      <path id="DejaVuSans-50" d="M 1259 4147 
L 1259 2394 
L 2053 2394 
Q 2494 2394 2734 2622 
Q 2975 2850 2975 3272 
Q 2975 3691 2734 3919 
Q 2494 4147 2053 4147 
L 1259 4147 
z
M 628 4666 
L 2053 4666 
Q 2838 4666 3239 4311 
Q 3641 3956 3641 3272 
Q 3641 2581 3239 2228 
Q 2838 1875 2053 1875 
L 1259 1875 
L 1259 0 
L 628 0 
L 628 4666 
z
" transform="scale(0.015625)"/>
      <path id="DejaVuSans-72" d="M 2631 2963 
Q 2534 3019 2420 3045 
Q 2306 3072 2169 3072 
Q 1681 3072 1420 2755 
Q 1159 2438 1159 1844 
L 1159 0 
L 581 0 
L 581 3500 
L 1159 3500 
L 1159 2956 
Q 1341 3275 1631 3429 
Q 1922 3584 2338 3584 
Q 2397 3584 2469 3576 
Q 2541 3569 2628 3553 
L 2631 2963 
z
" transform="scale(0.015625)"/>
      <path id="DejaVuSans-65" d="M 3597 1894 
L 3597 1613 
L 953 1613 
Q 991 1019 1311 708 
Q 1631 397 2203 397 
Q 2534 397 2845 478 
Q 3156 559 3463 722 
L 3463 178 
Q 3153 47 2828 -22 
Q 2503 -91 2169 -91 
Q 1331 -91 842 396 
Q 353 884 353 1716 
Q 353 2575 817 3079 
Q 1281 3584 2069 3584 
Q 2775 3584 3186 3129 
Q 3597 2675 3597 1894 
z
M 3022 2063 
Q 3016 2534 2758 2815 
Q 2500 3097 2075 3097 
Q 1594 3097 1305 2825 
Q 1016 2553 972 2059 
L 3022 2063 
z
" transform="scale(0.015625)"/>
      <path id="DejaVuSans-69" d="M 603 3500 
L 1178 3500 
L 1178 0 
L 603 0 
L 603 3500 
z
M 603 4863 
L 1178 4863 
L 1178 4134 
L 603 4134 
L 603 4863 
z
" transform="scale(0.015625)"/>
      <path id="DejaVuSans-6e" d="M 3513 2113 
L 3513 0 
L 2938 0 
L 2938 2094 
Q 2938 2591 2744 2837 
Q 2550 3084 2163 3084 
Q 1697 3084 1428 2787 
Q 1159 2491 1159 1978 
L 1159 0 
L 581 0 
L 581 3500 
L 1159 3500 
L 1159 2956 
Q 1366 3272 1645 3428 
Q 1925 3584 2291 3584 
Q 2894 3584 3203 3211 
Q 3513 2838 3513 2113 
z
" transform="scale(0.015625)"/>
     </defs>
     <use xlink:href="#DejaVuSans-50"/>
     <use xlink:href="#DejaVuSans-72" x="58.552734"/>
     <use xlink:href="#DejaVuSans-65" x="97.416016"/>
     <use xlink:href="#DejaVuSans-63" x="158.939453"/>
     <use xlink:href="#DejaVuSans-69" x="213.919922"/>
     <use xlink:href="#DejaVuSans-73" x="241.703125"/>
     <use xlink:href="#DejaVuSans-69" x="293.802734"/>
     <use xlink:href="#DejaVuSans-6f" x="321.585938"/>
     <use xlink:href="#DejaVuSans-6e" x="382.767578"/>
    </g>
   </g>
   <g id="legend_1">
    <g id="patch_7">
     <path d="M 212.634091 187.24 
L 267.909091 187.24 
Q 269.909091 187.24 269.909091 185.24 
L 269.909091 142.205625 
Q 269.909091 140.205625 267.909091 140.205625 
L 212.634091 140.205625 
Q 210.634091 140.205625 210.634091 142.205625 
L 210.634091 185.24 
Q 210.634091 187.24 212.634091 187.24 
z
" style="fill: #ffffff; opacity: 0.8; stroke: #cccccc; stroke-linejoin: miter"/>
    </g>
    <g id="line2d_16">
     <path d="M 214.634091 148.304062 
L 224.634091 148.304062 
L 234.634091 148.304062 
" style="fill: none; stroke: #1f77b4; stroke-width: 1.5; stroke-linecap: square"/>
    </g>
    <g id="text_15">
     <!-- train -->
     <g transform="translate(242.634091 151.804062) scale(0.1 -0.1)">
      <defs>
       <path id="DejaVuSans-74" d="M 1172 4494 
L 1172 3500 
L 2356 3500 
L 2356 3053 
L 1172 3053 
L 1172 1153 
Q 1172 725 1289 603 
Q 1406 481 1766 481 
L 2356 481 
L 2356 0 
L 1766 0 
Q 1100 0 847 248 
Q 594 497 594 1153 
L 594 3053 
L 172 3053 
L 172 3500 
L 594 3500 
L 594 4494 
L 1172 4494 
z
" transform="scale(0.015625)"/>
       <path id="DejaVuSans-61" d="M 2194 1759 
Q 1497 1759 1228 1600 
Q 959 1441 959 1056 
Q 959 750 1161 570 
Q 1363 391 1709 391 
Q 2188 391 2477 730 
Q 2766 1069 2766 1631 
L 2766 1759 
L 2194 1759 
z
M 3341 1997 
L 3341 0 
L 2766 0 
L 2766 531 
Q 2569 213 2275 61 
Q 1981 -91 1556 -91 
Q 1019 -91 701 211 
Q 384 513 384 1019 
Q 384 1609 779 1909 
Q 1175 2209 1959 2209 
L 2766 2209 
L 2766 2266 
Q 2766 2663 2505 2880 
Q 2244 3097 1772 3097 
Q 1472 3097 1187 3025 
Q 903 2953 641 2809 
L 641 3341 
Q 956 3463 1253 3523 
Q 1550 3584 1831 3584 
Q 2591 3584 2966 3190 
Q 3341 2797 3341 1997 
z
" transform="scale(0.015625)"/>
      </defs>
      <use xlink:href="#DejaVuSans-74"/>
      <use xlink:href="#DejaVuSans-72" x="39.208984"/>
      <use xlink:href="#DejaVuSans-61" x="80.322266"/>
      <use xlink:href="#DejaVuSans-69" x="141.601562"/>
      <use xlink:href="#DejaVuSans-6e" x="169.384766"/>
     </g>
    </g>
    <g id="line2d_17">
     <path d="M 214.634091 162.982188 
L 224.634091 162.982188 
L 234.634091 162.982188 
" style="fill: none; stroke: #ff7f0e; stroke-width: 1.5; stroke-linecap: square"/>
    </g>
    <g id="text_16">
     <!-- eval -->
     <g transform="translate(242.634091 166.482188) scale(0.1 -0.1)">
      <defs>
       <path id="DejaVuSans-76" d="M 191 3500 
L 800 3500 
L 1894 563 
L 2988 3500 
L 3597 3500 
L 2284 0 
L 1503 0 
L 191 3500 
z
" transform="scale(0.015625)"/>
       <path id="DejaVuSans-6c" d="M 603 4863 
L 1178 4863 
L 1178 0 
L 603 0 
L 603 4863 
z
" transform="scale(0.015625)"/>
      </defs>
      <use xlink:href="#DejaVuSans-65"/>
      <use xlink:href="#DejaVuSans-76" x="61.523438"/>
      <use xlink:href="#DejaVuSans-61" x="120.703125"/>
      <use xlink:href="#DejaVuSans-6c" x="181.982422"/>
     </g>
    </g>
    <g id="line2d_18">
     <path d="M 214.634091 177.660313 
L 224.634091 177.660313 
L 234.634091 177.660313 
" style="fill: none; stroke: #2ca02c; stroke-width: 1.5; stroke-linecap: square"/>
    </g>
    <g id="text_17">
     <!-- test -->
     <g transform="translate(242.634091 181.160313) scale(0.1 -0.1)">
      <use xlink:href="#DejaVuSans-74"/>
      <use xlink:href="#DejaVuSans-65" x="39.208984"/>
      <use xlink:href="#DejaVuSans-73" x="100.732422"/>
      <use xlink:href="#DejaVuSans-74" x="152.832031"/>
     </g>
    </g>
   </g>
  </g>
  <g id="axes_2">
   <g id="patch_8">
    <path d="M 315.490909 192.24 
L 518.4 192.24 
L 518.4 25.92 
L 315.490909 25.92 
z
" style="fill: #ffffff"/>
   </g>
   <g id="matplotlib.axis_3">
    <g id="xtick_6">
     <g id="line2d_19">
      <g>
       <use xlink:href="#mee83d9a2ec" x="323.787101" y="192.24" style="stroke: #000000; stroke-width: 0.8"/>
      </g>
     </g>
     <g id="text_18">
      <!-- 0 -->
      <g transform="translate(320.605851 206.838437) scale(0.1 -0.1)">
       <use xlink:href="#DejaVuSans-30"/>
      </g>
     </g>
    </g>
    <g id="xtick_7">
     <g id="line2d_20">
      <g>
       <use xlink:href="#mee83d9a2ec" x="370.13454" y="192.24" style="stroke: #000000; stroke-width: 0.8"/>
      </g>
     </g>
     <g id="text_19">
      <!-- 50 -->
      <g transform="translate(363.77204 206.838437) scale(0.1 -0.1)">
       <use xlink:href="#DejaVuSans-35"/>
       <use xlink:href="#DejaVuSans-30" x="63.623047"/>
      </g>
     </g>
    </g>
    <g id="xtick_8">
     <g id="line2d_21">
      <g>
       <use xlink:href="#mee83d9a2ec" x="416.48198" y="192.24" style="stroke: #000000; stroke-width: 0.8"/>
      </g>
     </g>
     <g id="text_20">
      <!-- 100 -->
      <g transform="translate(406.93823 206.838437) scale(0.1 -0.1)">
       <use xlink:href="#DejaVuSans-31"/>
       <use xlink:href="#DejaVuSans-30" x="63.623047"/>
       <use xlink:href="#DejaVuSans-30" x="127.246094"/>
      </g>
     </g>
    </g>
    <g id="xtick_9">
     <g id="line2d_22">
      <g>
       <use xlink:href="#mee83d9a2ec" x="462.82942" y="192.24" style="stroke: #000000; stroke-width: 0.8"/>
      </g>
     </g>
     <g id="text_21">
      <!-- 150 -->
      <g transform="translate(453.28567 206.838437) scale(0.1 -0.1)">
       <use xlink:href="#DejaVuSans-31"/>
       <use xlink:href="#DejaVuSans-35" x="63.623047"/>
       <use xlink:href="#DejaVuSans-30" x="127.246094"/>
      </g>
     </g>
    </g>
    <g id="xtick_10">
     <g id="line2d_23">
      <g>
       <use xlink:href="#mee83d9a2ec" x="509.17686" y="192.24" style="stroke: #000000; stroke-width: 0.8"/>
      </g>
     </g>
     <g id="text_22">
      <!-- 200 -->
      <g transform="translate(499.63311 206.838437) scale(0.1 -0.1)">
       <use xlink:href="#DejaVuSans-32"/>
       <use xlink:href="#DejaVuSans-30" x="63.623047"/>
       <use xlink:href="#DejaVuSans-30" x="127.246094"/>
      </g>
     </g>
    </g>
    <g id="text_23">
     <!-- Epochs -->
     <g transform="translate(399.02983 220.516562) scale(0.1 -0.1)">
      <use xlink:href="#DejaVuSans-45"/>
      <use xlink:href="#DejaVuSans-70" x="63.183594"/>
      <use xlink:href="#DejaVuSans-6f" x="126.660156"/>
      <use xlink:href="#DejaVuSans-63" x="187.841797"/>
      <use xlink:href="#DejaVuSans-68" x="242.822266"/>
      <use xlink:href="#DejaVuSans-73" x="306.201172"/>
     </g>
    </g>
   </g>
   <g id="matplotlib.axis_4">
    <g id="ytick_8">
     <g id="line2d_24">
      <g>
       <use xlink:href="#m0916454878" x="315.490909" y="169.487191" style="stroke: #000000; stroke-width: 0.8"/>
      </g>
     </g>
     <g id="text_24">
      <!-- 0.58 -->
      <g transform="translate(286.225284 173.28641) scale(0.1 -0.1)">
       <use xlink:href="#DejaVuSans-30"/>
       <use xlink:href="#DejaVuSans-2e" x="63.623047"/>
       <use xlink:href="#DejaVuSans-35" x="95.410156"/>
       <use xlink:href="#DejaVuSans-38" x="159.033203"/>
      </g>
     </g>
    </g>
    <g id="ytick_9">
     <g id="line2d_25">
      <g>
       <use xlink:href="#m0916454878" x="315.490909" y="142.93618" style="stroke: #000000; stroke-width: 0.8"/>
      </g>
     </g>
     <g id="text_25">
      <!-- 0.60 -->
      <g transform="translate(286.225284 146.735399) scale(0.1 -0.1)">
       <use xlink:href="#DejaVuSans-30"/>
       <use xlink:href="#DejaVuSans-2e" x="63.623047"/>
       <use xlink:href="#DejaVuSans-36" x="95.410156"/>
       <use xlink:href="#DejaVuSans-30" x="159.033203"/>
      </g>
     </g>
    </g>
    <g id="ytick_10">
     <g id="line2d_26">
      <g>
       <use xlink:href="#m0916454878" x="315.490909" y="116.385169" style="stroke: #000000; stroke-width: 0.8"/>
      </g>
     </g>
     <g id="text_26">
      <!-- 0.62 -->
      <g transform="translate(286.225284 120.184387) scale(0.1 -0.1)">
       <use xlink:href="#DejaVuSans-30"/>
       <use xlink:href="#DejaVuSans-2e" x="63.623047"/>
       <use xlink:href="#DejaVuSans-36" x="95.410156"/>
       <use xlink:href="#DejaVuSans-32" x="159.033203"/>
      </g>
     </g>
    </g>
    <g id="ytick_11">
     <g id="line2d_27">
      <g>
       <use xlink:href="#m0916454878" x="315.490909" y="89.834157" style="stroke: #000000; stroke-width: 0.8"/>
      </g>
     </g>
     <g id="text_27">
      <!-- 0.64 -->
      <g transform="translate(286.225284 93.633376) scale(0.1 -0.1)">
       <use xlink:href="#DejaVuSans-30"/>
       <use xlink:href="#DejaVuSans-2e" x="63.623047"/>
       <use xlink:href="#DejaVuSans-36" x="95.410156"/>
       <use xlink:href="#DejaVuSans-34" x="159.033203"/>
      </g>
     </g>
    </g>
    <g id="ytick_12">
     <g id="line2d_28">
      <g>
       <use xlink:href="#m0916454878" x="315.490909" y="63.283146" style="stroke: #000000; stroke-width: 0.8"/>
      </g>
     </g>
     <g id="text_28">
      <!-- 0.66 -->
      <g transform="translate(286.225284 67.082365) scale(0.1 -0.1)">
       <use xlink:href="#DejaVuSans-30"/>
       <use xlink:href="#DejaVuSans-2e" x="63.623047"/>
       <use xlink:href="#DejaVuSans-36" x="95.410156"/>
       <use xlink:href="#DejaVuSans-36" x="159.033203"/>
      </g>
     </g>
    </g>
    <g id="ytick_13">
     <g id="line2d_29">
      <g>
       <use xlink:href="#m0916454878" x="315.490909" y="36.732135" style="stroke: #000000; stroke-width: 0.8"/>
      </g>
     </g>
     <g id="text_29">
      <!-- 0.68 -->
      <g transform="translate(286.225284 40.531354) scale(0.1 -0.1)">
       <use xlink:href="#DejaVuSans-30"/>
       <use xlink:href="#DejaVuSans-2e" x="63.623047"/>
       <use xlink:href="#DejaVuSans-36" x="95.410156"/>
       <use xlink:href="#DejaVuSans-38" x="159.033203"/>
      </g>
     </g>
    </g>
   </g>
   <g id="line2d_30">
    <path d="M 324.71405 177.952984 
L 325.640998 164.115229 
L 326.567947 173.097631 
L 327.494896 170.451464 
L 328.421845 173.175317 
L 329.348794 170.475741 
L 330.275742 168.838793 
L 332.12964 166.267768 
L 333.056589 163.503454 
L 333.983538 163.328662 
L 334.910486 164.814399 
L 335.837435 158.696655 
L 336.764384 159.716279 
L 337.691333 155.637783 
L 338.618281 153.94812 
L 339.54523 151.034908 
L 341.399128 148.44215 
L 342.326077 148.849999 
L 343.253025 145.00456 
L 344.179974 144.276257 
L 345.106923 146.082448 
L 346.033872 141.712631 
L 346.960821 139.702515 
L 347.887769 137.255417 
L 348.814718 137.808927 
L 349.741667 134.254809 
L 351.595565 129.214953 
L 352.522513 127.845743 
L 353.449462 123.650718 
L 354.376411 120.417054 
L 355.30336 119.310033 
L 356.230309 117.47471 
L 357.157257 116.1055 
L 358.084206 113.687535 
L 359.011155 113.571006 
L 359.938104 111.852211 
L 360.865053 109.201189 
L 362.71895 106.46277 
L 363.645899 105.122692 
L 364.572848 104.015672 
L 365.499797 104.073936 
L 366.426745 104.394389 
L 368.280643 103.17084 
L 369.207592 103.782615 
L 371.061489 106.113184 
L 371.988438 110.628662 
L 373.842336 113.104892 
L 374.769284 113.367081 
L 375.696233 113.454478 
L 376.623182 116.367689 
L 377.550131 116.950332 
L 378.47708 118.261277 
L 379.404028 118.552598 
L 380.330977 116.688143 
L 381.257926 113.600138 
L 382.184875 114.794555 
L 383.111824 113.104892 
L 384.038772 113.687535 
L 384.965721 112.726175 
L 385.89267 110.45387 
L 386.819619 111.386097 
L 387.746568 111.473494 
L 388.673516 112.172664 
L 389.600465 113.134024 
L 391.454363 109.579906 
L 392.381312 109.929491 
L 393.30826 107.919375 
L 394.235209 108.909867 
L 395.162158 107.365865 
L 397.016055 105.006164 
L 397.943004 104.481786 
L 398.869953 103.811747 
L 399.796902 104.044804 
L 401.650799 102.442537 
L 402.577748 102.238613 
L 403.504697 100.490686 
L 404.431646 100.752875 
L 407.212492 98.334909 
L 408.139441 97.781399 
L 409.06639 98.101852 
L 409.993339 97.897927 
L 410.920287 98.567966 
L 411.847236 99.529326 
L 412.774185 100.723743 
L 413.701134 101.364649 
L 414.628083 101.568574 
L 415.555031 101.539442 
L 417.408929 102.296877 
L 418.335878 102.500802 
L 419.262827 105.967524 
L 420.189775 105.006164 
L 421.116724 105.880127 
L 422.043673 106.258845 
L 422.970622 106.084052 
L 423.89757 106.521034 
L 424.824519 105.588806 
L 425.751468 105.734467 
L 426.678417 105.676202 
L 427.605366 106.521034 
L 428.532314 105.355749 
L 429.459263 106.958016 
L 430.386212 107.453262 
L 431.313161 106.695826 
L 432.24011 106.724959 
L 433.167058 105.734467 
L 434.094007 105.996656 
L 435.020956 104.773107 
L 435.947905 106.287977 
L 436.874854 106.142316 
L 437.801802 104.219597 
L 438.728751 103.636954 
L 439.6557 102.034688 
L 440.582649 102.151216 
L 441.509598 102.413405 
L 442.436546 102.966916 
L 443.363495 102.413405 
L 444.290444 102.588198 
L 445.217393 101.830763 
L 446.144342 100.840271 
L 447.07129 101.335517 
L 447.998239 100.228497 
L 448.925188 100.956799 
L 449.852137 102.005556 
L 451.706034 102.209481 
L 452.632983 104.306993 
L 453.559932 104.860503 
L 454.486881 103.870011 
L 455.413829 102.675594 
L 456.340778 102.034688 
L 457.267727 102.06382 
L 460.048573 98.509702 
L 460.975522 98.130984 
L 461.902471 97.490078 
L 463.756369 98.189248 
L 464.683317 98.888419 
L 465.610266 99.03408 
L 466.537215 100.024572 
L 467.464164 100.723743 
L 468.391113 100.170232 
L 469.318061 100.024572 
L 470.24501 100.811139 
L 471.171959 100.869403 
L 472.098908 100.374157 
L 473.025857 99.238005 
L 473.952805 99.121476 
L 474.879754 98.801023 
L 475.806703 97.11136 
L 476.733652 97.053096 
L 477.660601 97.460945 
L 478.587549 97.460945 
L 480.441447 95.800415 
L 481.368396 95.567358 
L 482.295344 96.470454 
L 483.222293 96.091736 
L 485.076191 95.800415 
L 486.00314 94.984716 
L 486.930088 94.751659 
L 487.857037 95.101244 
L 488.783986 95.130376 
L 490.637884 94.518602 
L 491.564832 93.819431 
L 492.491781 94.547734 
L 493.41873 94.664262 
L 494.345679 95.654754 
L 495.272628 95.683886 
L 496.199576 96.616114 
L 497.126525 96.324793 
L 498.053474 96.208264 
L 498.980423 97.023964 
L 499.907372 97.315285 
L 500.83432 97.373549 
L 501.761269 96.674378 
L 502.688218 96.412189 
L 503.615167 96.353925 
L 504.542116 96.994832 
L 505.469064 96.55785 
L 506.396013 96.761775 
L 507.322962 96.849171 
L 508.249911 96.674378 
L 509.17686 96.849171 
L 509.17686 96.849171 
" clip-path="url(#p3271aaac59)" style="fill: none; stroke: #1f77b4; stroke-width: 1.5; stroke-linecap: square"/>
   </g>
   <g id="line2d_31">
    <path d="M 324.71405 107.923857 
L 325.640998 111.049957 
L 326.567947 118.344191 
L 327.494896 117.302158 
L 328.421845 117.927378 
L 329.348794 119.386225 
L 330.275742 115.664677 
L 331.202691 118.083683 
L 332.12964 114.639184 
L 333.056589 113.134024 
L 333.983538 112.717211 
L 334.910486 111.258364 
L 335.837435 109.382704 
L 336.764384 111.675178 
L 337.691333 111.258364 
L 338.618281 108.549077 
L 339.54523 108.340671 
L 340.472179 106.673417 
L 341.399128 109.382704 
L 342.326077 108.757484 
L 343.253025 105.83979 
L 344.179974 104.380944 
L 346.033872 99.58759 
L 346.960821 96.044676 
L 347.887769 94.377423 
L 348.814718 96.253083 
L 351.595565 81.873022 
L 352.522513 79.788955 
L 353.449462 75.204008 
L 355.30336 64.575267 
L 356.230309 61.865981 
L 357.157257 60.198727 
L 358.084206 56.239 
L 359.011155 56.030594 
L 359.938104 55.405374 
L 360.865053 56.239 
L 361.792001 57.697847 
L 362.71895 60.407134 
L 363.645899 61.657574 
L 364.572848 61.240761 
L 365.499797 59.99032 
L 366.426745 58.531474 
L 367.353694 56.447407 
L 368.280643 55.822187 
L 369.207592 54.571747 
L 370.13454 53.73812 
L 371.988438 59.3651 
L 372.915387 60.615541 
L 373.842336 61.657574 
L 374.769284 63.324827 
L 375.696233 63.741641 
L 376.623182 67.076148 
L 377.550131 67.492961 
L 378.47708 70.410655 
L 379.404028 70.827468 
L 380.330977 67.909774 
L 381.257926 65.408894 
L 382.184875 67.076148 
L 383.111824 67.492961 
L 384.038772 66.867741 
L 384.965721 65.200488 
L 385.89267 61.865981 
L 386.819619 60.407134 
L 387.746568 58.73988 
L 388.673516 60.823947 
L 389.600465 57.906254 
L 390.527414 56.655814 
L 391.454363 53.321307 
L 392.381312 51.23724 
L 393.30826 51.23724 
L 394.235209 52.48768 
L 395.162158 52.070867 
L 396.089107 52.279273 
L 397.016055 51.86246 
L 397.943004 48.944766 
L 398.869953 50.403613 
L 400.723851 49.569986 
L 401.650799 48.319546 
L 402.577748 46.443886 
L 403.504697 45.818666 
L 404.431646 46.652293 
L 405.358595 46.23548 
L 406.285543 45.610259 
L 407.212492 46.443886 
L 408.139441 45.193446 
L 409.06639 45.401853 
L 409.993339 46.652293 
L 411.847236 50.195206 
L 412.774185 50.403613 
L 413.701134 51.445647 
L 414.628083 52.279273 
L 415.555031 53.73812 
L 416.48198 53.321307 
L 417.408929 53.321307 
L 418.335878 52.48768 
L 419.262827 54.571747 
L 420.189775 53.1129 
L 422.043673 56.030594 
L 422.970622 56.447407 
L 423.89757 57.072627 
L 424.824519 56.655814 
L 425.751468 57.48944 
L 426.678417 60.615541 
L 427.605366 62.699607 
L 428.532314 60.823947 
L 429.459263 62.491201 
L 430.386212 59.781914 
L 431.313161 60.407134 
L 432.24011 60.615541 
L 433.167058 59.3651 
L 434.094007 58.323067 
L 435.020956 58.73988 
L 435.947905 58.73988 
L 436.874854 58.948287 
L 437.801802 59.3651 
L 438.728751 60.615541 
L 439.6557 63.324827 
L 440.582649 61.865981 
L 441.509598 59.781914 
L 442.436546 61.449167 
L 443.363495 61.865981 
L 444.290444 61.032354 
L 445.217393 58.73988 
L 446.144342 57.48944 
L 447.998239 56.239 
L 448.925188 58.531474 
L 449.852137 58.73988 
L 450.779086 60.407134 
L 451.706034 59.781914 
L 452.632983 61.865981 
L 453.559932 61.449167 
L 454.486881 62.282794 
L 455.413829 61.449167 
L 456.340778 61.240761 
L 457.267727 59.99032 
L 458.194676 56.239 
L 459.121625 57.072627 
L 460.048573 55.822187 
L 460.975522 54.98856 
L 461.902471 54.36334 
L 462.82942 55.61378 
L 463.756369 56.030594 
L 464.683317 56.239 
L 465.610266 56.239 
L 466.537215 56.655814 
L 467.464164 56.655814 
L 468.391113 54.98856 
L 469.318061 54.780153 
L 470.24501 56.239 
L 471.171959 56.030594 
L 472.098908 55.196967 
L 473.025857 54.571747 
L 473.952805 55.196967 
L 474.879754 55.405374 
L 475.806703 54.98856 
L 476.733652 53.946527 
L 477.660601 54.36334 
L 478.587549 54.571747 
L 479.514498 51.654053 
L 480.441447 51.028833 
L 481.368396 50.820427 
L 482.295344 49.36158 
L 483.222293 48.527953 
L 484.149242 47.277513 
L 485.076191 46.23548 
L 486.00314 46.443886 
L 486.930088 46.23548 
L 487.857037 44.568226 
L 488.783986 44.776633 
L 489.710935 44.151413 
L 490.637884 42.275753 
L 491.564832 42.275753 
L 492.491781 41.858939 
L 493.41873 42.900973 
L 494.345679 43.526193 
L 495.272628 43.317786 
L 496.199576 43.526193 
L 497.126525 44.359819 
L 498.053474 44.776633 
L 498.980423 43.317786 
L 499.907372 43.734599 
L 501.761269 43.317786 
L 502.688218 42.275753 
L 503.615167 42.067346 
L 505.469064 40.400092 
L 507.322962 39.149652 
L 508.249911 40.191686 
L 509.17686 40.191686 
L 509.17686 40.191686 
" clip-path="url(#p3271aaac59)" style="fill: none; stroke: #ff7f0e; stroke-width: 1.5; stroke-linecap: square"/>
   </g>
   <g id="line2d_32">
    <path d="M 324.71405 184.68 
L 325.640998 155.556404 
L 326.567947 158.79236 
L 327.494896 142.814831 
L 328.421845 142.93618 
L 330.275742 126.779518 
L 332.12964 118.342921 
L 333.056589 115.754157 
L 333.983538 109.201348 
L 334.910486 107.745169 
L 335.837435 100.46427 
L 336.764384 103.133933 
L 337.691333 98.522697 
L 338.618281 99.73618 
L 339.54523 101.677753 
L 340.472179 101.435056 
L 341.399128 101.677753 
L 342.326077 101.435056 
L 343.253025 96.581124 
L 344.179974 95.36764 
L 345.106923 95.124944 
L 346.960821 86.387865 
L 347.887769 81.048539 
L 348.814718 79.59236 
L 350.668616 73.282247 
L 351.595565 71.340674 
L 352.522513 71.340674 
L 353.449462 67.457528 
L 354.376411 66.486742 
L 355.30336 66.972135 
L 357.157257 69.399101 
L 358.084206 67.942921 
L 359.011155 68.185618 
L 359.938104 65.758652 
L 360.865053 62.846292 
L 361.792001 61.390112 
L 362.71895 60.176629 
L 364.572848 53.866517 
L 365.499797 52.410337 
L 366.426745 51.924944 
L 368.280643 47.799101 
L 369.207592 49.255281 
L 370.13454 50.226067 
L 371.061489 50.711461 
L 371.988438 57.506966 
L 372.915387 57.99236 
L 373.842336 59.691236 
L 374.769284 61.875506 
L 375.696233 61.147416 
L 376.623182 64.302472 
L 377.550131 63.574382 
L 378.47708 68.671011 
L 379.404028 66.486742 
L 380.330977 66.486742 
L 381.257926 58.963146 
L 382.184875 60.662022 
L 383.111824 58.720449 
L 384.038772 56.050787 
L 384.965721 54.837303 
L 385.89267 50.954157 
L 386.819619 50.954157 
L 387.746568 45.372135 
L 388.673516 50.226067 
L 389.600465 49.983371 
L 390.527414 49.497978 
L 391.454363 46.100225 
L 392.381312 45.857528 
L 393.30826 45.372135 
L 394.235209 46.342921 
L 395.162158 45.129438 
L 396.089107 44.886742 
L 397.016055 44.401348 
L 397.943004 40.760899 
L 398.869953 38.091236 
L 399.796902 39.062022 
L 400.723851 38.576629 
L 401.650799 36.635056 
L 402.577748 35.66427 
L 403.504697 33.965393 
L 404.431646 33.48 
L 405.358595 33.722697 
L 406.285543 35.421573 
L 407.212492 35.421573 
L 409.06639 36.39236 
L 409.993339 37.120449 
L 410.920287 38.091236 
L 411.847236 38.576629 
L 412.774185 38.576629 
L 413.701134 39.304719 
L 414.628083 39.547416 
L 415.555031 37.363146 
L 416.48198 36.877753 
L 417.408929 36.877753 
L 418.335878 37.363146 
L 419.262827 42.217079 
L 420.189775 42.217079 
L 421.116724 45.129438 
L 422.043673 49.012584 
L 422.970622 52.410337 
L 423.89757 53.381124 
L 425.751468 57.021573 
L 426.678417 57.99236 
L 427.605366 60.176629 
L 428.532314 60.176629 
L 429.459263 63.331685 
L 430.386212 61.875506 
L 431.313161 59.205843 
L 432.24011 57.749663 
L 433.167058 55.80809 
L 434.094007 56.778876 
L 435.020956 56.050787 
L 435.947905 60.176629 
L 436.874854 58.720449 
L 437.801802 55.80809 
L 438.728751 55.565393 
L 439.6557 55.565393 
L 440.582649 54.109213 
L 441.509598 54.35191 
L 442.436546 58.477753 
L 443.363495 55.80809 
L 444.290444 55.322697 
L 445.217393 54.109213 
L 446.144342 52.653034 
L 447.07129 52.653034 
L 447.998239 49.983371 
L 448.925188 50.954157 
L 450.779086 53.381124 
L 451.706034 52.89573 
L 452.632983 55.08 
L 453.559932 55.80809 
L 454.486881 52.410337 
L 455.413829 52.16764 
L 456.340778 52.16764 
L 457.267727 52.653034 
L 458.194676 49.740674 
L 459.121625 50.954157 
L 460.048573 48.769888 
L 460.975522 46.100225 
L 461.902471 45.614831 
L 462.82942 45.857528 
L 463.756369 45.372135 
L 464.683317 43.915955 
L 465.610266 42.217079 
L 466.537215 41.003596 
L 467.464164 43.187865 
L 468.391113 42.702472 
L 469.318061 42.459775 
L 470.24501 44.644045 
L 471.171959 45.129438 
L 472.098908 45.129438 
L 473.952805 47.071011 
L 474.879754 46.828315 
L 475.806703 48.041798 
L 476.733652 47.071011 
L 477.660601 45.614831 
L 478.587549 46.342921 
L 479.514498 43.915955 
L 480.441447 41.003596 
L 481.368396 41.003596 
L 482.295344 42.217079 
L 483.222293 43.187865 
L 484.149242 44.644045 
L 485.076191 45.372135 
L 486.00314 45.614831 
L 486.930088 46.828315 
L 487.857037 45.372135 
L 488.783986 46.342921 
L 489.710935 48.284494 
L 490.637884 48.041798 
L 491.564832 46.585618 
L 492.491781 46.585618 
L 493.41873 45.857528 
L 494.345679 44.644045 
L 496.199576 44.158652 
L 497.126525 44.886742 
L 498.053474 45.129438 
L 498.980423 44.401348 
L 499.907372 42.945169 
L 500.83432 42.702472 
L 501.761269 41.731685 
L 502.688218 41.488989 
L 504.542116 41.974382 
L 505.469064 41.974382 
L 506.396013 41.246292 
L 507.322962 41.246292 
L 508.249911 41.488989 
L 509.17686 42.945169 
L 509.17686 42.945169 
" clip-path="url(#p3271aaac59)" style="fill: none; stroke: #2ca02c; stroke-width: 1.5; stroke-linecap: square"/>
   </g>
   <g id="patch_9">
    <path d="M 315.490909 192.24 
L 315.490909 25.92 
" style="fill: none; stroke: #000000; stroke-width: 0.8; stroke-linejoin: miter; stroke-linecap: square"/>
   </g>
   <g id="patch_10">
    <path d="M 518.4 192.24 
L 518.4 25.92 
" style="fill: none; stroke: #000000; stroke-width: 0.8; stroke-linejoin: miter; stroke-linecap: square"/>
   </g>
   <g id="patch_11">
    <path d="M 315.490909 192.24 
L 518.4 192.24 
" style="fill: none; stroke: #000000; stroke-width: 0.8; stroke-linejoin: miter; stroke-linecap: square"/>
   </g>
   <g id="patch_12">
    <path d="M 315.490909 25.92 
L 518.4 25.92 
" style="fill: none; stroke: #000000; stroke-width: 0.8; stroke-linejoin: miter; stroke-linecap: square"/>
   </g>
   <g id="text_30">
    <!-- Recall -->
    <g transform="translate(399.04483 19.92) scale(0.12 -0.12)">
     <defs>
      <path id="DejaVuSans-52" d="M 2841 2188 
Q 3044 2119 3236 1894 
Q 3428 1669 3622 1275 
L 4263 0 
L 3584 0 
L 2988 1197 
Q 2756 1666 2539 1819 
Q 2322 1972 1947 1972 
L 1259 1972 
L 1259 0 
L 628 0 
L 628 4666 
L 2053 4666 
Q 2853 4666 3247 4331 
Q 3641 3997 3641 3322 
Q 3641 2881 3436 2590 
Q 3231 2300 2841 2188 
z
M 1259 4147 
L 1259 2491 
L 2053 2491 
Q 2509 2491 2742 2702 
Q 2975 2913 2975 3322 
Q 2975 3731 2742 3939 
Q 2509 4147 2053 4147 
L 1259 4147 
z
" transform="scale(0.015625)"/>
     </defs>
     <use xlink:href="#DejaVuSans-52"/>
     <use xlink:href="#DejaVuSans-65" x="64.982422"/>
     <use xlink:href="#DejaVuSans-63" x="126.505859"/>
     <use xlink:href="#DejaVuSans-61" x="181.486328"/>
     <use xlink:href="#DejaVuSans-6c" x="242.765625"/>
     <use xlink:href="#DejaVuSans-6c" x="270.548828"/>
    </g>
   </g>
   <g id="legend_2">
    <g id="patch_13">
     <path d="M 456.125 187.24 
L 511.4 187.24 
Q 513.4 187.24 513.4 185.24 
L 513.4 142.205625 
Q 513.4 140.205625 511.4 140.205625 
L 456.125 140.205625 
Q 454.125 140.205625 454.125 142.205625 
L 454.125 185.24 
Q 454.125 187.24 456.125 187.24 
z
" style="fill: #ffffff; opacity: 0.8; stroke: #cccccc; stroke-linejoin: miter"/>
    </g>
    <g id="line2d_33">
     <path d="M 458.125 148.304062 
L 468.125 148.304062 
L 478.125 148.304062 
" style="fill: none; stroke: #1f77b4; stroke-width: 1.5; stroke-linecap: square"/>
    </g>
    <g id="text_31">
     <!-- train -->
     <g transform="translate(486.125 151.804062) scale(0.1 -0.1)">
      <use xlink:href="#DejaVuSans-74"/>
      <use xlink:href="#DejaVuSans-72" x="39.208984"/>
      <use xlink:href="#DejaVuSans-61" x="80.322266"/>
      <use xlink:href="#DejaVuSans-69" x="141.601562"/>
      <use xlink:href="#DejaVuSans-6e" x="169.384766"/>
     </g>
    </g>
    <g id="line2d_34">
     <path d="M 458.125 162.982188 
L 468.125 162.982188 
L 478.125 162.982188 
" style="fill: none; stroke: #ff7f0e; stroke-width: 1.5; stroke-linecap: square"/>
    </g>
    <g id="text_32">
     <!-- eval -->
     <g transform="translate(486.125 166.482188) scale(0.1 -0.1)">
      <use xlink:href="#DejaVuSans-65"/>
      <use xlink:href="#DejaVuSans-76" x="61.523438"/>
      <use xlink:href="#DejaVuSans-61" x="120.703125"/>
      <use xlink:href="#DejaVuSans-6c" x="181.982422"/>
     </g>
    </g>
    <g id="line2d_35">
     <path d="M 458.125 177.660313 
L 468.125 177.660313 
L 478.125 177.660313 
" style="fill: none; stroke: #2ca02c; stroke-width: 1.5; stroke-linecap: square"/>
    </g>
    <g id="text_33">
     <!-- test -->
     <g transform="translate(486.125 181.160313) scale(0.1 -0.1)">
      <use xlink:href="#DejaVuSans-74"/>
      <use xlink:href="#DejaVuSans-65" x="39.208984"/>
      <use xlink:href="#DejaVuSans-73" x="100.732422"/>
      <use xlink:href="#DejaVuSans-74" x="152.832031"/>
     </g>
    </g>
   </g>
  </g>
 </g>
 <defs>
  <clipPath id="pe4d933fa1a">
   <rect x="72" y="25.92" width="202.909091" height="166.32"/>
  </clipPath>
  <clipPath id="p3271aaac59">
   <rect x="315.490909" y="25.92" width="202.909091" height="166.32"/>
  </clipPath>
 </defs>
</svg>
