<?xml version="1.0" encoding="utf-8" standalone="no"?>
<!DOCTYPE svg PUBLIC "-//W3C//DTD SVG 1.1//EN"
  "http://www.w3.org/Graphics/SVG/1.1/DTD/svg11.dtd">
<svg xmlns:xlink="http://www.w3.org/1999/xlink" width="576pt" height="216pt" viewBox="0 0 576 216" xmlns="http://www.w3.org/2000/svg" version="1.1">
 <metadata>
  <rdf:RDF xmlns:dc="http://purl.org/dc/elements/1.1/" xmlns:cc="http://creativecommons.org/ns#" xmlns:rdf="http://www.w3.org/1999/02/22-rdf-syntax-ns#">
   <cc:Work>
    <dc:type rdf:resource="http://purl.org/dc/dcmitype/StillImage"/>
    <dc:date>2024-02-01T16:18:25.384947</dc:date>
    <dc:format>image/svg+xml</dc:format>
    <dc:creator>
     <cc:Agent>
      <dc:title>Matplotlib v3.7.4, https://matplotlib.org/</dc:title>
     </cc:Agent>
    </dc:creator>
   </cc:Work>
  </rdf:RDF>
 </metadata>
 <defs>
  <style type="text/css">*{stroke-linejoin: round; stroke-linecap: butt}</style>
 </defs>
 <g id="figure_1">
  <g id="patch_1">
   <path d="M 0 216 
L 576 216 
L 576 0 
L 0 0 
z
" style="fill: #ffffff"/>
  </g>
  <g id="axes_1">
   <g id="patch_2">
    <path d="M 72 192.24 
L 274.909091 192.24 
L 274.909091 25.92 
L 72 25.92 
z
" style="fill: #ffffff"/>
   </g>
   <g id="matplotlib.axis_1">
    <g id="xtick_1">
     <g id="line2d_1">
      <defs>
       <path id="mf8933e38d7" d="M 0 0 
L 0 3.5 
" style="stroke: #000000; stroke-width: 0.8"/>
      </defs>
      <g>
       <use xlink:href="#mf8933e38d7" x="80.296192" y="192.24" style="stroke: #000000; stroke-width: 0.8"/>
      </g>
     </g>
     <g id="text_1">
      <!-- 0 -->
      <g transform="translate(77.114942 206.838437) scale(0.1 -0.1)">
       <defs>
        <path id="DejaVuSans-30" d="M 2034 4250 
Q 1547 4250 1301 3770 
Q 1056 3291 1056 2328 
Q 1056 1369 1301 889 
Q 1547 409 2034 409 
Q 2525 409 2770 889 
Q 3016 1369 3016 2328 
Q 3016 3291 2770 3770 
Q 2525 4250 2034 4250 
z
M 2034 4750 
Q 2819 4750 3233 4129 
Q 3647 3509 3647 2328 
Q 3647 1150 3233 529 
Q 2819 -91 2034 -91 
Q 1250 -91 836 529 
Q 422 1150 422 2328 
Q 422 3509 836 4129 
Q 1250 4750 2034 4750 
z
" transform="scale(0.015625)"/>
       </defs>
       <use xlink:href="#DejaVuSans-30"/>
      </g>
     </g>
    </g>
    <g id="xtick_2">
     <g id="line2d_2">
      <g>
       <use xlink:href="#mf8933e38d7" x="126.643631" y="192.24" style="stroke: #000000; stroke-width: 0.8"/>
      </g>
     </g>
     <g id="text_2">
      <!-- 50 -->
      <g transform="translate(120.281131 206.838437) scale(0.1 -0.1)">
       <defs>
        <path id="DejaVuSans-35" d="M 691 4666 
L 3169 4666 
L 3169 4134 
L 1269 4134 
L 1269 2991 
Q 1406 3038 1543 3061 
Q 1681 3084 1819 3084 
Q 2600 3084 3056 2656 
Q 3513 2228 3513 1497 
Q 3513 744 3044 326 
Q 2575 -91 1722 -91 
Q 1428 -91 1123 -41 
Q 819 9 494 109 
L 494 744 
Q 775 591 1075 516 
Q 1375 441 1709 441 
Q 2250 441 2565 725 
Q 2881 1009 2881 1497 
Q 2881 1984 2565 2268 
Q 2250 2553 1709 2553 
Q 1456 2553 1204 2497 
Q 953 2441 691 2322 
L 691 4666 
z
" transform="scale(0.015625)"/>
       </defs>
       <use xlink:href="#DejaVuSans-35"/>
       <use xlink:href="#DejaVuSans-30" x="63.623047"/>
      </g>
     </g>
    </g>
    <g id="xtick_3">
     <g id="line2d_3">
      <g>
       <use xlink:href="#mf8933e38d7" x="172.991071" y="192.24" style="stroke: #000000; stroke-width: 0.8"/>
      </g>
     </g>
     <g id="text_3">
      <!-- 100 -->
      <g transform="translate(163.447321 206.838437) scale(0.1 -0.1)">
       <defs>
        <path id="DejaVuSans-31" d="M 794 531 
L 1825 531 
L 1825 4091 
L 703 3866 
L 703 4441 
L 1819 4666 
L 2450 4666 
L 2450 531 
L 3481 531 
L 3481 0 
L 794 0 
L 794 531 
z
" transform="scale(0.015625)"/>
       </defs>
       <use xlink:href="#DejaVuSans-31"/>
       <use xlink:href="#DejaVuSans-30" x="63.623047"/>
       <use xlink:href="#DejaVuSans-30" x="127.246094"/>
      </g>
     </g>
    </g>
    <g id="xtick_4">
     <g id="line2d_4">
      <g>
       <use xlink:href="#mf8933e38d7" x="219.338511" y="192.24" style="stroke: #000000; stroke-width: 0.8"/>
      </g>
     </g>
     <g id="text_4">
      <!-- 150 -->
      <g transform="translate(209.794761 206.838437) scale(0.1 -0.1)">
       <use xlink:href="#DejaVuSans-31"/>
       <use xlink:href="#DejaVuSans-35" x="63.623047"/>
       <use xlink:href="#DejaVuSans-30" x="127.246094"/>
      </g>
     </g>
    </g>
    <g id="xtick_5">
     <g id="line2d_5">
      <g>
       <use xlink:href="#mf8933e38d7" x="265.68595" y="192.24" style="stroke: #000000; stroke-width: 0.8"/>
      </g>
     </g>
     <g id="text_5">
      <!-- 200 -->
      <g transform="translate(256.1422 206.838437) scale(0.1 -0.1)">
       <defs>
        <path id="DejaVuSans-32" d="M 1228 531 
L 3431 531 
L 3431 0 
L 469 0 
L 469 531 
Q 828 903 1448 1529 
Q 2069 2156 2228 2338 
Q 2531 2678 2651 2914 
Q 2772 3150 2772 3378 
Q 2772 3750 2511 3984 
Q 2250 4219 1831 4219 
Q 1534 4219 1204 4116 
Q 875 4013 500 3803 
L 500 4441 
Q 881 4594 1212 4672 
Q 1544 4750 1819 4750 
Q 2544 4750 2975 4387 
Q 3406 4025 3406 3419 
Q 3406 3131 3298 2873 
Q 3191 2616 2906 2266 
Q 2828 2175 2409 1742 
Q 1991 1309 1228 531 
z
" transform="scale(0.015625)"/>
       </defs>
       <use xlink:href="#DejaVuSans-32"/>
       <use xlink:href="#DejaVuSans-30" x="63.623047"/>
       <use xlink:href="#DejaVuSans-30" x="127.246094"/>
      </g>
     </g>
    </g>
    <g id="text_6">
     <!-- Epochs -->
     <g transform="translate(155.53892 220.516562) scale(0.1 -0.1)">
      <defs>
       <path id="DejaVuSans-45" d="M 628 4666 
L 3578 4666 
L 3578 4134 
L 1259 4134 
L 1259 2753 
L 3481 2753 
L 3481 2222 
L 1259 2222 
L 1259 531 
L 3634 531 
L 3634 0 
L 628 0 
L 628 4666 
z
" transform="scale(0.015625)"/>
       <path id="DejaVuSans-70" d="M 1159 525 
L 1159 -1331 
L 581 -1331 
L 581 3500 
L 1159 3500 
L 1159 2969 
Q 1341 3281 1617 3432 
Q 1894 3584 2278 3584 
Q 2916 3584 3314 3078 
Q 3713 2572 3713 1747 
Q 3713 922 3314 415 
Q 2916 -91 2278 -91 
Q 1894 -91 1617 61 
Q 1341 213 1159 525 
z
M 3116 1747 
Q 3116 2381 2855 2742 
Q 2594 3103 2138 3103 
Q 1681 3103 1420 2742 
Q 1159 2381 1159 1747 
Q 1159 1113 1420 752 
Q 1681 391 2138 391 
Q 2594 391 2855 752 
Q 3116 1113 3116 1747 
z
" transform="scale(0.015625)"/>
       <path id="DejaVuSans-6f" d="M 1959 3097 
Q 1497 3097 1228 2736 
Q 959 2375 959 1747 
Q 959 1119 1226 758 
Q 1494 397 1959 397 
Q 2419 397 2687 759 
Q 2956 1122 2956 1747 
Q 2956 2369 2687 2733 
Q 2419 3097 1959 3097 
z
M 1959 3584 
Q 2709 3584 3137 3096 
Q 3566 2609 3566 1747 
Q 3566 888 3137 398 
Q 2709 -91 1959 -91 
Q 1206 -91 779 398 
Q 353 888 353 1747 
Q 353 2609 779 3096 
Q 1206 3584 1959 3584 
z
" transform="scale(0.015625)"/>
       <path id="DejaVuSans-63" d="M 3122 3366 
L 3122 2828 
Q 2878 2963 2633 3030 
Q 2388 3097 2138 3097 
Q 1578 3097 1268 2742 
Q 959 2388 959 1747 
Q 959 1106 1268 751 
Q 1578 397 2138 397 
Q 2388 397 2633 464 
Q 2878 531 3122 666 
L 3122 134 
Q 2881 22 2623 -34 
Q 2366 -91 2075 -91 
Q 1284 -91 818 406 
Q 353 903 353 1747 
Q 353 2603 823 3093 
Q 1294 3584 2113 3584 
Q 2378 3584 2631 3529 
Q 2884 3475 3122 3366 
z
" transform="scale(0.015625)"/>
       <path id="DejaVuSans-68" d="M 3513 2113 
L 3513 0 
L 2938 0 
L 2938 2094 
Q 2938 2591 2744 2837 
Q 2550 3084 2163 3084 
Q 1697 3084 1428 2787 
Q 1159 2491 1159 1978 
L 1159 0 
L 581 0 
L 581 4863 
L 1159 4863 
L 1159 2956 
Q 1366 3272 1645 3428 
Q 1925 3584 2291 3584 
Q 2894 3584 3203 3211 
Q 3513 2838 3513 2113 
z
" transform="scale(0.015625)"/>
       <path id="DejaVuSans-73" d="M 2834 3397 
L 2834 2853 
Q 2591 2978 2328 3040 
Q 2066 3103 1784 3103 
Q 1356 3103 1142 2972 
Q 928 2841 928 2578 
Q 928 2378 1081 2264 
Q 1234 2150 1697 2047 
L 1894 2003 
Q 2506 1872 2764 1633 
Q 3022 1394 3022 966 
Q 3022 478 2636 193 
Q 2250 -91 1575 -91 
Q 1294 -91 989 -36 
Q 684 19 347 128 
L 347 722 
Q 666 556 975 473 
Q 1284 391 1588 391 
Q 1994 391 2212 530 
Q 2431 669 2431 922 
Q 2431 1156 2273 1281 
Q 2116 1406 1581 1522 
L 1381 1569 
Q 847 1681 609 1914 
Q 372 2147 372 2553 
Q 372 3047 722 3315 
Q 1072 3584 1716 3584 
Q 2034 3584 2315 3537 
Q 2597 3491 2834 3397 
z
" transform="scale(0.015625)"/>
      </defs>
      <use xlink:href="#DejaVuSans-45"/>
      <use xlink:href="#DejaVuSans-70" x="63.183594"/>
      <use xlink:href="#DejaVuSans-6f" x="126.660156"/>
      <use xlink:href="#DejaVuSans-63" x="187.841797"/>
      <use xlink:href="#DejaVuSans-68" x="242.822266"/>
      <use xlink:href="#DejaVuSans-73" x="306.201172"/>
     </g>
    </g>
   </g>
   <g id="matplotlib.axis_2">
    <g id="ytick_1">
     <g id="line2d_6">
      <defs>
       <path id="m4e51fa4b2e" d="M 0 0 
L -3.5 0 
" style="stroke: #000000; stroke-width: 0.8"/>
      </defs>
      <g>
       <use xlink:href="#m4e51fa4b2e" x="72" y="182.902447" style="stroke: #000000; stroke-width: 0.8"/>
      </g>
     </g>
     <g id="text_7">
      <!-- 0.400 -->
      <g transform="translate(36.371875 186.701665) scale(0.1 -0.1)">
       <defs>
        <path id="DejaVuSans-2e" d="M 684 794 
L 1344 794 
L 1344 0 
L 684 0 
L 684 794 
z
" transform="scale(0.015625)"/>
        <path id="DejaVuSans-34" d="M 2419 4116 
L 825 1625 
L 2419 1625 
L 2419 4116 
z
M 2253 4666 
L 3047 4666 
L 3047 1625 
L 3713 1625 
L 3713 1100 
L 3047 1100 
L 3047 0 
L 2419 0 
L 2419 1100 
L 313 1100 
L 313 1709 
L 2253 4666 
z
" transform="scale(0.015625)"/>
       </defs>
       <use xlink:href="#DejaVuSans-30"/>
       <use xlink:href="#DejaVuSans-2e" x="63.623047"/>
       <use xlink:href="#DejaVuSans-34" x="95.410156"/>
       <use xlink:href="#DejaVuSans-30" x="159.033203"/>
       <use xlink:href="#DejaVuSans-30" x="222.65625"/>
      </g>
     </g>
    </g>
    <g id="ytick_2">
     <g id="line2d_7">
      <g>
       <use xlink:href="#m4e51fa4b2e" x="72" y="157.544905" style="stroke: #000000; stroke-width: 0.8"/>
      </g>
     </g>
     <g id="text_8">
      <!-- 0.425 -->
      <g transform="translate(36.371875 161.344124) scale(0.1 -0.1)">
       <use xlink:href="#DejaVuSans-30"/>
       <use xlink:href="#DejaVuSans-2e" x="63.623047"/>
       <use xlink:href="#DejaVuSans-34" x="95.410156"/>
       <use xlink:href="#DejaVuSans-32" x="159.033203"/>
       <use xlink:href="#DejaVuSans-35" x="222.65625"/>
      </g>
     </g>
    </g>
    <g id="ytick_3">
     <g id="line2d_8">
      <g>
       <use xlink:href="#m4e51fa4b2e" x="72" y="132.187364" style="stroke: #000000; stroke-width: 0.8"/>
      </g>
     </g>
     <g id="text_9">
      <!-- 0.450 -->
      <g transform="translate(36.371875 135.986582) scale(0.1 -0.1)">
       <use xlink:href="#DejaVuSans-30"/>
       <use xlink:href="#DejaVuSans-2e" x="63.623047"/>
       <use xlink:href="#DejaVuSans-34" x="95.410156"/>
       <use xlink:href="#DejaVuSans-35" x="159.033203"/>
       <use xlink:href="#DejaVuSans-30" x="222.65625"/>
      </g>
     </g>
    </g>
    <g id="ytick_4">
     <g id="line2d_9">
      <g>
       <use xlink:href="#m4e51fa4b2e" x="72" y="106.829822" style="stroke: #000000; stroke-width: 0.8"/>
      </g>
     </g>
     <g id="text_10">
      <!-- 0.475 -->
      <g transform="translate(36.371875 110.629041) scale(0.1 -0.1)">
       <defs>
        <path id="DejaVuSans-37" d="M 525 4666 
L 3525 4666 
L 3525 4397 
L 1831 0 
L 1172 0 
L 2766 4134 
L 525 4134 
L 525 4666 
z
" transform="scale(0.015625)"/>
       </defs>
       <use xlink:href="#DejaVuSans-30"/>
       <use xlink:href="#DejaVuSans-2e" x="63.623047"/>
       <use xlink:href="#DejaVuSans-34" x="95.410156"/>
       <use xlink:href="#DejaVuSans-37" x="159.033203"/>
       <use xlink:href="#DejaVuSans-35" x="222.65625"/>
      </g>
     </g>
    </g>
    <g id="ytick_5">
     <g id="line2d_10">
      <g>
       <use xlink:href="#m4e51fa4b2e" x="72" y="81.472281" style="stroke: #000000; stroke-width: 0.8"/>
      </g>
     </g>
     <g id="text_11">
      <!-- 0.500 -->
      <g transform="translate(36.371875 85.271499) scale(0.1 -0.1)">
       <use xlink:href="#DejaVuSans-30"/>
       <use xlink:href="#DejaVuSans-2e" x="63.623047"/>
       <use xlink:href="#DejaVuSans-35" x="95.410156"/>
       <use xlink:href="#DejaVuSans-30" x="159.033203"/>
       <use xlink:href="#DejaVuSans-30" x="222.65625"/>
      </g>
     </g>
    </g>
    <g id="ytick_6">
     <g id="line2d_11">
      <g>
       <use xlink:href="#m4e51fa4b2e" x="72" y="56.114739" style="stroke: #000000; stroke-width: 0.8"/>
      </g>
     </g>
     <g id="text_12">
      <!-- 0.525 -->
      <g transform="translate(36.371875 59.913958) scale(0.1 -0.1)">
       <use xlink:href="#DejaVuSans-30"/>
       <use xlink:href="#DejaVuSans-2e" x="63.623047"/>
       <use xlink:href="#DejaVuSans-35" x="95.410156"/>
       <use xlink:href="#DejaVuSans-32" x="159.033203"/>
       <use xlink:href="#DejaVuSans-35" x="222.65625"/>
      </g>
     </g>
    </g>
    <g id="ytick_7">
     <g id="line2d_12">
      <g>
       <use xlink:href="#m4e51fa4b2e" x="72" y="30.757197" style="stroke: #000000; stroke-width: 0.8"/>
      </g>
     </g>
     <g id="text_13">
      <!-- 0.550 -->
      <g transform="translate(36.371875 34.556416) scale(0.1 -0.1)">
       <use xlink:href="#DejaVuSans-30"/>
       <use xlink:href="#DejaVuSans-2e" x="63.623047"/>
       <use xlink:href="#DejaVuSans-35" x="95.410156"/>
       <use xlink:href="#DejaVuSans-35" x="159.033203"/>
       <use xlink:href="#DejaVuSans-30" x="222.65625"/>
      </g>
     </g>
    </g>
   </g>
   <g id="line2d_13">
    <path d="M 81.22314 150.82034 
L 82.150089 137.491942 
L 83.077038 119.287264 
L 84.003987 117.843928 
L 84.930936 113.78768 
L 85.857884 113.58816 
L 87.711782 110.69808 
L 88.638731 110.901074 
L 89.56568 105.510682 
L 90.492628 101.457268 
L 91.419577 100.726403 
L 92.346526 100.163918 
L 93.273475 96.580865 
L 94.200424 94.488022 
L 95.127372 89.632326 
L 96.054321 88.371512 
L 96.98127 92.225074 
L 97.908219 88.143973 
L 98.835168 92.69728 
L 99.762116 94.371823 
L 100.689065 88.82667 
L 101.616014 87.158198 
L 102.542963 84.918135 
L 103.469912 85.299758 
L 104.39686 86.726742 
L 105.323809 83.404823 
L 106.250758 74.893987 
L 107.177707 76.215182 
L 108.104656 73.692437 
L 109.031604 67.162795 
L 109.958553 67.72621 
L 110.885502 66.502176 
L 111.812451 69.416218 
L 112.739399 68.222932 
L 113.666348 68.726366 
L 114.593297 69.589909 
L 115.520246 71.395645 
L 116.447195 69.152371 
L 117.374143 67.578584 
L 118.301092 67.324061 
L 119.228041 66.390708 
L 128.497529 69.57348 
L 129.424478 71.29475 
L 130.351427 69.096707 
L 131.278375 65.671759 
L 133.132273 68.0763 
L 134.059222 66.809469 
L 134.986171 71.23006 
L 135.913119 70.78986 
L 137.767017 75.027661 
L 138.693966 82.753894 
L 139.620914 89.005264 
L 140.547863 96.192682 
L 141.474812 99.331652 
L 142.401761 97.804921 
L 143.32871 97.409044 
L 144.255658 92.279793 
L 145.182607 97.559221 
L 146.109556 98.009175 
L 147.036505 96.670511 
L 147.963454 90.194959 
L 148.890402 86.204925 
L 149.817351 79.952914 
L 150.7443 76.976146 
L 151.671249 76.178568 
L 152.598198 79.657449 
L 153.525146 87.303918 
L 154.452095 85.069884 
L 155.379044 86.539252 
L 156.305993 83.491788 
L 157.232942 83.230878 
L 158.15989 82.407692 
L 159.086839 80.935682 
L 160.013788 77.923033 
L 160.940737 77.216955 
L 161.867686 78.689907 
L 162.794634 69.89608 
L 163.721583 72.186336 
L 164.648532 66.859545 
L 165.575481 65.668728 
L 166.50243 60.866946 
L 167.429378 59.572039 
L 168.356327 60.446401 
L 169.283276 58.851567 
L 170.210225 60.145961 
L 171.137173 57.232275 
L 172.064122 57.640718 
L 172.991071 52.614982 
L 173.91802 53.28844 
L 174.844969 54.195344 
L 175.771917 54.321365 
L 176.698866 54.642705 
L 177.625815 57.464979 
L 178.552764 58.753123 
L 179.479713 61.594017 
L 180.406661 62.080934 
L 181.33361 62.264914 
L 182.260559 63.78939 
L 183.187508 63.1671 
L 185.041405 64.665959 
L 185.968354 65.809332 
L 186.895303 63.079917 
L 187.822252 65.444346 
L 188.749201 64.994695 
L 189.676149 63.615241 
L 190.603098 64.446587 
L 191.530047 62.182189 
L 192.456996 62.723328 
L 193.383945 62.710818 
L 194.310893 63.794979 
L 195.237842 66.430598 
L 196.164791 67.27984 
L 198.018688 63.683152 
L 198.945637 66.091407 
L 199.872586 67.853631 
L 200.799535 69.302523 
L 201.726484 73.106065 
L 202.653432 75.139607 
L 204.50733 69.388402 
L 205.434279 71.083416 
L 206.361228 75.168401 
L 207.288176 75.36376 
L 208.215125 74.847809 
L 209.142074 74.850795 
L 210.069023 74.246949 
L 211.92292 69.279896 
L 212.849869 71.740254 
L 213.776818 72.99222 
L 214.703767 72.511215 
L 215.630716 70.157181 
L 216.557664 69.694899 
L 217.484613 70.072849 
L 218.411562 70.003741 
L 219.338511 71.014345 
L 221.192408 72.546947 
L 222.119357 71.309579 
L 223.046306 71.152777 
L 223.973255 71.613906 
L 224.900203 71.129819 
L 225.827152 70.509486 
L 226.754101 69.165799 
L 227.68105 68.619247 
L 228.607999 68.845326 
L 229.534947 67.355622 
L 230.461896 65.552083 
L 231.388845 64.64781 
L 232.315794 62.899782 
L 233.242743 60.157584 
L 234.169691 59.522631 
L 236.023589 57.141739 
L 236.950538 56.595466 
L 237.877487 54.424212 
L 238.804435 54.597873 
L 239.731384 55.474627 
L 240.658333 56.003793 
L 241.585282 55.128095 
L 242.512231 55.866768 
L 243.439179 56.232348 
L 244.366128 56.837378 
L 245.293077 56.106495 
L 246.220026 55.7527 
L 247.146975 56.946481 
L 248.073923 56.275169 
L 249.000872 56.328948 
L 249.927821 55.216045 
L 250.85477 57.138118 
L 251.781719 57.507415 
L 252.708667 57.489594 
L 253.635616 56.75353 
L 254.562565 58.183865 
L 255.489514 57.895204 
L 256.416462 57.126376 
L 257.343411 57.69525 
L 258.27036 57.204945 
L 259.197309 57.622748 
L 260.124258 56.784883 
L 261.051206 56.442892 
L 261.978155 56.864268 
L 262.905104 57.485398 
L 263.832053 57.380438 
L 264.759002 57.047717 
L 265.68595 57.577904 
L 265.68595 57.577904 
" clip-path="url(#p04887ae0ec)" style="fill: none; stroke: #1f77b4; stroke-width: 1.5; stroke-linecap: square"/>
   </g>
   <g id="line2d_14">
    <path d="M 81.22314 142.914586 
L 82.150089 124.651179 
L 83.077038 109.051374 
L 84.003987 106.085972 
L 84.930936 104.94324 
L 85.857884 102.827956 
L 86.784833 100.35245 
L 87.711782 99.724502 
L 88.638731 100.801913 
L 89.56568 96.475913 
L 90.492628 94.004501 
L 91.419577 95.611639 
L 92.346526 95.533646 
L 93.273475 94.017143 
L 94.200424 91.987583 
L 95.127372 86.520282 
L 96.054321 86.038859 
L 96.98127 90.516621 
L 97.908219 86.980361 
L 98.835168 90.143014 
L 99.762116 90.371356 
L 100.689065 82.024438 
L 101.616014 78.545457 
L 102.542963 74.602443 
L 103.469912 74.119895 
L 104.39686 76.211681 
L 105.323809 71.886723 
L 106.250758 60.957551 
L 107.177707 60.411178 
L 108.104656 56.725587 
L 109.031604 49.665311 
L 109.958553 51.459141 
L 110.885502 52.314839 
L 111.812451 56.414806 
L 112.739399 55.865095 
L 113.666348 59.241729 
L 114.593297 61.002537 
L 115.520246 64.719483 
L 116.447195 64.256542 
L 117.374143 64.450677 
L 118.301092 65.665622 
L 119.228041 65.140089 
L 127.57058 69.058465 
L 128.497529 69.224336 
L 129.424478 73.466691 
L 130.351427 68.281999 
L 131.278375 67.60705 
L 132.205324 69.385644 
L 133.132273 71.461423 
L 134.059222 71.615053 
L 134.986171 75.628197 
L 135.913119 77.281114 
L 136.840068 75.044936 
L 137.767017 76.051669 
L 138.693966 82.063779 
L 140.547863 96.589861 
L 141.474812 99.995666 
L 142.401761 97.151609 
L 143.32871 96.743248 
L 144.255658 90.734425 
L 145.182607 94.067413 
L 146.109556 95.122051 
L 147.036505 93.045438 
L 149.817351 72.8341 
L 150.7443 69.163343 
L 151.671249 68.286205 
L 152.598198 69.707438 
L 153.525146 75.918849 
L 154.452095 75.425982 
L 155.379044 75.648014 
L 156.305993 71.739626 
L 157.232942 72.070419 
L 158.15989 74.639291 
L 159.086839 74.172092 
L 160.013788 69.082621 
L 160.940737 68.468953 
L 161.867686 69.944591 
L 162.794634 63.882321 
L 163.721583 62.472928 
L 164.648532 56.910252 
L 165.575481 58.080717 
L 166.50243 52.912213 
L 167.429378 50.165192 
L 168.356327 48.552026 
L 169.283276 49.221256 
L 170.210225 50.681412 
L 171.137173 47.589695 
L 172.064122 47.526504 
L 172.991071 45.101031 
L 173.91802 46.178698 
L 175.771917 46.872681 
L 176.698866 46.822479 
L 177.625815 50.871099 
L 178.552764 49.452897 
L 179.479713 53.809085 
L 180.406661 53.621522 
L 181.33361 53.092637 
L 182.260559 53.732935 
L 183.187508 53.037109 
L 184.114457 51.105633 
L 185.041405 50.261533 
L 185.968354 50.42853 
L 186.895303 46.904253 
L 187.822252 51.157943 
L 188.749201 50.402057 
L 189.676149 51.130121 
L 190.603098 53.504115 
L 191.530047 51.510572 
L 192.456996 54.02959 
L 193.383945 57.068243 
L 195.237842 62.375957 
L 196.164791 60.739172 
L 197.09174 58.227466 
L 198.018688 54.745617 
L 199.872586 55.447249 
L 200.799535 54.939853 
L 201.726484 56.471739 
L 202.653432 57.623597 
L 203.580381 55.096853 
L 204.50733 51.722088 
L 205.434279 54.328729 
L 206.361228 57.426392 
L 207.288176 57.6292 
L 208.215125 57.634093 
L 209.142074 57.226674 
L 210.069023 56.42813 
L 210.995972 53.980238 
L 211.92292 49.616285 
L 212.849869 48.700593 
L 213.776818 51.037857 
L 214.703767 50.613934 
L 215.630716 46.223046 
L 217.484613 45.258915 
L 218.411562 42.442882 
L 220.26546 45.016306 
L 221.192408 47.348198 
L 222.119357 47.768266 
L 223.046306 47.898266 
L 223.973255 49.121061 
L 224.900203 49.882533 
L 225.827152 49.4662 
L 226.754101 49.65257 
L 227.68105 52.935852 
L 228.607999 54.967786 
L 230.461896 53.465567 
L 231.388845 53.119635 
L 232.315794 52.024293 
L 233.242743 50.237676 
L 234.169691 50.726688 
L 235.09664 49.285976 
L 236.023589 47.352159 
L 236.950538 44.967426 
L 237.877487 41.93541 
L 238.804435 40.109908 
L 239.731384 38.836214 
L 240.658333 38.282681 
L 241.585282 36.951719 
L 242.512231 36.285478 
L 243.439179 37.237813 
L 244.366128 37.303571 
L 246.220026 33.558145 
L 247.146975 34.285814 
L 248.073923 34.161905 
L 249.000872 34.354288 
L 249.927821 33.48 
L 250.85477 34.435329 
L 251.781719 35.182398 
L 252.708667 33.898953 
L 253.635616 33.792892 
L 254.562565 36.241594 
L 255.489514 36.634822 
L 256.416462 35.845985 
L 257.343411 35.962248 
L 258.27036 35.917029 
L 259.197309 37.040858 
L 260.124258 36.406394 
L 261.051206 37.21962 
L 261.978155 38.915954 
L 262.905104 38.648646 
L 263.832053 39.344963 
L 264.759002 39.536012 
L 265.68595 40.089927 
L 265.68595 40.089927 
" clip-path="url(#p04887ae0ec)" style="fill: none; stroke: #ff7f0e; stroke-width: 1.5; stroke-linecap: square"/>
   </g>
   <g id="line2d_15">
    <path d="M 81.22314 181.32645 
L 82.150089 180.914465 
L 83.077038 166.880279 
L 84.003987 168.361569 
L 84.930936 169.603682 
L 85.857884 172.30809 
L 86.784833 174.079859 
L 87.711782 172.561671 
L 88.638731 175.057691 
L 89.56568 172.295042 
L 91.419577 175.701282 
L 92.346526 178.895498 
L 94.200424 174.69294 
L 95.127372 169.197341 
L 96.054321 168.882304 
L 96.98127 173.315665 
L 97.908219 168.652837 
L 98.835168 171.649751 
L 99.762116 171.673003 
L 100.689065 165.486871 
L 102.542963 158.830339 
L 103.469912 157.569439 
L 104.39686 160.460761 
L 105.323809 155.575581 
L 106.250758 149.025452 
L 107.177707 150.964216 
L 108.104656 148.844741 
L 109.031604 141.62035 
L 109.958553 142.122227 
L 110.885502 139.729241 
L 111.812451 143.204078 
L 112.739399 143.67216 
L 113.666348 143.868293 
L 114.593297 144.700416 
L 115.520246 145.827315 
L 116.447195 143.449272 
L 117.374143 141.625549 
L 118.301092 142.108023 
L 127.57058 146.087496 
L 128.497529 150.96208 
L 129.424478 153.433128 
L 130.351427 151.753276 
L 131.278375 147.229168 
L 132.205324 149.358092 
L 133.132273 149.010446 
L 134.059222 149.939408 
L 134.986171 154.202914 
L 135.913119 152.36106 
L 136.840068 151.174179 
L 137.767017 152.568559 
L 138.693966 163.062718 
L 139.620914 169.758927 
L 140.547863 178.461435 
L 141.474812 181.1017 
L 142.401761 182.553479 
L 143.32871 180.153148 
L 144.255658 177.386859 
L 145.182607 184.68 
L 146.109556 182.288891 
L 147.036505 180.682077 
L 147.963454 171.773467 
L 148.890402 167.560608 
L 149.817351 161.682743 
L 150.7443 159.013217 
L 151.671249 157.13397 
L 152.598198 160.520336 
L 153.525146 166.118033 
L 154.452095 164.384606 
L 155.379044 169.045051 
L 156.305993 168.289694 
L 157.232942 167.921144 
L 158.15989 167.16615 
L 159.086839 166.802209 
L 160.013788 163.640267 
L 160.940737 161.997372 
L 161.867686 164.195141 
L 162.794634 155.123404 
L 163.721583 157.703058 
L 164.648532 150.069875 
L 165.575481 146.976349 
L 166.50243 142.61931 
L 167.429378 140.286948 
L 168.356327 140.184254 
L 169.283276 138.135507 
L 170.210225 138.517349 
L 171.137173 135.390944 
L 172.064122 136.525971 
L 172.991071 131.47074 
L 173.91802 133.017215 
L 174.844969 133.625606 
L 175.771917 133.309369 
L 176.698866 134.486549 
L 177.625815 137.845931 
L 178.552764 140.455595 
L 179.479713 144.246778 
L 180.406661 144.861655 
L 181.33361 144.160715 
L 182.260559 144.383442 
L 183.187508 143.119437 
L 185.041405 145.677408 
L 185.968354 146.367189 
L 186.895303 142.982241 
L 187.822252 144.873602 
L 188.749201 144.438501 
L 189.676149 141.05948 
L 190.603098 141.684399 
L 191.530047 140.809953 
L 192.456996 142.46719 
L 194.310893 143.842467 
L 195.237842 145.888589 
L 196.164791 145.581726 
L 197.09174 143.108744 
L 198.018688 139.484888 
L 198.945637 143.375559 
L 199.872586 145.805823 
L 200.799535 149.046252 
L 201.726484 154.031429 
L 202.653432 155.591096 
L 203.580381 153.019625 
L 204.50733 151.133206 
L 205.434279 154.048495 
L 206.361228 158.868177 
L 207.288176 162.25117 
L 208.215125 162.342642 
L 209.142074 163.360835 
L 210.069023 160.319398 
L 210.995972 156.676008 
L 211.92292 154.448332 
L 212.849869 156.210119 
L 213.776818 158.468312 
L 214.703767 157.341517 
L 215.630716 153.803022 
L 216.557664 153.004946 
L 217.484613 153.000867 
L 218.411562 152.321967 
L 219.338511 153.815799 
L 220.26546 154.482761 
L 221.192408 155.832836 
L 222.119357 155.405625 
L 223.046306 154.576085 
L 223.973255 155.529128 
L 224.900203 156.168927 
L 225.827152 155.968448 
L 226.754101 155.244958 
L 227.68105 155.569084 
L 228.607999 156.321933 
L 229.534947 154.949039 
L 230.461896 152.714686 
L 231.388845 151.099034 
L 232.315794 148.917491 
L 233.242743 145.821579 
L 234.169691 145.138957 
L 236.023589 142.263662 
L 236.950538 140.389812 
L 237.877487 137.254069 
L 238.804435 137.234119 
L 239.731384 138.21116 
L 240.658333 139.436101 
L 241.585282 138.758549 
L 242.512231 140.054913 
L 243.439179 140.302539 
L 244.366128 140.187236 
L 245.293077 138.625154 
L 246.220026 138.523276 
L 247.146975 139.925509 
L 249.000872 138.975824 
L 249.927821 137.820921 
L 250.85477 139.917046 
L 251.781719 140.029152 
L 252.708667 141.109134 
L 253.635616 141.309754 
L 254.562565 143.023824 
L 255.489514 143.447312 
L 256.416462 142.96457 
L 258.27036 144.037309 
L 259.197309 144.999422 
L 260.124258 144.031478 
L 261.051206 143.510837 
L 261.978155 142.271064 
L 262.905104 142.347247 
L 263.832053 142.70053 
L 264.759002 141.774004 
L 265.68595 142.723311 
L 265.68595 142.723311 
" clip-path="url(#p04887ae0ec)" style="fill: none; stroke: #2ca02c; stroke-width: 1.5; stroke-linecap: square"/>
   </g>
   <g id="patch_3">
    <path d="M 72 192.24 
L 72 25.92 
" style="fill: none; stroke: #000000; stroke-width: 0.8; stroke-linejoin: miter; stroke-linecap: square"/>
   </g>
   <g id="patch_4">
    <path d="M 274.909091 192.24 
L 274.909091 25.92 
" style="fill: none; stroke: #000000; stroke-width: 0.8; stroke-linejoin: miter; stroke-linecap: square"/>
   </g>
   <g id="patch_5">
    <path d="M 72 192.24 
L 274.909091 192.24 
" style="fill: none; stroke: #000000; stroke-width: 0.8; stroke-linejoin: miter; stroke-linecap: square"/>
   </g>
   <g id="patch_6">
    <path d="M 72 25.92 
L 274.909091 25.92 
" style="fill: none; stroke: #000000; stroke-width: 0.8; stroke-linejoin: miter; stroke-linecap: square"/>
   </g>
   <g id="text_14">
    <!-- Precision -->
    <g transform="translate(146.686108 19.92) scale(0.12 -0.12)">
     <defs>
      <path id="DejaVuSans-50" d="M 1259 4147 
L 1259 2394 
L 2053 2394 
Q 2494 2394 2734 2622 
Q 2975 2850 2975 3272 
Q 2975 3691 2734 3919 
Q 2494 4147 2053 4147 
L 1259 4147 
z
M 628 4666 
L 2053 4666 
Q 2838 4666 3239 4311 
Q 3641 3956 3641 3272 
Q 3641 2581 3239 2228 
Q 2838 1875 2053 1875 
L 1259 1875 
L 1259 0 
L 628 0 
L 628 4666 
z
" transform="scale(0.015625)"/>
      <path id="DejaVuSans-72" d="M 2631 2963 
Q 2534 3019 2420 3045 
Q 2306 3072 2169 3072 
Q 1681 3072 1420 2755 
Q 1159 2438 1159 1844 
L 1159 0 
L 581 0 
L 581 3500 
L 1159 3500 
L 1159 2956 
Q 1341 3275 1631 3429 
Q 1922 3584 2338 3584 
Q 2397 3584 2469 3576 
Q 2541 3569 2628 3553 
L 2631 2963 
z
" transform="scale(0.015625)"/>
      <path id="DejaVuSans-65" d="M 3597 1894 
L 3597 1613 
L 953 1613 
Q 991 1019 1311 708 
Q 1631 397 2203 397 
Q 2534 397 2845 478 
Q 3156 559 3463 722 
L 3463 178 
Q 3153 47 2828 -22 
Q 2503 -91 2169 -91 
Q 1331 -91 842 396 
Q 353 884 353 1716 
Q 353 2575 817 3079 
Q 1281 3584 2069 3584 
Q 2775 3584 3186 3129 
Q 3597 2675 3597 1894 
z
M 3022 2063 
Q 3016 2534 2758 2815 
Q 2500 3097 2075 3097 
Q 1594 3097 1305 2825 
Q 1016 2553 972 2059 
L 3022 2063 
z
" transform="scale(0.015625)"/>
      <path id="DejaVuSans-69" d="M 603 3500 
L 1178 3500 
L 1178 0 
L 603 0 
L 603 3500 
z
M 603 4863 
L 1178 4863 
L 1178 4134 
L 603 4134 
L 603 4863 
z
" transform="scale(0.015625)"/>
      <path id="DejaVuSans-6e" d="M 3513 2113 
L 3513 0 
L 2938 0 
L 2938 2094 
Q 2938 2591 2744 2837 
Q 2550 3084 2163 3084 
Q 1697 3084 1428 2787 
Q 1159 2491 1159 1978 
L 1159 0 
L 581 0 
L 581 3500 
L 1159 3500 
L 1159 2956 
Q 1366 3272 1645 3428 
Q 1925 3584 2291 3584 
Q 2894 3584 3203 3211 
Q 3513 2838 3513 2113 
z
" transform="scale(0.015625)"/>
     </defs>
     <use xlink:href="#DejaVuSans-50"/>
     <use xlink:href="#DejaVuSans-72" x="58.552734"/>
     <use xlink:href="#DejaVuSans-65" x="97.416016"/>
     <use xlink:href="#DejaVuSans-63" x="158.939453"/>
     <use xlink:href="#DejaVuSans-69" x="213.919922"/>
     <use xlink:href="#DejaVuSans-73" x="241.703125"/>
     <use xlink:href="#DejaVuSans-69" x="293.802734"/>
     <use xlink:href="#DejaVuSans-6f" x="321.585938"/>
     <use xlink:href="#DejaVuSans-6e" x="382.767578"/>
    </g>
   </g>
   <g id="legend_1">
    <g id="patch_7">
     <path d="M 212.634091 132.597187 
L 267.909091 132.597187 
Q 269.909091 132.597187 269.909091 130.597187 
L 269.909091 87.562813 
Q 269.909091 85.562813 267.909091 85.562813 
L 212.634091 85.562813 
Q 210.634091 85.562813 210.634091 87.562813 
L 210.634091 130.597187 
Q 210.634091 132.597187 212.634091 132.597187 
z
" style="fill: #ffffff; opacity: 0.8; stroke: #cccccc; stroke-linejoin: miter"/>
    </g>
    <g id="line2d_16">
     <path d="M 214.634091 93.66125 
L 224.634091 93.66125 
L 234.634091 93.66125 
" style="fill: none; stroke: #1f77b4; stroke-width: 1.5; stroke-linecap: square"/>
    </g>
    <g id="text_15">
     <!-- train -->
     <g transform="translate(242.634091 97.16125) scale(0.1 -0.1)">
      <defs>
       <path id="DejaVuSans-74" d="M 1172 4494 
L 1172 3500 
L 2356 3500 
L 2356 3053 
L 1172 3053 
L 1172 1153 
Q 1172 725 1289 603 
Q 1406 481 1766 481 
L 2356 481 
L 2356 0 
L 1766 0 
Q 1100 0 847 248 
Q 594 497 594 1153 
L 594 3053 
L 172 3053 
L 172 3500 
L 594 3500 
L 594 4494 
L 1172 4494 
z
" transform="scale(0.015625)"/>
       <path id="DejaVuSans-61" d="M 2194 1759 
Q 1497 1759 1228 1600 
Q 959 1441 959 1056 
Q 959 750 1161 570 
Q 1363 391 1709 391 
Q 2188 391 2477 730 
Q 2766 1069 2766 1631 
L 2766 1759 
L 2194 1759 
z
M 3341 1997 
L 3341 0 
L 2766 0 
L 2766 531 
Q 2569 213 2275 61 
Q 1981 -91 1556 -91 
Q 1019 -91 701 211 
Q 384 513 384 1019 
Q 384 1609 779 1909 
Q 1175 2209 1959 2209 
L 2766 2209 
L 2766 2266 
Q 2766 2663 2505 2880 
Q 2244 3097 1772 3097 
Q 1472 3097 1187 3025 
Q 903 2953 641 2809 
L 641 3341 
Q 956 3463 1253 3523 
Q 1550 3584 1831 3584 
Q 2591 3584 2966 3190 
Q 3341 2797 3341 1997 
z
" transform="scale(0.015625)"/>
      </defs>
      <use xlink:href="#DejaVuSans-74"/>
      <use xlink:href="#DejaVuSans-72" x="39.208984"/>
      <use xlink:href="#DejaVuSans-61" x="80.322266"/>
      <use xlink:href="#DejaVuSans-69" x="141.601562"/>
      <use xlink:href="#DejaVuSans-6e" x="169.384766"/>
     </g>
    </g>
    <g id="line2d_17">
     <path d="M 214.634091 108.339375 
L 224.634091 108.339375 
L 234.634091 108.339375 
" style="fill: none; stroke: #ff7f0e; stroke-width: 1.5; stroke-linecap: square"/>
    </g>
    <g id="text_16">
     <!-- eval -->
     <g transform="translate(242.634091 111.839375) scale(0.1 -0.1)">
      <defs>
       <path id="DejaVuSans-76" d="M 191 3500 
L 800 3500 
L 1894 563 
L 2988 3500 
L 3597 3500 
L 2284 0 
L 1503 0 
L 191 3500 
z
" transform="scale(0.015625)"/>
       <path id="DejaVuSans-6c" d="M 603 4863 
L 1178 4863 
L 1178 0 
L 603 0 
L 603 4863 
z
" transform="scale(0.015625)"/>
      </defs>
      <use xlink:href="#DejaVuSans-65"/>
      <use xlink:href="#DejaVuSans-76" x="61.523438"/>
      <use xlink:href="#DejaVuSans-61" x="120.703125"/>
      <use xlink:href="#DejaVuSans-6c" x="181.982422"/>
     </g>
    </g>
    <g id="line2d_18">
     <path d="M 214.634091 123.0175 
L 224.634091 123.0175 
L 234.634091 123.0175 
" style="fill: none; stroke: #2ca02c; stroke-width: 1.5; stroke-linecap: square"/>
    </g>
    <g id="text_17">
     <!-- test -->
     <g transform="translate(242.634091 126.5175) scale(0.1 -0.1)">
      <use xlink:href="#DejaVuSans-74"/>
      <use xlink:href="#DejaVuSans-65" x="39.208984"/>
      <use xlink:href="#DejaVuSans-73" x="100.732422"/>
      <use xlink:href="#DejaVuSans-74" x="152.832031"/>
     </g>
    </g>
   </g>
  </g>
  <g id="axes_2">
   <g id="patch_8">
    <path d="M 315.490909 192.24 
L 518.4 192.24 
L 518.4 25.92 
L 315.490909 25.92 
z
" style="fill: #ffffff"/>
   </g>
   <g id="matplotlib.axis_3">
    <g id="xtick_6">
     <g id="line2d_19">
      <g>
       <use xlink:href="#mf8933e38d7" x="323.787101" y="192.24" style="stroke: #000000; stroke-width: 0.8"/>
      </g>
     </g>
     <g id="text_18">
      <!-- 0 -->
      <g transform="translate(320.605851 206.838437) scale(0.1 -0.1)">
       <use xlink:href="#DejaVuSans-30"/>
      </g>
     </g>
    </g>
    <g id="xtick_7">
     <g id="line2d_20">
      <g>
       <use xlink:href="#mf8933e38d7" x="370.13454" y="192.24" style="stroke: #000000; stroke-width: 0.8"/>
      </g>
     </g>
     <g id="text_19">
      <!-- 50 -->
      <g transform="translate(363.77204 206.838437) scale(0.1 -0.1)">
       <use xlink:href="#DejaVuSans-35"/>
       <use xlink:href="#DejaVuSans-30" x="63.623047"/>
      </g>
     </g>
    </g>
    <g id="xtick_8">
     <g id="line2d_21">
      <g>
       <use xlink:href="#mf8933e38d7" x="416.48198" y="192.24" style="stroke: #000000; stroke-width: 0.8"/>
      </g>
     </g>
     <g id="text_20">
      <!-- 100 -->
      <g transform="translate(406.93823 206.838437) scale(0.1 -0.1)">
       <use xlink:href="#DejaVuSans-31"/>
       <use xlink:href="#DejaVuSans-30" x="63.623047"/>
       <use xlink:href="#DejaVuSans-30" x="127.246094"/>
      </g>
     </g>
    </g>
    <g id="xtick_9">
     <g id="line2d_22">
      <g>
       <use xlink:href="#mf8933e38d7" x="462.82942" y="192.24" style="stroke: #000000; stroke-width: 0.8"/>
      </g>
     </g>
     <g id="text_21">
      <!-- 150 -->
      <g transform="translate(453.28567 206.838437) scale(0.1 -0.1)">
       <use xlink:href="#DejaVuSans-31"/>
       <use xlink:href="#DejaVuSans-35" x="63.623047"/>
       <use xlink:href="#DejaVuSans-30" x="127.246094"/>
      </g>
     </g>
    </g>
    <g id="xtick_10">
     <g id="line2d_23">
      <g>
       <use xlink:href="#mf8933e38d7" x="509.17686" y="192.24" style="stroke: #000000; stroke-width: 0.8"/>
      </g>
     </g>
     <g id="text_22">
      <!-- 200 -->
      <g transform="translate(499.63311 206.838437) scale(0.1 -0.1)">
       <use xlink:href="#DejaVuSans-32"/>
       <use xlink:href="#DejaVuSans-30" x="63.623047"/>
       <use xlink:href="#DejaVuSans-30" x="127.246094"/>
      </g>
     </g>
    </g>
    <g id="text_23">
     <!-- Epochs -->
     <g transform="translate(399.02983 220.516562) scale(0.1 -0.1)">
      <use xlink:href="#DejaVuSans-45"/>
      <use xlink:href="#DejaVuSans-70" x="63.183594"/>
      <use xlink:href="#DejaVuSans-6f" x="126.660156"/>
      <use xlink:href="#DejaVuSans-63" x="187.841797"/>
      <use xlink:href="#DejaVuSans-68" x="242.822266"/>
      <use xlink:href="#DejaVuSans-73" x="306.201172"/>
     </g>
    </g>
   </g>
   <g id="matplotlib.axis_4">
    <g id="ytick_8">
     <g id="line2d_24">
      <g>
       <use xlink:href="#m4e51fa4b2e" x="315.490909" y="166.897454" style="stroke: #000000; stroke-width: 0.8"/>
      </g>
     </g>
     <g id="text_24">
      <!-- 0.58 -->
      <g transform="translate(286.225284 170.696672) scale(0.1 -0.1)">
       <defs>
        <path id="DejaVuSans-38" d="M 2034 2216 
Q 1584 2216 1326 1975 
Q 1069 1734 1069 1313 
Q 1069 891 1326 650 
Q 1584 409 2034 409 
Q 2484 409 2743 651 
Q 3003 894 3003 1313 
Q 3003 1734 2745 1975 
Q 2488 2216 2034 2216 
z
M 1403 2484 
Q 997 2584 770 2862 
Q 544 3141 544 3541 
Q 544 4100 942 4425 
Q 1341 4750 2034 4750 
Q 2731 4750 3128 4425 
Q 3525 4100 3525 3541 
Q 3525 3141 3298 2862 
Q 3072 2584 2669 2484 
Q 3125 2378 3379 2068 
Q 3634 1759 3634 1313 
Q 3634 634 3220 271 
Q 2806 -91 2034 -91 
Q 1263 -91 848 271 
Q 434 634 434 1313 
Q 434 1759 690 2068 
Q 947 2378 1403 2484 
z
M 1172 3481 
Q 1172 3119 1398 2916 
Q 1625 2713 2034 2713 
Q 2441 2713 2670 2916 
Q 2900 3119 2900 3481 
Q 2900 3844 2670 4047 
Q 2441 4250 2034 4250 
Q 1625 4250 1398 4047 
Q 1172 3844 1172 3481 
z
" transform="scale(0.015625)"/>
       </defs>
       <use xlink:href="#DejaVuSans-30"/>
       <use xlink:href="#DejaVuSans-2e" x="63.623047"/>
       <use xlink:href="#DejaVuSans-35" x="95.410156"/>
       <use xlink:href="#DejaVuSans-38" x="159.033203"/>
      </g>
     </g>
    </g>
    <g id="ytick_9">
     <g id="line2d_25">
      <g>
       <use xlink:href="#m4e51fa4b2e" x="315.490909" y="139.884094" style="stroke: #000000; stroke-width: 0.8"/>
      </g>
     </g>
     <g id="text_25">
      <!-- 0.60 -->
      <g transform="translate(286.225284 143.683312) scale(0.1 -0.1)">
       <defs>
        <path id="DejaVuSans-36" d="M 2113 2584 
Q 1688 2584 1439 2293 
Q 1191 2003 1191 1497 
Q 1191 994 1439 701 
Q 1688 409 2113 409 
Q 2538 409 2786 701 
Q 3034 994 3034 1497 
Q 3034 2003 2786 2293 
Q 2538 2584 2113 2584 
z
M 3366 4563 
L 3366 3988 
Q 3128 4100 2886 4159 
Q 2644 4219 2406 4219 
Q 1781 4219 1451 3797 
Q 1122 3375 1075 2522 
Q 1259 2794 1537 2939 
Q 1816 3084 2150 3084 
Q 2853 3084 3261 2657 
Q 3669 2231 3669 1497 
Q 3669 778 3244 343 
Q 2819 -91 2113 -91 
Q 1303 -91 875 529 
Q 447 1150 447 2328 
Q 447 3434 972 4092 
Q 1497 4750 2381 4750 
Q 2619 4750 2861 4703 
Q 3103 4656 3366 4563 
z
" transform="scale(0.015625)"/>
       </defs>
       <use xlink:href="#DejaVuSans-30"/>
       <use xlink:href="#DejaVuSans-2e" x="63.623047"/>
       <use xlink:href="#DejaVuSans-36" x="95.410156"/>
       <use xlink:href="#DejaVuSans-30" x="159.033203"/>
      </g>
     </g>
    </g>
    <g id="ytick_10">
     <g id="line2d_26">
      <g>
       <use xlink:href="#m4e51fa4b2e" x="315.490909" y="112.870734" style="stroke: #000000; stroke-width: 0.8"/>
      </g>
     </g>
     <g id="text_26">
      <!-- 0.62 -->
      <g transform="translate(286.225284 116.669952) scale(0.1 -0.1)">
       <use xlink:href="#DejaVuSans-30"/>
       <use xlink:href="#DejaVuSans-2e" x="63.623047"/>
       <use xlink:href="#DejaVuSans-36" x="95.410156"/>
       <use xlink:href="#DejaVuSans-32" x="159.033203"/>
      </g>
     </g>
    </g>
    <g id="ytick_11">
     <g id="line2d_27">
      <g>
       <use xlink:href="#m4e51fa4b2e" x="315.490909" y="85.857374" style="stroke: #000000; stroke-width: 0.8"/>
      </g>
     </g>
     <g id="text_27">
      <!-- 0.64 -->
      <g transform="translate(286.225284 89.656592) scale(0.1 -0.1)">
       <use xlink:href="#DejaVuSans-30"/>
       <use xlink:href="#DejaVuSans-2e" x="63.623047"/>
       <use xlink:href="#DejaVuSans-36" x="95.410156"/>
       <use xlink:href="#DejaVuSans-34" x="159.033203"/>
      </g>
     </g>
    </g>
    <g id="ytick_12">
     <g id="line2d_28">
      <g>
       <use xlink:href="#m4e51fa4b2e" x="315.490909" y="58.844014" style="stroke: #000000; stroke-width: 0.8"/>
      </g>
     </g>
     <g id="text_28">
      <!-- 0.66 -->
      <g transform="translate(286.225284 62.643233) scale(0.1 -0.1)">
       <use xlink:href="#DejaVuSans-30"/>
       <use xlink:href="#DejaVuSans-2e" x="63.623047"/>
       <use xlink:href="#DejaVuSans-36" x="95.410156"/>
       <use xlink:href="#DejaVuSans-36" x="159.033203"/>
      </g>
     </g>
    </g>
    <g id="ytick_13">
     <g id="line2d_29">
      <g>
       <use xlink:href="#m4e51fa4b2e" x="315.490909" y="31.830654" style="stroke: #000000; stroke-width: 0.8"/>
      </g>
     </g>
     <g id="text_29">
      <!-- 0.68 -->
      <g transform="translate(286.225284 35.629873) scale(0.1 -0.1)">
       <use xlink:href="#DejaVuSans-30"/>
       <use xlink:href="#DejaVuSans-2e" x="63.623047"/>
       <use xlink:href="#DejaVuSans-36" x="95.410156"/>
       <use xlink:href="#DejaVuSans-38" x="159.033203"/>
      </g>
     </g>
    </g>
   </g>
   <g id="line2d_30">
    <path d="M 324.71405 126.084407 
L 325.640998 127.502183 
L 326.567947 118.365404 
L 327.494896 112.615534 
L 329.348794 102.415423 
L 330.275742 98.977879 
L 331.202691 100.387215 
L 332.12964 100.223121 
L 333.056589 98.744958 
L 333.983538 93.688224 
L 334.910486 87.922601 
L 335.837435 87.024676 
L 336.764384 86.481195 
L 337.691333 86.386677 
L 338.618281 87.142824 
L 339.54523 84.40179 
L 340.472179 79.132389 
L 341.399128 76.651281 
L 342.326077 75.044468 
L 343.253025 77.052984 
L 344.179974 77.738243 
L 345.106923 75.611579 
L 346.033872 74.548247 
L 346.960821 72.681508 
L 347.887769 71.878102 
L 348.814718 74.241062 
L 349.741667 75.56432 
L 350.668616 75.304394 
L 351.595565 76.462244 
L 352.522513 73.933877 
L 353.449462 71.847244 
L 354.376411 71.604609 
L 357.157257 66.053246 
L 358.084206 65.172467 
L 359.011155 63.156143 
L 359.938104 61.541937 
L 360.865053 58.935245 
L 361.792001 57.864892 
L 362.71895 57.888542 
L 371.988438 59.478064 
L 372.915387 61.91879 
L 373.842336 65.116387 
L 374.769284 68.975571 
L 375.696233 70.42346 
L 376.623182 74.566448 
L 377.550131 75.755322 
L 378.47708 77.487718 
L 379.404028 81.937104 
L 380.330977 82.936755 
L 381.257926 81.518979 
L 382.184875 79.486833 
L 383.111824 77.88002 
L 384.038772 76.674911 
L 384.965721 77.525576 
L 385.89267 75.871504 
L 386.819619 76.1078 
L 387.746568 73.673951 
L 388.673516 69.916845 
L 389.600465 70.672992 
L 390.527414 70.365807 
L 391.454363 70.318548 
L 392.381312 70.79114 
L 394.235209 66.963145 
L 395.162158 64.293 
L 396.089107 64.245741 
L 397.016055 65.403591 
L 397.943004 65.427221 
L 398.869953 63.017001 
L 400.723851 60.323227 
L 401.650799 58.503748 
L 402.577748 56.377083 
L 403.504697 55.006567 
L 404.431646 55.668195 
L 405.358595 53.305235 
L 406.285543 53.068939 
L 407.212492 51.603904 
L 408.139441 51.367608 
L 409.06639 52.265533 
L 409.993339 52.596347 
L 410.920287 53.423383 
L 411.847236 55.171974 
L 412.774185 55.809973 
L 413.701134 55.266492 
L 414.628083 54.533975 
L 415.555031 53.04531 
L 416.48198 52.99805 
L 417.408929 53.139828 
L 418.335878 51.674793 
L 419.262827 52.194644 
L 420.189775 50.918646 
L 421.116724 48.343019 
L 422.043673 47.208798 
L 422.970622 48.744722 
L 423.89757 49.028278 
L 424.824519 49.902573 
L 425.751468 49.217314 
L 426.678417 51.27309 
L 427.605366 52.005607 
L 428.532314 51.154942 
L 429.459263 51.769311 
L 430.386212 53.352495 
L 431.313161 52.950791 
L 432.24011 51.343978 
L 433.167058 52.336422 
L 434.094007 52.360051 
L 435.020956 52.005607 
L 435.947905 49.713536 
L 436.874854 49.949832 
L 437.801802 49.666277 
L 438.728751 49.264574 
L 439.6557 49.335462 
L 440.582649 49.737166 
L 441.509598 51.533015 
L 442.436546 52.667236 
L 443.363495 53.470643 
L 444.290444 53.234346 
L 445.217393 52.218274 
L 446.144342 51.485756 
L 447.07129 51.86383 
L 447.998239 50.351535 
L 448.925188 49.170055 
L 449.852137 47.303317 
L 451.706034 41.75036 
L 452.632983 39.505548 
L 453.559932 39.552807 
L 454.486881 40.497992 
L 455.413829 39.032956 
L 456.340778 37.307995 
L 457.267727 36.4337 
L 458.194676 37.213477 
L 459.121625 37.756958 
L 460.048573 37.756958 
L 461.902471 38.135031 
L 462.82942 36.859033 
L 463.756369 36.599107 
L 464.683317 36.740885 
L 465.610266 36.740885 
L 466.537215 36.906292 
L 467.464164 36.126515 
L 469.318061 35.039554 
L 470.24501 35.204961 
L 471.171959 35.181331 
L 472.098908 36.173775 
L 473.025857 35.772071 
L 474.879754 36.031997 
L 475.806703 36.882663 
L 476.733652 36.599107 
L 477.660601 36.835403 
L 478.587549 36.929922 
L 480.441447 35.748442 
L 481.368396 35.630294 
L 484.149242 34.117999 
L 485.076191 33.928962 
L 486.00314 33.905333 
L 486.930088 33.48 
L 487.857037 33.810814 
L 488.783986 34.472443 
L 490.637884 35.110442 
L 491.564832 35.22859 
L 492.491781 36.126515 
L 493.41873 36.244663 
L 494.345679 36.031997 
L 495.272628 36.315552 
L 496.199576 36.480959 
L 497.126525 36.339182 
L 498.053474 35.724812 
L 498.980423 35.795701 
L 499.907372 35.512146 
L 500.83432 35.464886 
L 501.761269 34.874146 
L 502.688218 34.826887 
L 504.542116 34.330666 
L 505.469064 34.63785 
L 508.249911 34.212518 
L 509.17686 33.787185 
L 509.17686 33.787185 
" clip-path="url(#pff644240b5)" style="fill: none; stroke: #1f77b4; stroke-width: 1.5; stroke-linecap: square"/>
   </g>
   <g id="line2d_31">
    <path d="M 324.71405 150.190396 
L 326.567947 136.026764 
L 327.494896 127.588856 
L 328.421845 123.97261 
L 329.348794 119.452302 
L 330.275742 117.127572 
L 332.12964 124.173512 
L 333.056589 123.520579 
L 334.910486 115.0224 
L 335.837435 113.84712 
L 337.691333 117.463367 
L 338.618281 118.819459 
L 339.54523 116.016868 
L 340.472179 109.688437 
L 341.399128 104.806504 
L 342.326077 102.998381 
L 344.179974 103.992849 
L 345.106923 102.998381 
L 346.033872 100.828633 
L 346.960821 97.393199 
L 347.887769 95.856295 
L 348.814718 97.935636 
L 349.741667 97.121981 
L 350.668616 96.037107 
L 351.595565 96.308326 
L 353.449462 91.639238 
L 354.376411 90.94899 
L 355.30336 89.896876 
L 356.230309 89.568011 
L 357.157257 87.701393 
L 358.084206 86.377636 
L 359.011155 86.680827 
L 359.938104 85.718694 
L 360.865053 83.490694 
L 361.792001 84.066133 
L 362.71895 84.880333 
L 371.061489 86.29383 
L 372.915387 90.115776 
L 373.842336 93.609705 
L 374.769284 97.916865 
L 376.623182 103.276927 
L 377.550131 104.96249 
L 378.47708 103.573396 
L 379.404028 108.422751 
L 380.330977 107.518689 
L 381.257926 106.433815 
L 383.111824 101.732695 
L 384.038772 98.206855 
L 384.965721 98.297261 
L 385.89267 96.398732 
L 386.819619 96.127513 
L 387.746568 94.861827 
L 388.673516 90.79355 
L 389.600465 91.245581 
L 390.527414 89.256645 
L 391.454363 91.064768 
L 392.381312 91.335987 
L 393.30826 92.420861 
L 394.235209 93.776953 
L 395.162158 93.324922 
L 396.089107 93.867359 
L 397.016055 93.596141 
L 397.943004 93.957765 
L 398.869953 90.79355 
L 399.796902 89.527864 
L 400.723851 86.725273 
L 401.650799 86.454054 
L 402.577748 83.651463 
L 403.504697 79.49278 
L 404.431646 78.3175 
L 405.358595 76.961408 
L 406.285543 79.854405 
L 407.212492 76.871002 
L 408.139441 76.690189 
L 409.06639 78.227094 
L 410.920287 79.673593 
L 411.847236 81.029685 
L 412.774185 83.109027 
L 413.701134 83.832276 
L 414.628083 81.933746 
L 415.555031 79.402374 
L 416.48198 81.933746 
L 417.408929 83.470651 
L 418.335878 83.01862 
L 419.262827 84.013088 
L 420.189775 82.56659 
L 421.116724 80.66806 
L 422.043673 77.865469 
L 422.970622 80.306436 
L 423.89757 79.854405 
L 424.824519 80.66806 
L 425.751468 79.040749 
L 426.678417 80.396842 
L 427.605366 80.487248 
L 428.532314 78.588719 
L 429.459263 78.3175 
L 430.386212 79.131156 
L 431.313161 79.221562 
L 432.24011 76.057346 
L 433.167058 78.679125 
L 434.094007 79.583186 
L 435.020956 79.944811 
L 435.947905 78.679125 
L 436.874854 78.227094 
L 437.801802 78.769531 
L 439.6557 75.96694 
L 440.582649 76.599783 
L 441.509598 79.221562 
L 442.436546 77.865469 
L 443.363495 79.221562 
L 445.217393 73.706786 
L 446.144342 74.339629 
L 447.07129 75.514909 
L 447.998239 75.876534 
L 448.925188 75.424503 
L 449.852137 73.345162 
L 450.779086 69.186478 
L 451.706034 69.005666 
L 452.632983 65.660638 
L 453.559932 66.293481 
L 454.486881 67.559167 
L 455.413829 65.660638 
L 456.340778 62.586829 
L 457.267727 60.597893 
L 458.194676 61.682767 
L 459.121625 62.044392 
L 460.048573 62.677235 
L 460.975522 61.863579 
L 461.902471 60.507487 
L 462.82942 60.145862 
L 464.683317 60.417081 
L 465.610266 60.959518 
L 466.537215 62.406016 
L 467.464164 62.31561 
L 468.391113 61.953986 
L 469.318061 60.688299 
L 470.24501 60.236269 
L 471.171959 61.863579 
L 472.098908 61.321143 
L 473.025857 62.225204 
L 475.806703 63.219672 
L 476.733652 61.953986 
L 477.660601 63.03886 
L 478.587549 63.49089 
L 479.514498 62.677235 
L 480.441447 62.406016 
L 481.368396 64.123733 
L 482.295344 61.863579 
L 484.149242 59.784238 
L 485.076191 59.422613 
L 486.00314 59.96505 
L 487.857037 59.784238 
L 488.783986 61.049924 
L 489.710935 60.055456 
L 490.637884 59.603426 
L 491.564832 60.597893 
L 492.491781 62.044392 
L 493.41873 62.767641 
L 494.345679 62.948453 
L 495.272628 62.586829 
L 496.199576 62.044392 
L 497.126525 62.858047 
L 498.053474 62.406016 
L 498.980423 63.129266 
L 499.907372 63.03886 
L 500.83432 62.677235 
L 502.688218 60.959518 
L 503.615167 61.049924 
L 505.469064 61.592361 
L 506.396013 61.411549 
L 508.249911 62.225204 
L 509.17686 61.592361 
L 509.17686 61.592361 
" clip-path="url(#pff644240b5)" style="fill: none; stroke: #ff7f0e; stroke-width: 1.5; stroke-linecap: square"/>
   </g>
   <g id="line2d_32">
    <path d="M 324.71405 175.664619 
L 325.640998 184.68 
L 326.567947 183.626254 
L 327.494896 179.528354 
L 328.421845 176.320283 
L 329.348794 172.152133 
L 330.275742 171.21547 
L 331.202691 174.845039 
L 332.12964 174.33768 
L 333.056589 174.400124 
L 333.983538 172.807797 
L 334.910486 169.646559 
L 335.837435 169.037728 
L 336.764384 169.833892 
L 337.691333 169.716809 
L 338.618281 172.479965 
L 339.54523 169.997808 
L 340.472179 165.220827 
L 341.399128 164.588579 
L 342.326077 161.614674 
L 343.253025 165.946741 
L 344.179974 164.752495 
L 345.106923 161.521008 
L 346.033872 160.443846 
L 346.960821 157.961689 
L 347.887769 154.378953 
L 348.814718 154.378953 
L 349.741667 154.215037 
L 350.668616 153.840372 
L 351.595565 155.1517 
L 352.522513 150.187386 
L 353.449462 149.185169 
L 354.376411 148.86202 
L 355.30336 146.899967 
L 356.230309 147.841679 
L 357.157257 146.95624 
L 358.084206 147.616978 
L 359.011155 146.239937 
L 359.938104 144.371379 
L 360.865053 143.205587 
L 361.792001 143.000119 
L 371.061489 146.250327 
L 371.988438 147.205723 
L 372.915387 149.589275 
L 373.842336 152.511297 
L 374.769284 157.119972 
L 375.696233 158.262311 
L 376.623182 161.62976 
L 377.550131 163.662234 
L 378.47708 163.399614 
L 379.404028 167.140986 
L 380.330977 165.127161 
L 381.257926 166.742904 
L 382.184875 166.180906 
L 383.111824 165.010078 
L 384.038772 162.364005 
L 384.965721 164.588579 
L 385.89267 162.926003 
L 386.819619 162.481088 
L 387.746568 162.949419 
L 388.673516 160.092597 
L 389.600465 160.443846 
L 390.527414 159.132518 
L 391.454363 158.219271 
L 392.381312 156.322529 
L 393.30826 154.823868 
L 394.235209 153.559373 
L 396.089107 151.639214 
L 397.016055 150.655718 
L 397.943004 152.482211 
L 398.869953 151.568964 
L 399.796902 151.826546 
L 400.723851 151.405048 
L 401.650799 149.812721 
L 402.577748 148.548226 
L 403.504697 145.386989 
L 404.431646 144.942074 
L 405.358595 143.911744 
L 406.285543 146.019236 
L 407.212492 143.677579 
L 408.139441 143.138997 
L 409.06639 143.092164 
L 409.993339 143.185831 
L 410.920287 147.096398 
L 411.847236 149.13364 
L 412.774185 151.475298 
L 413.701134 152.177795 
L 414.628083 152.739793 
L 415.555031 151.0538 
L 416.48198 152.458794 
L 417.408929 152.505627 
L 418.335878 151.592381 
L 419.262827 151.87338 
L 420.189775 148.876058 
L 421.116724 147.471064 
L 422.043673 145.644571 
L 422.970622 147.049565 
L 423.89757 146.440734 
L 424.824519 147.166648 
L 425.751468 143.911744 
L 426.678417 145.129406 
L 427.605366 144.895241 
L 428.532314 143.630746 
L 429.459263 145.246489 
L 430.386212 146.253402 
L 431.313161 146.417318 
L 432.24011 144.005411 
L 433.167058 146.651484 
L 434.094007 146.768566 
L 435.020956 148.056478 
L 435.947905 147.072982 
L 436.874854 146.698317 
L 437.801802 147.588147 
L 438.728751 146.862233 
L 439.6557 146.581234 
L 440.582649 146.510984 
L 441.509598 149.180474 
L 442.436546 147.56473 
L 443.363495 148.407727 
L 444.290444 147.447647 
L 445.217393 146.838816 
L 446.144342 146.885649 
L 447.07129 147.260314 
L 447.998239 146.698317 
L 448.925188 146.393901 
L 449.852137 145.269906 
L 450.779086 142.108668 
L 451.706034 141.570087 
L 452.632983 139.205013 
L 453.559932 139.22843 
L 454.486881 139.813844 
L 455.413829 139.556262 
L 456.340778 137.987351 
L 457.267727 136.957022 
L 458.194676 138.315183 
L 459.121625 139.298679 
L 460.048573 139.298679 
L 460.975522 139.134763 
L 461.902471 139.322096 
L 462.82942 138.572765 
L 463.756369 138.924014 
L 466.537215 142.108668 
L 468.391113 141.75742 
L 469.318061 142.647249 
L 470.24501 143.373163 
L 472.098908 145.644571 
L 473.025857 145.269906 
L 473.952805 144.590825 
L 474.879754 144.28641 
L 475.806703 144.309826 
L 476.733652 143.888328 
L 477.660601 144.028827 
L 479.514498 143.373163 
L 480.441447 142.530167 
L 481.368396 142.36625 
L 482.295344 141.710586 
L 483.222293 141.382754 
L 484.149242 141.265672 
L 485.076191 140.72709 
L 486.930088 141.570087 
L 488.783986 140.773923 
L 489.710935 140.703674 
L 490.637884 140.961256 
L 492.491781 142.296001 
L 494.345679 141.944752 
L 495.272628 141.54667 
L 496.199576 141.359338 
L 497.126525 141.991585 
L 498.053474 142.178918 
L 498.980423 142.553583 
L 499.907372 142.178918 
L 500.83432 142.015002 
L 502.688218 142.108668 
L 503.615167 142.50675 
L 504.542116 142.061835 
L 506.396013 141.991585 
L 507.322962 142.202334 
L 508.249911 141.75742 
L 509.17686 142.132085 
L 509.17686 142.132085 
" clip-path="url(#pff644240b5)" style="fill: none; stroke: #2ca02c; stroke-width: 1.5; stroke-linecap: square"/>
   </g>
   <g id="patch_9">
    <path d="M 315.490909 192.24 
L 315.490909 25.92 
" style="fill: none; stroke: #000000; stroke-width: 0.8; stroke-linejoin: miter; stroke-linecap: square"/>
   </g>
   <g id="patch_10">
    <path d="M 518.4 192.24 
L 518.4 25.92 
" style="fill: none; stroke: #000000; stroke-width: 0.8; stroke-linejoin: miter; stroke-linecap: square"/>
   </g>
   <g id="patch_11">
    <path d="M 315.490909 192.24 
L 518.4 192.24 
" style="fill: none; stroke: #000000; stroke-width: 0.8; stroke-linejoin: miter; stroke-linecap: square"/>
   </g>
   <g id="patch_12">
    <path d="M 315.490909 25.92 
L 518.4 25.92 
" style="fill: none; stroke: #000000; stroke-width: 0.8; stroke-linejoin: miter; stroke-linecap: square"/>
   </g>
   <g id="text_30">
    <!-- Recall -->
    <g transform="translate(399.04483 19.92) scale(0.12 -0.12)">
     <defs>
      <path id="DejaVuSans-52" d="M 2841 2188 
Q 3044 2119 3236 1894 
Q 3428 1669 3622 1275 
L 4263 0 
L 3584 0 
L 2988 1197 
Q 2756 1666 2539 1819 
Q 2322 1972 1947 1972 
L 1259 1972 
L 1259 0 
L 628 0 
L 628 4666 
L 2053 4666 
Q 2853 4666 3247 4331 
Q 3641 3997 3641 3322 
Q 3641 2881 3436 2590 
Q 3231 2300 2841 2188 
z
M 1259 4147 
L 1259 2491 
L 2053 2491 
Q 2509 2491 2742 2702 
Q 2975 2913 2975 3322 
Q 2975 3731 2742 3939 
Q 2509 4147 2053 4147 
L 1259 4147 
z
" transform="scale(0.015625)"/>
     </defs>
     <use xlink:href="#DejaVuSans-52"/>
     <use xlink:href="#DejaVuSans-65" x="64.982422"/>
     <use xlink:href="#DejaVuSans-63" x="126.505859"/>
     <use xlink:href="#DejaVuSans-61" x="181.486328"/>
     <use xlink:href="#DejaVuSans-6c" x="242.765625"/>
     <use xlink:href="#DejaVuSans-6c" x="270.548828"/>
    </g>
   </g>
   <g id="legend_2">
    <g id="patch_13">
     <path d="M 456.125 132.597187 
L 511.4 132.597187 
Q 513.4 132.597187 513.4 130.597187 
L 513.4 87.562813 
Q 513.4 85.562813 511.4 85.562813 
L 456.125 85.562813 
Q 454.125 85.562813 454.125 87.562813 
L 454.125 130.597187 
Q 454.125 132.597187 456.125 132.597187 
z
" style="fill: #ffffff; opacity: 0.8; stroke: #cccccc; stroke-linejoin: miter"/>
    </g>
    <g id="line2d_33">
     <path d="M 458.125 93.66125 
L 468.125 93.66125 
L 478.125 93.66125 
" style="fill: none; stroke: #1f77b4; stroke-width: 1.5; stroke-linecap: square"/>
    </g>
    <g id="text_31">
     <!-- train -->
     <g transform="translate(486.125 97.16125) scale(0.1 -0.1)">
      <use xlink:href="#DejaVuSans-74"/>
      <use xlink:href="#DejaVuSans-72" x="39.208984"/>
      <use xlink:href="#DejaVuSans-61" x="80.322266"/>
      <use xlink:href="#DejaVuSans-69" x="141.601562"/>
      <use xlink:href="#DejaVuSans-6e" x="169.384766"/>
     </g>
    </g>
    <g id="line2d_34">
     <path d="M 458.125 108.339375 
L 468.125 108.339375 
L 478.125 108.339375 
" style="fill: none; stroke: #ff7f0e; stroke-width: 1.5; stroke-linecap: square"/>
    </g>
    <g id="text_32">
     <!-- eval -->
     <g transform="translate(486.125 111.839375) scale(0.1 -0.1)">
      <use xlink:href="#DejaVuSans-65"/>
      <use xlink:href="#DejaVuSans-76" x="61.523438"/>
      <use xlink:href="#DejaVuSans-61" x="120.703125"/>
      <use xlink:href="#DejaVuSans-6c" x="181.982422"/>
     </g>
    </g>
    <g id="line2d_35">
     <path d="M 458.125 123.0175 
L 468.125 123.0175 
L 478.125 123.0175 
" style="fill: none; stroke: #2ca02c; stroke-width: 1.5; stroke-linecap: square"/>
    </g>
    <g id="text_33">
     <!-- test -->
     <g transform="translate(486.125 126.5175) scale(0.1 -0.1)">
      <use xlink:href="#DejaVuSans-74"/>
      <use xlink:href="#DejaVuSans-65" x="39.208984"/>
      <use xlink:href="#DejaVuSans-73" x="100.732422"/>
      <use xlink:href="#DejaVuSans-74" x="152.832031"/>
     </g>
    </g>
   </g>
  </g>
 </g>
 <defs>
  <clipPath id="p04887ae0ec">
   <rect x="72" y="25.92" width="202.909091" height="166.32"/>
  </clipPath>
  <clipPath id="pff644240b5">
   <rect x="315.490909" y="25.92" width="202.909091" height="166.32"/>
  </clipPath>
 </defs>
</svg>
