<?xml version="1.0" encoding="utf-8" standalone="no"?>
<!DOCTYPE svg PUBLIC "-//W3C//DTD SVG 1.1//EN"
  "http://www.w3.org/Graphics/SVG/1.1/DTD/svg11.dtd">
<svg xmlns:xlink="http://www.w3.org/1999/xlink" width="576pt" height="216pt" viewBox="0 0 576 216" xmlns="http://www.w3.org/2000/svg" version="1.1">
 <metadata>
  <rdf:RDF xmlns:dc="http://purl.org/dc/elements/1.1/" xmlns:cc="http://creativecommons.org/ns#" xmlns:rdf="http://www.w3.org/1999/02/22-rdf-syntax-ns#">
   <cc:Work>
    <dc:type rdf:resource="http://purl.org/dc/dcmitype/StillImage"/>
    <dc:date>2024-02-01T16:18:23.013136</dc:date>
    <dc:format>image/svg+xml</dc:format>
    <dc:creator>
     <cc:Agent>
      <dc:title>Matplotlib v3.7.4, https://matplotlib.org/</dc:title>
     </cc:Agent>
    </dc:creator>
   </cc:Work>
  </rdf:RDF>
 </metadata>
 <defs>
  <style type="text/css">*{stroke-linejoin: round; stroke-linecap: butt}</style>
 </defs>
 <g id="figure_1">
  <g id="patch_1">
   <path d="M 0 216 
L 576 216 
L 576 0 
L 0 0 
z
" style="fill: #ffffff"/>
  </g>
  <g id="axes_1">
   <g id="patch_2">
    <path d="M 72 192.24 
L 274.909091 192.24 
L 274.909091 25.92 
L 72 25.92 
z
" style="fill: #ffffff"/>
   </g>
   <g id="matplotlib.axis_1">
    <g id="xtick_1">
     <g id="line2d_1">
      <defs>
       <path id="mb607166f05" d="M 0 0 
L 0 3.5 
" style="stroke: #000000; stroke-width: 0.8"/>
      </defs>
      <g>
       <use xlink:href="#mb607166f05" x="80.296192" y="192.24" style="stroke: #000000; stroke-width: 0.8"/>
      </g>
     </g>
     <g id="text_1">
      <!-- 0 -->
      <g transform="translate(77.114942 206.838437) scale(0.1 -0.1)">
       <defs>
        <path id="DejaVuSans-30" d="M 2034 4250 
Q 1547 4250 1301 3770 
Q 1056 3291 1056 2328 
Q 1056 1369 1301 889 
Q 1547 409 2034 409 
Q 2525 409 2770 889 
Q 3016 1369 3016 2328 
Q 3016 3291 2770 3770 
Q 2525 4250 2034 4250 
z
M 2034 4750 
Q 2819 4750 3233 4129 
Q 3647 3509 3647 2328 
Q 3647 1150 3233 529 
Q 2819 -91 2034 -91 
Q 1250 -91 836 529 
Q 422 1150 422 2328 
Q 422 3509 836 4129 
Q 1250 4750 2034 4750 
z
" transform="scale(0.015625)"/>
       </defs>
       <use xlink:href="#DejaVuSans-30"/>
      </g>
     </g>
    </g>
    <g id="xtick_2">
     <g id="line2d_2">
      <g>
       <use xlink:href="#mb607166f05" x="126.643631" y="192.24" style="stroke: #000000; stroke-width: 0.8"/>
      </g>
     </g>
     <g id="text_2">
      <!-- 50 -->
      <g transform="translate(120.281131 206.838437) scale(0.1 -0.1)">
       <defs>
        <path id="DejaVuSans-35" d="M 691 4666 
L 3169 4666 
L 3169 4134 
L 1269 4134 
L 1269 2991 
Q 1406 3038 1543 3061 
Q 1681 3084 1819 3084 
Q 2600 3084 3056 2656 
Q 3513 2228 3513 1497 
Q 3513 744 3044 326 
Q 2575 -91 1722 -91 
Q 1428 -91 1123 -41 
Q 819 9 494 109 
L 494 744 
Q 775 591 1075 516 
Q 1375 441 1709 441 
Q 2250 441 2565 725 
Q 2881 1009 2881 1497 
Q 2881 1984 2565 2268 
Q 2250 2553 1709 2553 
Q 1456 2553 1204 2497 
Q 953 2441 691 2322 
L 691 4666 
z
" transform="scale(0.015625)"/>
       </defs>
       <use xlink:href="#DejaVuSans-35"/>
       <use xlink:href="#DejaVuSans-30" x="63.623047"/>
      </g>
     </g>
    </g>
    <g id="xtick_3">
     <g id="line2d_3">
      <g>
       <use xlink:href="#mb607166f05" x="172.991071" y="192.24" style="stroke: #000000; stroke-width: 0.8"/>
      </g>
     </g>
     <g id="text_3">
      <!-- 100 -->
      <g transform="translate(163.447321 206.838437) scale(0.1 -0.1)">
       <defs>
        <path id="DejaVuSans-31" d="M 794 531 
L 1825 531 
L 1825 4091 
L 703 3866 
L 703 4441 
L 1819 4666 
L 2450 4666 
L 2450 531 
L 3481 531 
L 3481 0 
L 794 0 
L 794 531 
z
" transform="scale(0.015625)"/>
       </defs>
       <use xlink:href="#DejaVuSans-31"/>
       <use xlink:href="#DejaVuSans-30" x="63.623047"/>
       <use xlink:href="#DejaVuSans-30" x="127.246094"/>
      </g>
     </g>
    </g>
    <g id="xtick_4">
     <g id="line2d_4">
      <g>
       <use xlink:href="#mb607166f05" x="219.338511" y="192.24" style="stroke: #000000; stroke-width: 0.8"/>
      </g>
     </g>
     <g id="text_4">
      <!-- 150 -->
      <g transform="translate(209.794761 206.838437) scale(0.1 -0.1)">
       <use xlink:href="#DejaVuSans-31"/>
       <use xlink:href="#DejaVuSans-35" x="63.623047"/>
       <use xlink:href="#DejaVuSans-30" x="127.246094"/>
      </g>
     </g>
    </g>
    <g id="xtick_5">
     <g id="line2d_5">
      <g>
       <use xlink:href="#mb607166f05" x="265.68595" y="192.24" style="stroke: #000000; stroke-width: 0.8"/>
      </g>
     </g>
     <g id="text_5">
      <!-- 200 -->
      <g transform="translate(256.1422 206.838437) scale(0.1 -0.1)">
       <defs>
        <path id="DejaVuSans-32" d="M 1228 531 
L 3431 531 
L 3431 0 
L 469 0 
L 469 531 
Q 828 903 1448 1529 
Q 2069 2156 2228 2338 
Q 2531 2678 2651 2914 
Q 2772 3150 2772 3378 
Q 2772 3750 2511 3984 
Q 2250 4219 1831 4219 
Q 1534 4219 1204 4116 
Q 875 4013 500 3803 
L 500 4441 
Q 881 4594 1212 4672 
Q 1544 4750 1819 4750 
Q 2544 4750 2975 4387 
Q 3406 4025 3406 3419 
Q 3406 3131 3298 2873 
Q 3191 2616 2906 2266 
Q 2828 2175 2409 1742 
Q 1991 1309 1228 531 
z
" transform="scale(0.015625)"/>
       </defs>
       <use xlink:href="#DejaVuSans-32"/>
       <use xlink:href="#DejaVuSans-30" x="63.623047"/>
       <use xlink:href="#DejaVuSans-30" x="127.246094"/>
      </g>
     </g>
    </g>
    <g id="text_6">
     <!-- Epochs -->
     <g transform="translate(155.53892 220.516562) scale(0.1 -0.1)">
      <defs>
       <path id="DejaVuSans-45" d="M 628 4666 
L 3578 4666 
L 3578 4134 
L 1259 4134 
L 1259 2753 
L 3481 2753 
L 3481 2222 
L 1259 2222 
L 1259 531 
L 3634 531 
L 3634 0 
L 628 0 
L 628 4666 
z
" transform="scale(0.015625)"/>
       <path id="DejaVuSans-70" d="M 1159 525 
L 1159 -1331 
L 581 -1331 
L 581 3500 
L 1159 3500 
L 1159 2969 
Q 1341 3281 1617 3432 
Q 1894 3584 2278 3584 
Q 2916 3584 3314 3078 
Q 3713 2572 3713 1747 
Q 3713 922 3314 415 
Q 2916 -91 2278 -91 
Q 1894 -91 1617 61 
Q 1341 213 1159 525 
z
M 3116 1747 
Q 3116 2381 2855 2742 
Q 2594 3103 2138 3103 
Q 1681 3103 1420 2742 
Q 1159 2381 1159 1747 
Q 1159 1113 1420 752 
Q 1681 391 2138 391 
Q 2594 391 2855 752 
Q 3116 1113 3116 1747 
z
" transform="scale(0.015625)"/>
       <path id="DejaVuSans-6f" d="M 1959 3097 
Q 1497 3097 1228 2736 
Q 959 2375 959 1747 
Q 959 1119 1226 758 
Q 1494 397 1959 397 
Q 2419 397 2687 759 
Q 2956 1122 2956 1747 
Q 2956 2369 2687 2733 
Q 2419 3097 1959 3097 
z
M 1959 3584 
Q 2709 3584 3137 3096 
Q 3566 2609 3566 1747 
Q 3566 888 3137 398 
Q 2709 -91 1959 -91 
Q 1206 -91 779 398 
Q 353 888 353 1747 
Q 353 2609 779 3096 
Q 1206 3584 1959 3584 
z
" transform="scale(0.015625)"/>
       <path id="DejaVuSans-63" d="M 3122 3366 
L 3122 2828 
Q 2878 2963 2633 3030 
Q 2388 3097 2138 3097 
Q 1578 3097 1268 2742 
Q 959 2388 959 1747 
Q 959 1106 1268 751 
Q 1578 397 2138 397 
Q 2388 397 2633 464 
Q 2878 531 3122 666 
L 3122 134 
Q 2881 22 2623 -34 
Q 2366 -91 2075 -91 
Q 1284 -91 818 406 
Q 353 903 353 1747 
Q 353 2603 823 3093 
Q 1294 3584 2113 3584 
Q 2378 3584 2631 3529 
Q 2884 3475 3122 3366 
z
" transform="scale(0.015625)"/>
       <path id="DejaVuSans-68" d="M 3513 2113 
L 3513 0 
L 2938 0 
L 2938 2094 
Q 2938 2591 2744 2837 
Q 2550 3084 2163 3084 
Q 1697 3084 1428 2787 
Q 1159 2491 1159 1978 
L 1159 0 
L 581 0 
L 581 4863 
L 1159 4863 
L 1159 2956 
Q 1366 3272 1645 3428 
Q 1925 3584 2291 3584 
Q 2894 3584 3203 3211 
Q 3513 2838 3513 2113 
z
" transform="scale(0.015625)"/>
       <path id="DejaVuSans-73" d="M 2834 3397 
L 2834 2853 
Q 2591 2978 2328 3040 
Q 2066 3103 1784 3103 
Q 1356 3103 1142 2972 
Q 928 2841 928 2578 
Q 928 2378 1081 2264 
Q 1234 2150 1697 2047 
L 1894 2003 
Q 2506 1872 2764 1633 
Q 3022 1394 3022 966 
Q 3022 478 2636 193 
Q 2250 -91 1575 -91 
Q 1294 -91 989 -36 
Q 684 19 347 128 
L 347 722 
Q 666 556 975 473 
Q 1284 391 1588 391 
Q 1994 391 2212 530 
Q 2431 669 2431 922 
Q 2431 1156 2273 1281 
Q 2116 1406 1581 1522 
L 1381 1569 
Q 847 1681 609 1914 
Q 372 2147 372 2553 
Q 372 3047 722 3315 
Q 1072 3584 1716 3584 
Q 2034 3584 2315 3537 
Q 2597 3491 2834 3397 
z
" transform="scale(0.015625)"/>
      </defs>
      <use xlink:href="#DejaVuSans-45"/>
      <use xlink:href="#DejaVuSans-70" x="63.183594"/>
      <use xlink:href="#DejaVuSans-6f" x="126.660156"/>
      <use xlink:href="#DejaVuSans-63" x="187.841797"/>
      <use xlink:href="#DejaVuSans-68" x="242.822266"/>
      <use xlink:href="#DejaVuSans-73" x="306.201172"/>
     </g>
    </g>
   </g>
   <g id="matplotlib.axis_2">
    <g id="ytick_1">
     <g id="line2d_6">
      <defs>
       <path id="ma548cfc40e" d="M 0 0 
L -3.5 0 
" style="stroke: #000000; stroke-width: 0.8"/>
      </defs>
      <g>
       <use xlink:href="#ma548cfc40e" x="72" y="170.519835" style="stroke: #000000; stroke-width: 0.8"/>
      </g>
     </g>
     <g id="text_7">
      <!-- 0.2 -->
      <g transform="translate(49.096875 174.319054) scale(0.1 -0.1)">
       <defs>
        <path id="DejaVuSans-2e" d="M 684 794 
L 1344 794 
L 1344 0 
L 684 0 
L 684 794 
z
" transform="scale(0.015625)"/>
       </defs>
       <use xlink:href="#DejaVuSans-30"/>
       <use xlink:href="#DejaVuSans-2e" x="63.623047"/>
       <use xlink:href="#DejaVuSans-32" x="95.410156"/>
      </g>
     </g>
    </g>
    <g id="ytick_2">
     <g id="line2d_7">
      <g>
       <use xlink:href="#ma548cfc40e" x="72" y="129.033042" style="stroke: #000000; stroke-width: 0.8"/>
      </g>
     </g>
     <g id="text_8">
      <!-- 0.4 -->
      <g transform="translate(49.096875 132.832261) scale(0.1 -0.1)">
       <defs>
        <path id="DejaVuSans-34" d="M 2419 4116 
L 825 1625 
L 2419 1625 
L 2419 4116 
z
M 2253 4666 
L 3047 4666 
L 3047 1625 
L 3713 1625 
L 3713 1100 
L 3047 1100 
L 3047 0 
L 2419 0 
L 2419 1100 
L 313 1100 
L 313 1709 
L 2253 4666 
z
" transform="scale(0.015625)"/>
       </defs>
       <use xlink:href="#DejaVuSans-30"/>
       <use xlink:href="#DejaVuSans-2e" x="63.623047"/>
       <use xlink:href="#DejaVuSans-34" x="95.410156"/>
      </g>
     </g>
    </g>
    <g id="ytick_3">
     <g id="line2d_8">
      <g>
       <use xlink:href="#ma548cfc40e" x="72" y="87.546249" style="stroke: #000000; stroke-width: 0.8"/>
      </g>
     </g>
     <g id="text_9">
      <!-- 0.6 -->
      <g transform="translate(49.096875 91.345467) scale(0.1 -0.1)">
       <defs>
        <path id="DejaVuSans-36" d="M 2113 2584 
Q 1688 2584 1439 2293 
Q 1191 2003 1191 1497 
Q 1191 994 1439 701 
Q 1688 409 2113 409 
Q 2538 409 2786 701 
Q 3034 994 3034 1497 
Q 3034 2003 2786 2293 
Q 2538 2584 2113 2584 
z
M 3366 4563 
L 3366 3988 
Q 3128 4100 2886 4159 
Q 2644 4219 2406 4219 
Q 1781 4219 1451 3797 
Q 1122 3375 1075 2522 
Q 1259 2794 1537 2939 
Q 1816 3084 2150 3084 
Q 2853 3084 3261 2657 
Q 3669 2231 3669 1497 
Q 3669 778 3244 343 
Q 2819 -91 2113 -91 
Q 1303 -91 875 529 
Q 447 1150 447 2328 
Q 447 3434 972 4092 
Q 1497 4750 2381 4750 
Q 2619 4750 2861 4703 
Q 3103 4656 3366 4563 
z
" transform="scale(0.015625)"/>
       </defs>
       <use xlink:href="#DejaVuSans-30"/>
       <use xlink:href="#DejaVuSans-2e" x="63.623047"/>
       <use xlink:href="#DejaVuSans-36" x="95.410156"/>
      </g>
     </g>
    </g>
    <g id="ytick_4">
     <g id="line2d_9">
      <g>
       <use xlink:href="#ma548cfc40e" x="72" y="46.059455" style="stroke: #000000; stroke-width: 0.8"/>
      </g>
     </g>
     <g id="text_10">
      <!-- 0.8 -->
      <g transform="translate(49.096875 49.858674) scale(0.1 -0.1)">
       <defs>
        <path id="DejaVuSans-38" d="M 2034 2216 
Q 1584 2216 1326 1975 
Q 1069 1734 1069 1313 
Q 1069 891 1326 650 
Q 1584 409 2034 409 
Q 2484 409 2743 651 
Q 3003 894 3003 1313 
Q 3003 1734 2745 1975 
Q 2488 2216 2034 2216 
z
M 1403 2484 
Q 997 2584 770 2862 
Q 544 3141 544 3541 
Q 544 4100 942 4425 
Q 1341 4750 2034 4750 
Q 2731 4750 3128 4425 
Q 3525 4100 3525 3541 
Q 3525 3141 3298 2862 
Q 3072 2584 2669 2484 
Q 3125 2378 3379 2068 
Q 3634 1759 3634 1313 
Q 3634 634 3220 271 
Q 2806 -91 2034 -91 
Q 1263 -91 848 271 
Q 434 634 434 1313 
Q 434 1759 690 2068 
Q 947 2378 1403 2484 
z
M 1172 3481 
Q 1172 3119 1398 2916 
Q 1625 2713 2034 2713 
Q 2441 2713 2670 2916 
Q 2900 3119 2900 3481 
Q 2900 3844 2670 4047 
Q 2441 4250 2034 4250 
Q 1625 4250 1398 4047 
Q 1172 3844 1172 3481 
z
" transform="scale(0.015625)"/>
       </defs>
       <use xlink:href="#DejaVuSans-30"/>
       <use xlink:href="#DejaVuSans-2e" x="63.623047"/>
       <use xlink:href="#DejaVuSans-38" x="95.410156"/>
      </g>
     </g>
    </g>
   </g>
   <g id="line2d_10">
    <path d="M 81.22314 166.898477 
L 82.150089 156.574428 
L 83.077038 149.585841 
L 84.003987 144.820896 
L 84.930936 138.626466 
L 85.857884 130.526059 
L 86.784833 127.349428 
L 87.711782 123.696303 
L 88.638731 121.790325 
L 89.56568 115.754727 
L 90.492628 114.96057 
L 91.419577 112.89576 
L 92.346526 110.354456 
L 93.273475 108.607309 
L 94.200424 109.560298 
L 95.127372 105.58951 
L 96.054321 104.160027 
L 96.98127 104.636521 
L 97.908219 103.365869 
L 98.835168 101.459891 
L 99.762116 101.936385 
L 100.689065 98.918586 
L 101.616014 97.330271 
L 102.542963 97.489103 
L 103.469912 96.377282 
L 104.39686 94.630135 
L 105.323809 95.424293 
L 106.250758 94.471304 
L 107.177707 93.200652 
L 108.104656 92.724157 
L 109.031604 91.294673 
L 109.958553 87.482717 
L 110.885502 87.482717 
L 111.812451 87.80038 
L 112.739399 87.323885 
L 113.666348 85.894402 
L 114.593297 86.529728 
L 115.520246 84.782581 
L 116.447195 85.576739 
L 117.374143 82.717771 
L 118.301092 83.988423 
L 119.228041 80.335298 
L 120.15499 80.176467 
L 121.081939 81.923614 
L 122.008887 77.158668 
L 122.935836 77.952826 
L 123.862785 78.111657 
L 124.789734 76.046847 
L 125.716683 78.270489 
L 126.643631 72.552554 
L 127.57058 71.917228 
L 129.424478 72.552554 
L 130.351427 70.328913 
L 133.132273 66.358125 
L 134.059222 67.94644 
L 134.986171 65.246304 
L 135.913119 65.563967 
L 137.767017 63.499157 
L 138.693966 63.499157 
L 139.620914 63.340326 
L 140.547863 62.228505 
L 142.401761 62.863831 
L 143.32871 62.705 
L 144.255658 60.163695 
L 145.182607 60.322527 
L 146.109556 59.846032 
L 147.036505 56.669402 
L 147.963454 57.145897 
L 148.890402 57.940054 
L 149.817351 57.145897 
L 150.7443 54.763424 
L 151.671249 56.192907 
L 152.598198 54.922255 
L 153.525146 56.034076 
L 154.452095 53.016277 
L 155.379044 54.128098 
L 156.305993 52.698614 
L 157.232942 51.745625 
L 158.15989 51.427962 
L 160.013788 53.016277 
L 160.940737 55.39875 
L 161.867686 53.33394 
L 162.794634 52.539782 
L 163.721583 50.792636 
L 164.648532 49.998478 
L 165.575481 51.26913 
L 166.50243 50.633804 
L 167.429378 48.727826 
L 168.356327 47.298342 
L 169.283276 49.521984 
L 170.210225 47.139511 
L 171.137173 47.457174 
L 172.064122 47.457174 
L 172.991071 48.886657 
L 173.91802 48.410163 
L 174.844969 46.345353 
L 175.771917 46.186522 
L 176.698866 45.551196 
L 177.625815 45.551196 
L 178.552764 46.504185 
L 179.479713 45.074701 
L 180.406661 45.233532 
L 181.33361 44.439375 
L 182.260559 44.598206 
L 184.114457 42.533397 
L 185.041405 42.692228 
L 185.968354 42.056902 
L 186.895303 42.056902 
L 187.822252 43.168723 
L 188.749201 41.898071 
L 189.676149 40.945081 
L 190.603098 40.78625 
L 191.530047 40.468587 
L 192.456996 40.309755 
L 193.383945 40.627418 
L 194.310893 40.627418 
L 195.237842 39.515598 
L 196.164791 40.150924 
L 197.09174 39.992092 
L 198.018688 38.880272 
L 198.945637 39.039103 
L 199.872586 38.244946 
L 200.799535 38.880272 
L 201.726484 39.356766 
L 203.580381 38.403777 
L 204.50733 39.197935 
L 205.434279 37.927283 
L 206.361228 38.244946 
L 207.288176 37.60962 
L 209.142074 37.60962 
L 210.069023 37.291956 
L 210.995972 37.133125 
L 211.92292 37.768451 
L 212.849869 38.244946 
L 213.776818 37.60962 
L 214.703767 37.291956 
L 215.630716 36.497799 
L 216.557664 36.65663 
L 217.484613 36.65663 
L 218.411562 36.180136 
L 219.338511 36.65663 
L 221.192408 35.703641 
L 222.119357 35.54481 
L 223.046306 36.338967 
L 223.973255 36.021304 
L 225.827152 35.703641 
L 226.754101 35.862473 
L 227.68105 35.862473 
L 228.607999 35.54481 
L 229.534947 35.54481 
L 230.461896 35.385978 
L 231.388845 34.750652 
L 232.315794 35.54481 
L 233.242743 35.227147 
L 234.169691 34.750652 
L 235.09664 34.909484 
L 236.950538 34.591821 
L 237.877487 34.591821 
L 238.804435 34.115326 
L 239.731384 34.274158 
L 240.658333 34.274158 
L 241.585282 34.115326 
L 242.512231 34.750652 
L 243.439179 34.432989 
L 244.366128 34.432989 
L 245.293077 33.797663 
L 246.220026 33.797663 
L 247.146975 33.638832 
L 248.073923 34.115326 
L 249.000872 34.115326 
L 249.927821 33.797663 
L 250.85477 33.638832 
L 251.781719 33.638832 
L 252.708667 34.274158 
L 253.635616 34.274158 
L 254.562565 34.115326 
L 255.489514 33.638832 
L 257.343411 33.638832 
L 258.27036 33.48 
L 259.197309 33.797663 
L 260.124258 33.638832 
L 261.051206 33.638832 
L 261.978155 33.797663 
L 262.905104 33.638832 
L 263.832053 33.638832 
L 264.759002 33.956495 
L 265.68595 33.48 
L 265.68595 33.48 
" clip-path="url(#p8d7f8f675a)" style="fill: none; stroke: #1f77b4; stroke-width: 1.5; stroke-linecap: square"/>
   </g>
   <g id="line2d_11">
    <path d="M 81.22314 172.312477 
L 82.150089 165.910194 
L 83.077038 158.227455 
L 84.003987 149.26426 
L 85.857884 149.26426 
L 86.784833 145.42289 
L 88.638731 150.544716 
L 89.56568 146.703347 
L 90.492628 140.301064 
L 92.346526 145.42289 
L 93.273475 145.42289 
L 95.127372 135.179238 
L 96.054321 136.459695 
L 97.908219 136.459695 
L 98.835168 137.740151 
L 99.762116 133.898782 
L 102.542963 137.740151 
L 103.469912 133.898782 
L 104.39686 136.459695 
L 105.323809 132.618325 
L 106.250758 132.618325 
L 107.177707 133.898782 
L 108.104656 131.337869 
L 109.031604 130.057412 
L 109.958553 131.337869 
L 110.885502 131.337869 
L 111.812451 135.179238 
L 112.739399 135.179238 
L 113.666348 131.337869 
L 114.593297 132.618325 
L 115.520246 130.057412 
L 116.447195 139.020608 
L 117.374143 131.337869 
L 118.301092 133.898782 
L 119.228041 133.898782 
L 120.15499 132.618325 
L 121.081939 137.740151 
L 122.008887 131.337869 
L 122.935836 128.776956 
L 123.862785 133.898782 
L 124.789734 135.179238 
L 126.643631 135.179238 
L 127.57058 132.618325 
L 128.497529 132.618325 
L 129.424478 133.898782 
L 130.351427 130.057412 
L 131.278375 132.618325 
L 132.205324 131.337869 
L 134.059222 133.898782 
L 134.986171 137.740151 
L 135.913119 136.459695 
L 136.840068 132.618325 
L 137.767017 130.057412 
L 138.693966 130.057412 
L 139.620914 135.179238 
L 140.547863 133.898782 
L 141.474812 133.898782 
L 142.401761 135.179238 
L 143.32871 132.618325 
L 144.255658 135.179238 
L 145.182607 130.057412 
L 146.109556 127.496499 
L 147.036505 127.496499 
L 147.963454 133.898782 
L 148.890402 135.179238 
L 150.7443 127.496499 
L 151.671249 131.337869 
L 153.525146 133.898782 
L 154.452095 132.618325 
L 155.379044 132.618325 
L 156.305993 133.898782 
L 158.15989 131.337869 
L 159.086839 131.337869 
L 160.013788 130.057412 
L 160.940737 133.898782 
L 162.794634 136.459695 
L 163.721583 139.020608 
L 164.648532 135.179238 
L 165.575481 136.459695 
L 166.50243 135.179238 
L 167.429378 131.337869 
L 168.356327 132.618325 
L 169.283276 137.740151 
L 171.137173 135.179238 
L 172.064122 135.179238 
L 172.991071 139.020608 
L 173.91802 136.459695 
L 174.844969 136.459695 
L 175.771917 137.740151 
L 176.698866 132.618325 
L 177.625815 133.898782 
L 178.552764 136.459695 
L 179.479713 135.179238 
L 180.406661 139.020608 
L 181.33361 136.459695 
L 182.260559 131.337869 
L 183.187508 135.179238 
L 184.114457 135.179238 
L 185.041405 137.740151 
L 185.968354 132.618325 
L 186.895303 133.898782 
L 187.822252 132.618325 
L 188.749201 130.057412 
L 189.676149 135.179238 
L 190.603098 136.459695 
L 191.530047 132.618325 
L 192.456996 131.337869 
L 193.383945 139.020608 
L 194.310893 133.898782 
L 195.237842 132.618325 
L 196.164791 132.618325 
L 197.09174 130.057412 
L 198.018688 130.057412 
L 198.945637 131.337869 
L 199.872586 135.179238 
L 200.799535 130.057412 
L 201.726484 135.179238 
L 203.580381 135.179238 
L 204.50733 136.459695 
L 205.434279 136.459695 
L 206.361228 133.898782 
L 207.288176 136.459695 
L 208.215125 132.618325 
L 209.142074 136.459695 
L 210.069023 137.740151 
L 211.92292 137.740151 
L 212.849869 135.179238 
L 214.703767 132.618325 
L 215.630716 132.618325 
L 216.557664 128.776956 
L 217.484613 130.057412 
L 219.338511 127.496499 
L 220.26546 128.776956 
L 221.192408 132.618325 
L 222.119357 132.618325 
L 223.046306 133.898782 
L 223.973255 133.898782 
L 225.827152 128.776956 
L 226.754101 128.776956 
L 227.68105 127.496499 
L 228.607999 128.776956 
L 229.534947 128.776956 
L 230.461896 130.057412 
L 231.388845 130.057412 
L 232.315794 128.776956 
L 233.242743 128.776956 
L 234.169691 127.496499 
L 235.09664 127.496499 
L 236.023589 130.057412 
L 237.877487 130.057412 
L 238.804435 128.776956 
L 240.658333 128.776956 
L 241.585282 126.216043 
L 242.512231 127.496499 
L 244.366128 127.496499 
L 245.293077 128.776956 
L 246.220026 128.776956 
L 247.146975 127.496499 
L 248.073923 128.776956 
L 251.781719 128.776956 
L 252.708667 127.496499 
L 253.635616 128.776956 
L 254.562565 126.216043 
L 255.489514 128.776956 
L 256.416462 128.776956 
L 257.343411 131.337869 
L 259.197309 131.337869 
L 261.051206 128.776956 
L 261.978155 131.337869 
L 262.905104 131.337869 
L 263.832053 132.618325 
L 264.759002 132.618325 
L 265.68595 128.776956 
L 265.68595 128.776956 
" clip-path="url(#p8d7f8f675a)" style="fill: none; stroke: #ff7f0e; stroke-width: 1.5; stroke-linecap: square"/>
   </g>
   <g id="line2d_12">
    <path d="M 81.22314 184.68 
L 82.150089 175.985164 
L 83.077038 173.500925 
L 84.003987 172.258805 
L 84.930936 166.048208 
L 85.857884 161.07973 
L 86.784833 157.353371 
L 87.711782 147.416415 
L 88.638731 149.900654 
L 89.56568 144.932176 
L 90.492628 141.205818 
L 91.419577 139.963698 
L 92.346526 146.174296 
L 93.273475 143.690057 
L 94.200424 142.447937 
L 95.127372 137.479459 
L 97.908219 137.479459 
L 98.835168 133.753101 
L 99.762116 127.542504 
L 100.689065 128.784623 
L 101.616014 134.99522 
L 102.542963 131.268862 
L 103.469912 132.510981 
L 104.39686 134.99522 
L 106.250758 130.026743 
L 107.177707 133.753101 
L 108.104656 132.510981 
L 109.031604 127.542504 
L 109.958553 128.784623 
L 110.885502 131.268862 
L 111.812451 130.026743 
L 112.739399 132.510981 
L 113.666348 132.510981 
L 114.593297 131.268862 
L 115.520246 132.510981 
L 117.374143 132.510981 
L 118.301092 131.268862 
L 119.228041 126.300384 
L 120.15499 122.574026 
L 121.081939 125.058265 
L 122.008887 121.331906 
L 122.935836 122.574026 
L 123.862785 126.300384 
L 124.789734 123.816145 
L 125.716683 123.816145 
L 126.643631 126.300384 
L 127.57058 127.542504 
L 130.351427 127.542504 
L 131.278375 122.574026 
L 132.205324 125.058265 
L 133.132273 125.058265 
L 134.059222 122.574026 
L 134.986171 128.784623 
L 135.913119 127.542504 
L 136.840068 130.026743 
L 137.767017 131.268862 
L 138.693966 130.026743 
L 139.620914 126.300384 
L 140.547863 127.542504 
L 141.474812 125.058265 
L 142.401761 125.058265 
L 143.32871 123.816145 
L 144.255658 125.058265 
L 145.182607 122.574026 
L 146.109556 126.300384 
L 147.036505 126.300384 
L 147.963454 125.058265 
L 148.890402 121.331906 
L 149.817351 122.574026 
L 150.7443 121.331906 
L 151.671249 121.331906 
L 152.598198 125.058265 
L 153.525146 122.574026 
L 154.452095 123.816145 
L 155.379044 123.816145 
L 156.305993 125.058265 
L 157.232942 122.574026 
L 158.15989 122.574026 
L 159.086839 123.816145 
L 160.013788 120.089787 
L 161.867686 122.574026 
L 162.794634 122.574026 
L 163.721583 123.816145 
L 165.575481 121.331906 
L 166.50243 122.574026 
L 167.429378 125.058265 
L 168.356327 122.574026 
L 169.283276 126.300384 
L 171.137173 126.300384 
L 172.064122 130.026743 
L 172.991071 123.816145 
L 174.844969 123.816145 
L 175.771917 125.058265 
L 176.698866 121.331906 
L 177.625815 122.574026 
L 178.552764 125.058265 
L 179.479713 123.816145 
L 180.406661 123.816145 
L 181.33361 126.300384 
L 182.260559 130.026743 
L 183.187508 125.058265 
L 184.114457 125.058265 
L 185.041405 122.574026 
L 186.895303 122.574026 
L 187.822252 125.058265 
L 188.749201 126.300384 
L 189.676149 122.574026 
L 190.603098 122.574026 
L 191.530047 121.331906 
L 192.456996 125.058265 
L 193.383945 122.574026 
L 194.310893 125.058265 
L 195.237842 126.300384 
L 196.164791 125.058265 
L 197.09174 122.574026 
L 198.018688 123.816145 
L 198.945637 123.816145 
L 199.872586 120.089787 
L 200.799535 121.331906 
L 201.726484 123.816145 
L 202.653432 125.058265 
L 203.580381 125.058265 
L 204.50733 128.784623 
L 205.434279 127.542504 
L 206.361228 123.816145 
L 207.288176 126.300384 
L 208.215125 123.816145 
L 209.142074 125.058265 
L 210.069023 123.816145 
L 210.995972 127.542504 
L 211.92292 127.542504 
L 212.849869 123.816145 
L 213.776818 127.542504 
L 214.703767 126.300384 
L 215.630716 127.542504 
L 216.557664 125.058265 
L 217.484613 125.058265 
L 218.411562 123.816145 
L 219.338511 125.058265 
L 221.192408 125.058265 
L 222.119357 126.300384 
L 223.046306 126.300384 
L 223.973255 125.058265 
L 224.900203 127.542504 
L 225.827152 126.300384 
L 226.754101 126.300384 
L 227.68105 127.542504 
L 228.607999 126.300384 
L 230.461896 126.300384 
L 231.388845 125.058265 
L 232.315794 126.300384 
L 233.242743 128.784623 
L 236.023589 125.058265 
L 237.877487 127.542504 
L 238.804435 126.300384 
L 239.731384 127.542504 
L 241.585282 127.542504 
L 242.512231 126.300384 
L 243.439179 127.542504 
L 244.366128 126.300384 
L 245.293077 126.300384 
L 246.220026 127.542504 
L 247.146975 126.300384 
L 249.000872 126.300384 
L 249.927821 127.542504 
L 250.85477 126.300384 
L 251.781719 127.542504 
L 253.635616 127.542504 
L 254.562565 126.300384 
L 255.489514 126.300384 
L 256.416462 127.542504 
L 263.832053 127.542504 
L 264.759002 126.300384 
L 265.68595 127.542504 
L 265.68595 127.542504 
" clip-path="url(#p8d7f8f675a)" style="fill: none; stroke: #2ca02c; stroke-width: 1.5; stroke-linecap: square"/>
   </g>
   <g id="patch_3">
    <path d="M 72 192.24 
L 72 25.92 
" style="fill: none; stroke: #000000; stroke-width: 0.8; stroke-linejoin: miter; stroke-linecap: square"/>
   </g>
   <g id="patch_4">
    <path d="M 274.909091 192.24 
L 274.909091 25.92 
" style="fill: none; stroke: #000000; stroke-width: 0.8; stroke-linejoin: miter; stroke-linecap: square"/>
   </g>
   <g id="patch_5">
    <path d="M 72 192.24 
L 274.909091 192.24 
" style="fill: none; stroke: #000000; stroke-width: 0.8; stroke-linejoin: miter; stroke-linecap: square"/>
   </g>
   <g id="patch_6">
    <path d="M 72 25.92 
L 274.909091 25.92 
" style="fill: none; stroke: #000000; stroke-width: 0.8; stroke-linejoin: miter; stroke-linecap: square"/>
   </g>
   <g id="text_11">
    <!-- Accuracy -->
    <g transform="translate(146.060795 19.92) scale(0.12 -0.12)">
     <defs>
      <path id="DejaVuSans-41" d="M 2188 4044 
L 1331 1722 
L 3047 1722 
L 2188 4044 
z
M 1831 4666 
L 2547 4666 
L 4325 0 
L 3669 0 
L 3244 1197 
L 1141 1197 
L 716 0 
L 50 0 
L 1831 4666 
z
" transform="scale(0.015625)"/>
      <path id="DejaVuSans-75" d="M 544 1381 
L 544 3500 
L 1119 3500 
L 1119 1403 
Q 1119 906 1312 657 
Q 1506 409 1894 409 
Q 2359 409 2629 706 
Q 2900 1003 2900 1516 
L 2900 3500 
L 3475 3500 
L 3475 0 
L 2900 0 
L 2900 538 
Q 2691 219 2414 64 
Q 2138 -91 1772 -91 
Q 1169 -91 856 284 
Q 544 659 544 1381 
z
M 1991 3584 
L 1991 3584 
z
" transform="scale(0.015625)"/>
      <path id="DejaVuSans-72" d="M 2631 2963 
Q 2534 3019 2420 3045 
Q 2306 3072 2169 3072 
Q 1681 3072 1420 2755 
Q 1159 2438 1159 1844 
L 1159 0 
L 581 0 
L 581 3500 
L 1159 3500 
L 1159 2956 
Q 1341 3275 1631 3429 
Q 1922 3584 2338 3584 
Q 2397 3584 2469 3576 
Q 2541 3569 2628 3553 
L 2631 2963 
z
" transform="scale(0.015625)"/>
      <path id="DejaVuSans-61" d="M 2194 1759 
Q 1497 1759 1228 1600 
Q 959 1441 959 1056 
Q 959 750 1161 570 
Q 1363 391 1709 391 
Q 2188 391 2477 730 
Q 2766 1069 2766 1631 
L 2766 1759 
L 2194 1759 
z
M 3341 1997 
L 3341 0 
L 2766 0 
L 2766 531 
Q 2569 213 2275 61 
Q 1981 -91 1556 -91 
Q 1019 -91 701 211 
Q 384 513 384 1019 
Q 384 1609 779 1909 
Q 1175 2209 1959 2209 
L 2766 2209 
L 2766 2266 
Q 2766 2663 2505 2880 
Q 2244 3097 1772 3097 
Q 1472 3097 1187 3025 
Q 903 2953 641 2809 
L 641 3341 
Q 956 3463 1253 3523 
Q 1550 3584 1831 3584 
Q 2591 3584 2966 3190 
Q 3341 2797 3341 1997 
z
" transform="scale(0.015625)"/>
      <path id="DejaVuSans-79" d="M 2059 -325 
Q 1816 -950 1584 -1140 
Q 1353 -1331 966 -1331 
L 506 -1331 
L 506 -850 
L 844 -850 
Q 1081 -850 1212 -737 
Q 1344 -625 1503 -206 
L 1606 56 
L 191 3500 
L 800 3500 
L 1894 763 
L 2988 3500 
L 3597 3500 
L 2059 -325 
z
" transform="scale(0.015625)"/>
     </defs>
     <use xlink:href="#DejaVuSans-41"/>
     <use xlink:href="#DejaVuSans-63" x="66.658203"/>
     <use xlink:href="#DejaVuSans-63" x="121.638672"/>
     <use xlink:href="#DejaVuSans-75" x="176.619141"/>
     <use xlink:href="#DejaVuSans-72" x="239.998047"/>
     <use xlink:href="#DejaVuSans-61" x="281.111328"/>
     <use xlink:href="#DejaVuSans-63" x="342.390625"/>
     <use xlink:href="#DejaVuSans-79" x="397.371094"/>
    </g>
   </g>
   <g id="legend_1">
    <g id="patch_7">
     <path d="M 212.634091 187.24 
L 267.909091 187.24 
Q 269.909091 187.24 269.909091 185.24 
L 269.909091 142.205625 
Q 269.909091 140.205625 267.909091 140.205625 
L 212.634091 140.205625 
Q 210.634091 140.205625 210.634091 142.205625 
L 210.634091 185.24 
Q 210.634091 187.24 212.634091 187.24 
z
" style="fill: #ffffff; opacity: 0.8; stroke: #cccccc; stroke-linejoin: miter"/>
    </g>
    <g id="line2d_13">
     <path d="M 214.634091 148.304062 
L 224.634091 148.304062 
L 234.634091 148.304062 
" style="fill: none; stroke: #1f77b4; stroke-width: 1.5; stroke-linecap: square"/>
    </g>
    <g id="text_12">
     <!-- train -->
     <g transform="translate(242.634091 151.804062) scale(0.1 -0.1)">
      <defs>
       <path id="DejaVuSans-74" d="M 1172 4494 
L 1172 3500 
L 2356 3500 
L 2356 3053 
L 1172 3053 
L 1172 1153 
Q 1172 725 1289 603 
Q 1406 481 1766 481 
L 2356 481 
L 2356 0 
L 1766 0 
Q 1100 0 847 248 
Q 594 497 594 1153 
L 594 3053 
L 172 3053 
L 172 3500 
L 594 3500 
L 594 4494 
L 1172 4494 
z
" transform="scale(0.015625)"/>
       <path id="DejaVuSans-69" d="M 603 3500 
L 1178 3500 
L 1178 0 
L 603 0 
L 603 3500 
z
M 603 4863 
L 1178 4863 
L 1178 4134 
L 603 4134 
L 603 4863 
z
" transform="scale(0.015625)"/>
       <path id="DejaVuSans-6e" d="M 3513 2113 
L 3513 0 
L 2938 0 
L 2938 2094 
Q 2938 2591 2744 2837 
Q 2550 3084 2163 3084 
Q 1697 3084 1428 2787 
Q 1159 2491 1159 1978 
L 1159 0 
L 581 0 
L 581 3500 
L 1159 3500 
L 1159 2956 
Q 1366 3272 1645 3428 
Q 1925 3584 2291 3584 
Q 2894 3584 3203 3211 
Q 3513 2838 3513 2113 
z
" transform="scale(0.015625)"/>
      </defs>
      <use xlink:href="#DejaVuSans-74"/>
      <use xlink:href="#DejaVuSans-72" x="39.208984"/>
      <use xlink:href="#DejaVuSans-61" x="80.322266"/>
      <use xlink:href="#DejaVuSans-69" x="141.601562"/>
      <use xlink:href="#DejaVuSans-6e" x="169.384766"/>
     </g>
    </g>
    <g id="line2d_14">
     <path d="M 214.634091 162.982188 
L 224.634091 162.982188 
L 234.634091 162.982188 
" style="fill: none; stroke: #ff7f0e; stroke-width: 1.5; stroke-linecap: square"/>
    </g>
    <g id="text_13">
     <!-- eval -->
     <g transform="translate(242.634091 166.482188) scale(0.1 -0.1)">
      <defs>
       <path id="DejaVuSans-65" d="M 3597 1894 
L 3597 1613 
L 953 1613 
Q 991 1019 1311 708 
Q 1631 397 2203 397 
Q 2534 397 2845 478 
Q 3156 559 3463 722 
L 3463 178 
Q 3153 47 2828 -22 
Q 2503 -91 2169 -91 
Q 1331 -91 842 396 
Q 353 884 353 1716 
Q 353 2575 817 3079 
Q 1281 3584 2069 3584 
Q 2775 3584 3186 3129 
Q 3597 2675 3597 1894 
z
M 3022 2063 
Q 3016 2534 2758 2815 
Q 2500 3097 2075 3097 
Q 1594 3097 1305 2825 
Q 1016 2553 972 2059 
L 3022 2063 
z
" transform="scale(0.015625)"/>
       <path id="DejaVuSans-76" d="M 191 3500 
L 800 3500 
L 1894 563 
L 2988 3500 
L 3597 3500 
L 2284 0 
L 1503 0 
L 191 3500 
z
" transform="scale(0.015625)"/>
       <path id="DejaVuSans-6c" d="M 603 4863 
L 1178 4863 
L 1178 0 
L 603 0 
L 603 4863 
z
" transform="scale(0.015625)"/>
      </defs>
      <use xlink:href="#DejaVuSans-65"/>
      <use xlink:href="#DejaVuSans-76" x="61.523438"/>
      <use xlink:href="#DejaVuSans-61" x="120.703125"/>
      <use xlink:href="#DejaVuSans-6c" x="181.982422"/>
     </g>
    </g>
    <g id="line2d_15">
     <path d="M 214.634091 177.660313 
L 224.634091 177.660313 
L 234.634091 177.660313 
" style="fill: none; stroke: #2ca02c; stroke-width: 1.5; stroke-linecap: square"/>
    </g>
    <g id="text_14">
     <!-- test -->
     <g transform="translate(242.634091 181.160313) scale(0.1 -0.1)">
      <use xlink:href="#DejaVuSans-74"/>
      <use xlink:href="#DejaVuSans-65" x="39.208984"/>
      <use xlink:href="#DejaVuSans-73" x="100.732422"/>
      <use xlink:href="#DejaVuSans-74" x="152.832031"/>
     </g>
    </g>
   </g>
  </g>
  <g id="axes_2">
   <g id="patch_8">
    <path d="M 315.490909 192.24 
L 518.4 192.24 
L 518.4 25.92 
L 315.490909 25.92 
z
" style="fill: #ffffff"/>
   </g>
   <g id="matplotlib.axis_3">
    <g id="xtick_6">
     <g id="line2d_16">
      <g>
       <use xlink:href="#mb607166f05" x="323.787101" y="192.24" style="stroke: #000000; stroke-width: 0.8"/>
      </g>
     </g>
     <g id="text_15">
      <!-- 0 -->
      <g transform="translate(320.605851 206.838437) scale(0.1 -0.1)">
       <use xlink:href="#DejaVuSans-30"/>
      </g>
     </g>
    </g>
    <g id="xtick_7">
     <g id="line2d_17">
      <g>
       <use xlink:href="#mb607166f05" x="370.13454" y="192.24" style="stroke: #000000; stroke-width: 0.8"/>
      </g>
     </g>
     <g id="text_16">
      <!-- 50 -->
      <g transform="translate(363.77204 206.838437) scale(0.1 -0.1)">
       <use xlink:href="#DejaVuSans-35"/>
       <use xlink:href="#DejaVuSans-30" x="63.623047"/>
      </g>
     </g>
    </g>
    <g id="xtick_8">
     <g id="line2d_18">
      <g>
       <use xlink:href="#mb607166f05" x="416.48198" y="192.24" style="stroke: #000000; stroke-width: 0.8"/>
      </g>
     </g>
     <g id="text_17">
      <!-- 100 -->
      <g transform="translate(406.93823 206.838437) scale(0.1 -0.1)">
       <use xlink:href="#DejaVuSans-31"/>
       <use xlink:href="#DejaVuSans-30" x="63.623047"/>
       <use xlink:href="#DejaVuSans-30" x="127.246094"/>
      </g>
     </g>
    </g>
    <g id="xtick_9">
     <g id="line2d_19">
      <g>
       <use xlink:href="#mb607166f05" x="462.82942" y="192.24" style="stroke: #000000; stroke-width: 0.8"/>
      </g>
     </g>
     <g id="text_18">
      <!-- 150 -->
      <g transform="translate(453.28567 206.838437) scale(0.1 -0.1)">
       <use xlink:href="#DejaVuSans-31"/>
       <use xlink:href="#DejaVuSans-35" x="63.623047"/>
       <use xlink:href="#DejaVuSans-30" x="127.246094"/>
      </g>
     </g>
    </g>
    <g id="xtick_10">
     <g id="line2d_20">
      <g>
       <use xlink:href="#mb607166f05" x="509.17686" y="192.24" style="stroke: #000000; stroke-width: 0.8"/>
      </g>
     </g>
     <g id="text_19">
      <!-- 200 -->
      <g transform="translate(499.63311 206.838437) scale(0.1 -0.1)">
       <use xlink:href="#DejaVuSans-32"/>
       <use xlink:href="#DejaVuSans-30" x="63.623047"/>
       <use xlink:href="#DejaVuSans-30" x="127.246094"/>
      </g>
     </g>
    </g>
    <g id="text_20">
     <!-- Epochs -->
     <g transform="translate(399.02983 220.516562) scale(0.1 -0.1)">
      <use xlink:href="#DejaVuSans-45"/>
      <use xlink:href="#DejaVuSans-70" x="63.183594"/>
      <use xlink:href="#DejaVuSans-6f" x="126.660156"/>
      <use xlink:href="#DejaVuSans-63" x="187.841797"/>
      <use xlink:href="#DejaVuSans-68" x="242.822266"/>
      <use xlink:href="#DejaVuSans-73" x="306.201172"/>
     </g>
    </g>
   </g>
   <g id="matplotlib.axis_4">
    <g id="ytick_5">
     <g id="line2d_21">
      <g>
       <use xlink:href="#ma548cfc40e" x="315.490909" y="176.3286" style="stroke: #000000; stroke-width: 0.8"/>
      </g>
     </g>
     <g id="text_21">
      <!-- 0.4 -->
      <g transform="translate(292.587784 180.127819) scale(0.1 -0.1)">
       <use xlink:href="#DejaVuSans-30"/>
       <use xlink:href="#DejaVuSans-2e" x="63.623047"/>
       <use xlink:href="#DejaVuSans-34" x="95.410156"/>
      </g>
     </g>
    </g>
    <g id="ytick_6">
     <g id="line2d_22">
      <g>
       <use xlink:href="#ma548cfc40e" x="315.490909" y="149.157736" style="stroke: #000000; stroke-width: 0.8"/>
      </g>
     </g>
     <g id="text_22">
      <!-- 0.5 -->
      <g transform="translate(292.587784 152.956955) scale(0.1 -0.1)">
       <use xlink:href="#DejaVuSans-30"/>
       <use xlink:href="#DejaVuSans-2e" x="63.623047"/>
       <use xlink:href="#DejaVuSans-35" x="95.410156"/>
      </g>
     </g>
    </g>
    <g id="ytick_7">
     <g id="line2d_23">
      <g>
       <use xlink:href="#ma548cfc40e" x="315.490909" y="121.986873" style="stroke: #000000; stroke-width: 0.8"/>
      </g>
     </g>
     <g id="text_23">
      <!-- 0.6 -->
      <g transform="translate(292.587784 125.786092) scale(0.1 -0.1)">
       <use xlink:href="#DejaVuSans-30"/>
       <use xlink:href="#DejaVuSans-2e" x="63.623047"/>
       <use xlink:href="#DejaVuSans-36" x="95.410156"/>
      </g>
     </g>
    </g>
    <g id="ytick_8">
     <g id="line2d_24">
      <g>
       <use xlink:href="#ma548cfc40e" x="315.490909" y="94.816009" style="stroke: #000000; stroke-width: 0.8"/>
      </g>
     </g>
     <g id="text_24">
      <!-- 0.7 -->
      <g transform="translate(292.587784 98.615228) scale(0.1 -0.1)">
       <defs>
        <path id="DejaVuSans-37" d="M 525 4666 
L 3525 4666 
L 3525 4397 
L 1831 0 
L 1172 0 
L 2766 4134 
L 525 4134 
L 525 4666 
z
" transform="scale(0.015625)"/>
       </defs>
       <use xlink:href="#DejaVuSans-30"/>
       <use xlink:href="#DejaVuSans-2e" x="63.623047"/>
       <use xlink:href="#DejaVuSans-37" x="95.410156"/>
      </g>
     </g>
    </g>
    <g id="ytick_9">
     <g id="line2d_25">
      <g>
       <use xlink:href="#ma548cfc40e" x="315.490909" y="67.645146" style="stroke: #000000; stroke-width: 0.8"/>
      </g>
     </g>
     <g id="text_25">
      <!-- 0.8 -->
      <g transform="translate(292.587784 71.444365) scale(0.1 -0.1)">
       <use xlink:href="#DejaVuSans-30"/>
       <use xlink:href="#DejaVuSans-2e" x="63.623047"/>
       <use xlink:href="#DejaVuSans-38" x="95.410156"/>
      </g>
     </g>
    </g>
    <g id="ytick_10">
     <g id="line2d_26">
      <g>
       <use xlink:href="#ma548cfc40e" x="315.490909" y="40.474282" style="stroke: #000000; stroke-width: 0.8"/>
      </g>
     </g>
     <g id="text_26">
      <!-- 0.9 -->
      <g transform="translate(292.587784 44.273501) scale(0.1 -0.1)">
       <defs>
        <path id="DejaVuSans-39" d="M 703 97 
L 703 672 
Q 941 559 1184 500 
Q 1428 441 1663 441 
Q 2288 441 2617 861 
Q 2947 1281 2994 2138 
Q 2813 1869 2534 1725 
Q 2256 1581 1919 1581 
Q 1219 1581 811 2004 
Q 403 2428 403 3163 
Q 403 3881 828 4315 
Q 1253 4750 1959 4750 
Q 2769 4750 3195 4129 
Q 3622 3509 3622 2328 
Q 3622 1225 3098 567 
Q 2575 -91 1691 -91 
Q 1453 -91 1209 -44 
Q 966 3 703 97 
z
M 1959 2075 
Q 2384 2075 2632 2365 
Q 2881 2656 2881 3163 
Q 2881 3666 2632 3958 
Q 2384 4250 1959 4250 
Q 1534 4250 1286 3958 
Q 1038 3666 1038 3163 
Q 1038 2656 1286 2365 
Q 1534 2075 1959 2075 
z
" transform="scale(0.015625)"/>
       </defs>
       <use xlink:href="#DejaVuSans-30"/>
       <use xlink:href="#DejaVuSans-2e" x="63.623047"/>
       <use xlink:href="#DejaVuSans-39" x="95.410156"/>
      </g>
     </g>
    </g>
   </g>
   <g id="line2d_27">
    <path d="M 324.71405 160.744498 
L 325.640998 145.489923 
L 326.567947 138.274817 
L 327.494896 134.253557 
L 328.421845 129.53495 
L 329.348794 122.192578 
L 330.275742 119.172095 
L 331.202691 115.076536 
L 332.12964 113.388496 
L 333.056589 109.510643 
L 333.983538 108.410519 
L 334.910486 106.594206 
L 335.837435 105.32021 
L 336.764384 102.675061 
L 337.691333 102.747872 
L 338.618281 99.71653 
L 339.54523 98.095113 
L 340.472179 97.962455 
L 341.399128 96.187797 
L 342.326077 94.859892 
L 343.253025 93.899843 
L 344.179974 93.636198 
L 345.106923 91.737748 
L 346.033872 91.798492 
L 347.887769 88.342225 
L 349.741667 88.197617 
L 350.668616 86.880534 
L 352.522513 84.916409 
L 353.449462 83.239627 
L 354.376411 83.226674 
L 356.230309 81.363541 
L 357.157257 80.234523 
L 358.084206 79.961071 
L 359.011155 78.703244 
L 359.938104 78.688924 
L 360.865053 77.79846 
L 361.792001 77.340576 
L 362.71895 75.798333 
L 363.645899 75.799164 
L 364.572848 74.822936 
L 365.499797 73.205347 
L 366.426745 72.719742 
L 367.353694 72.499786 
L 368.280643 71.584498 
L 369.207592 71.457239 
L 370.13454 69.505367 
L 371.061489 68.587437 
L 371.988438 67.435813 
L 372.915387 67.225972 
L 373.842336 66.498931 
L 375.696233 65.271689 
L 376.623182 64.361272 
L 377.550131 64.575455 
L 378.47708 62.915456 
L 379.404028 62.937932 
L 380.330977 62.792061 
L 381.257926 61.742263 
L 382.184875 61.078679 
L 383.111824 60.164168 
L 384.038772 60.147058 
L 384.965721 60.613258 
L 385.89267 60.133116 
L 386.819619 59.46023 
L 387.746568 58.628162 
L 388.673516 58.608336 
L 389.600465 58.32691 
L 390.527414 56.255007 
L 391.454363 55.874814 
L 392.381312 56.190657 
L 393.30826 56.128137 
L 394.235209 54.935976 
L 395.162158 54.856423 
L 396.089107 54.427528 
L 397.016055 54.580526 
L 397.943004 52.572043 
L 398.869953 53.695886 
L 400.723851 51.364317 
L 401.650799 51.355331 
L 402.577748 52.379644 
L 403.504697 51.716357 
L 404.431646 52.980233 
L 405.358595 51.630774 
L 406.285543 51.223719 
L 407.212492 50.626681 
L 408.139441 50.843141 
L 409.06639 50.904236 
L 411.847236 49.100546 
L 412.774185 49.663695 
L 413.701134 47.756618 
L 414.628083 48.501455 
L 415.555031 48.321211 
L 416.48198 47.974415 
L 417.408929 47.443654 
L 418.335878 46.308557 
L 419.262827 46.651661 
L 421.116724 45.435903 
L 422.043673 45.557965 
L 422.970622 44.94824 
L 423.89757 45.541916 
L 424.824519 44.749125 
L 425.751468 44.336585 
L 426.678417 44.555218 
L 427.605366 43.917137 
L 428.532314 42.60544 
L 429.459263 42.604821 
L 430.386212 42.975031 
L 431.313161 43.036504 
L 434.094007 41.407748 
L 435.947905 41.368216 
L 436.874854 41.190701 
L 437.801802 41.216976 
L 438.728751 39.770737 
L 440.582649 40.143232 
L 441.509598 40.063286 
L 442.436546 39.520241 
L 443.363495 39.140725 
L 444.290444 39.229043 
L 447.07129 38.277058 
L 447.998239 38.278085 
L 448.925188 37.884198 
L 449.852137 38.013574 
L 450.779086 37.886533 
L 451.706034 38.379644 
L 452.632983 38.201172 
L 453.559932 37.152553 
L 455.413829 36.855694 
L 456.340778 37.28358 
L 457.267727 37.031991 
L 458.194676 37.192999 
L 460.048573 36.534578 
L 461.902471 36.380442 
L 462.82942 36.00439 
L 463.756369 36.004831 
L 464.683317 35.798113 
L 465.610266 35.323218 
L 466.537215 35.8345 
L 470.24501 35.749447 
L 471.171959 35.119338 
L 472.098908 35.556739 
L 473.025857 35.50878 
L 473.952805 35.233128 
L 474.879754 35.222667 
L 475.806703 35.511386 
L 476.733652 35.06469 
L 478.587549 34.646211 
L 479.514498 34.12134 
L 483.222293 33.898438 
L 484.149242 34.286201 
L 485.076191 34.031427 
L 486.00314 34.472034 
L 487.857037 34.312098 
L 488.783986 34.044148 
L 490.637884 34.05905 
L 492.491781 34.056491 
L 495.272628 33.815132 
L 497.126525 33.748717 
L 498.980423 33.544395 
L 500.83432 33.584266 
L 502.688218 33.544395 
L 503.615167 33.769862 
L 504.542116 33.48 
L 506.396013 33.630243 
L 507.322962 33.660802 
L 508.249911 33.949743 
L 509.17686 33.549096 
L 509.17686 33.549096 
" clip-path="url(#p5cad9c363e)" style="fill: none; stroke: #1f77b4; stroke-width: 1.5; stroke-linecap: square"/>
   </g>
   <g id="line2d_28">
    <path d="M 324.71405 184.68 
L 325.640998 162.628607 
L 326.567947 160.077171 
L 327.494896 152.955367 
L 328.421845 149.205239 
L 330.275742 145.985358 
L 331.202691 142.827476 
L 332.12964 142.593349 
L 333.056589 138.142262 
L 333.983538 136.779444 
L 334.910486 136.692298 
L 335.837435 137.997176 
L 336.764384 136.487006 
L 337.691333 133.809916 
L 338.618281 132.006083 
L 339.54523 133.03675 
L 340.472179 134.282117 
L 341.399128 131.635528 
L 342.326077 131.576802 
L 343.253025 129.488937 
L 345.106923 129.948679 
L 346.033872 134.157021 
L 346.960821 128.822027 
L 347.887769 128.11944 
L 348.814718 127.183979 
L 349.741667 127.146524 
L 351.595565 123.708218 
L 352.522513 122.742638 
L 354.376411 127.234889 
L 355.30336 128.212701 
L 356.230309 127.504202 
L 357.157257 126.471844 
L 358.084206 127.449273 
L 359.011155 125.968015 
L 359.938104 127.006613 
L 360.865053 121.538005 
L 361.792001 122.876298 
L 362.71895 124.415177 
L 363.645899 124.811968 
L 364.572848 126.522588 
L 365.499797 121.485832 
L 366.426745 121.222704 
L 367.353694 122.397549 
L 368.280643 122.072407 
L 369.207592 125.568737 
L 370.13454 124.682156 
L 371.061489 124.115405 
L 371.988438 123.216898 
L 372.915387 124.832531 
L 373.842336 124.732738 
L 374.769284 123.342138 
L 375.696233 123.07876 
L 376.623182 121.35658 
L 377.550131 122.96666 
L 378.47708 122.497092 
L 379.404028 124.402668 
L 380.330977 120.813195 
L 381.257926 119.806377 
L 382.184875 119.313525 
L 383.111824 122.032692 
L 384.038772 120.309414 
L 384.965721 119.890424 
L 385.89267 121.26721 
L 386.819619 120.834771 
L 387.746568 121.959149 
L 388.673516 118.539162 
L 389.600465 117.34866 
L 390.527414 117.710828 
L 391.454363 120.855344 
L 392.381312 122.389964 
L 393.30826 122.418726 
L 394.235209 120.585935 
L 395.162158 121.958899 
L 396.089107 120.558402 
L 397.016055 120.893987 
L 397.943004 121.787938 
L 398.869953 121.948568 
L 399.796902 119.461889 
L 400.723851 119.243884 
L 401.650799 122.21213 
L 403.504697 119.48339 
L 404.431646 121.606308 
L 406.285543 121.492495 
L 407.212492 121.119518 
L 408.139441 122.084302 
L 409.06639 122.574603 
L 409.993339 120.289155 
L 410.920287 118.759031 
L 411.847236 119.140152 
L 412.774185 121.232424 
L 413.701134 119.092844 
L 414.628083 118.730315 
L 415.555031 117.791025 
L 416.48198 121.401008 
L 417.408929 122.88916 
L 418.335878 120.329706 
L 419.262827 120.601153 
L 420.189775 117.926826 
L 421.116724 117.248056 
L 422.043673 117.793919 
L 422.970622 117.937055 
L 423.89757 120.432317 
L 424.824519 119.656579 
L 425.751468 118.659305 
L 426.678417 119.810916 
L 427.605366 119.102094 
L 428.532314 120.507147 
L 429.459263 117.437682 
L 430.386212 120.27287 
L 431.313161 119.773657 
L 432.24011 119.844452 
L 433.167058 120.559019 
L 434.094007 120.410484 
L 435.947905 118.237542 
L 436.874854 120.249186 
L 437.801802 117.024488 
L 438.728751 114.277095 
L 439.6557 114.301733 
L 440.582649 112.814972 
L 441.509598 111.905348 
L 442.436546 113.448065 
L 443.363495 117.976283 
L 444.290444 114.978493 
L 445.217393 116.058657 
L 447.07129 114.304904 
L 447.998239 116.131563 
L 448.925188 115.501624 
L 450.779086 118.045501 
L 451.706034 115.881151 
L 453.559932 116.735432 
L 454.486881 117.395913 
L 455.413829 116.315042 
L 456.340778 115.757926 
L 457.267727 116.231182 
L 458.194676 114.754445 
L 459.121625 114.340784 
L 460.048573 112.099331 
L 460.975522 112.824895 
L 461.902471 113.389447 
L 462.82942 111.829215 
L 463.756369 113.562439 
L 464.683317 116.544152 
L 465.610266 116.860959 
L 466.537215 115.998392 
L 467.464164 114.820769 
L 468.391113 113.998944 
L 469.318061 113.341268 
L 470.24501 113.034953 
L 471.171959 112.537779 
L 472.098908 112.664901 
L 473.025857 112.911579 
L 473.952805 113.426303 
L 474.879754 114.890639 
L 475.806703 113.341213 
L 476.733652 113.001777 
L 477.660601 112.402772 
L 478.587549 112.6412 
L 479.514498 113.45984 
L 480.441447 112.881976 
L 481.368396 112.991026 
L 482.295344 112.16317 
L 483.222293 112.521399 
L 484.149242 110.973202 
L 485.076191 110.589941 
L 486.00314 110.79822 
L 486.930088 110.41885 
L 487.857037 110.718855 
L 488.783986 111.532273 
L 490.637884 110.678419 
L 491.564832 111.425178 
L 492.491781 110.715588 
L 493.41873 111.254692 
L 494.345679 110.555853 
L 495.272628 111.575336 
L 496.199576 111.128079 
L 497.126525 110.457193 
L 498.053474 111.045489 
L 498.980423 110.274363 
L 499.907372 111.085016 
L 500.83432 112.111311 
L 501.761269 112.683088 
L 502.688218 111.852917 
L 503.615167 110.726339 
L 505.469064 111.45358 
L 506.396013 112.431955 
L 507.322962 112.971059 
L 509.17686 110.859295 
L 509.17686 110.859295 
" clip-path="url(#p5cad9c363e)" style="fill: none; stroke: #ff7f0e; stroke-width: 1.5; stroke-linecap: square"/>
   </g>
   <g id="line2d_29">
    <path d="M 324.71405 175.734183 
L 325.640998 162.891384 
L 326.567947 159.227095 
L 327.494896 159.599427 
L 329.348794 146.81484 
L 330.275742 145.503896 
L 331.202691 139.381497 
L 332.12964 140.89988 
L 333.056589 136.164899 
L 333.983538 135.406825 
L 334.910486 130.653121 
L 335.837435 133.010331 
L 337.691333 126.752946 
L 338.618281 125.750276 
L 339.54523 125.428005 
L 340.472179 126.39 
L 341.399128 126.267975 
L 342.326077 121.789858 
L 343.253025 119.921393 
L 344.179974 119.066126 
L 345.106923 121.639624 
L 346.033872 121.014004 
L 346.960821 120.042325 
L 347.887769 119.730484 
L 348.814718 121.723556 
L 349.741667 121.469077 
L 350.668616 123.96187 
L 351.595565 121.345115 
L 352.522513 116.811572 
L 354.376411 118.050445 
L 355.30336 114.89255 
L 356.230309 119.142113 
L 357.157257 119.718763 
L 358.084206 119.217751 
L 359.011155 118.993716 
L 359.938104 119.530337 
L 360.865053 118.614083 
L 361.792001 119.294582 
L 362.71895 114.656992 
L 363.645899 113.077871 
L 364.572848 112.295949 
L 365.499797 110.599183 
L 366.426745 112.871169 
L 367.353694 117.968391 
L 368.280643 115.611727 
L 369.207592 114.076956 
L 370.13454 115.9041 
L 371.061489 113.864095 
L 371.988438 112.213855 
L 372.915387 114.084256 
L 373.842336 112.907324 
L 374.769284 111.375822 
L 375.696233 111.371203 
L 376.623182 113.312882 
L 377.550131 111.268001 
L 378.47708 113.689088 
L 379.404028 114.236585 
L 380.330977 115.006181 
L 381.257926 118.698562 
L 382.184875 116.895207 
L 383.111824 113.251993 
L 384.038772 113.275236 
L 384.965721 113.949278 
L 385.89267 112.90648 
L 386.819619 111.599816 
L 387.746568 113.907858 
L 388.673516 115.177274 
L 389.600465 117.675878 
L 390.527414 115.680124 
L 391.454363 113.10608 
L 392.381312 111.60234 
L 394.235209 111.316383 
L 395.162158 113.569745 
L 396.089107 114.24185 
L 397.016055 112.807093 
L 397.943004 115.070744 
L 398.869953 113.465798 
L 399.796902 113.592143 
L 400.723851 113.469513 
L 401.650799 111.577864 
L 402.577748 113.132353 
L 403.504697 110.74147 
L 404.431646 110.150268 
L 405.358595 112.027126 
L 406.285543 111.577765 
L 407.212492 111.427233 
L 408.139441 110.856493 
L 409.06639 111.02252 
L 409.993339 115.141665 
L 411.847236 109.999935 
L 412.774185 113.888589 
L 413.701134 112.874298 
L 414.628083 112.037556 
L 415.555031 111.662989 
L 416.48198 112.808989 
L 417.408929 113.651095 
L 418.335878 110.122059 
L 420.189775 108.757735 
L 421.116724 110.902531 
L 422.043673 111.4173 
L 422.970622 111.111071 
L 423.89757 109.339293 
L 424.824519 109.972073 
L 426.678417 109.53046 
L 427.605366 110.198691 
L 428.532314 109.958515 
L 429.459263 107.499394 
L 430.386212 109.09863 
L 431.313161 109.621593 
L 432.24011 111.508136 
L 433.167058 110.267814 
L 434.094007 110.704967 
L 435.020956 110.879934 
L 435.947905 110.712715 
L 436.874854 109.710185 
L 437.801802 110.45317 
L 438.728751 110.611996 
L 439.6557 112.297588 
L 441.509598 111.091643 
L 442.436546 112.386198 
L 443.363495 107.838352 
L 444.290444 109.301946 
L 445.217393 110.113508 
L 446.144342 111.498989 
L 447.07129 110.180663 
L 447.998239 112.712194 
L 448.925188 113.298032 
L 449.852137 111.007968 
L 450.779086 112.815694 
L 451.706034 110.96193 
L 452.632983 109.717247 
L 453.559932 110.857378 
L 454.486881 111.323426 
L 455.413829 110.691955 
L 456.340778 110.424703 
L 458.194676 111.648239 
L 459.121625 111.792861 
L 460.048573 111.040796 
L 460.975522 111.557949 
L 461.902471 110.796489 
L 462.82942 111.09358 
L 463.756369 111.8153 
L 464.683317 110.02441 
L 465.610266 111.217542 
L 466.537215 110.562869 
L 467.464164 110.841038 
L 468.391113 112.259555 
L 469.318061 110.721654 
L 470.24501 111.242681 
L 471.171959 110.322007 
L 472.098908 111.517076 
L 473.025857 112.526847 
L 473.952805 111.965146 
L 474.879754 111.083855 
L 475.806703 111.080726 
L 476.733652 112.791011 
L 477.660601 110.960638 
L 478.587549 110.805686 
L 480.441447 111.436371 
L 481.368396 112.230501 
L 482.295344 112.705042 
L 483.222293 111.51191 
L 484.149242 112.034874 
L 485.076191 112.001301 
L 486.00314 111.429915 
L 486.930088 112.272467 
L 487.857037 112.114287 
L 488.783986 111.232997 
L 489.710935 111.397633 
L 490.637884 110.487289 
L 491.564832 110.374303 
L 492.491781 110.923092 
L 493.41873 111.106452 
L 494.345679 111.116137 
L 495.272628 110.893393 
L 496.199576 111.477146 
L 497.126525 111.027685 
L 498.053474 110.349769 
L 498.980423 110.537003 
L 500.83432 111.416357 
L 501.761269 110.750062 
L 502.688218 111.848931 
L 503.615167 110.837869 
L 504.542116 111.027685 
L 505.469064 110.982491 
L 506.396013 111.14519 
L 507.322962 110.901141 
L 508.249911 111.052219 
L 509.17686 110.52409 
L 509.17686 110.52409 
" clip-path="url(#p5cad9c363e)" style="fill: none; stroke: #2ca02c; stroke-width: 1.5; stroke-linecap: square"/>
   </g>
   <g id="patch_9">
    <path d="M 315.490909 192.24 
L 315.490909 25.92 
" style="fill: none; stroke: #000000; stroke-width: 0.8; stroke-linejoin: miter; stroke-linecap: square"/>
   </g>
   <g id="patch_10">
    <path d="M 518.4 192.24 
L 518.4 25.92 
" style="fill: none; stroke: #000000; stroke-width: 0.8; stroke-linejoin: miter; stroke-linecap: square"/>
   </g>
   <g id="patch_11">
    <path d="M 315.490909 192.24 
L 518.4 192.24 
" style="fill: none; stroke: #000000; stroke-width: 0.8; stroke-linejoin: miter; stroke-linecap: square"/>
   </g>
   <g id="patch_12">
    <path d="M 315.490909 25.92 
L 518.4 25.92 
" style="fill: none; stroke: #000000; stroke-width: 0.8; stroke-linejoin: miter; stroke-linecap: square"/>
   </g>
   <g id="text_27">
    <!-- Norm-Edit-Distance -->
    <g transform="translate(358.395767 19.92) scale(0.12 -0.12)">
     <defs>
      <path id="DejaVuSans-4e" d="M 628 4666 
L 1478 4666 
L 3547 763 
L 3547 4666 
L 4159 4666 
L 4159 0 
L 3309 0 
L 1241 3903 
L 1241 0 
L 628 0 
L 628 4666 
z
" transform="scale(0.015625)"/>
      <path id="DejaVuSans-6d" d="M 3328 2828 
Q 3544 3216 3844 3400 
Q 4144 3584 4550 3584 
Q 5097 3584 5394 3201 
Q 5691 2819 5691 2113 
L 5691 0 
L 5113 0 
L 5113 2094 
Q 5113 2597 4934 2840 
Q 4756 3084 4391 3084 
Q 3944 3084 3684 2787 
Q 3425 2491 3425 1978 
L 3425 0 
L 2847 0 
L 2847 2094 
Q 2847 2600 2669 2842 
Q 2491 3084 2119 3084 
Q 1678 3084 1418 2786 
Q 1159 2488 1159 1978 
L 1159 0 
L 581 0 
L 581 3500 
L 1159 3500 
L 1159 2956 
Q 1356 3278 1631 3431 
Q 1906 3584 2284 3584 
Q 2666 3584 2933 3390 
Q 3200 3197 3328 2828 
z
" transform="scale(0.015625)"/>
      <path id="DejaVuSans-2d" d="M 313 2009 
L 1997 2009 
L 1997 1497 
L 313 1497 
L 313 2009 
z
" transform="scale(0.015625)"/>
      <path id="DejaVuSans-64" d="M 2906 2969 
L 2906 4863 
L 3481 4863 
L 3481 0 
L 2906 0 
L 2906 525 
Q 2725 213 2448 61 
Q 2172 -91 1784 -91 
Q 1150 -91 751 415 
Q 353 922 353 1747 
Q 353 2572 751 3078 
Q 1150 3584 1784 3584 
Q 2172 3584 2448 3432 
Q 2725 3281 2906 2969 
z
M 947 1747 
Q 947 1113 1208 752 
Q 1469 391 1925 391 
Q 2381 391 2643 752 
Q 2906 1113 2906 1747 
Q 2906 2381 2643 2742 
Q 2381 3103 1925 3103 
Q 1469 3103 1208 2742 
Q 947 2381 947 1747 
z
" transform="scale(0.015625)"/>
      <path id="DejaVuSans-44" d="M 1259 4147 
L 1259 519 
L 2022 519 
Q 2988 519 3436 956 
Q 3884 1394 3884 2338 
Q 3884 3275 3436 3711 
Q 2988 4147 2022 4147 
L 1259 4147 
z
M 628 4666 
L 1925 4666 
Q 3281 4666 3915 4102 
Q 4550 3538 4550 2338 
Q 4550 1131 3912 565 
Q 3275 0 1925 0 
L 628 0 
L 628 4666 
z
" transform="scale(0.015625)"/>
     </defs>
     <use xlink:href="#DejaVuSans-4e"/>
     <use xlink:href="#DejaVuSans-6f" x="74.804688"/>
     <use xlink:href="#DejaVuSans-72" x="135.986328"/>
     <use xlink:href="#DejaVuSans-6d" x="175.349609"/>
     <use xlink:href="#DejaVuSans-2d" x="272.761719"/>
     <use xlink:href="#DejaVuSans-45" x="308.845703"/>
     <use xlink:href="#DejaVuSans-64" x="372.029297"/>
     <use xlink:href="#DejaVuSans-69" x="435.505859"/>
     <use xlink:href="#DejaVuSans-74" x="463.289062"/>
     <use xlink:href="#DejaVuSans-2d" x="502.498047"/>
     <use xlink:href="#DejaVuSans-44" x="538.582031"/>
     <use xlink:href="#DejaVuSans-69" x="615.583984"/>
     <use xlink:href="#DejaVuSans-73" x="643.367188"/>
     <use xlink:href="#DejaVuSans-74" x="695.466797"/>
     <use xlink:href="#DejaVuSans-61" x="734.675781"/>
     <use xlink:href="#DejaVuSans-6e" x="795.955078"/>
     <use xlink:href="#DejaVuSans-63" x="859.333984"/>
     <use xlink:href="#DejaVuSans-65" x="914.314453"/>
    </g>
   </g>
   <g id="legend_2">
    <g id="patch_13">
     <path d="M 456.125 187.24 
L 511.4 187.24 
Q 513.4 187.24 513.4 185.24 
L 513.4 142.205625 
Q 513.4 140.205625 511.4 140.205625 
L 456.125 140.205625 
Q 454.125 140.205625 454.125 142.205625 
L 454.125 185.24 
Q 454.125 187.24 456.125 187.24 
z
" style="fill: #ffffff; opacity: 0.8; stroke: #cccccc; stroke-linejoin: miter"/>
    </g>
    <g id="line2d_30">
     <path d="M 458.125 148.304062 
L 468.125 148.304062 
L 478.125 148.304062 
" style="fill: none; stroke: #1f77b4; stroke-width: 1.5; stroke-linecap: square"/>
    </g>
    <g id="text_28">
     <!-- train -->
     <g transform="translate(486.125 151.804062) scale(0.1 -0.1)">
      <use xlink:href="#DejaVuSans-74"/>
      <use xlink:href="#DejaVuSans-72" x="39.208984"/>
      <use xlink:href="#DejaVuSans-61" x="80.322266"/>
      <use xlink:href="#DejaVuSans-69" x="141.601562"/>
      <use xlink:href="#DejaVuSans-6e" x="169.384766"/>
     </g>
    </g>
    <g id="line2d_31">
     <path d="M 458.125 162.982188 
L 468.125 162.982188 
L 478.125 162.982188 
" style="fill: none; stroke: #ff7f0e; stroke-width: 1.5; stroke-linecap: square"/>
    </g>
    <g id="text_29">
     <!-- eval -->
     <g transform="translate(486.125 166.482188) scale(0.1 -0.1)">
      <use xlink:href="#DejaVuSans-65"/>
      <use xlink:href="#DejaVuSans-76" x="61.523438"/>
      <use xlink:href="#DejaVuSans-61" x="120.703125"/>
      <use xlink:href="#DejaVuSans-6c" x="181.982422"/>
     </g>
    </g>
    <g id="line2d_32">
     <path d="M 458.125 177.660313 
L 468.125 177.660313 
L 478.125 177.660313 
" style="fill: none; stroke: #2ca02c; stroke-width: 1.5; stroke-linecap: square"/>
    </g>
    <g id="text_30">
     <!-- test -->
     <g transform="translate(486.125 181.160313) scale(0.1 -0.1)">
      <use xlink:href="#DejaVuSans-74"/>
      <use xlink:href="#DejaVuSans-65" x="39.208984"/>
      <use xlink:href="#DejaVuSans-73" x="100.732422"/>
      <use xlink:href="#DejaVuSans-74" x="152.832031"/>
     </g>
    </g>
   </g>
  </g>
 </g>
 <defs>
  <clipPath id="p8d7f8f675a">
   <rect x="72" y="25.92" width="202.909091" height="166.32"/>
  </clipPath>
  <clipPath id="p5cad9c363e">
   <rect x="315.490909" y="25.92" width="202.909091" height="166.32"/>
  </clipPath>
 </defs>
</svg>
