<?xml version="1.0" encoding="utf-8" standalone="no"?>
<!DOCTYPE svg PUBLIC "-//W3C//DTD SVG 1.1//EN"
  "http://www.w3.org/Graphics/SVG/1.1/DTD/svg11.dtd">
<svg xmlns:xlink="http://www.w3.org/1999/xlink" width="576pt" height="216pt" viewBox="0 0 576 216" xmlns="http://www.w3.org/2000/svg" version="1.1">
 <metadata>
  <rdf:RDF xmlns:dc="http://purl.org/dc/elements/1.1/" xmlns:cc="http://creativecommons.org/ns#" xmlns:rdf="http://www.w3.org/1999/02/22-rdf-syntax-ns#">
   <cc:Work>
    <dc:type rdf:resource="http://purl.org/dc/dcmitype/StillImage"/>
    <dc:date>2024-02-01T19:04:35.030990</dc:date>
    <dc:format>image/svg+xml</dc:format>
    <dc:creator>
     <cc:Agent>
      <dc:title>Matplotlib v3.7.4, https://matplotlib.org/</dc:title>
     </cc:Agent>
    </dc:creator>
   </cc:Work>
  </rdf:RDF>
 </metadata>
 <defs>
  <style type="text/css">*{stroke-linejoin: round; stroke-linecap: butt}</style>
 </defs>
 <g id="figure_1">
  <g id="patch_1">
   <path d="M 0 216 
L 576 216 
L 576 0 
L 0 0 
z
" style="fill: #ffffff"/>
  </g>
  <g id="axes_1">
   <g id="patch_2">
    <path d="M 72 192.24 
L 274.909091 192.24 
L 274.909091 25.92 
L 72 25.92 
z
" style="fill: #ffffff"/>
   </g>
   <g id="matplotlib.axis_1">
    <g id="xtick_1">
     <g id="line2d_1">
      <defs>
       <path id="mb03dba7d4d" d="M 0 0 
L 0 3.5 
" style="stroke: #000000; stroke-width: 0.8"/>
      </defs>
      <g>
       <use xlink:href="#mb03dba7d4d" x="80.296192" y="192.24" style="stroke: #000000; stroke-width: 0.8"/>
      </g>
     </g>
     <g id="text_1">
      <!-- 0 -->
      <g transform="translate(77.114942 206.838437) scale(0.1 -0.1)">
       <defs>
        <path id="DejaVuSans-30" d="M 2034 4250 
Q 1547 4250 1301 3770 
Q 1056 3291 1056 2328 
Q 1056 1369 1301 889 
Q 1547 409 2034 409 
Q 2525 409 2770 889 
Q 3016 1369 3016 2328 
Q 3016 3291 2770 3770 
Q 2525 4250 2034 4250 
z
M 2034 4750 
Q 2819 4750 3233 4129 
Q 3647 3509 3647 2328 
Q 3647 1150 3233 529 
Q 2819 -91 2034 -91 
Q 1250 -91 836 529 
Q 422 1150 422 2328 
Q 422 3509 836 4129 
Q 1250 4750 2034 4750 
z
" transform="scale(0.015625)"/>
       </defs>
       <use xlink:href="#DejaVuSans-30"/>
      </g>
     </g>
    </g>
    <g id="xtick_2">
     <g id="line2d_2">
      <g>
       <use xlink:href="#mb03dba7d4d" x="126.643631" y="192.24" style="stroke: #000000; stroke-width: 0.8"/>
      </g>
     </g>
     <g id="text_2">
      <!-- 50 -->
      <g transform="translate(120.281131 206.838437) scale(0.1 -0.1)">
       <defs>
        <path id="DejaVuSans-35" d="M 691 4666 
L 3169 4666 
L 3169 4134 
L 1269 4134 
L 1269 2991 
Q 1406 3038 1543 3061 
Q 1681 3084 1819 3084 
Q 2600 3084 3056 2656 
Q 3513 2228 3513 1497 
Q 3513 744 3044 326 
Q 2575 -91 1722 -91 
Q 1428 -91 1123 -41 
Q 819 9 494 109 
L 494 744 
Q 775 591 1075 516 
Q 1375 441 1709 441 
Q 2250 441 2565 725 
Q 2881 1009 2881 1497 
Q 2881 1984 2565 2268 
Q 2250 2553 1709 2553 
Q 1456 2553 1204 2497 
Q 953 2441 691 2322 
L 691 4666 
z
" transform="scale(0.015625)"/>
       </defs>
       <use xlink:href="#DejaVuSans-35"/>
       <use xlink:href="#DejaVuSans-30" x="63.623047"/>
      </g>
     </g>
    </g>
    <g id="xtick_3">
     <g id="line2d_3">
      <g>
       <use xlink:href="#mb03dba7d4d" x="172.991071" y="192.24" style="stroke: #000000; stroke-width: 0.8"/>
      </g>
     </g>
     <g id="text_3">
      <!-- 100 -->
      <g transform="translate(163.447321 206.838437) scale(0.1 -0.1)">
       <defs>
        <path id="DejaVuSans-31" d="M 794 531 
L 1825 531 
L 1825 4091 
L 703 3866 
L 703 4441 
L 1819 4666 
L 2450 4666 
L 2450 531 
L 3481 531 
L 3481 0 
L 794 0 
L 794 531 
z
" transform="scale(0.015625)"/>
       </defs>
       <use xlink:href="#DejaVuSans-31"/>
       <use xlink:href="#DejaVuSans-30" x="63.623047"/>
       <use xlink:href="#DejaVuSans-30" x="127.246094"/>
      </g>
     </g>
    </g>
    <g id="xtick_4">
     <g id="line2d_4">
      <g>
       <use xlink:href="#mb03dba7d4d" x="219.338511" y="192.24" style="stroke: #000000; stroke-width: 0.8"/>
      </g>
     </g>
     <g id="text_4">
      <!-- 150 -->
      <g transform="translate(209.794761 206.838437) scale(0.1 -0.1)">
       <use xlink:href="#DejaVuSans-31"/>
       <use xlink:href="#DejaVuSans-35" x="63.623047"/>
       <use xlink:href="#DejaVuSans-30" x="127.246094"/>
      </g>
     </g>
    </g>
    <g id="xtick_5">
     <g id="line2d_5">
      <g>
       <use xlink:href="#mb03dba7d4d" x="265.68595" y="192.24" style="stroke: #000000; stroke-width: 0.8"/>
      </g>
     </g>
     <g id="text_5">
      <!-- 200 -->
      <g transform="translate(256.1422 206.838437) scale(0.1 -0.1)">
       <defs>
        <path id="DejaVuSans-32" d="M 1228 531 
L 3431 531 
L 3431 0 
L 469 0 
L 469 531 
Q 828 903 1448 1529 
Q 2069 2156 2228 2338 
Q 2531 2678 2651 2914 
Q 2772 3150 2772 3378 
Q 2772 3750 2511 3984 
Q 2250 4219 1831 4219 
Q 1534 4219 1204 4116 
Q 875 4013 500 3803 
L 500 4441 
Q 881 4594 1212 4672 
Q 1544 4750 1819 4750 
Q 2544 4750 2975 4387 
Q 3406 4025 3406 3419 
Q 3406 3131 3298 2873 
Q 3191 2616 2906 2266 
Q 2828 2175 2409 1742 
Q 1991 1309 1228 531 
z
" transform="scale(0.015625)"/>
       </defs>
       <use xlink:href="#DejaVuSans-32"/>
       <use xlink:href="#DejaVuSans-30" x="63.623047"/>
       <use xlink:href="#DejaVuSans-30" x="127.246094"/>
      </g>
     </g>
    </g>
    <g id="text_6">
     <!-- Epochs -->
     <g transform="translate(155.53892 220.516562) scale(0.1 -0.1)">
      <defs>
       <path id="DejaVuSans-45" d="M 628 4666 
L 3578 4666 
L 3578 4134 
L 1259 4134 
L 1259 2753 
L 3481 2753 
L 3481 2222 
L 1259 2222 
L 1259 531 
L 3634 531 
L 3634 0 
L 628 0 
L 628 4666 
z
" transform="scale(0.015625)"/>
       <path id="DejaVuSans-70" d="M 1159 525 
L 1159 -1331 
L 581 -1331 
L 581 3500 
L 1159 3500 
L 1159 2969 
Q 1341 3281 1617 3432 
Q 1894 3584 2278 3584 
Q 2916 3584 3314 3078 
Q 3713 2572 3713 1747 
Q 3713 922 3314 415 
Q 2916 -91 2278 -91 
Q 1894 -91 1617 61 
Q 1341 213 1159 525 
z
M 3116 1747 
Q 3116 2381 2855 2742 
Q 2594 3103 2138 3103 
Q 1681 3103 1420 2742 
Q 1159 2381 1159 1747 
Q 1159 1113 1420 752 
Q 1681 391 2138 391 
Q 2594 391 2855 752 
Q 3116 1113 3116 1747 
z
" transform="scale(0.015625)"/>
       <path id="DejaVuSans-6f" d="M 1959 3097 
Q 1497 3097 1228 2736 
Q 959 2375 959 1747 
Q 959 1119 1226 758 
Q 1494 397 1959 397 
Q 2419 397 2687 759 
Q 2956 1122 2956 1747 
Q 2956 2369 2687 2733 
Q 2419 3097 1959 3097 
z
M 1959 3584 
Q 2709 3584 3137 3096 
Q 3566 2609 3566 1747 
Q 3566 888 3137 398 
Q 2709 -91 1959 -91 
Q 1206 -91 779 398 
Q 353 888 353 1747 
Q 353 2609 779 3096 
Q 1206 3584 1959 3584 
z
" transform="scale(0.015625)"/>
       <path id="DejaVuSans-63" d="M 3122 3366 
L 3122 2828 
Q 2878 2963 2633 3030 
Q 2388 3097 2138 3097 
Q 1578 3097 1268 2742 
Q 959 2388 959 1747 
Q 959 1106 1268 751 
Q 1578 397 2138 397 
Q 2388 397 2633 464 
Q 2878 531 3122 666 
L 3122 134 
Q 2881 22 2623 -34 
Q 2366 -91 2075 -91 
Q 1284 -91 818 406 
Q 353 903 353 1747 
Q 353 2603 823 3093 
Q 1294 3584 2113 3584 
Q 2378 3584 2631 3529 
Q 2884 3475 3122 3366 
z
" transform="scale(0.015625)"/>
       <path id="DejaVuSans-68" d="M 3513 2113 
L 3513 0 
L 2938 0 
L 2938 2094 
Q 2938 2591 2744 2837 
Q 2550 3084 2163 3084 
Q 1697 3084 1428 2787 
Q 1159 2491 1159 1978 
L 1159 0 
L 581 0 
L 581 4863 
L 1159 4863 
L 1159 2956 
Q 1366 3272 1645 3428 
Q 1925 3584 2291 3584 
Q 2894 3584 3203 3211 
Q 3513 2838 3513 2113 
z
" transform="scale(0.015625)"/>
       <path id="DejaVuSans-73" d="M 2834 3397 
L 2834 2853 
Q 2591 2978 2328 3040 
Q 2066 3103 1784 3103 
Q 1356 3103 1142 2972 
Q 928 2841 928 2578 
Q 928 2378 1081 2264 
Q 1234 2150 1697 2047 
L 1894 2003 
Q 2506 1872 2764 1633 
Q 3022 1394 3022 966 
Q 3022 478 2636 193 
Q 2250 -91 1575 -91 
Q 1294 -91 989 -36 
Q 684 19 347 128 
L 347 722 
Q 666 556 975 473 
Q 1284 391 1588 391 
Q 1994 391 2212 530 
Q 2431 669 2431 922 
Q 2431 1156 2273 1281 
Q 2116 1406 1581 1522 
L 1381 1569 
Q 847 1681 609 1914 
Q 372 2147 372 2553 
Q 372 3047 722 3315 
Q 1072 3584 1716 3584 
Q 2034 3584 2315 3537 
Q 2597 3491 2834 3397 
z
" transform="scale(0.015625)"/>
      </defs>
      <use xlink:href="#DejaVuSans-45"/>
      <use xlink:href="#DejaVuSans-70" x="63.183594"/>
      <use xlink:href="#DejaVuSans-6f" x="126.660156"/>
      <use xlink:href="#DejaVuSans-63" x="187.841797"/>
      <use xlink:href="#DejaVuSans-68" x="242.822266"/>
      <use xlink:href="#DejaVuSans-73" x="306.201172"/>
     </g>
    </g>
   </g>
   <g id="matplotlib.axis_2">
    <g id="ytick_1">
     <g id="line2d_6">
      <defs>
       <path id="m55492bf267" d="M 0 0 
L -3.5 0 
" style="stroke: #000000; stroke-width: 0.8"/>
      </defs>
      <g>
       <use xlink:href="#m55492bf267" x="72" y="172.679563" style="stroke: #000000; stroke-width: 0.8"/>
      </g>
     </g>
     <g id="text_7">
      <!-- 0.3 -->
      <g transform="translate(49.096875 176.478781) scale(0.1 -0.1)">
       <defs>
        <path id="DejaVuSans-2e" d="M 684 794 
L 1344 794 
L 1344 0 
L 684 0 
L 684 794 
z
" transform="scale(0.015625)"/>
        <path id="DejaVuSans-33" d="M 2597 2516 
Q 3050 2419 3304 2112 
Q 3559 1806 3559 1356 
Q 3559 666 3084 287 
Q 2609 -91 1734 -91 
Q 1441 -91 1130 -33 
Q 819 25 488 141 
L 488 750 
Q 750 597 1062 519 
Q 1375 441 1716 441 
Q 2309 441 2620 675 
Q 2931 909 2931 1356 
Q 2931 1769 2642 2001 
Q 2353 2234 1838 2234 
L 1294 2234 
L 1294 2753 
L 1863 2753 
Q 2328 2753 2575 2939 
Q 2822 3125 2822 3475 
Q 2822 3834 2567 4026 
Q 2313 4219 1838 4219 
Q 1578 4219 1281 4162 
Q 984 4106 628 3988 
L 628 4550 
Q 988 4650 1302 4700 
Q 1616 4750 1894 4750 
Q 2613 4750 3031 4423 
Q 3450 4097 3450 3541 
Q 3450 3153 3228 2886 
Q 3006 2619 2597 2516 
z
" transform="scale(0.015625)"/>
       </defs>
       <use xlink:href="#DejaVuSans-30"/>
       <use xlink:href="#DejaVuSans-2e" x="63.623047"/>
       <use xlink:href="#DejaVuSans-33" x="95.410156"/>
      </g>
     </g>
    </g>
    <g id="ytick_2">
     <g id="line2d_7">
      <g>
       <use xlink:href="#m55492bf267" x="72" y="151.578901" style="stroke: #000000; stroke-width: 0.8"/>
      </g>
     </g>
     <g id="text_8">
      <!-- 0.4 -->
      <g transform="translate(49.096875 155.37812) scale(0.1 -0.1)">
       <defs>
        <path id="DejaVuSans-34" d="M 2419 4116 
L 825 1625 
L 2419 1625 
L 2419 4116 
z
M 2253 4666 
L 3047 4666 
L 3047 1625 
L 3713 1625 
L 3713 1100 
L 3047 1100 
L 3047 0 
L 2419 0 
L 2419 1100 
L 313 1100 
L 313 1709 
L 2253 4666 
z
" transform="scale(0.015625)"/>
       </defs>
       <use xlink:href="#DejaVuSans-30"/>
       <use xlink:href="#DejaVuSans-2e" x="63.623047"/>
       <use xlink:href="#DejaVuSans-34" x="95.410156"/>
      </g>
     </g>
    </g>
    <g id="ytick_3">
     <g id="line2d_8">
      <g>
       <use xlink:href="#m55492bf267" x="72" y="130.47824" style="stroke: #000000; stroke-width: 0.8"/>
      </g>
     </g>
     <g id="text_9">
      <!-- 0.5 -->
      <g transform="translate(49.096875 134.277459) scale(0.1 -0.1)">
       <use xlink:href="#DejaVuSans-30"/>
       <use xlink:href="#DejaVuSans-2e" x="63.623047"/>
       <use xlink:href="#DejaVuSans-35" x="95.410156"/>
      </g>
     </g>
    </g>
    <g id="ytick_4">
     <g id="line2d_9">
      <g>
       <use xlink:href="#m55492bf267" x="72" y="109.377579" style="stroke: #000000; stroke-width: 0.8"/>
      </g>
     </g>
     <g id="text_10">
      <!-- 0.6 -->
      <g transform="translate(49.096875 113.176798) scale(0.1 -0.1)">
       <defs>
        <path id="DejaVuSans-36" d="M 2113 2584 
Q 1688 2584 1439 2293 
Q 1191 2003 1191 1497 
Q 1191 994 1439 701 
Q 1688 409 2113 409 
Q 2538 409 2786 701 
Q 3034 994 3034 1497 
Q 3034 2003 2786 2293 
Q 2538 2584 2113 2584 
z
M 3366 4563 
L 3366 3988 
Q 3128 4100 2886 4159 
Q 2644 4219 2406 4219 
Q 1781 4219 1451 3797 
Q 1122 3375 1075 2522 
Q 1259 2794 1537 2939 
Q 1816 3084 2150 3084 
Q 2853 3084 3261 2657 
Q 3669 2231 3669 1497 
Q 3669 778 3244 343 
Q 2819 -91 2113 -91 
Q 1303 -91 875 529 
Q 447 1150 447 2328 
Q 447 3434 972 4092 
Q 1497 4750 2381 4750 
Q 2619 4750 2861 4703 
Q 3103 4656 3366 4563 
z
" transform="scale(0.015625)"/>
       </defs>
       <use xlink:href="#DejaVuSans-30"/>
       <use xlink:href="#DejaVuSans-2e" x="63.623047"/>
       <use xlink:href="#DejaVuSans-36" x="95.410156"/>
      </g>
     </g>
    </g>
    <g id="ytick_5">
     <g id="line2d_10">
      <g>
       <use xlink:href="#m55492bf267" x="72" y="88.276918" style="stroke: #000000; stroke-width: 0.8"/>
      </g>
     </g>
     <g id="text_11">
      <!-- 0.7 -->
      <g transform="translate(49.096875 92.076137) scale(0.1 -0.1)">
       <defs>
        <path id="DejaVuSans-37" d="M 525 4666 
L 3525 4666 
L 3525 4397 
L 1831 0 
L 1172 0 
L 2766 4134 
L 525 4134 
L 525 4666 
z
" transform="scale(0.015625)"/>
       </defs>
       <use xlink:href="#DejaVuSans-30"/>
       <use xlink:href="#DejaVuSans-2e" x="63.623047"/>
       <use xlink:href="#DejaVuSans-37" x="95.410156"/>
      </g>
     </g>
    </g>
    <g id="ytick_6">
     <g id="line2d_11">
      <g>
       <use xlink:href="#m55492bf267" x="72" y="67.176257" style="stroke: #000000; stroke-width: 0.8"/>
      </g>
     </g>
     <g id="text_12">
      <!-- 0.8 -->
      <g transform="translate(49.096875 70.975476) scale(0.1 -0.1)">
       <defs>
        <path id="DejaVuSans-38" d="M 2034 2216 
Q 1584 2216 1326 1975 
Q 1069 1734 1069 1313 
Q 1069 891 1326 650 
Q 1584 409 2034 409 
Q 2484 409 2743 651 
Q 3003 894 3003 1313 
Q 3003 1734 2745 1975 
Q 2488 2216 2034 2216 
z
M 1403 2484 
Q 997 2584 770 2862 
Q 544 3141 544 3541 
Q 544 4100 942 4425 
Q 1341 4750 2034 4750 
Q 2731 4750 3128 4425 
Q 3525 4100 3525 3541 
Q 3525 3141 3298 2862 
Q 3072 2584 2669 2484 
Q 3125 2378 3379 2068 
Q 3634 1759 3634 1313 
Q 3634 634 3220 271 
Q 2806 -91 2034 -91 
Q 1263 -91 848 271 
Q 434 634 434 1313 
Q 434 1759 690 2068 
Q 947 2378 1403 2484 
z
M 1172 3481 
Q 1172 3119 1398 2916 
Q 1625 2713 2034 2713 
Q 2441 2713 2670 2916 
Q 2900 3119 2900 3481 
Q 2900 3844 2670 4047 
Q 2441 4250 2034 4250 
Q 1625 4250 1398 4047 
Q 1172 3844 1172 3481 
z
" transform="scale(0.015625)"/>
       </defs>
       <use xlink:href="#DejaVuSans-30"/>
       <use xlink:href="#DejaVuSans-2e" x="63.623047"/>
       <use xlink:href="#DejaVuSans-38" x="95.410156"/>
      </g>
     </g>
    </g>
    <g id="ytick_7">
     <g id="line2d_12">
      <g>
       <use xlink:href="#m55492bf267" x="72" y="46.075596" style="stroke: #000000; stroke-width: 0.8"/>
      </g>
     </g>
     <g id="text_13">
      <!-- 0.9 -->
      <g transform="translate(49.096875 49.874815) scale(0.1 -0.1)">
       <defs>
        <path id="DejaVuSans-39" d="M 703 97 
L 703 672 
Q 941 559 1184 500 
Q 1428 441 1663 441 
Q 2288 441 2617 861 
Q 2947 1281 2994 2138 
Q 2813 1869 2534 1725 
Q 2256 1581 1919 1581 
Q 1219 1581 811 2004 
Q 403 2428 403 3163 
Q 403 3881 828 4315 
Q 1253 4750 1959 4750 
Q 2769 4750 3195 4129 
Q 3622 3509 3622 2328 
Q 3622 1225 3098 567 
Q 2575 -91 1691 -91 
Q 1453 -91 1209 -44 
Q 966 3 703 97 
z
M 1959 2075 
Q 2384 2075 2632 2365 
Q 2881 2656 2881 3163 
Q 2881 3666 2632 3958 
Q 2384 4250 1959 4250 
Q 1534 4250 1286 3958 
Q 1038 3666 1038 3163 
Q 1038 2656 1286 2365 
Q 1534 2075 1959 2075 
z
" transform="scale(0.015625)"/>
       </defs>
       <use xlink:href="#DejaVuSans-30"/>
       <use xlink:href="#DejaVuSans-2e" x="63.623047"/>
       <use xlink:href="#DejaVuSans-39" x="95.410156"/>
      </g>
     </g>
    </g>
   </g>
   <g id="line2d_13">
    <path d="M 81.22314 166.394651 
L 82.150089 147.764509 
L 83.077038 138.007616 
L 84.003987 129.686644 
L 85.857884 115.216988 
L 87.711782 108.994667 
L 88.638731 104.539633 
L 89.56568 100.894606 
L 90.492628 99.679596 
L 92.346526 94.156827 
L 93.273475 92.720907 
L 94.200424 90.511799 
L 95.127372 89.77543 
L 96.054321 90.143614 
L 96.98127 86.977227 
L 97.908219 87.419048 
L 98.835168 84.657663 
L 99.762116 84.289479 
L 100.689065 82.964014 
L 101.616014 82.706285 
L 102.542963 78.472162 
L 103.469912 79.318986 
L 104.39686 76.520783 
L 105.323809 76.078962 
L 107.177707 76.11578 
L 109.031604 73.501669 
L 109.958553 75.268955 
L 111.812451 71.439835 
L 112.739399 69.709367 
L 113.666348 69.230727 
L 114.593297 69.046635 
L 115.520246 67.942081 
L 116.447195 69.267546 
L 117.374143 66.616617 
L 118.301092 66.579798 
L 119.228041 67.389804 
L 120.15499 65.5857 
L 122.008887 65.32797 
L 122.935836 64.996604 
L 123.862785 62.492949 
L 124.789734 62.492949 
L 125.716683 63.67114 
L 126.643631 61.903853 
L 127.57058 62.861133 
L 128.497529 61.388395 
L 129.424478 60.320659 
L 130.351427 60.394296 
L 131.278375 60.247023 
L 132.205324 57.66973 
L 133.132273 59.068832 
L 134.059222 59.179287 
L 135.913119 55.939262 
L 136.840068 57.154272 
L 137.767017 56.638813 
L 138.693966 54.392887 
L 139.620914 55.976081 
L 140.547863 54.871527 
L 141.474812 53.325152 
L 142.401761 54.208795 
L 143.32871 53.509244 
L 144.255658 54.31925 
L 145.182607 52.551964 
L 146.109556 52.736056 
L 147.036505 51.668321 
L 147.963454 51.631502 
L 148.890402 52.073324 
L 149.817351 52.846511 
L 150.7443 50.453311 
L 151.671249 49.753761 
L 152.598198 48.906936 
L 153.525146 50.195582 
L 154.452095 49.827398 
L 155.379044 49.937853 
L 156.305993 48.980573 
L 157.232942 49.05421 
L 158.15989 47.655108 
L 159.086839 48.317841 
L 160.013788 46.329644 
L 160.940737 48.281022 
L 161.867686 45.851004 
L 162.794634 45.335545 
L 163.721583 47.286924 
L 164.648532 45.961459 
L 165.575481 48.833299 
L 166.50243 46.513736 
L 167.429378 46.18237 
L 168.356327 44.635994 
L 169.283276 44.120536 
L 170.210225 43.973262 
L 171.137173 43.089619 
L 172.064122 44.230991 
L 172.991071 43.31053 
L 173.91802 42.905527 
L 174.844969 42.058702 
L 175.771917 42.57416 
L 176.698866 43.715533 
L 177.625815 43.78917 
L 178.552764 42.09552 
L 179.479713 42.83189 
L 180.406661 41.285514 
L 181.33361 40.91733 
L 182.260559 41.248696 
L 183.187508 39.591865 
L 184.114457 40.144142 
L 185.041405 39.996868 
L 185.968354 40.217779 
L 186.895303 39.70232 
L 187.822252 41.027785 
L 188.749201 40.696419 
L 189.676149 39.260499 
L 190.603098 40.438689 
L 191.530047 39.370954 
L 192.456996 38.892314 
L 193.383945 38.597766 
L 194.310893 38.892314 
L 195.237842 37.971852 
L 196.164791 38.671403 
L 198.018688 38.229582 
L 198.945637 37.898216 
L 199.872586 37.161846 
L 200.799535 36.83048 
L 201.726484 37.088209 
L 203.580381 36.904117 
L 204.50733 37.161846 
L 205.434279 36.720025 
L 207.288176 36.388659 
L 208.215125 36.057292 
L 209.142074 36.756843 
L 210.069023 36.499114 
L 210.995972 36.388659 
L 211.92292 36.425477 
L 212.849869 35.946837 
L 213.776818 36.315022 
L 214.703767 35.946837 
L 215.630716 35.725926 
L 216.557664 35.652289 
L 218.411562 35.983655 
L 219.338511 35.320923 
L 220.26546 35.799563 
L 221.192408 35.505015 
L 222.119357 35.431379 
L 223.046306 35.173649 
L 224.900203 35.357742 
L 226.754101 34.695009 
L 229.534947 34.695009 
L 230.461896 34.584554 
L 231.388845 34.768646 
L 235.09664 34.105914 
L 236.950538 34.216369 
L 237.877487 34.290006 
L 238.804435 33.774548 
L 239.731384 34.032277 
L 240.658333 33.995458 
L 241.585282 34.142732 
L 242.512231 33.921822 
L 247.146975 33.848185 
L 248.073923 33.700911 
L 249.000872 33.737729 
L 249.927821 33.995458 
L 250.85477 33.774548 
L 251.781719 33.811366 
L 252.708667 33.590455 
L 258.27036 33.48 
L 259.197309 33.848185 
L 260.124258 33.700911 
L 261.051206 33.774548 
L 262.905104 33.664092 
L 264.759002 33.700911 
L 265.68595 33.664092 
L 265.68595 33.664092 
" clip-path="url(#p190e0664a2)" style="fill: none; stroke: #1f77b4; stroke-width: 1.5; stroke-linecap: square"/>
   </g>
   <g id="line2d_14">
    <path d="M 81.22314 168.494795 
L 82.150089 151.107379 
L 83.077038 143.445128 
L 84.003987 137.551088 
L 84.930936 132.541155 
L 85.857884 128.85738 
L 86.784833 124.436851 
L 87.711782 123.994798 
L 88.638731 120.311023 
L 89.56568 117.216652 
L 90.492628 119.426917 
L 91.419577 114.564335 
L 92.346526 114.711686 
L 93.273475 113.680229 
L 94.200424 113.385527 
L 95.127372 113.385527 
L 96.054321 116.921951 
L 96.98127 113.385527 
L 97.908219 112.796123 
L 98.835168 111.175262 
L 99.762116 112.648772 
L 100.689065 111.322613 
L 101.616014 112.501421 
L 102.542963 109.554401 
L 103.469912 110.733209 
L 104.39686 109.40705 
L 105.323809 110.733209 
L 106.250758 110.733209 
L 108.104656 112.943474 
L 109.031604 111.617315 
L 109.958553 112.501421 
L 110.885502 114.711686 
L 111.812451 111.027911 
L 113.666348 109.40705 
L 114.593297 109.701752 
L 115.520246 110.438507 
L 116.447195 109.849103 
L 117.374143 107.491487 
L 118.301092 108.375593 
L 119.228041 110.88056 
L 120.15499 107.049435 
L 121.081939 108.670295 
L 122.008887 109.112348 
L 122.935836 107.196786 
L 123.862785 107.344137 
L 124.789734 106.754733 
L 125.716683 108.817646 
L 126.643631 107.049435 
L 127.57058 109.849103 
L 128.497529 105.723276 
L 129.424478 107.786189 
L 130.351427 107.049435 
L 131.278375 108.670295 
L 132.205324 105.870627 
L 133.132273 107.344137 
L 134.059222 107.196786 
L 134.986171 107.786189 
L 136.840068 107.491487 
L 137.767017 109.259699 
L 138.693966 108.228242 
L 139.620914 106.31268 
L 140.547863 108.670295 
L 142.401761 108.670295 
L 143.32871 107.491487 
L 144.255658 105.870627 
L 146.109556 108.375593 
L 147.036505 108.670295 
L 147.963454 107.196786 
L 148.890402 109.849103 
L 149.817351 108.522944 
L 150.7443 106.754733 
L 151.671249 107.786189 
L 152.598198 106.754733 
L 153.525146 108.228242 
L 154.452095 107.93354 
L 155.379044 106.31268 
L 156.305993 105.723276 
L 157.232942 106.754733 
L 158.15989 105.723276 
L 160.013788 105.723276 
L 160.940737 106.460031 
L 161.867686 104.986521 
L 162.794634 105.281223 
L 163.721583 108.080891 
L 164.648532 105.133872 
L 165.575481 107.491487 
L 166.50243 106.31268 
L 167.429378 105.428574 
L 168.356327 104.986521 
L 169.283276 104.102415 
L 170.210225 104.691819 
L 171.137173 102.628905 
L 172.991071 106.902084 
L 173.91802 105.133872 
L 174.844969 104.83917 
L 175.771917 105.723276 
L 176.698866 106.902084 
L 177.625815 103.513011 
L 178.552764 103.513011 
L 179.479713 105.723276 
L 180.406661 105.870627 
L 181.33361 104.83917 
L 182.260559 103.513011 
L 183.187508 103.807713 
L 184.114457 105.281223 
L 185.041405 104.102415 
L 185.968354 104.249766 
L 186.895303 103.660362 
L 187.822252 105.723276 
L 188.749201 104.83917 
L 189.676149 103.660362 
L 190.603098 102.776256 
L 191.530047 103.660362 
L 192.456996 103.218309 
L 193.383945 102.481554 
L 194.310893 102.776256 
L 195.237842 98.94513 
L 196.164791 102.186852 
L 197.09174 102.039501 
L 198.018688 100.860693 
L 198.945637 99.976587 
L 199.872586 101.155395 
L 200.799535 99.239832 
L 201.726484 99.976587 
L 202.653432 101.89215 
L 203.580381 101.450097 
L 205.434279 101.744799 
L 206.361228 101.155395 
L 207.288176 100.271289 
L 208.215125 100.123938 
L 210.069023 102.923607 
L 210.995972 102.039501 
L 211.92292 102.776256 
L 212.849869 101.008044 
L 213.776818 102.628905 
L 214.703767 102.334203 
L 215.630716 101.008044 
L 216.557664 101.450097 
L 217.484613 101.008044 
L 218.411562 101.008044 
L 219.338511 101.744799 
L 220.26546 100.860693 
L 221.192408 100.860693 
L 223.046306 101.450097 
L 223.973255 101.89215 
L 224.900203 101.89215 
L 225.827152 100.860693 
L 226.754101 100.713342 
L 227.68105 102.039501 
L 228.607999 100.565991 
L 229.534947 100.271289 
L 230.461896 100.860693 
L 231.388845 99.829236 
L 232.315794 99.976587 
L 233.242743 100.41864 
L 234.169691 100.41864 
L 235.09664 101.302746 
L 236.023589 100.41864 
L 236.950538 100.713342 
L 238.804435 100.123938 
L 239.731384 101.450097 
L 240.658333 100.41864 
L 241.585282 99.829236 
L 242.512231 100.41864 
L 243.439179 99.681885 
L 244.366128 99.387183 
L 245.293077 100.565991 
L 246.220026 101.008044 
L 247.146975 100.565991 
L 248.073923 100.713342 
L 249.000872 99.976587 
L 249.927821 100.565991 
L 250.85477 100.123938 
L 251.781719 100.271289 
L 252.708667 100.271289 
L 253.635616 99.829236 
L 254.562565 100.123938 
L 255.489514 99.829236 
L 256.416462 99.829236 
L 258.27036 100.41864 
L 259.197309 99.829236 
L 260.124258 100.860693 
L 261.051206 100.271289 
L 261.978155 100.271289 
L 262.905104 100.123938 
L 264.759002 100.123938 
L 265.68595 99.829236 
L 265.68595 99.829236 
" clip-path="url(#p190e0664a2)" style="fill: none; stroke: #ff7f0e; stroke-width: 1.5; stroke-linecap: square"/>
   </g>
   <g id="line2d_15">
    <path d="M 81.22314 184.68 
L 82.150089 172.434656 
L 84.930936 160.704906 
L 86.784833 156.064565 
L 87.711782 155.420073 
L 88.638731 152.326512 
L 89.56568 155.162276 
L 90.492628 154.131089 
L 91.419577 153.615496 
L 92.346526 151.037529 
L 93.273475 152.971004 
L 94.200424 153.744394 
L 95.127372 152.455411 
L 96.054321 152.455411 
L 96.98127 151.037529 
L 97.908219 153.615496 
L 98.835168 150.521935 
L 99.762116 154.131089 
L 100.689065 151.424224 
L 101.616014 152.068716 
L 102.542963 149.104054 
L 103.469912 149.619647 
L 104.39686 151.424224 
L 105.323809 150.393037 
L 106.250758 151.424224 
L 107.177707 151.553122 
L 108.104656 151.424224 
L 109.031604 151.810919 
L 110.885502 150.13524 
L 111.812451 151.424224 
L 112.739399 149.490749 
L 113.666348 151.939817 
L 114.593297 150.650834 
L 115.520246 148.072867 
L 116.447195 151.037529 
L 117.374143 149.232952 
L 119.228041 151.939817 
L 120.15499 148.975155 
L 121.081939 150.650834 
L 122.008887 153.486598 
L 122.935836 151.553122 
L 123.862785 151.166427 
L 124.789734 151.682021 
L 125.716683 150.521935 
L 126.643631 149.877444 
L 127.57058 152.455411 
L 128.497529 152.584309 
L 129.424478 151.553122 
L 130.351427 152.068716 
L 131.278375 151.424224 
L 132.205324 150.521935 
L 133.132273 154.646683 
L 134.059222 151.810919 
L 134.986171 151.295326 
L 135.913119 150.650834 
L 136.840068 152.455411 
L 137.767017 152.713208 
L 138.693966 150.393037 
L 139.620914 152.842106 
L 140.547863 154.131089 
L 141.474812 152.971004 
L 142.401761 152.455411 
L 143.32871 152.455411 
L 144.255658 152.584309 
L 146.109556 150.006342 
L 147.036505 151.424224 
L 147.963454 151.553122 
L 148.890402 150.650834 
L 149.817351 153.099903 
L 150.7443 150.393037 
L 151.671249 151.682021 
L 152.598198 151.553122 
L 153.525146 151.553122 
L 154.452095 151.295326 
L 155.379044 153.486598 
L 156.305993 149.748545 
L 157.232942 152.197614 
L 158.15989 151.553122 
L 159.086839 151.424224 
L 160.013788 151.810919 
L 160.940737 151.166427 
L 161.867686 152.842106 
L 162.794634 152.842106 
L 163.721583 151.424224 
L 164.648532 150.908631 
L 165.575481 153.099903 
L 166.50243 150.908631 
L 167.429378 150.779732 
L 168.356327 149.36185 
L 169.283276 148.846257 
L 170.210225 150.650834 
L 171.137173 150.264139 
L 172.064122 150.650834 
L 172.991071 150.779732 
L 174.844969 153.228801 
L 175.771917 150.521935 
L 176.698866 151.939817 
L 177.625815 151.424224 
L 178.552764 151.037529 
L 179.479713 153.744394 
L 180.406661 150.779732 
L 181.33361 150.650834 
L 182.260559 148.975155 
L 183.187508 150.006342 
L 184.114457 149.490749 
L 185.041405 151.810919 
L 185.968354 150.393037 
L 186.895303 149.36185 
L 187.822252 150.393037 
L 188.749201 150.13524 
L 189.676149 149.232952 
L 190.603098 149.36185 
L 191.530047 150.779732 
L 192.456996 148.975155 
L 193.383945 148.459562 
L 194.310893 148.58846 
L 195.237842 147.557273 
L 196.164791 148.330663 
L 197.09174 147.686172 
L 198.018688 147.428375 
L 198.945637 149.232952 
L 199.872586 149.232952 
L 200.799535 149.490749 
L 201.726484 148.846257 
L 202.653432 150.13524 
L 203.580381 149.748545 
L 204.50733 150.264139 
L 205.434279 150.908631 
L 206.361228 149.619647 
L 207.288176 149.490749 
L 208.215125 147.557273 
L 209.142074 148.201765 
L 210.069023 149.36185 
L 210.995972 148.846257 
L 211.92292 149.619647 
L 212.849869 148.975155 
L 213.776818 149.232952 
L 214.703767 148.717358 
L 215.630716 150.006342 
L 216.557664 148.459562 
L 217.484613 148.201765 
L 219.338511 149.490749 
L 220.26546 148.717358 
L 221.192408 148.717358 
L 222.119357 149.490749 
L 223.046306 148.975155 
L 223.973255 148.717358 
L 224.900203 147.943968 
L 225.827152 148.459562 
L 226.754101 147.686172 
L 227.68105 149.36185 
L 228.607999 148.58846 
L 229.534947 148.717358 
L 230.461896 147.81507 
L 232.315794 149.619647 
L 233.242743 149.490749 
L 234.169691 148.846257 
L 235.09664 148.846257 
L 236.023589 148.975155 
L 236.950538 149.232952 
L 237.877487 148.975155 
L 239.731384 149.232952 
L 240.658333 148.975155 
L 241.585282 148.459562 
L 242.512231 148.58846 
L 243.439179 147.557273 
L 245.293077 149.232952 
L 246.220026 148.201765 
L 247.146975 148.58846 
L 248.073923 148.58846 
L 249.000872 149.232952 
L 249.927821 148.975155 
L 250.85477 149.104054 
L 251.781719 148.717358 
L 252.708667 149.104054 
L 253.635616 148.58846 
L 254.562565 148.330663 
L 255.489514 148.201765 
L 256.416462 148.58846 
L 259.197309 148.201765 
L 260.124258 148.201765 
L 261.051206 148.717358 
L 261.978155 147.81507 
L 262.905104 148.58846 
L 263.832053 148.330663 
L 264.759002 147.81507 
L 265.68595 148.072867 
L 265.68595 148.072867 
" clip-path="url(#p190e0664a2)" style="fill: none; stroke: #2ca02c; stroke-width: 1.5; stroke-linecap: square"/>
   </g>
   <g id="patch_3">
    <path d="M 72 192.24 
L 72 25.92 
" style="fill: none; stroke: #000000; stroke-width: 0.8; stroke-linejoin: miter; stroke-linecap: square"/>
   </g>
   <g id="patch_4">
    <path d="M 274.909091 192.24 
L 274.909091 25.92 
" style="fill: none; stroke: #000000; stroke-width: 0.8; stroke-linejoin: miter; stroke-linecap: square"/>
   </g>
   <g id="patch_5">
    <path d="M 72 192.24 
L 274.909091 192.24 
" style="fill: none; stroke: #000000; stroke-width: 0.8; stroke-linejoin: miter; stroke-linecap: square"/>
   </g>
   <g id="patch_6">
    <path d="M 72 25.92 
L 274.909091 25.92 
" style="fill: none; stroke: #000000; stroke-width: 0.8; stroke-linejoin: miter; stroke-linecap: square"/>
   </g>
   <g id="text_14">
    <!-- Accuracy -->
    <g transform="translate(146.060795 19.92) scale(0.12 -0.12)">
     <defs>
      <path id="DejaVuSans-41" d="M 2188 4044 
L 1331 1722 
L 3047 1722 
L 2188 4044 
z
M 1831 4666 
L 2547 4666 
L 4325 0 
L 3669 0 
L 3244 1197 
L 1141 1197 
L 716 0 
L 50 0 
L 1831 4666 
z
" transform="scale(0.015625)"/>
      <path id="DejaVuSans-75" d="M 544 1381 
L 544 3500 
L 1119 3500 
L 1119 1403 
Q 1119 906 1312 657 
Q 1506 409 1894 409 
Q 2359 409 2629 706 
Q 2900 1003 2900 1516 
L 2900 3500 
L 3475 3500 
L 3475 0 
L 2900 0 
L 2900 538 
Q 2691 219 2414 64 
Q 2138 -91 1772 -91 
Q 1169 -91 856 284 
Q 544 659 544 1381 
z
M 1991 3584 
L 1991 3584 
z
" transform="scale(0.015625)"/>
      <path id="DejaVuSans-72" d="M 2631 2963 
Q 2534 3019 2420 3045 
Q 2306 3072 2169 3072 
Q 1681 3072 1420 2755 
Q 1159 2438 1159 1844 
L 1159 0 
L 581 0 
L 581 3500 
L 1159 3500 
L 1159 2956 
Q 1341 3275 1631 3429 
Q 1922 3584 2338 3584 
Q 2397 3584 2469 3576 
Q 2541 3569 2628 3553 
L 2631 2963 
z
" transform="scale(0.015625)"/>
      <path id="DejaVuSans-61" d="M 2194 1759 
Q 1497 1759 1228 1600 
Q 959 1441 959 1056 
Q 959 750 1161 570 
Q 1363 391 1709 391 
Q 2188 391 2477 730 
Q 2766 1069 2766 1631 
L 2766 1759 
L 2194 1759 
z
M 3341 1997 
L 3341 0 
L 2766 0 
L 2766 531 
Q 2569 213 2275 61 
Q 1981 -91 1556 -91 
Q 1019 -91 701 211 
Q 384 513 384 1019 
Q 384 1609 779 1909 
Q 1175 2209 1959 2209 
L 2766 2209 
L 2766 2266 
Q 2766 2663 2505 2880 
Q 2244 3097 1772 3097 
Q 1472 3097 1187 3025 
Q 903 2953 641 2809 
L 641 3341 
Q 956 3463 1253 3523 
Q 1550 3584 1831 3584 
Q 2591 3584 2966 3190 
Q 3341 2797 3341 1997 
z
" transform="scale(0.015625)"/>
      <path id="DejaVuSans-79" d="M 2059 -325 
Q 1816 -950 1584 -1140 
Q 1353 -1331 966 -1331 
L 506 -1331 
L 506 -850 
L 844 -850 
Q 1081 -850 1212 -737 
Q 1344 -625 1503 -206 
L 1606 56 
L 191 3500 
L 800 3500 
L 1894 763 
L 2988 3500 
L 3597 3500 
L 2059 -325 
z
" transform="scale(0.015625)"/>
     </defs>
     <use xlink:href="#DejaVuSans-41"/>
     <use xlink:href="#DejaVuSans-63" x="66.658203"/>
     <use xlink:href="#DejaVuSans-63" x="121.638672"/>
     <use xlink:href="#DejaVuSans-75" x="176.619141"/>
     <use xlink:href="#DejaVuSans-72" x="239.998047"/>
     <use xlink:href="#DejaVuSans-61" x="281.111328"/>
     <use xlink:href="#DejaVuSans-63" x="342.390625"/>
     <use xlink:href="#DejaVuSans-79" x="397.371094"/>
    </g>
   </g>
   <g id="legend_1">
    <g id="patch_7">
     <path d="M 79 77.954375 
L 134.275 77.954375 
Q 136.275 77.954375 136.275 75.954375 
L 136.275 32.92 
Q 136.275 30.92 134.275 30.92 
L 79 30.92 
Q 77 30.92 77 32.92 
L 77 75.954375 
Q 77 77.954375 79 77.954375 
z
" style="fill: #ffffff; opacity: 0.8; stroke: #cccccc; stroke-linejoin: miter"/>
    </g>
    <g id="line2d_16">
     <path d="M 81 39.018438 
L 91 39.018438 
L 101 39.018438 
" style="fill: none; stroke: #1f77b4; stroke-width: 1.5; stroke-linecap: square"/>
    </g>
    <g id="text_15">
     <!-- train -->
     <g transform="translate(109 42.518438) scale(0.1 -0.1)">
      <defs>
       <path id="DejaVuSans-74" d="M 1172 4494 
L 1172 3500 
L 2356 3500 
L 2356 3053 
L 1172 3053 
L 1172 1153 
Q 1172 725 1289 603 
Q 1406 481 1766 481 
L 2356 481 
L 2356 0 
L 1766 0 
Q 1100 0 847 248 
Q 594 497 594 1153 
L 594 3053 
L 172 3053 
L 172 3500 
L 594 3500 
L 594 4494 
L 1172 4494 
z
" transform="scale(0.015625)"/>
       <path id="DejaVuSans-69" d="M 603 3500 
L 1178 3500 
L 1178 0 
L 603 0 
L 603 3500 
z
M 603 4863 
L 1178 4863 
L 1178 4134 
L 603 4134 
L 603 4863 
z
" transform="scale(0.015625)"/>
       <path id="DejaVuSans-6e" d="M 3513 2113 
L 3513 0 
L 2938 0 
L 2938 2094 
Q 2938 2591 2744 2837 
Q 2550 3084 2163 3084 
Q 1697 3084 1428 2787 
Q 1159 2491 1159 1978 
L 1159 0 
L 581 0 
L 581 3500 
L 1159 3500 
L 1159 2956 
Q 1366 3272 1645 3428 
Q 1925 3584 2291 3584 
Q 2894 3584 3203 3211 
Q 3513 2838 3513 2113 
z
" transform="scale(0.015625)"/>
      </defs>
      <use xlink:href="#DejaVuSans-74"/>
      <use xlink:href="#DejaVuSans-72" x="39.208984"/>
      <use xlink:href="#DejaVuSans-61" x="80.322266"/>
      <use xlink:href="#DejaVuSans-69" x="141.601562"/>
      <use xlink:href="#DejaVuSans-6e" x="169.384766"/>
     </g>
    </g>
    <g id="line2d_17">
     <path d="M 81 53.696562 
L 91 53.696562 
L 101 53.696562 
" style="fill: none; stroke: #ff7f0e; stroke-width: 1.5; stroke-linecap: square"/>
    </g>
    <g id="text_16">
     <!-- eval -->
     <g transform="translate(109 57.196562) scale(0.1 -0.1)">
      <defs>
       <path id="DejaVuSans-65" d="M 3597 1894 
L 3597 1613 
L 953 1613 
Q 991 1019 1311 708 
Q 1631 397 2203 397 
Q 2534 397 2845 478 
Q 3156 559 3463 722 
L 3463 178 
Q 3153 47 2828 -22 
Q 2503 -91 2169 -91 
Q 1331 -91 842 396 
Q 353 884 353 1716 
Q 353 2575 817 3079 
Q 1281 3584 2069 3584 
Q 2775 3584 3186 3129 
Q 3597 2675 3597 1894 
z
M 3022 2063 
Q 3016 2534 2758 2815 
Q 2500 3097 2075 3097 
Q 1594 3097 1305 2825 
Q 1016 2553 972 2059 
L 3022 2063 
z
" transform="scale(0.015625)"/>
       <path id="DejaVuSans-76" d="M 191 3500 
L 800 3500 
L 1894 563 
L 2988 3500 
L 3597 3500 
L 2284 0 
L 1503 0 
L 191 3500 
z
" transform="scale(0.015625)"/>
       <path id="DejaVuSans-6c" d="M 603 4863 
L 1178 4863 
L 1178 0 
L 603 0 
L 603 4863 
z
" transform="scale(0.015625)"/>
      </defs>
      <use xlink:href="#DejaVuSans-65"/>
      <use xlink:href="#DejaVuSans-76" x="61.523438"/>
      <use xlink:href="#DejaVuSans-61" x="120.703125"/>
      <use xlink:href="#DejaVuSans-6c" x="181.982422"/>
     </g>
    </g>
    <g id="line2d_18">
     <path d="M 81 68.374687 
L 91 68.374687 
L 101 68.374687 
" style="fill: none; stroke: #2ca02c; stroke-width: 1.5; stroke-linecap: square"/>
    </g>
    <g id="text_17">
     <!-- test -->
     <g transform="translate(109 71.874687) scale(0.1 -0.1)">
      <use xlink:href="#DejaVuSans-74"/>
      <use xlink:href="#DejaVuSans-65" x="39.208984"/>
      <use xlink:href="#DejaVuSans-73" x="100.732422"/>
      <use xlink:href="#DejaVuSans-74" x="152.832031"/>
     </g>
    </g>
   </g>
  </g>
  <g id="axes_2">
   <g id="patch_8">
    <path d="M 315.490909 192.24 
L 518.4 192.24 
L 518.4 25.92 
L 315.490909 25.92 
z
" style="fill: #ffffff"/>
   </g>
   <g id="matplotlib.axis_3">
    <g id="xtick_6">
     <g id="line2d_19">
      <g>
       <use xlink:href="#mb03dba7d4d" x="323.787101" y="192.24" style="stroke: #000000; stroke-width: 0.8"/>
      </g>
     </g>
     <g id="text_18">
      <!-- 0 -->
      <g transform="translate(320.605851 206.838437) scale(0.1 -0.1)">
       <use xlink:href="#DejaVuSans-30"/>
      </g>
     </g>
    </g>
    <g id="xtick_7">
     <g id="line2d_20">
      <g>
       <use xlink:href="#mb03dba7d4d" x="370.13454" y="192.24" style="stroke: #000000; stroke-width: 0.8"/>
      </g>
     </g>
     <g id="text_19">
      <!-- 50 -->
      <g transform="translate(363.77204 206.838437) scale(0.1 -0.1)">
       <use xlink:href="#DejaVuSans-35"/>
       <use xlink:href="#DejaVuSans-30" x="63.623047"/>
      </g>
     </g>
    </g>
    <g id="xtick_8">
     <g id="line2d_21">
      <g>
       <use xlink:href="#mb03dba7d4d" x="416.48198" y="192.24" style="stroke: #000000; stroke-width: 0.8"/>
      </g>
     </g>
     <g id="text_20">
      <!-- 100 -->
      <g transform="translate(406.93823 206.838437) scale(0.1 -0.1)">
       <use xlink:href="#DejaVuSans-31"/>
       <use xlink:href="#DejaVuSans-30" x="63.623047"/>
       <use xlink:href="#DejaVuSans-30" x="127.246094"/>
      </g>
     </g>
    </g>
    <g id="xtick_9">
     <g id="line2d_22">
      <g>
       <use xlink:href="#mb03dba7d4d" x="462.82942" y="192.24" style="stroke: #000000; stroke-width: 0.8"/>
      </g>
     </g>
     <g id="text_21">
      <!-- 150 -->
      <g transform="translate(453.28567 206.838437) scale(0.1 -0.1)">
       <use xlink:href="#DejaVuSans-31"/>
       <use xlink:href="#DejaVuSans-35" x="63.623047"/>
       <use xlink:href="#DejaVuSans-30" x="127.246094"/>
      </g>
     </g>
    </g>
    <g id="xtick_10">
     <g id="line2d_23">
      <g>
       <use xlink:href="#mb03dba7d4d" x="509.17686" y="192.24" style="stroke: #000000; stroke-width: 0.8"/>
      </g>
     </g>
     <g id="text_22">
      <!-- 200 -->
      <g transform="translate(499.63311 206.838437) scale(0.1 -0.1)">
       <use xlink:href="#DejaVuSans-32"/>
       <use xlink:href="#DejaVuSans-30" x="63.623047"/>
       <use xlink:href="#DejaVuSans-30" x="127.246094"/>
      </g>
     </g>
    </g>
    <g id="text_23">
     <!-- Epochs -->
     <g transform="translate(399.02983 220.516562) scale(0.1 -0.1)">
      <use xlink:href="#DejaVuSans-45"/>
      <use xlink:href="#DejaVuSans-70" x="63.183594"/>
      <use xlink:href="#DejaVuSans-6f" x="126.660156"/>
      <use xlink:href="#DejaVuSans-63" x="187.841797"/>
      <use xlink:href="#DejaVuSans-68" x="242.822266"/>
      <use xlink:href="#DejaVuSans-73" x="306.201172"/>
     </g>
    </g>
   </g>
   <g id="matplotlib.axis_4">
    <g id="ytick_8">
     <g id="line2d_24">
      <g>
       <use xlink:href="#m55492bf267" x="315.490909" y="180.835726" style="stroke: #000000; stroke-width: 0.8"/>
      </g>
     </g>
     <g id="text_24">
      <!-- 0.5 -->
      <g transform="translate(292.587784 184.634945) scale(0.1 -0.1)">
       <use xlink:href="#DejaVuSans-30"/>
       <use xlink:href="#DejaVuSans-2e" x="63.623047"/>
       <use xlink:href="#DejaVuSans-35" x="95.410156"/>
      </g>
     </g>
    </g>
    <g id="ytick_9">
     <g id="line2d_25">
      <g>
       <use xlink:href="#m55492bf267" x="315.490909" y="150.483378" style="stroke: #000000; stroke-width: 0.8"/>
      </g>
     </g>
     <g id="text_25">
      <!-- 0.6 -->
      <g transform="translate(292.587784 154.282596) scale(0.1 -0.1)">
       <use xlink:href="#DejaVuSans-30"/>
       <use xlink:href="#DejaVuSans-2e" x="63.623047"/>
       <use xlink:href="#DejaVuSans-36" x="95.410156"/>
      </g>
     </g>
    </g>
    <g id="ytick_10">
     <g id="line2d_26">
      <g>
       <use xlink:href="#m55492bf267" x="315.490909" y="120.131029" style="stroke: #000000; stroke-width: 0.8"/>
      </g>
     </g>
     <g id="text_26">
      <!-- 0.7 -->
      <g transform="translate(292.587784 123.930247) scale(0.1 -0.1)">
       <use xlink:href="#DejaVuSans-30"/>
       <use xlink:href="#DejaVuSans-2e" x="63.623047"/>
       <use xlink:href="#DejaVuSans-37" x="95.410156"/>
      </g>
     </g>
    </g>
    <g id="ytick_11">
     <g id="line2d_27">
      <g>
       <use xlink:href="#m55492bf267" x="315.490909" y="89.77868" style="stroke: #000000; stroke-width: 0.8"/>
      </g>
     </g>
     <g id="text_27">
      <!-- 0.8 -->
      <g transform="translate(292.587784 93.577899) scale(0.1 -0.1)">
       <use xlink:href="#DejaVuSans-30"/>
       <use xlink:href="#DejaVuSans-2e" x="63.623047"/>
       <use xlink:href="#DejaVuSans-38" x="95.410156"/>
      </g>
     </g>
    </g>
    <g id="ytick_12">
     <g id="line2d_28">
      <g>
       <use xlink:href="#m55492bf267" x="315.490909" y="59.426331" style="stroke: #000000; stroke-width: 0.8"/>
      </g>
     </g>
     <g id="text_28">
      <!-- 0.9 -->
      <g transform="translate(292.587784 63.22555) scale(0.1 -0.1)">
       <use xlink:href="#DejaVuSans-30"/>
       <use xlink:href="#DejaVuSans-2e" x="63.623047"/>
       <use xlink:href="#DejaVuSans-39" x="95.410156"/>
      </g>
     </g>
    </g>
    <g id="ytick_13">
     <g id="line2d_29">
      <g>
       <use xlink:href="#m55492bf267" x="315.490909" y="29.073982" style="stroke: #000000; stroke-width: 0.8"/>
      </g>
     </g>
     <g id="text_29">
      <!-- 1.0 -->
      <g transform="translate(292.587784 32.873201) scale(0.1 -0.1)">
       <use xlink:href="#DejaVuSans-31"/>
       <use xlink:href="#DejaVuSans-2e" x="63.623047"/>
       <use xlink:href="#DejaVuSans-30" x="95.410156"/>
      </g>
     </g>
    </g>
   </g>
   <g id="line2d_30">
    <path d="M 324.71405 143.248084 
L 325.640998 122.319665 
L 326.567947 112.964155 
L 327.494896 105.60592 
L 329.348794 94.783692 
L 331.202691 89.910915 
L 332.12964 86.313997 
L 333.983538 82.486196 
L 334.910486 81.477332 
L 335.837435 78.889333 
L 336.764384 77.652412 
L 337.691333 75.568484 
L 338.618281 74.221598 
L 339.54523 74.714013 
L 340.472179 72.741692 
L 341.399128 73.320412 
L 342.326077 70.22629 
L 343.253025 70.908453 
L 344.179974 68.589254 
L 345.106923 68.509443 
L 346.033872 66.637117 
L 346.960821 66.9134 
L 347.887769 65.374057 
L 348.814718 64.719503 
L 349.741667 65.171488 
L 350.668616 64.619061 
L 352.522513 62.730787 
L 353.449462 63.394536 
L 354.376411 62.026505 
L 355.30336 61.681706 
L 356.230309 59.947998 
L 357.157257 58.956449 
L 359.011155 58.926168 
L 359.938104 58.615671 
L 360.865053 57.339901 
L 361.792001 57.619717 
L 362.71895 56.690197 
L 363.645899 56.74492 
L 364.572848 55.494135 
L 365.499797 56.411909 
L 366.426745 55.008396 
L 367.353694 54.016293 
L 368.280643 53.783729 
L 369.207592 54.175481 
L 370.13454 53.167907 
L 371.061489 53.942564 
L 371.988438 52.553746 
L 374.769284 51.839108 
L 375.696233 50.458295 
L 376.623182 50.962823 
L 377.550131 50.992659 
L 378.47708 50.558843 
L 379.404028 49.430349 
L 381.257926 49.380123 
L 382.184875 47.985964 
L 383.111824 48.555926 
L 384.038772 48.043773 
L 384.965721 47.322368 
L 385.89267 47.399865 
L 386.819619 47.033398 
L 387.746568 47.209264 
L 388.673516 46.460358 
L 389.600465 45.960682 
L 390.527414 46.315209 
L 392.381312 45.405683 
L 393.30826 46.456289 
L 394.235209 44.663707 
L 395.162158 44.352199 
L 396.089107 43.808345 
L 397.016055 44.397195 
L 397.943004 44.547322 
L 398.869953 44.283907 
L 399.796902 43.770807 
L 400.723851 43.888899 
L 401.650799 43.324898 
L 402.577748 43.036895 
L 403.504697 42.279657 
L 404.431646 43.294114 
L 405.358595 41.775148 
L 406.285543 41.841356 
L 407.212492 42.27274 
L 408.139441 41.557849 
L 409.06639 42.948801 
L 409.993339 41.857057 
L 410.920287 41.446263 
L 411.847236 40.908295 
L 412.774185 40.711413 
L 413.701134 40.680105 
L 414.628083 40.279441 
L 415.555031 40.308309 
L 417.408929 39.2965 
L 418.335878 39.340716 
L 419.262827 39.565013 
L 420.189775 40.048562 
L 421.116724 39.902014 
L 422.043673 39.301153 
L 422.970622 39.665338 
L 423.89757 38.696704 
L 425.751468 38.494377 
L 426.678417 38.060874 
L 428.532314 37.903118 
L 429.459263 38.245007 
L 430.386212 37.835792 
L 431.313161 38.184704 
L 432.24011 37.781321 
L 433.167058 37.137022 
L 434.094007 37.524988 
L 435.020956 37.221895 
L 435.947905 37.139153 
L 436.874854 36.763346 
L 437.801802 37.23985 
L 438.728751 36.470914 
L 439.6557 37.18318 
L 440.582649 36.381603 
L 441.509598 36.533334 
L 442.436546 36.067826 
L 444.290444 35.821944 
L 447.07129 35.771367 
L 447.998239 35.845799 
L 448.925188 35.750706 
L 449.852137 35.514083 
L 450.779086 35.662008 
L 451.706034 35.41163 
L 452.632983 35.486587 
L 454.486881 35.238329 
L 455.413829 35.323799 
L 456.340778 34.999766 
L 457.267727 35.245124 
L 458.194676 34.94286 
L 459.121625 34.78043 
L 461.902471 34.776225 
L 462.82942 34.620287 
L 463.756369 34.77088 
L 464.683317 34.518944 
L 465.610266 34.477605 
L 466.537215 34.289298 
L 468.391113 34.419737 
L 469.318061 34.357888 
L 470.24501 34.162805 
L 472.098908 34.290585 
L 473.952805 34.135945 
L 475.806703 34.210288 
L 477.660601 33.949294 
L 480.441447 33.85837 
L 481.368396 33.937788 
L 482.295344 33.717448 
L 485.076191 33.763287 
L 488.783986 33.651852 
L 491.564832 33.715824 
L 492.491781 33.625461 
L 494.345679 33.676194 
L 503.615167 33.545938 
L 504.542116 33.599983 
L 506.396013 33.538943 
L 509.17686 33.509237 
L 509.17686 33.509237 
" clip-path="url(#p05bff0b518)" style="fill: none; stroke: #1f77b4; stroke-width: 1.5; stroke-linecap: square"/>
   </g>
   <g id="line2d_31">
    <path d="M 324.71405 145.020667 
L 325.640998 126.653749 
L 327.494896 112.777337 
L 329.348794 105.873979 
L 330.275742 103.688053 
L 331.202691 103.306338 
L 332.12964 100.428331 
L 333.983538 98.262684 
L 334.910486 97.132296 
L 335.837435 96.630863 
L 336.764384 95.403275 
L 337.691333 95.866745 
L 338.618281 95.142728 
L 339.54523 97.223653 
L 340.472179 94.906741 
L 341.399128 94.37189 
L 342.326077 92.310454 
L 343.253025 93.545987 
L 344.179974 91.643375 
L 345.106923 92.300528 
L 346.033872 91.383403 
L 346.960821 92.10614 
L 347.887769 91.925686 
L 348.814718 91.175997 
L 349.741667 91.743164 
L 350.668616 91.101924 
L 351.595565 92.814788 
L 352.522513 90.655025 
L 353.449462 91.085733 
L 354.376411 92.059472 
L 355.30336 91.80974 
L 356.230309 91.018148 
L 357.157257 89.56103 
L 358.084206 89.954542 
L 359.011155 91.069473 
L 359.938104 90.786822 
L 360.865053 88.677576 
L 361.792001 89.312151 
L 362.71895 90.252246 
L 363.645899 88.454679 
L 364.572848 88.029444 
L 365.499797 89.737192 
L 366.426745 88.177327 
L 367.353694 88.691753 
L 369.207592 88.471421 
L 370.13454 88.300577 
L 371.061489 88.624258 
L 371.988438 87.988297 
L 372.915387 87.594277 
L 373.842336 88.445809 
L 375.696233 85.978104 
L 376.623182 86.937678 
L 377.550131 87.165472 
L 378.47708 88.912602 
L 379.404028 88.25351 
L 380.330977 88.206664 
L 381.257926 88.613953 
L 382.184875 87.953781 
L 383.111824 87.520487 
L 384.038772 88.265435 
L 384.965721 88.128007 
L 385.89267 89.050763 
L 386.819619 87.97257 
L 387.746568 87.093119 
L 388.673516 86.940753 
L 389.600465 87.259522 
L 390.527414 87.851168 
L 391.454363 86.432248 
L 392.381312 86.805267 
L 393.30826 86.93939 
L 394.235209 86.710969 
L 395.162158 87.34567 
L 396.089107 86.739108 
L 397.016055 87.165606 
L 397.943004 87.424103 
L 398.869953 86.765255 
L 399.796902 86.468539 
L 400.723851 85.635799 
L 401.650799 86.125437 
L 402.577748 86.059919 
L 403.504697 86.22597 
L 404.431646 87.146094 
L 405.358595 86.712541 
L 406.285543 86.46851 
L 407.212492 87.957193 
L 408.139441 85.347938 
L 409.06639 89.146972 
L 409.993339 87.087888 
L 410.920287 85.995311 
L 411.847236 86.553799 
L 412.774185 86.268606 
L 413.701134 86.130887 
L 414.628083 84.661361 
L 415.555031 85.999711 
L 416.48198 86.103137 
L 417.408929 85.393775 
L 418.335878 85.284263 
L 419.262827 86.189001 
L 420.189775 87.735796 
L 421.116724 85.892667 
L 422.043673 86.296123 
L 422.970622 86.237784 
L 424.824519 85.432139 
L 425.751468 85.415682 
L 426.678417 84.880791 
L 427.605366 85.733722 
L 428.532314 85.272286 
L 429.459263 85.653942 
L 431.313161 85.930407 
L 432.24011 86.248549 
L 433.167058 85.427648 
L 434.094007 85.38561 
L 435.020956 85.675151 
L 436.874854 84.657568 
L 437.801802 85.198842 
L 438.728751 83.030525 
L 439.6557 84.031288 
L 440.582649 84.213037 
L 441.509598 84.106593 
L 442.436546 83.230081 
L 443.363495 83.933717 
L 444.290444 82.923863 
L 446.144342 83.594019 
L 447.07129 83.521348 
L 447.998239 84.40919 
L 449.852137 83.409147 
L 450.779086 83.757164 
L 451.706034 83.604913 
L 452.632983 83.644646 
L 453.559932 83.990406 
L 454.486881 84.102255 
L 455.413829 83.289734 
L 456.340778 83.676601 
L 457.267727 84.220237 
L 458.194676 84.247792 
L 459.121625 83.664138 
L 460.048573 83.394713 
L 460.975522 83.503773 
L 461.902471 83.903179 
L 463.756369 83.600581 
L 464.683317 84.057578 
L 465.610266 84.161453 
L 466.537215 84.00981 
L 467.464164 84.378799 
L 468.391113 84.350379 
L 469.318061 83.742486 
L 470.24501 83.504949 
L 471.171959 83.782228 
L 472.098908 83.722359 
L 473.025857 83.533874 
L 473.952805 83.560136 
L 474.879754 83.470267 
L 475.806703 82.888401 
L 476.733652 83.169432 
L 477.660601 83.004738 
L 478.587549 83.28433 
L 479.514498 82.777141 
L 480.441447 83.130589 
L 482.295344 82.924851 
L 483.222293 83.306158 
L 485.076191 82.388559 
L 486.00314 82.780788 
L 486.930088 82.549183 
L 488.783986 83.221046 
L 489.710935 83.299223 
L 492.491781 82.89117 
L 493.41873 83.105198 
L 494.345679 82.833979 
L 497.126525 82.825751 
L 498.053474 82.681866 
L 498.980423 82.863382 
L 501.761269 82.778473 
L 502.688218 82.876921 
L 503.615167 82.799347 
L 504.542116 82.996413 
L 506.396013 82.865799 
L 508.249911 82.861332 
L 509.17686 82.717574 
L 509.17686 82.717574 
" clip-path="url(#p05bff0b518)" style="fill: none; stroke: #ff7f0e; stroke-width: 1.5; stroke-linecap: square"/>
   </g>
   <g id="line2d_32">
    <path d="M 324.71405 184.68 
L 325.640998 169.356392 
L 327.494896 158.578317 
L 328.421845 155.305566 
L 330.275742 150.276182 
L 331.202691 149.842536 
L 332.12964 146.571579 
L 333.056589 147.467994 
L 333.983538 147.381501 
L 334.910486 146.465412 
L 335.837435 144.814191 
L 336.764384 145.743059 
L 337.691333 146.113207 
L 338.618281 145.25787 
L 339.54523 145.476079 
L 340.472179 144.657738 
L 341.399128 147.338969 
L 342.326077 142.571311 
L 343.253025 146.351573 
L 344.179974 143.324696 
L 345.106923 143.282006 
L 346.960821 142.462799 
L 347.887769 144.328256 
L 348.814718 142.091738 
L 349.741667 143.076874 
L 350.668616 143.871283 
L 351.595565 143.91216 
L 352.522513 141.682278 
L 353.449462 142.956313 
L 354.376411 142.163265 
L 355.30336 143.819529 
L 356.230309 141.80616 
L 357.157257 142.782444 
L 358.084206 141.49958 
L 359.011155 141.568796 
L 359.938104 143.299201 
L 360.865053 142.002347 
L 361.792001 141.689459 
L 362.71895 142.444922 
L 363.645899 142.669274 
L 364.572848 142.568164 
L 365.499797 145.671605 
L 366.426745 142.410646 
L 367.353694 144.08306 
L 368.280643 143.932498 
L 369.207592 143.106591 
L 370.13454 141.358186 
L 371.061489 143.070962 
L 371.988438 143.037447 
L 372.915387 143.664021 
L 373.842336 142.527661 
L 374.769284 143.293898 
L 375.696233 142.78948 
L 376.623182 144.471659 
L 377.550131 143.121626 
L 378.47708 143.77467 
L 379.404028 141.846647 
L 380.330977 142.717178 
L 381.257926 142.87288 
L 382.184875 141.937448 
L 383.111824 142.460672 
L 384.038772 143.881596 
L 384.965721 144.616611 
L 385.89267 142.979347 
L 386.819619 142.996191 
L 387.746568 143.239771 
L 388.673516 141.868536 
L 389.600465 141.391053 
L 390.527414 142.899437 
L 391.454363 142.806177 
L 392.381312 142.35428 
L 393.30826 143.974061 
L 394.235209 141.50096 
L 395.162158 143.191479 
L 396.089107 143.414108 
L 397.016055 142.297487 
L 397.943004 142.371735 
L 398.869953 142.994906 
L 399.796902 142.190833 
L 400.723851 143.853668 
L 403.504697 142.36611 
L 405.358595 143.887253 
L 406.285543 144.32504 
L 407.212492 143.906008 
L 408.139441 142.904292 
L 409.06639 143.940228 
L 409.993339 142.853705 
L 410.920287 142.551336 
L 411.847236 140.605555 
L 412.774185 140.625347 
L 413.701134 142.372622 
L 414.628083 141.663372 
L 415.555031 142.172089 
L 416.48198 142.07486 
L 417.408929 141.333554 
L 418.335878 143.085335 
L 419.262827 142.533892 
L 420.189775 143.302859 
L 421.116724 142.083238 
L 422.043673 141.375049 
L 422.970622 143.611749 
L 423.89757 141.631578 
L 424.824519 141.746279 
L 425.751468 141.2805 
L 426.678417 141.72868 
L 427.605366 141.310864 
L 428.532314 141.951822 
L 429.459263 141.338389 
L 430.386212 139.752285 
L 431.313161 141.086769 
L 432.24011 141.349413 
L 433.167058 140.542114 
L 434.094007 141.797367 
L 435.020956 141.482757 
L 435.947905 141.706474 
L 436.874854 140.782923 
L 437.801802 141.211724 
L 438.728751 139.86047 
L 439.6557 140.86907 
L 440.582649 140.560173 
L 441.509598 139.998844 
L 443.363495 141.605383 
L 445.217393 141.621625 
L 447.07129 140.896275 
L 447.998239 142.119547 
L 448.925188 142.026299 
L 449.852137 140.388507 
L 450.779086 140.756502 
L 451.706034 140.40745 
L 452.632983 140.354946 
L 453.559932 141.266876 
L 454.486881 141.099405 
L 455.413829 141.472032 
L 456.340778 141.985334 
L 457.267727 141.031352 
L 458.194676 141.088674 
L 459.121625 142.063641 
L 460.048573 140.771627 
L 460.975522 140.334379 
L 461.902471 140.927076 
L 462.82942 140.933915 
L 463.756369 141.243071 
L 465.610266 141.342146 
L 466.537215 141.351341 
L 469.318061 140.690296 
L 470.24501 139.592051 
L 471.171959 141.070876 
L 472.098908 140.761887 
L 473.025857 140.94614 
L 473.952805 140.547112 
L 474.879754 141.271413 
L 475.806703 141.798593 
L 476.733652 141.713639 
L 477.660601 140.898038 
L 478.587549 140.912188 
L 479.514498 141.192418 
L 480.441447 141.33 
L 482.295344 141.218843 
L 483.222293 140.796022 
L 484.149242 140.829456 
L 486.00314 140.719074 
L 486.930088 140.354124 
L 487.857037 140.815302 
L 488.783986 141.036625 
L 489.710935 140.937028 
L 490.637884 141.132806 
L 491.564832 140.801013 
L 492.491781 140.959236 
L 493.41873 140.701514 
L 494.345679 141.002426 
L 496.199576 140.93386 
L 497.126525 140.683329 
L 498.980423 140.491526 
L 499.907372 140.951984 
L 500.83432 140.687935 
L 501.761269 140.850375 
L 502.688218 140.70502 
L 503.615167 140.878764 
L 504.542116 140.797709 
L 505.469064 140.888373 
L 506.396013 140.802588 
L 507.322962 140.864778 
L 508.249911 140.764262 
L 509.17686 140.82246 
L 509.17686 140.82246 
" clip-path="url(#p05bff0b518)" style="fill: none; stroke: #2ca02c; stroke-width: 1.5; stroke-linecap: square"/>
   </g>
   <g id="patch_9">
    <path d="M 315.490909 192.24 
L 315.490909 25.92 
" style="fill: none; stroke: #000000; stroke-width: 0.8; stroke-linejoin: miter; stroke-linecap: square"/>
   </g>
   <g id="patch_10">
    <path d="M 518.4 192.24 
L 518.4 25.92 
" style="fill: none; stroke: #000000; stroke-width: 0.8; stroke-linejoin: miter; stroke-linecap: square"/>
   </g>
   <g id="patch_11">
    <path d="M 315.490909 192.24 
L 518.4 192.24 
" style="fill: none; stroke: #000000; stroke-width: 0.8; stroke-linejoin: miter; stroke-linecap: square"/>
   </g>
   <g id="patch_12">
    <path d="M 315.490909 25.92 
L 518.4 25.92 
" style="fill: none; stroke: #000000; stroke-width: 0.8; stroke-linejoin: miter; stroke-linecap: square"/>
   </g>
   <g id="text_30">
    <!-- Norm-Edit-Distance -->
    <g transform="translate(358.395767 19.92) scale(0.12 -0.12)">
     <defs>
      <path id="DejaVuSans-4e" d="M 628 4666 
L 1478 4666 
L 3547 763 
L 3547 4666 
L 4159 4666 
L 4159 0 
L 3309 0 
L 1241 3903 
L 1241 0 
L 628 0 
L 628 4666 
z
" transform="scale(0.015625)"/>
      <path id="DejaVuSans-6d" d="M 3328 2828 
Q 3544 3216 3844 3400 
Q 4144 3584 4550 3584 
Q 5097 3584 5394 3201 
Q 5691 2819 5691 2113 
L 5691 0 
L 5113 0 
L 5113 2094 
Q 5113 2597 4934 2840 
Q 4756 3084 4391 3084 
Q 3944 3084 3684 2787 
Q 3425 2491 3425 1978 
L 3425 0 
L 2847 0 
L 2847 2094 
Q 2847 2600 2669 2842 
Q 2491 3084 2119 3084 
Q 1678 3084 1418 2786 
Q 1159 2488 1159 1978 
L 1159 0 
L 581 0 
L 581 3500 
L 1159 3500 
L 1159 2956 
Q 1356 3278 1631 3431 
Q 1906 3584 2284 3584 
Q 2666 3584 2933 3390 
Q 3200 3197 3328 2828 
z
" transform="scale(0.015625)"/>
      <path id="DejaVuSans-2d" d="M 313 2009 
L 1997 2009 
L 1997 1497 
L 313 1497 
L 313 2009 
z
" transform="scale(0.015625)"/>
      <path id="DejaVuSans-64" d="M 2906 2969 
L 2906 4863 
L 3481 4863 
L 3481 0 
L 2906 0 
L 2906 525 
Q 2725 213 2448 61 
Q 2172 -91 1784 -91 
Q 1150 -91 751 415 
Q 353 922 353 1747 
Q 353 2572 751 3078 
Q 1150 3584 1784 3584 
Q 2172 3584 2448 3432 
Q 2725 3281 2906 2969 
z
M 947 1747 
Q 947 1113 1208 752 
Q 1469 391 1925 391 
Q 2381 391 2643 752 
Q 2906 1113 2906 1747 
Q 2906 2381 2643 2742 
Q 2381 3103 1925 3103 
Q 1469 3103 1208 2742 
Q 947 2381 947 1747 
z
" transform="scale(0.015625)"/>
      <path id="DejaVuSans-44" d="M 1259 4147 
L 1259 519 
L 2022 519 
Q 2988 519 3436 956 
Q 3884 1394 3884 2338 
Q 3884 3275 3436 3711 
Q 2988 4147 2022 4147 
L 1259 4147 
z
M 628 4666 
L 1925 4666 
Q 3281 4666 3915 4102 
Q 4550 3538 4550 2338 
Q 4550 1131 3912 565 
Q 3275 0 1925 0 
L 628 0 
L 628 4666 
z
" transform="scale(0.015625)"/>
     </defs>
     <use xlink:href="#DejaVuSans-4e"/>
     <use xlink:href="#DejaVuSans-6f" x="74.804688"/>
     <use xlink:href="#DejaVuSans-72" x="135.986328"/>
     <use xlink:href="#DejaVuSans-6d" x="175.349609"/>
     <use xlink:href="#DejaVuSans-2d" x="272.761719"/>
     <use xlink:href="#DejaVuSans-45" x="308.845703"/>
     <use xlink:href="#DejaVuSans-64" x="372.029297"/>
     <use xlink:href="#DejaVuSans-69" x="435.505859"/>
     <use xlink:href="#DejaVuSans-74" x="463.289062"/>
     <use xlink:href="#DejaVuSans-2d" x="502.498047"/>
     <use xlink:href="#DejaVuSans-44" x="538.582031"/>
     <use xlink:href="#DejaVuSans-69" x="615.583984"/>
     <use xlink:href="#DejaVuSans-73" x="643.367188"/>
     <use xlink:href="#DejaVuSans-74" x="695.466797"/>
     <use xlink:href="#DejaVuSans-61" x="734.675781"/>
     <use xlink:href="#DejaVuSans-6e" x="795.955078"/>
     <use xlink:href="#DejaVuSans-63" x="859.333984"/>
     <use xlink:href="#DejaVuSans-65" x="914.314453"/>
    </g>
   </g>
   <g id="legend_2">
    <g id="patch_13">
     <path d="M 456.125 132.597187 
L 511.4 132.597187 
Q 513.4 132.597187 513.4 130.597187 
L 513.4 87.562813 
Q 513.4 85.562813 511.4 85.562813 
L 456.125 85.562813 
Q 454.125 85.562813 454.125 87.562813 
L 454.125 130.597187 
Q 454.125 132.597187 456.125 132.597187 
z
" style="fill: #ffffff; opacity: 0.8; stroke: #cccccc; stroke-linejoin: miter"/>
    </g>
    <g id="line2d_33">
     <path d="M 458.125 93.66125 
L 468.125 93.66125 
L 478.125 93.66125 
" style="fill: none; stroke: #1f77b4; stroke-width: 1.5; stroke-linecap: square"/>
    </g>
    <g id="text_31">
     <!-- train -->
     <g transform="translate(486.125 97.16125) scale(0.1 -0.1)">
      <use xlink:href="#DejaVuSans-74"/>
      <use xlink:href="#DejaVuSans-72" x="39.208984"/>
      <use xlink:href="#DejaVuSans-61" x="80.322266"/>
      <use xlink:href="#DejaVuSans-69" x="141.601562"/>
      <use xlink:href="#DejaVuSans-6e" x="169.384766"/>
     </g>
    </g>
    <g id="line2d_34">
     <path d="M 458.125 108.339375 
L 468.125 108.339375 
L 478.125 108.339375 
" style="fill: none; stroke: #ff7f0e; stroke-width: 1.5; stroke-linecap: square"/>
    </g>
    <g id="text_32">
     <!-- eval -->
     <g transform="translate(486.125 111.839375) scale(0.1 -0.1)">
      <use xlink:href="#DejaVuSans-65"/>
      <use xlink:href="#DejaVuSans-76" x="61.523438"/>
      <use xlink:href="#DejaVuSans-61" x="120.703125"/>
      <use xlink:href="#DejaVuSans-6c" x="181.982422"/>
     </g>
    </g>
    <g id="line2d_35">
     <path d="M 458.125 123.0175 
L 468.125 123.0175 
L 478.125 123.0175 
" style="fill: none; stroke: #2ca02c; stroke-width: 1.5; stroke-linecap: square"/>
    </g>
    <g id="text_33">
     <!-- test -->
     <g transform="translate(486.125 126.5175) scale(0.1 -0.1)">
      <use xlink:href="#DejaVuSans-74"/>
      <use xlink:href="#DejaVuSans-65" x="39.208984"/>
      <use xlink:href="#DejaVuSans-73" x="100.732422"/>
      <use xlink:href="#DejaVuSans-74" x="152.832031"/>
     </g>
    </g>
   </g>
  </g>
 </g>
 <defs>
  <clipPath id="p190e0664a2">
   <rect x="72" y="25.92" width="202.909091" height="166.32"/>
  </clipPath>
  <clipPath id="p05bff0b518">
   <rect x="315.490909" y="25.92" width="202.909091" height="166.32"/>
  </clipPath>
 </defs>
</svg>
