<?xml version="1.0" encoding="utf-8" standalone="no"?>
<!DOCTYPE svg PUBLIC "-//W3C//DTD SVG 1.1//EN"
  "http://www.w3.org/Graphics/SVG/1.1/DTD/svg11.dtd">
<svg xmlns:xlink="http://www.w3.org/1999/xlink" width="576pt" height="216pt" viewBox="0 0 576 216" xmlns="http://www.w3.org/2000/svg" version="1.1">
 <metadata>
  <rdf:RDF xmlns:dc="http://purl.org/dc/elements/1.1/" xmlns:cc="http://creativecommons.org/ns#" xmlns:rdf="http://www.w3.org/1999/02/22-rdf-syntax-ns#">
   <cc:Work>
    <dc:type rdf:resource="http://purl.org/dc/dcmitype/StillImage"/>
    <dc:date>2024-02-01T16:18:23.453044</dc:date>
    <dc:format>image/svg+xml</dc:format>
    <dc:creator>
     <cc:Agent>
      <dc:title>Matplotlib v3.7.4, https://matplotlib.org/</dc:title>
     </cc:Agent>
    </dc:creator>
   </cc:Work>
  </rdf:RDF>
 </metadata>
 <defs>
  <style type="text/css">*{stroke-linejoin: round; stroke-linecap: butt}</style>
 </defs>
 <g id="figure_1">
  <g id="patch_1">
   <path d="M 0 216 
L 576 216 
L 576 0 
L 0 0 
z
" style="fill: #ffffff"/>
  </g>
  <g id="axes_1">
   <g id="patch_2">
    <path d="M 72 192.24 
L 274.909091 192.24 
L 274.909091 25.92 
L 72 25.92 
z
" style="fill: #ffffff"/>
   </g>
   <g id="matplotlib.axis_1">
    <g id="xtick_1">
     <g id="line2d_1">
      <defs>
       <path id="mcb37371380" d="M 0 0 
L 0 3.5 
" style="stroke: #000000; stroke-width: 0.8"/>
      </defs>
      <g>
       <use xlink:href="#mcb37371380" x="80.296192" y="192.24" style="stroke: #000000; stroke-width: 0.8"/>
      </g>
     </g>
     <g id="text_1">
      <!-- 0 -->
      <g transform="translate(77.114942 206.838437) scale(0.1 -0.1)">
       <defs>
        <path id="DejaVuSans-30" d="M 2034 4250 
Q 1547 4250 1301 3770 
Q 1056 3291 1056 2328 
Q 1056 1369 1301 889 
Q 1547 409 2034 409 
Q 2525 409 2770 889 
Q 3016 1369 3016 2328 
Q 3016 3291 2770 3770 
Q 2525 4250 2034 4250 
z
M 2034 4750 
Q 2819 4750 3233 4129 
Q 3647 3509 3647 2328 
Q 3647 1150 3233 529 
Q 2819 -91 2034 -91 
Q 1250 -91 836 529 
Q 422 1150 422 2328 
Q 422 3509 836 4129 
Q 1250 4750 2034 4750 
z
" transform="scale(0.015625)"/>
       </defs>
       <use xlink:href="#DejaVuSans-30"/>
      </g>
     </g>
    </g>
    <g id="xtick_2">
     <g id="line2d_2">
      <g>
       <use xlink:href="#mcb37371380" x="126.643631" y="192.24" style="stroke: #000000; stroke-width: 0.8"/>
      </g>
     </g>
     <g id="text_2">
      <!-- 50 -->
      <g transform="translate(120.281131 206.838437) scale(0.1 -0.1)">
       <defs>
        <path id="DejaVuSans-35" d="M 691 4666 
L 3169 4666 
L 3169 4134 
L 1269 4134 
L 1269 2991 
Q 1406 3038 1543 3061 
Q 1681 3084 1819 3084 
Q 2600 3084 3056 2656 
Q 3513 2228 3513 1497 
Q 3513 744 3044 326 
Q 2575 -91 1722 -91 
Q 1428 -91 1123 -41 
Q 819 9 494 109 
L 494 744 
Q 775 591 1075 516 
Q 1375 441 1709 441 
Q 2250 441 2565 725 
Q 2881 1009 2881 1497 
Q 2881 1984 2565 2268 
Q 2250 2553 1709 2553 
Q 1456 2553 1204 2497 
Q 953 2441 691 2322 
L 691 4666 
z
" transform="scale(0.015625)"/>
       </defs>
       <use xlink:href="#DejaVuSans-35"/>
       <use xlink:href="#DejaVuSans-30" x="63.623047"/>
      </g>
     </g>
    </g>
    <g id="xtick_3">
     <g id="line2d_3">
      <g>
       <use xlink:href="#mcb37371380" x="172.991071" y="192.24" style="stroke: #000000; stroke-width: 0.8"/>
      </g>
     </g>
     <g id="text_3">
      <!-- 100 -->
      <g transform="translate(163.447321 206.838437) scale(0.1 -0.1)">
       <defs>
        <path id="DejaVuSans-31" d="M 794 531 
L 1825 531 
L 1825 4091 
L 703 3866 
L 703 4441 
L 1819 4666 
L 2450 4666 
L 2450 531 
L 3481 531 
L 3481 0 
L 794 0 
L 794 531 
z
" transform="scale(0.015625)"/>
       </defs>
       <use xlink:href="#DejaVuSans-31"/>
       <use xlink:href="#DejaVuSans-30" x="63.623047"/>
       <use xlink:href="#DejaVuSans-30" x="127.246094"/>
      </g>
     </g>
    </g>
    <g id="xtick_4">
     <g id="line2d_4">
      <g>
       <use xlink:href="#mcb37371380" x="219.338511" y="192.24" style="stroke: #000000; stroke-width: 0.8"/>
      </g>
     </g>
     <g id="text_4">
      <!-- 150 -->
      <g transform="translate(209.794761 206.838437) scale(0.1 -0.1)">
       <use xlink:href="#DejaVuSans-31"/>
       <use xlink:href="#DejaVuSans-35" x="63.623047"/>
       <use xlink:href="#DejaVuSans-30" x="127.246094"/>
      </g>
     </g>
    </g>
    <g id="xtick_5">
     <g id="line2d_5">
      <g>
       <use xlink:href="#mcb37371380" x="265.68595" y="192.24" style="stroke: #000000; stroke-width: 0.8"/>
      </g>
     </g>
     <g id="text_5">
      <!-- 200 -->
      <g transform="translate(256.1422 206.838437) scale(0.1 -0.1)">
       <defs>
        <path id="DejaVuSans-32" d="M 1228 531 
L 3431 531 
L 3431 0 
L 469 0 
L 469 531 
Q 828 903 1448 1529 
Q 2069 2156 2228 2338 
Q 2531 2678 2651 2914 
Q 2772 3150 2772 3378 
Q 2772 3750 2511 3984 
Q 2250 4219 1831 4219 
Q 1534 4219 1204 4116 
Q 875 4013 500 3803 
L 500 4441 
Q 881 4594 1212 4672 
Q 1544 4750 1819 4750 
Q 2544 4750 2975 4387 
Q 3406 4025 3406 3419 
Q 3406 3131 3298 2873 
Q 3191 2616 2906 2266 
Q 2828 2175 2409 1742 
Q 1991 1309 1228 531 
z
" transform="scale(0.015625)"/>
       </defs>
       <use xlink:href="#DejaVuSans-32"/>
       <use xlink:href="#DejaVuSans-30" x="63.623047"/>
       <use xlink:href="#DejaVuSans-30" x="127.246094"/>
      </g>
     </g>
    </g>
    <g id="text_6">
     <!-- Epochs -->
     <g transform="translate(155.53892 220.516562) scale(0.1 -0.1)">
      <defs>
       <path id="DejaVuSans-45" d="M 628 4666 
L 3578 4666 
L 3578 4134 
L 1259 4134 
L 1259 2753 
L 3481 2753 
L 3481 2222 
L 1259 2222 
L 1259 531 
L 3634 531 
L 3634 0 
L 628 0 
L 628 4666 
z
" transform="scale(0.015625)"/>
       <path id="DejaVuSans-70" d="M 1159 525 
L 1159 -1331 
L 581 -1331 
L 581 3500 
L 1159 3500 
L 1159 2969 
Q 1341 3281 1617 3432 
Q 1894 3584 2278 3584 
Q 2916 3584 3314 3078 
Q 3713 2572 3713 1747 
Q 3713 922 3314 415 
Q 2916 -91 2278 -91 
Q 1894 -91 1617 61 
Q 1341 213 1159 525 
z
M 3116 1747 
Q 3116 2381 2855 2742 
Q 2594 3103 2138 3103 
Q 1681 3103 1420 2742 
Q 1159 2381 1159 1747 
Q 1159 1113 1420 752 
Q 1681 391 2138 391 
Q 2594 391 2855 752 
Q 3116 1113 3116 1747 
z
" transform="scale(0.015625)"/>
       <path id="DejaVuSans-6f" d="M 1959 3097 
Q 1497 3097 1228 2736 
Q 959 2375 959 1747 
Q 959 1119 1226 758 
Q 1494 397 1959 397 
Q 2419 397 2687 759 
Q 2956 1122 2956 1747 
Q 2956 2369 2687 2733 
Q 2419 3097 1959 3097 
z
M 1959 3584 
Q 2709 3584 3137 3096 
Q 3566 2609 3566 1747 
Q 3566 888 3137 398 
Q 2709 -91 1959 -91 
Q 1206 -91 779 398 
Q 353 888 353 1747 
Q 353 2609 779 3096 
Q 1206 3584 1959 3584 
z
" transform="scale(0.015625)"/>
       <path id="DejaVuSans-63" d="M 3122 3366 
L 3122 2828 
Q 2878 2963 2633 3030 
Q 2388 3097 2138 3097 
Q 1578 3097 1268 2742 
Q 959 2388 959 1747 
Q 959 1106 1268 751 
Q 1578 397 2138 397 
Q 2388 397 2633 464 
Q 2878 531 3122 666 
L 3122 134 
Q 2881 22 2623 -34 
Q 2366 -91 2075 -91 
Q 1284 -91 818 406 
Q 353 903 353 1747 
Q 353 2603 823 3093 
Q 1294 3584 2113 3584 
Q 2378 3584 2631 3529 
Q 2884 3475 3122 3366 
z
" transform="scale(0.015625)"/>
       <path id="DejaVuSans-68" d="M 3513 2113 
L 3513 0 
L 2938 0 
L 2938 2094 
Q 2938 2591 2744 2837 
Q 2550 3084 2163 3084 
Q 1697 3084 1428 2787 
Q 1159 2491 1159 1978 
L 1159 0 
L 581 0 
L 581 4863 
L 1159 4863 
L 1159 2956 
Q 1366 3272 1645 3428 
Q 1925 3584 2291 3584 
Q 2894 3584 3203 3211 
Q 3513 2838 3513 2113 
z
" transform="scale(0.015625)"/>
       <path id="DejaVuSans-73" d="M 2834 3397 
L 2834 2853 
Q 2591 2978 2328 3040 
Q 2066 3103 1784 3103 
Q 1356 3103 1142 2972 
Q 928 2841 928 2578 
Q 928 2378 1081 2264 
Q 1234 2150 1697 2047 
L 1894 2003 
Q 2506 1872 2764 1633 
Q 3022 1394 3022 966 
Q 3022 478 2636 193 
Q 2250 -91 1575 -91 
Q 1294 -91 989 -36 
Q 684 19 347 128 
L 347 722 
Q 666 556 975 473 
Q 1284 391 1588 391 
Q 1994 391 2212 530 
Q 2431 669 2431 922 
Q 2431 1156 2273 1281 
Q 2116 1406 1581 1522 
L 1381 1569 
Q 847 1681 609 1914 
Q 372 2147 372 2553 
Q 372 3047 722 3315 
Q 1072 3584 1716 3584 
Q 2034 3584 2315 3537 
Q 2597 3491 2834 3397 
z
" transform="scale(0.015625)"/>
      </defs>
      <use xlink:href="#DejaVuSans-45"/>
      <use xlink:href="#DejaVuSans-70" x="63.183594"/>
      <use xlink:href="#DejaVuSans-6f" x="126.660156"/>
      <use xlink:href="#DejaVuSans-63" x="187.841797"/>
      <use xlink:href="#DejaVuSans-68" x="242.822266"/>
      <use xlink:href="#DejaVuSans-73" x="306.201172"/>
     </g>
    </g>
   </g>
   <g id="matplotlib.axis_2">
    <g id="ytick_1">
     <g id="line2d_6">
      <defs>
       <path id="m6ca98456a1" d="M 0 0 
L -3.5 0 
" style="stroke: #000000; stroke-width: 0.8"/>
      </defs>
      <g>
       <use xlink:href="#m6ca98456a1" x="72" y="186.162796" style="stroke: #000000; stroke-width: 0.8"/>
      </g>
     </g>
     <g id="text_7">
      <!-- 0.3 -->
      <g transform="translate(49.096875 189.962015) scale(0.1 -0.1)">
       <defs>
        <path id="DejaVuSans-2e" d="M 684 794 
L 1344 794 
L 1344 0 
L 684 0 
L 684 794 
z
" transform="scale(0.015625)"/>
        <path id="DejaVuSans-33" d="M 2597 2516 
Q 3050 2419 3304 2112 
Q 3559 1806 3559 1356 
Q 3559 666 3084 287 
Q 2609 -91 1734 -91 
Q 1441 -91 1130 -33 
Q 819 25 488 141 
L 488 750 
Q 750 597 1062 519 
Q 1375 441 1716 441 
Q 2309 441 2620 675 
Q 2931 909 2931 1356 
Q 2931 1769 2642 2001 
Q 2353 2234 1838 2234 
L 1294 2234 
L 1294 2753 
L 1863 2753 
Q 2328 2753 2575 2939 
Q 2822 3125 2822 3475 
Q 2822 3834 2567 4026 
Q 2313 4219 1838 4219 
Q 1578 4219 1281 4162 
Q 984 4106 628 3988 
L 628 4550 
Q 988 4650 1302 4700 
Q 1616 4750 1894 4750 
Q 2613 4750 3031 4423 
Q 3450 4097 3450 3541 
Q 3450 3153 3228 2886 
Q 3006 2619 2597 2516 
z
" transform="scale(0.015625)"/>
       </defs>
       <use xlink:href="#DejaVuSans-30"/>
       <use xlink:href="#DejaVuSans-2e" x="63.623047"/>
       <use xlink:href="#DejaVuSans-33" x="95.410156"/>
      </g>
     </g>
    </g>
    <g id="ytick_2">
     <g id="line2d_7">
      <g>
       <use xlink:href="#m6ca98456a1" x="72" y="163.01827" style="stroke: #000000; stroke-width: 0.8"/>
      </g>
     </g>
     <g id="text_8">
      <!-- 0.4 -->
      <g transform="translate(49.096875 166.817488) scale(0.1 -0.1)">
       <defs>
        <path id="DejaVuSans-34" d="M 2419 4116 
L 825 1625 
L 2419 1625 
L 2419 4116 
z
M 2253 4666 
L 3047 4666 
L 3047 1625 
L 3713 1625 
L 3713 1100 
L 3047 1100 
L 3047 0 
L 2419 0 
L 2419 1100 
L 313 1100 
L 313 1709 
L 2253 4666 
z
" transform="scale(0.015625)"/>
       </defs>
       <use xlink:href="#DejaVuSans-30"/>
       <use xlink:href="#DejaVuSans-2e" x="63.623047"/>
       <use xlink:href="#DejaVuSans-34" x="95.410156"/>
      </g>
     </g>
    </g>
    <g id="ytick_3">
     <g id="line2d_8">
      <g>
       <use xlink:href="#m6ca98456a1" x="72" y="139.873743" style="stroke: #000000; stroke-width: 0.8"/>
      </g>
     </g>
     <g id="text_9">
      <!-- 0.5 -->
      <g transform="translate(49.096875 143.672962) scale(0.1 -0.1)">
       <use xlink:href="#DejaVuSans-30"/>
       <use xlink:href="#DejaVuSans-2e" x="63.623047"/>
       <use xlink:href="#DejaVuSans-35" x="95.410156"/>
      </g>
     </g>
    </g>
    <g id="ytick_4">
     <g id="line2d_9">
      <g>
       <use xlink:href="#m6ca98456a1" x="72" y="116.729217" style="stroke: #000000; stroke-width: 0.8"/>
      </g>
     </g>
     <g id="text_10">
      <!-- 0.6 -->
      <g transform="translate(49.096875 120.528436) scale(0.1 -0.1)">
       <defs>
        <path id="DejaVuSans-36" d="M 2113 2584 
Q 1688 2584 1439 2293 
Q 1191 2003 1191 1497 
Q 1191 994 1439 701 
Q 1688 409 2113 409 
Q 2538 409 2786 701 
Q 3034 994 3034 1497 
Q 3034 2003 2786 2293 
Q 2538 2584 2113 2584 
z
M 3366 4563 
L 3366 3988 
Q 3128 4100 2886 4159 
Q 2644 4219 2406 4219 
Q 1781 4219 1451 3797 
Q 1122 3375 1075 2522 
Q 1259 2794 1537 2939 
Q 1816 3084 2150 3084 
Q 2853 3084 3261 2657 
Q 3669 2231 3669 1497 
Q 3669 778 3244 343 
Q 2819 -91 2113 -91 
Q 1303 -91 875 529 
Q 447 1150 447 2328 
Q 447 3434 972 4092 
Q 1497 4750 2381 4750 
Q 2619 4750 2861 4703 
Q 3103 4656 3366 4563 
z
" transform="scale(0.015625)"/>
       </defs>
       <use xlink:href="#DejaVuSans-30"/>
       <use xlink:href="#DejaVuSans-2e" x="63.623047"/>
       <use xlink:href="#DejaVuSans-36" x="95.410156"/>
      </g>
     </g>
    </g>
    <g id="ytick_5">
     <g id="line2d_10">
      <g>
       <use xlink:href="#m6ca98456a1" x="72" y="93.584691" style="stroke: #000000; stroke-width: 0.8"/>
      </g>
     </g>
     <g id="text_11">
      <!-- 0.7 -->
      <g transform="translate(49.096875 97.38391) scale(0.1 -0.1)">
       <defs>
        <path id="DejaVuSans-37" d="M 525 4666 
L 3525 4666 
L 3525 4397 
L 1831 0 
L 1172 0 
L 2766 4134 
L 525 4134 
L 525 4666 
z
" transform="scale(0.015625)"/>
       </defs>
       <use xlink:href="#DejaVuSans-30"/>
       <use xlink:href="#DejaVuSans-2e" x="63.623047"/>
       <use xlink:href="#DejaVuSans-37" x="95.410156"/>
      </g>
     </g>
    </g>
    <g id="ytick_6">
     <g id="line2d_11">
      <g>
       <use xlink:href="#m6ca98456a1" x="72" y="70.440164" style="stroke: #000000; stroke-width: 0.8"/>
      </g>
     </g>
     <g id="text_12">
      <!-- 0.8 -->
      <g transform="translate(49.096875 74.239383) scale(0.1 -0.1)">
       <defs>
        <path id="DejaVuSans-38" d="M 2034 2216 
Q 1584 2216 1326 1975 
Q 1069 1734 1069 1313 
Q 1069 891 1326 650 
Q 1584 409 2034 409 
Q 2484 409 2743 651 
Q 3003 894 3003 1313 
Q 3003 1734 2745 1975 
Q 2488 2216 2034 2216 
z
M 1403 2484 
Q 997 2584 770 2862 
Q 544 3141 544 3541 
Q 544 4100 942 4425 
Q 1341 4750 2034 4750 
Q 2731 4750 3128 4425 
Q 3525 4100 3525 3541 
Q 3525 3141 3298 2862 
Q 3072 2584 2669 2484 
Q 3125 2378 3379 2068 
Q 3634 1759 3634 1313 
Q 3634 634 3220 271 
Q 2806 -91 2034 -91 
Q 1263 -91 848 271 
Q 434 634 434 1313 
Q 434 1759 690 2068 
Q 947 2378 1403 2484 
z
M 1172 3481 
Q 1172 3119 1398 2916 
Q 1625 2713 2034 2713 
Q 2441 2713 2670 2916 
Q 2900 3119 2900 3481 
Q 2900 3844 2670 4047 
Q 2441 4250 2034 4250 
Q 1625 4250 1398 4047 
Q 1172 3844 1172 3481 
z
" transform="scale(0.015625)"/>
       </defs>
       <use xlink:href="#DejaVuSans-30"/>
       <use xlink:href="#DejaVuSans-2e" x="63.623047"/>
       <use xlink:href="#DejaVuSans-38" x="95.410156"/>
      </g>
     </g>
    </g>
    <g id="ytick_7">
     <g id="line2d_12">
      <g>
       <use xlink:href="#m6ca98456a1" x="72" y="47.295638" style="stroke: #000000; stroke-width: 0.8"/>
      </g>
     </g>
     <g id="text_13">
      <!-- 0.9 -->
      <g transform="translate(49.096875 51.094857) scale(0.1 -0.1)">
       <defs>
        <path id="DejaVuSans-39" d="M 703 97 
L 703 672 
Q 941 559 1184 500 
Q 1428 441 1663 441 
Q 2288 441 2617 861 
Q 2947 1281 2994 2138 
Q 2813 1869 2534 1725 
Q 2256 1581 1919 1581 
Q 1219 1581 811 2004 
Q 403 2428 403 3163 
Q 403 3881 828 4315 
Q 1253 4750 1959 4750 
Q 2769 4750 3195 4129 
Q 3622 3509 3622 2328 
Q 3622 1225 3098 567 
Q 2575 -91 1691 -91 
Q 1453 -91 1209 -44 
Q 966 3 703 97 
z
M 1959 2075 
Q 2384 2075 2632 2365 
Q 2881 2656 2881 3163 
Q 2881 3666 2632 3958 
Q 2384 4250 1959 4250 
Q 1534 4250 1286 3958 
Q 1038 3666 1038 3163 
Q 1038 2656 1286 2365 
Q 1534 2075 1959 2075 
z
" transform="scale(0.015625)"/>
       </defs>
       <use xlink:href="#DejaVuSans-30"/>
       <use xlink:href="#DejaVuSans-2e" x="63.623047"/>
       <use xlink:href="#DejaVuSans-39" x="95.410156"/>
      </g>
     </g>
    </g>
   </g>
   <g id="line2d_13">
    <path d="M 81.22314 180.642195 
L 82.150089 158.592096 
L 83.077038 147.042045 
L 84.003987 136.986231 
L 85.857884 126.082336 
L 86.784833 121.680393 
L 87.711782 116.3496 
L 89.56568 109.605339 
L 90.492628 108.232256 
L 91.419577 105.405321 
L 92.346526 103.870698 
L 93.273475 99.266832 
L 94.200424 99.751449 
L 95.127372 94.662965 
L 96.054321 94.824504 
L 96.98127 91.75526 
L 97.908219 90.907179 
L 98.835168 90.382177 
L 99.762116 90.341792 
L 100.689065 88.887939 
L 101.616014 85.576386 
L 102.542963 84.243688 
L 103.469912 83.920609 
L 104.39686 82.74945 
L 105.323809 80.770595 
L 106.250758 81.416752 
L 107.177707 80.407132 
L 108.104656 77.620581 
L 109.031604 76.489807 
L 109.958553 76.166729 
L 110.885502 75.641726 
L 111.812451 74.834031 
L 112.739399 77.660966 
L 114.593297 73.90518 
L 115.520246 72.653252 
L 116.447195 75.359033 
L 118.301092 70.95709 
L 119.228041 72.168634 
L 120.15499 68.695542 
L 121.081939 67.766691 
L 122.008887 68.695542 
L 122.935836 66.030145 
L 123.862785 66.514763 
L 124.789734 64.455138 
L 125.716683 65.666682 
L 126.643631 63.364749 
L 127.57058 64.253214 
L 128.497529 62.637822 
L 129.424478 63.001285 
L 130.351427 63.768597 
L 131.278375 61.991666 
L 132.205324 60.578198 
L 133.132273 62.435898 
L 134.059222 59.407039 
L 134.986171 59.608963 
L 135.913119 59.326269 
L 136.840068 60.860891 
L 137.767017 56.741642 
L 138.693966 58.15511 
L 139.620914 57.428184 
L 140.547863 56.458949 
L 141.474812 57.064721 
L 143.32871 55.974331 
L 144.255658 55.449329 
L 145.182607 54.076246 
L 146.109556 54.1974 
L 147.036505 53.430089 
L 147.963454 53.026241 
L 148.890402 53.107011 
L 149.817351 52.380084 
L 150.7443 55.449329 
L 151.671249 53.833937 
L 153.525146 51.814697 
L 154.452095 52.420469 
L 155.379044 49.916612 
L 156.305993 50.885847 
L 157.232942 48.462759 
L 159.086839 48.462759 
L 160.013788 48.018526 
L 160.940737 48.906992 
L 161.867686 47.937757 
L 162.794634 47.655063 
L 163.721583 47.655063 
L 164.648532 47.937757 
L 165.575481 47.008906 
L 166.50243 46.766598 
L 167.429378 46.766598 
L 168.356327 48.987761 
L 169.283276 45.27236 
L 170.210225 45.676208 
L 171.137173 45.110821 
L 172.064122 44.34351 
L 172.991071 45.030051 
L 173.91802 44.26274 
L 174.844969 44.181971 
L 175.771917 46.887752 
L 176.698866 43.818508 
L 177.625815 42.647349 
L 178.552764 43.697353 
L 180.406661 42.243501 
L 184.114457 40.547339 
L 185.968354 40.910802 
L 186.895303 40.830033 
L 187.822252 41.556959 
L 188.749201 40.628109 
L 190.603098 39.820413 
L 192.456996 39.780028 
L 193.383945 38.851178 
L 194.310893 38.205021 
L 195.237842 39.860798 
L 196.164791 39.053102 
L 197.09174 39.941567 
L 198.018688 40.062722 
L 198.945637 38.770408 
L 200.799535 38.124251 
L 201.726484 38.528099 
L 202.653432 37.639634 
L 203.580381 37.316556 
L 204.50733 37.720404 
L 206.361228 37.558864 
L 207.288176 36.630014 
L 208.215125 36.751168 
L 209.142074 37.033862 
L 210.069023 36.34732 
L 210.995972 36.630014 
L 211.92292 36.50886 
L 212.849869 36.872323 
L 213.776818 36.306936 
L 214.703767 35.903088 
L 215.630716 36.791553 
L 216.557664 36.791553 
L 217.484613 35.741549 
L 219.338511 36.185781 
L 220.26546 35.660779 
L 221.192408 35.378085 
L 222.119357 34.974237 
L 224.900203 35.378085 
L 225.827152 35.176161 
L 226.754101 34.772313 
L 228.607999 35.014622 
L 229.534947 34.853083 
L 230.461896 34.368465 
L 232.315794 34.691544 
L 233.242743 34.812698 
L 234.169691 34.40885 
L 235.09664 34.166542 
L 239.731384 34.126157 
L 240.658333 34.005002 
L 241.585282 34.166542 
L 243.439179 33.803078 
L 244.366128 34.085772 
L 245.293077 33.843463 
L 246.220026 33.803078 
L 247.146975 34.126157 
L 248.073923 33.762694 
L 249.000872 33.681924 
L 250.85477 33.722309 
L 251.781719 34.045387 
L 252.708667 34.126157 
L 253.635616 33.601154 
L 256.416462 33.843463 
L 257.343411 33.722309 
L 258.27036 33.843463 
L 259.197309 33.48 
L 260.124258 33.803078 
L 261.978155 33.56077 
L 265.68595 33.762694 
L 265.68595 33.762694 
" clip-path="url(#p42c3fb996f)" style="fill: none; stroke: #1f77b4; stroke-width: 1.5; stroke-linecap: square"/>
   </g>
   <g id="line2d_14">
    <path d="M 81.22314 182.219177 
L 82.150089 163.794065 
L 84.003987 144.722459 
L 84.930936 144.075963 
L 85.857884 137.611012 
L 86.784833 139.873745 
L 87.711782 134.378536 
L 88.638731 134.701784 
L 89.56568 129.529823 
L 90.492628 127.913585 
L 91.419577 128.56008 
L 92.346526 127.26709 
L 93.273475 124.357862 
L 94.200424 128.236832 
L 95.127372 125.004357 
L 96.054321 124.034614 
L 96.98127 122.741624 
L 97.908219 122.095129 
L 98.835168 121.771881 
L 99.762116 122.418376 
L 100.689065 121.448634 
L 101.616014 119.832396 
L 102.542963 121.771881 
L 104.39686 119.832396 
L 105.323809 119.185901 
L 106.250758 120.802138 
L 107.177707 120.155643 
L 108.104656 114.660435 
L 109.031604 117.246415 
L 109.958553 116.276672 
L 110.885502 118.539405 
L 111.812451 118.862653 
L 112.739399 118.216158 
L 113.666348 116.923168 
L 115.520246 118.862653 
L 116.447195 116.276672 
L 117.374143 114.983682 
L 118.301092 114.337187 
L 119.228041 116.923168 
L 120.15499 116.59992 
L 121.081939 115.630177 
L 122.008887 120.155643 
L 122.935836 114.983682 
L 123.862785 117.246415 
L 124.789734 115.30693 
L 125.716683 116.923168 
L 126.643631 114.013939 
L 127.57058 111.751206 
L 128.497529 115.30693 
L 129.424478 112.397702 
L 130.351427 115.953425 
L 131.278375 114.983682 
L 132.205324 115.630177 
L 133.132273 113.367444 
L 134.059222 114.337187 
L 134.986171 113.690692 
L 135.913119 114.660435 
L 136.840068 112.397702 
L 137.767017 112.074454 
L 138.693966 115.30693 
L 139.620914 111.427959 
L 140.547863 113.367444 
L 141.474812 112.074454 
L 142.401761 113.367444 
L 143.32871 114.983682 
L 144.255658 112.397702 
L 145.182607 108.518731 
L 146.109556 109.165226 
L 147.036505 109.488473 
L 147.963454 110.134969 
L 148.890402 108.518731 
L 149.817351 110.458216 
L 150.7443 111.751206 
L 151.671249 112.397702 
L 152.598198 112.074454 
L 153.525146 111.427959 
L 154.452095 113.367444 
L 155.379044 108.841978 
L 156.305993 112.397702 
L 157.232942 112.397702 
L 158.15989 110.134969 
L 159.086839 109.165226 
L 160.013788 109.165226 
L 160.940737 110.134969 
L 161.867686 112.720949 
L 162.794634 112.720949 
L 163.721583 110.458216 
L 164.648532 112.074454 
L 165.575481 107.548988 
L 167.429378 113.367444 
L 168.356327 111.104711 
L 169.283276 112.074454 
L 170.210225 111.751206 
L 171.137173 111.104711 
L 172.064122 108.518731 
L 172.991071 110.458216 
L 173.91802 110.781464 
L 174.844969 109.165226 
L 175.771917 108.518731 
L 176.698866 107.548988 
L 177.625815 105.286255 
L 178.552764 107.548988 
L 179.479713 110.781464 
L 180.406661 110.134969 
L 181.33361 111.104711 
L 182.260559 110.458216 
L 183.187508 108.518731 
L 184.114457 109.811721 
L 185.041405 107.548988 
L 185.968354 108.195483 
L 186.895303 107.872236 
L 187.822252 109.165226 
L 188.749201 109.488473 
L 189.676149 107.22574 
L 190.603098 108.518731 
L 191.530047 108.195483 
L 192.456996 108.841978 
L 193.383945 109.165226 
L 195.237842 107.872236 
L 196.164791 108.518731 
L 197.09174 107.872236 
L 198.018688 109.165226 
L 198.945637 108.518731 
L 199.872586 108.195483 
L 200.799535 106.902493 
L 201.726484 107.548988 
L 202.653432 108.841978 
L 203.580381 108.518731 
L 204.50733 107.22574 
L 205.434279 108.518731 
L 206.361228 108.518731 
L 207.288176 107.22574 
L 208.215125 108.518731 
L 209.142074 106.902493 
L 210.069023 107.872236 
L 210.995972 107.872236 
L 211.92292 106.902493 
L 212.849869 107.872236 
L 213.776818 109.165226 
L 214.703767 106.579245 
L 215.630716 107.872236 
L 216.557664 108.518731 
L 217.484613 110.134969 
L 218.411562 110.781464 
L 219.338511 111.104711 
L 220.26546 109.488473 
L 221.192408 108.841978 
L 222.119357 109.811721 
L 223.046306 107.548988 
L 223.973255 106.902493 
L 224.900203 108.518731 
L 225.827152 106.255998 
L 226.754101 108.195483 
L 227.68105 105.93275 
L 228.607999 107.22574 
L 229.534947 107.22574 
L 230.461896 107.548988 
L 231.388845 106.255998 
L 232.315794 108.518731 
L 233.242743 109.165226 
L 234.169691 107.22574 
L 236.023589 107.872236 
L 236.950538 108.518731 
L 237.877487 108.195483 
L 239.731384 106.902493 
L 240.658333 106.902493 
L 241.585282 107.872236 
L 242.512231 106.902493 
L 243.439179 107.22574 
L 244.366128 107.872236 
L 245.293077 106.902493 
L 246.220026 107.548988 
L 247.146975 106.902493 
L 249.000872 107.548988 
L 249.927821 106.902493 
L 250.85477 106.902493 
L 251.781719 105.609503 
L 252.708667 106.579245 
L 253.635616 105.93275 
L 254.562565 105.93275 
L 255.489514 106.902493 
L 256.416462 106.902493 
L 257.343411 105.93275 
L 258.27036 106.579245 
L 259.197309 106.902493 
L 260.124258 105.93275 
L 261.051206 106.579245 
L 261.978155 106.579245 
L 262.905104 105.93275 
L 263.832053 106.579245 
L 264.759002 105.93275 
L 265.68595 107.22574 
L 265.68595 107.22574 
" clip-path="url(#p42c3fb996f)" style="fill: none; stroke: #ff7f0e; stroke-width: 1.5; stroke-linecap: square"/>
   </g>
   <g id="line2d_15">
    <path d="M 81.22314 184.68 
L 82.150089 160.181616 
L 83.077038 154.05702 
L 84.003987 145.675994 
L 84.930936 140.840786 
L 85.857884 139.229051 
L 86.784833 136.972621 
L 87.711782 126.657511 
L 88.638731 126.012817 
L 89.56568 125.69047 
L 90.492628 124.078734 
L 91.419577 119.243527 
L 92.346526 121.17761 
L 93.273475 117.631791 
L 94.200424 121.17761 
L 95.127372 119.888221 
L 96.054321 116.987097 
L 96.98127 121.17761 
L 97.908219 117.631791 
L 98.835168 116.342402 
L 99.762116 117.631791 
L 100.689065 118.276485 
L 102.542963 118.276485 
L 103.469912 118.598833 
L 104.39686 116.020055 
L 105.323809 119.243527 
L 106.250758 116.66475 
L 107.177707 117.631791 
L 108.104656 116.66475 
L 109.031604 114.085972 
L 109.958553 113.441278 
L 110.885502 118.598833 
L 111.812451 114.085972 
L 112.739399 115.697708 
L 113.666348 118.276485 
L 115.520246 116.342402 
L 116.447195 113.441278 
L 117.374143 114.730667 
L 118.301092 114.085972 
L 119.228041 117.631791 
L 120.15499 116.987097 
L 121.081939 114.730667 
L 122.008887 113.118931 
L 122.935836 115.697708 
L 123.862785 114.085972 
L 124.789734 114.408319 
L 125.716683 118.276485 
L 126.643631 115.697708 
L 129.424478 114.730667 
L 130.351427 114.730667 
L 131.278375 109.895459 
L 132.205324 114.408319 
L 134.986171 113.441278 
L 135.913119 115.697708 
L 136.840068 114.730667 
L 137.767017 112.796584 
L 138.693966 117.631791 
L 139.620914 116.020055 
L 140.547863 115.053014 
L 141.474812 112.796584 
L 142.401761 116.342402 
L 143.32871 116.987097 
L 144.255658 114.730667 
L 145.182607 113.118931 
L 146.109556 113.441278 
L 147.036505 112.151889 
L 147.963454 112.151889 
L 148.890402 113.118931 
L 149.817351 114.408319 
L 150.7443 117.309444 
L 151.671249 113.118931 
L 152.598198 111.184848 
L 153.525146 111.507195 
L 154.452095 114.085972 
L 155.379044 112.151889 
L 156.305993 115.375361 
L 157.232942 113.763625 
L 158.15989 109.895459 
L 159.086839 113.118931 
L 160.013788 112.151889 
L 160.940737 112.474236 
L 161.867686 113.763625 
L 162.794634 115.375361 
L 163.721583 108.606071 
L 164.648532 110.540154 
L 165.575481 111.829542 
L 166.50243 111.184848 
L 167.429378 114.730667 
L 168.356327 114.085972 
L 169.283276 111.507195 
L 170.210225 113.763625 
L 171.137173 113.441278 
L 172.064122 112.796584 
L 172.991071 111.829542 
L 173.91802 110.217806 
L 174.844969 109.895459 
L 175.771917 111.829542 
L 176.698866 111.507195 
L 177.625815 111.507195 
L 178.552764 109.573112 
L 179.479713 110.540154 
L 180.406661 111.184848 
L 181.33361 112.796584 
L 182.260559 113.118931 
L 183.187508 111.829542 
L 184.114457 109.573112 
L 185.041405 111.184848 
L 185.968354 109.895459 
L 186.895303 111.184848 
L 187.822252 113.441278 
L 188.749201 111.507195 
L 189.676149 112.474236 
L 190.603098 112.474236 
L 192.456996 110.540154 
L 193.383945 111.507195 
L 194.310893 109.250765 
L 195.237842 111.507195 
L 196.164791 112.474236 
L 197.09174 111.507195 
L 198.018688 112.796584 
L 198.945637 109.895459 
L 199.872586 110.862501 
L 200.799535 111.507195 
L 201.726484 110.862501 
L 202.653432 112.151889 
L 203.580381 110.862501 
L 204.50733 112.151889 
L 205.434279 110.862501 
L 206.361228 111.829542 
L 208.215125 111.829542 
L 209.142074 112.474236 
L 210.069023 111.829542 
L 210.995972 111.507195 
L 211.92292 111.829542 
L 212.849869 112.474236 
L 213.776818 111.829542 
L 214.703767 110.217806 
L 215.630716 111.184848 
L 216.557664 108.283723 
L 217.484613 108.928418 
L 218.411562 108.928418 
L 220.26546 109.573112 
L 221.192408 110.540154 
L 222.119357 111.829542 
L 223.046306 112.151889 
L 223.973255 109.895459 
L 224.900203 111.184848 
L 225.827152 111.829542 
L 226.754101 109.573112 
L 227.68105 110.217806 
L 228.607999 108.928418 
L 229.534947 110.862501 
L 231.388845 110.217806 
L 232.315794 108.928418 
L 233.242743 110.540154 
L 234.169691 110.217806 
L 235.09664 110.540154 
L 236.023589 111.184848 
L 236.950538 111.184848 
L 237.877487 112.796584 
L 238.804435 112.796584 
L 239.731384 111.829542 
L 240.658333 111.829542 
L 241.585282 112.474236 
L 242.512231 111.184848 
L 243.439179 111.507195 
L 244.366128 111.184848 
L 245.293077 110.217806 
L 246.220026 112.151889 
L 247.146975 110.862501 
L 248.073923 109.250765 
L 249.000872 108.928418 
L 250.85477 111.507195 
L 251.781719 111.184848 
L 252.708667 110.540154 
L 253.635616 110.540154 
L 254.562565 111.507195 
L 255.489514 112.151889 
L 256.416462 111.507195 
L 257.343411 110.540154 
L 258.27036 110.540154 
L 259.197309 110.862501 
L 260.124258 110.862501 
L 261.051206 110.540154 
L 261.978155 111.184848 
L 262.905104 109.895459 
L 263.832053 110.540154 
L 264.759002 110.862501 
L 265.68595 110.540154 
L 265.68595 110.540154 
" clip-path="url(#p42c3fb996f)" style="fill: none; stroke: #2ca02c; stroke-width: 1.5; stroke-linecap: square"/>
   </g>
   <g id="patch_3">
    <path d="M 72 192.24 
L 72 25.92 
" style="fill: none; stroke: #000000; stroke-width: 0.8; stroke-linejoin: miter; stroke-linecap: square"/>
   </g>
   <g id="patch_4">
    <path d="M 274.909091 192.24 
L 274.909091 25.92 
" style="fill: none; stroke: #000000; stroke-width: 0.8; stroke-linejoin: miter; stroke-linecap: square"/>
   </g>
   <g id="patch_5">
    <path d="M 72 192.24 
L 274.909091 192.24 
" style="fill: none; stroke: #000000; stroke-width: 0.8; stroke-linejoin: miter; stroke-linecap: square"/>
   </g>
   <g id="patch_6">
    <path d="M 72 25.92 
L 274.909091 25.92 
" style="fill: none; stroke: #000000; stroke-width: 0.8; stroke-linejoin: miter; stroke-linecap: square"/>
   </g>
   <g id="text_14">
    <!-- Accuracy -->
    <g transform="translate(146.060795 19.92) scale(0.12 -0.12)">
     <defs>
      <path id="DejaVuSans-41" d="M 2188 4044 
L 1331 1722 
L 3047 1722 
L 2188 4044 
z
M 1831 4666 
L 2547 4666 
L 4325 0 
L 3669 0 
L 3244 1197 
L 1141 1197 
L 716 0 
L 50 0 
L 1831 4666 
z
" transform="scale(0.015625)"/>
      <path id="DejaVuSans-75" d="M 544 1381 
L 544 3500 
L 1119 3500 
L 1119 1403 
Q 1119 906 1312 657 
Q 1506 409 1894 409 
Q 2359 409 2629 706 
Q 2900 1003 2900 1516 
L 2900 3500 
L 3475 3500 
L 3475 0 
L 2900 0 
L 2900 538 
Q 2691 219 2414 64 
Q 2138 -91 1772 -91 
Q 1169 -91 856 284 
Q 544 659 544 1381 
z
M 1991 3584 
L 1991 3584 
z
" transform="scale(0.015625)"/>
      <path id="DejaVuSans-72" d="M 2631 2963 
Q 2534 3019 2420 3045 
Q 2306 3072 2169 3072 
Q 1681 3072 1420 2755 
Q 1159 2438 1159 1844 
L 1159 0 
L 581 0 
L 581 3500 
L 1159 3500 
L 1159 2956 
Q 1341 3275 1631 3429 
Q 1922 3584 2338 3584 
Q 2397 3584 2469 3576 
Q 2541 3569 2628 3553 
L 2631 2963 
z
" transform="scale(0.015625)"/>
      <path id="DejaVuSans-61" d="M 2194 1759 
Q 1497 1759 1228 1600 
Q 959 1441 959 1056 
Q 959 750 1161 570 
Q 1363 391 1709 391 
Q 2188 391 2477 730 
Q 2766 1069 2766 1631 
L 2766 1759 
L 2194 1759 
z
M 3341 1997 
L 3341 0 
L 2766 0 
L 2766 531 
Q 2569 213 2275 61 
Q 1981 -91 1556 -91 
Q 1019 -91 701 211 
Q 384 513 384 1019 
Q 384 1609 779 1909 
Q 1175 2209 1959 2209 
L 2766 2209 
L 2766 2266 
Q 2766 2663 2505 2880 
Q 2244 3097 1772 3097 
Q 1472 3097 1187 3025 
Q 903 2953 641 2809 
L 641 3341 
Q 956 3463 1253 3523 
Q 1550 3584 1831 3584 
Q 2591 3584 2966 3190 
Q 3341 2797 3341 1997 
z
" transform="scale(0.015625)"/>
      <path id="DejaVuSans-79" d="M 2059 -325 
Q 1816 -950 1584 -1140 
Q 1353 -1331 966 -1331 
L 506 -1331 
L 506 -850 
L 844 -850 
Q 1081 -850 1212 -737 
Q 1344 -625 1503 -206 
L 1606 56 
L 191 3500 
L 800 3500 
L 1894 763 
L 2988 3500 
L 3597 3500 
L 2059 -325 
z
" transform="scale(0.015625)"/>
     </defs>
     <use xlink:href="#DejaVuSans-41"/>
     <use xlink:href="#DejaVuSans-63" x="66.658203"/>
     <use xlink:href="#DejaVuSans-63" x="121.638672"/>
     <use xlink:href="#DejaVuSans-75" x="176.619141"/>
     <use xlink:href="#DejaVuSans-72" x="239.998047"/>
     <use xlink:href="#DejaVuSans-61" x="281.111328"/>
     <use xlink:href="#DejaVuSans-63" x="342.390625"/>
     <use xlink:href="#DejaVuSans-79" x="397.371094"/>
    </g>
   </g>
   <g id="legend_1">
    <g id="patch_7">
     <path d="M 212.634091 187.24 
L 267.909091 187.24 
Q 269.909091 187.24 269.909091 185.24 
L 269.909091 142.205625 
Q 269.909091 140.205625 267.909091 140.205625 
L 212.634091 140.205625 
Q 210.634091 140.205625 210.634091 142.205625 
L 210.634091 185.24 
Q 210.634091 187.24 212.634091 187.24 
z
" style="fill: #ffffff; opacity: 0.8; stroke: #cccccc; stroke-linejoin: miter"/>
    </g>
    <g id="line2d_16">
     <path d="M 214.634091 148.304062 
L 224.634091 148.304062 
L 234.634091 148.304062 
" style="fill: none; stroke: #1f77b4; stroke-width: 1.5; stroke-linecap: square"/>
    </g>
    <g id="text_15">
     <!-- train -->
     <g transform="translate(242.634091 151.804062) scale(0.1 -0.1)">
      <defs>
       <path id="DejaVuSans-74" d="M 1172 4494 
L 1172 3500 
L 2356 3500 
L 2356 3053 
L 1172 3053 
L 1172 1153 
Q 1172 725 1289 603 
Q 1406 481 1766 481 
L 2356 481 
L 2356 0 
L 1766 0 
Q 1100 0 847 248 
Q 594 497 594 1153 
L 594 3053 
L 172 3053 
L 172 3500 
L 594 3500 
L 594 4494 
L 1172 4494 
z
" transform="scale(0.015625)"/>
       <path id="DejaVuSans-69" d="M 603 3500 
L 1178 3500 
L 1178 0 
L 603 0 
L 603 3500 
z
M 603 4863 
L 1178 4863 
L 1178 4134 
L 603 4134 
L 603 4863 
z
" transform="scale(0.015625)"/>
       <path id="DejaVuSans-6e" d="M 3513 2113 
L 3513 0 
L 2938 0 
L 2938 2094 
Q 2938 2591 2744 2837 
Q 2550 3084 2163 3084 
Q 1697 3084 1428 2787 
Q 1159 2491 1159 1978 
L 1159 0 
L 581 0 
L 581 3500 
L 1159 3500 
L 1159 2956 
Q 1366 3272 1645 3428 
Q 1925 3584 2291 3584 
Q 2894 3584 3203 3211 
Q 3513 2838 3513 2113 
z
" transform="scale(0.015625)"/>
      </defs>
      <use xlink:href="#DejaVuSans-74"/>
      <use xlink:href="#DejaVuSans-72" x="39.208984"/>
      <use xlink:href="#DejaVuSans-61" x="80.322266"/>
      <use xlink:href="#DejaVuSans-69" x="141.601562"/>
      <use xlink:href="#DejaVuSans-6e" x="169.384766"/>
     </g>
    </g>
    <g id="line2d_17">
     <path d="M 214.634091 162.982188 
L 224.634091 162.982188 
L 234.634091 162.982188 
" style="fill: none; stroke: #ff7f0e; stroke-width: 1.5; stroke-linecap: square"/>
    </g>
    <g id="text_16">
     <!-- eval -->
     <g transform="translate(242.634091 166.482188) scale(0.1 -0.1)">
      <defs>
       <path id="DejaVuSans-65" d="M 3597 1894 
L 3597 1613 
L 953 1613 
Q 991 1019 1311 708 
Q 1631 397 2203 397 
Q 2534 397 2845 478 
Q 3156 559 3463 722 
L 3463 178 
Q 3153 47 2828 -22 
Q 2503 -91 2169 -91 
Q 1331 -91 842 396 
Q 353 884 353 1716 
Q 353 2575 817 3079 
Q 1281 3584 2069 3584 
Q 2775 3584 3186 3129 
Q 3597 2675 3597 1894 
z
M 3022 2063 
Q 3016 2534 2758 2815 
Q 2500 3097 2075 3097 
Q 1594 3097 1305 2825 
Q 1016 2553 972 2059 
L 3022 2063 
z
" transform="scale(0.015625)"/>
       <path id="DejaVuSans-76" d="M 191 3500 
L 800 3500 
L 1894 563 
L 2988 3500 
L 3597 3500 
L 2284 0 
L 1503 0 
L 191 3500 
z
" transform="scale(0.015625)"/>
       <path id="DejaVuSans-6c" d="M 603 4863 
L 1178 4863 
L 1178 0 
L 603 0 
L 603 4863 
z
" transform="scale(0.015625)"/>
      </defs>
      <use xlink:href="#DejaVuSans-65"/>
      <use xlink:href="#DejaVuSans-76" x="61.523438"/>
      <use xlink:href="#DejaVuSans-61" x="120.703125"/>
      <use xlink:href="#DejaVuSans-6c" x="181.982422"/>
     </g>
    </g>
    <g id="line2d_18">
     <path d="M 214.634091 177.660313 
L 224.634091 177.660313 
L 234.634091 177.660313 
" style="fill: none; stroke: #2ca02c; stroke-width: 1.5; stroke-linecap: square"/>
    </g>
    <g id="text_17">
     <!-- test -->
     <g transform="translate(242.634091 181.160313) scale(0.1 -0.1)">
      <use xlink:href="#DejaVuSans-74"/>
      <use xlink:href="#DejaVuSans-65" x="39.208984"/>
      <use xlink:href="#DejaVuSans-73" x="100.732422"/>
      <use xlink:href="#DejaVuSans-74" x="152.832031"/>
     </g>
    </g>
   </g>
  </g>
  <g id="axes_2">
   <g id="patch_8">
    <path d="M 315.490909 192.24 
L 518.4 192.24 
L 518.4 25.92 
L 315.490909 25.92 
z
" style="fill: #ffffff"/>
   </g>
   <g id="matplotlib.axis_3">
    <g id="xtick_6">
     <g id="line2d_19">
      <g>
       <use xlink:href="#mcb37371380" x="323.787101" y="192.24" style="stroke: #000000; stroke-width: 0.8"/>
      </g>
     </g>
     <g id="text_18">
      <!-- 0 -->
      <g transform="translate(320.605851 206.838437) scale(0.1 -0.1)">
       <use xlink:href="#DejaVuSans-30"/>
      </g>
     </g>
    </g>
    <g id="xtick_7">
     <g id="line2d_20">
      <g>
       <use xlink:href="#mcb37371380" x="370.13454" y="192.24" style="stroke: #000000; stroke-width: 0.8"/>
      </g>
     </g>
     <g id="text_19">
      <!-- 50 -->
      <g transform="translate(363.77204 206.838437) scale(0.1 -0.1)">
       <use xlink:href="#DejaVuSans-35"/>
       <use xlink:href="#DejaVuSans-30" x="63.623047"/>
      </g>
     </g>
    </g>
    <g id="xtick_8">
     <g id="line2d_21">
      <g>
       <use xlink:href="#mcb37371380" x="416.48198" y="192.24" style="stroke: #000000; stroke-width: 0.8"/>
      </g>
     </g>
     <g id="text_20">
      <!-- 100 -->
      <g transform="translate(406.93823 206.838437) scale(0.1 -0.1)">
       <use xlink:href="#DejaVuSans-31"/>
       <use xlink:href="#DejaVuSans-30" x="63.623047"/>
       <use xlink:href="#DejaVuSans-30" x="127.246094"/>
      </g>
     </g>
    </g>
    <g id="xtick_9">
     <g id="line2d_22">
      <g>
       <use xlink:href="#mcb37371380" x="462.82942" y="192.24" style="stroke: #000000; stroke-width: 0.8"/>
      </g>
     </g>
     <g id="text_21">
      <!-- 150 -->
      <g transform="translate(453.28567 206.838437) scale(0.1 -0.1)">
       <use xlink:href="#DejaVuSans-31"/>
       <use xlink:href="#DejaVuSans-35" x="63.623047"/>
       <use xlink:href="#DejaVuSans-30" x="127.246094"/>
      </g>
     </g>
    </g>
    <g id="xtick_10">
     <g id="line2d_23">
      <g>
       <use xlink:href="#mcb37371380" x="509.17686" y="192.24" style="stroke: #000000; stroke-width: 0.8"/>
      </g>
     </g>
     <g id="text_22">
      <!-- 200 -->
      <g transform="translate(499.63311 206.838437) scale(0.1 -0.1)">
       <use xlink:href="#DejaVuSans-32"/>
       <use xlink:href="#DejaVuSans-30" x="63.623047"/>
       <use xlink:href="#DejaVuSans-30" x="127.246094"/>
      </g>
     </g>
    </g>
    <g id="text_23">
     <!-- Epochs -->
     <g transform="translate(399.02983 220.516562) scale(0.1 -0.1)">
      <use xlink:href="#DejaVuSans-45"/>
      <use xlink:href="#DejaVuSans-70" x="63.183594"/>
      <use xlink:href="#DejaVuSans-6f" x="126.660156"/>
      <use xlink:href="#DejaVuSans-63" x="187.841797"/>
      <use xlink:href="#DejaVuSans-68" x="242.822266"/>
      <use xlink:href="#DejaVuSans-73" x="306.201172"/>
     </g>
    </g>
   </g>
   <g id="matplotlib.axis_4">
    <g id="ytick_8">
     <g id="line2d_24">
      <g>
       <use xlink:href="#m6ca98456a1" x="315.490909" y="187.96668" style="stroke: #000000; stroke-width: 0.8"/>
      </g>
     </g>
     <g id="text_24">
      <!-- 0.6 -->
      <g transform="translate(292.587784 191.765899) scale(0.1 -0.1)">
       <use xlink:href="#DejaVuSans-30"/>
       <use xlink:href="#DejaVuSans-2e" x="63.623047"/>
       <use xlink:href="#DejaVuSans-36" x="95.410156"/>
      </g>
     </g>
    </g>
    <g id="ytick_9">
     <g id="line2d_25">
      <g>
       <use xlink:href="#m6ca98456a1" x="315.490909" y="147.867925" style="stroke: #000000; stroke-width: 0.8"/>
      </g>
     </g>
     <g id="text_25">
      <!-- 0.7 -->
      <g transform="translate(292.587784 151.667143) scale(0.1 -0.1)">
       <use xlink:href="#DejaVuSans-30"/>
       <use xlink:href="#DejaVuSans-2e" x="63.623047"/>
       <use xlink:href="#DejaVuSans-37" x="95.410156"/>
      </g>
     </g>
    </g>
    <g id="ytick_10">
     <g id="line2d_26">
      <g>
       <use xlink:href="#m6ca98456a1" x="315.490909" y="107.769169" style="stroke: #000000; stroke-width: 0.8"/>
      </g>
     </g>
     <g id="text_26">
      <!-- 0.8 -->
      <g transform="translate(292.587784 111.568388) scale(0.1 -0.1)">
       <use xlink:href="#DejaVuSans-30"/>
       <use xlink:href="#DejaVuSans-2e" x="63.623047"/>
       <use xlink:href="#DejaVuSans-38" x="95.410156"/>
      </g>
     </g>
    </g>
    <g id="ytick_11">
     <g id="line2d_27">
      <g>
       <use xlink:href="#m6ca98456a1" x="315.490909" y="67.670414" style="stroke: #000000; stroke-width: 0.8"/>
      </g>
     </g>
     <g id="text_27">
      <!-- 0.9 -->
      <g transform="translate(292.587784 71.469632) scale(0.1 -0.1)">
       <use xlink:href="#DejaVuSans-30"/>
       <use xlink:href="#DejaVuSans-2e" x="63.623047"/>
       <use xlink:href="#DejaVuSans-39" x="95.410156"/>
      </g>
     </g>
    </g>
    <g id="ytick_12">
     <g id="line2d_28">
      <g>
       <use xlink:href="#m6ca98456a1" x="315.490909" y="27.571658" style="stroke: #000000; stroke-width: 0.8"/>
      </g>
     </g>
     <g id="text_28">
      <!-- 1.0 -->
      <g transform="translate(292.587784 31.370877) scale(0.1 -0.1)">
       <use xlink:href="#DejaVuSans-31"/>
       <use xlink:href="#DejaVuSans-2e" x="63.623047"/>
       <use xlink:href="#DejaVuSans-30" x="95.410156"/>
      </g>
     </g>
    </g>
   </g>
   <g id="line2d_29">
    <path d="M 324.71405 181.288703 
L 325.640998 152.03709 
L 326.567947 139.123283 
L 327.494896 128.872193 
L 328.421845 121.883335 
L 329.348794 117.545521 
L 330.275742 112.256508 
L 332.12964 103.904411 
L 333.983538 99.907342 
L 334.910486 97.025466 
L 335.837435 95.380505 
L 336.764384 92.218022 
L 337.691333 91.188284 
L 338.618281 88.766798 
L 339.54523 87.625038 
L 340.472179 85.107951 
L 341.399128 84.172021 
L 342.326077 84.937634 
L 343.253025 81.733641 
L 344.179974 81.339052 
L 345.106923 78.879229 
L 346.033872 79.064783 
L 346.960821 78.58641 
L 348.814718 75.324072 
L 349.741667 75.268833 
L 350.668616 73.136481 
L 351.595565 72.602047 
L 352.522513 71.378831 
L 353.449462 71.195222 
L 354.376411 71.460995 
L 355.30336 70.867078 
L 356.230309 70.417249 
L 357.157257 70.388602 
L 358.084206 68.496181 
L 359.011155 67.709545 
L 359.938104 68.32729 
L 360.865053 67.189195 
L 361.792001 65.606009 
L 362.71895 66.624157 
L 363.645899 63.294515 
L 364.572848 64.229451 
L 365.499797 62.902341 
L 366.426745 62.260097 
L 367.353694 61.804366 
L 368.280643 60.306517 
L 369.207592 60.872972 
L 370.13454 58.518671 
L 371.061489 60.54552 
L 371.988438 59.642412 
L 372.915387 58.564183 
L 373.842336 59.744489 
L 374.769284 57.796886 
L 375.696233 57.071401 
L 376.623182 58.273909 
L 377.550131 55.777042 
L 378.47708 55.680114 
L 379.404028 54.981656 
L 380.330977 56.422188 
L 381.257926 53.573323 
L 382.184875 54.187516 
L 383.111824 53.349992 
L 384.038772 52.77533 
L 384.965721 53.214965 
L 385.89267 52.247431 
L 386.819619 52.138877 
L 387.746568 51.551853 
L 388.673516 50.498658 
L 389.600465 51.122382 
L 390.527414 50.422383 
L 391.454363 49.532187 
L 392.381312 49.085079 
L 393.30826 49.23811 
L 394.235209 50.027675 
L 395.162158 49.634711 
L 396.089107 48.389015 
L 397.016055 47.939212 
L 397.943004 48.379753 
L 398.869953 46.727639 
L 399.796902 47.383964 
L 400.723851 45.688706 
L 401.650799 45.998347 
L 402.577748 46.030346 
L 403.504697 45.501648 
L 404.431646 45.835952 
L 405.358595 45.329651 
L 406.285543 45.266988 
L 407.212492 44.988504 
L 408.139441 43.936061 
L 409.06639 43.843702 
L 409.993339 44.112498 
L 410.920287 43.64527 
L 411.847236 46.615708 
L 412.774185 42.571449 
L 413.701134 43.269035 
L 414.628083 42.489977 
L 415.555031 42.258784 
L 416.48198 42.378488 
L 417.408929 41.801005 
L 418.335878 42.046176 
L 419.262827 45.006388 
L 420.189775 41.014891 
L 421.116724 41.057705 
L 422.970622 40.917829 
L 423.89757 40.001765 
L 424.824519 39.50152 
L 425.751468 39.653699 
L 427.605366 39.374141 
L 428.532314 39.456076 
L 429.459263 39.168815 
L 430.386212 39.198028 
L 431.313161 39.407778 
L 432.24011 38.920213 
L 433.167058 38.613934 
L 434.094007 38.090218 
L 436.874854 38.122911 
L 437.801802 37.479213 
L 438.728751 37.812289 
L 439.6557 37.830898 
L 440.582649 38.144574 
L 441.509598 37.821395 
L 442.436546 36.999035 
L 443.363495 37.440815 
L 444.290444 36.70727 
L 445.217393 37.492578 
L 446.144342 36.586488 
L 447.998239 36.619201 
L 448.925188 36.90423 
L 449.852137 36.626624 
L 450.779086 36.0911 
L 451.706034 36.267102 
L 452.632983 36.261284 
L 453.559932 35.759786 
L 454.486881 35.906866 
L 455.413829 35.659727 
L 456.340778 35.758125 
L 457.267727 35.62262 
L 458.194676 35.188664 
L 459.121625 35.793162 
L 460.048573 35.826818 
L 460.975522 35.055775 
L 461.902471 35.538164 
L 463.756369 35.277671 
L 464.683317 34.916584 
L 465.610266 34.74859 
L 466.537215 35.048287 
L 467.464164 34.828647 
L 469.318061 34.802861 
L 470.24501 34.392794 
L 472.098908 34.602082 
L 473.025857 34.496685 
L 473.952805 34.243859 
L 476.733652 34.3945 
L 477.660601 34.083733 
L 478.587549 33.902839 
L 481.368396 33.903427 
L 483.222293 33.938409 
L 486.00314 33.895171 
L 486.930088 33.666425 
L 489.710935 33.741059 
L 490.637884 33.95163 
L 493.41873 33.557952 
L 496.199576 33.738866 
L 497.126525 33.48 
L 501.761269 33.683712 
L 502.688218 33.49356 
L 503.615167 33.648018 
L 504.542116 33.516102 
L 509.17686 33.555023 
L 509.17686 33.555023 
" clip-path="url(#p47e42af438)" style="fill: none; stroke: #1f77b4; stroke-width: 1.5; stroke-linecap: square"/>
   </g>
   <g id="line2d_30">
    <path d="M 324.71405 183.87266 
L 325.640998 159.1492 
L 326.567947 145.678577 
L 327.494896 138.027454 
L 328.421845 135.264223 
L 329.348794 130.739551 
L 331.202691 124.402502 
L 332.12964 123.46208 
L 333.056589 121.613355 
L 333.983538 120.275868 
L 334.910486 119.543398 
L 336.764384 116.978183 
L 337.691333 118.146614 
L 338.618281 116.409997 
L 339.54523 116.599912 
L 340.472179 113.960147 
L 341.399128 113.900195 
L 342.326077 112.509268 
L 343.253025 112.246672 
L 344.179974 113.220044 
L 345.106923 112.116636 
L 346.033872 111.62151 
L 346.960821 109.286998 
L 347.887769 109.507183 
L 348.814718 107.903766 
L 349.741667 109.864261 
L 350.668616 108.356766 
L 351.595565 105.925125 
L 352.522513 107.328519 
L 353.449462 106.293895 
L 354.376411 108.310723 
L 355.30336 108.778255 
L 356.230309 106.100205 
L 357.157257 104.935116 
L 358.084206 106.420419 
L 359.011155 105.929049 
L 359.938104 108.499277 
L 360.865053 105.658091 
L 361.792001 105.132462 
L 362.71895 106.926637 
L 363.645899 105.950799 
L 364.572848 104.7335 
L 365.499797 105.625449 
L 366.426745 105.666837 
L 367.353694 104.514701 
L 368.280643 104.684987 
L 369.207592 106.235171 
L 370.13454 104.504825 
L 371.061489 104.417293 
L 371.988438 104.561351 
L 372.915387 102.40894 
L 373.842336 104.34178 
L 374.769284 104.412353 
L 375.696233 103.205288 
L 376.623182 103.124488 
L 377.550131 102.073425 
L 378.47708 102.238678 
L 379.404028 99.569488 
L 380.330977 103.183575 
L 381.257926 100.694665 
L 382.184875 103.334065 
L 383.111824 101.561893 
L 384.038772 102.809382 
L 384.965721 100.489558 
L 385.89267 100.266185 
L 386.819619 101.811656 
L 387.746568 101.746349 
L 388.673516 98.91475 
L 389.600465 101.308946 
L 390.527414 100.153303 
L 391.454363 99.298758 
L 392.381312 96.926016 
L 393.30826 99.785781 
L 394.235209 100.264991 
L 395.162158 99.841959 
L 396.089107 100.030805 
L 397.016055 100.466522 
L 397.943004 100.613133 
L 398.869953 98.208714 
L 399.796902 99.687264 
L 400.723851 98.114281 
L 401.650799 97.801418 
L 402.577748 99.662468 
L 403.504697 95.676428 
L 404.431646 97.821067 
L 405.358595 100.709507 
L 406.285543 99.001022 
L 407.212492 98.330037 
L 408.139441 99.643519 
L 409.06639 98.503731 
L 409.993339 98.498788 
L 410.920287 99.083278 
L 411.847236 99.875162 
L 412.774185 98.237398 
L 413.701134 100.214787 
L 414.628083 98.144983 
L 415.555031 94.880649 
L 416.48198 98.757749 
L 417.408929 100.735831 
L 418.335878 97.966537 
L 419.262827 97.689287 
L 420.189775 96.853356 
L 421.116724 93.979076 
L 422.043673 96.835495 
L 422.970622 96.678254 
L 423.89757 97.743605 
L 424.824519 97.89679 
L 425.751468 97.833287 
L 426.678417 97.038908 
L 427.605366 96.89809 
L 428.532314 94.23179 
L 429.459263 95.809952 
L 430.386212 94.913884 
L 431.313161 95.318208 
L 432.24011 94.675622 
L 433.167058 94.503961 
L 434.094007 95.813373 
L 435.020956 96.051444 
L 435.947905 96.906436 
L 436.874854 95.605327 
L 437.801802 96.716411 
L 438.728751 96.702045 
L 439.6557 95.112689 
L 440.582649 96.225248 
L 441.509598 95.101883 
L 442.436546 96.229279 
L 443.363495 94.511713 
L 444.290444 94.279247 
L 445.217393 95.12661 
L 446.144342 95.013139 
L 447.07129 93.529784 
L 447.998239 94.459256 
L 448.925188 94.509124 
L 449.852137 95.137838 
L 450.779086 95.150577 
L 451.706034 93.882944 
L 452.632983 93.633513 
L 453.559932 93.854791 
L 454.486881 95.076069 
L 455.413829 93.614685 
L 457.267727 95.837789 
L 458.194676 92.934084 
L 459.121625 95.63971 
L 460.048573 94.980245 
L 460.975522 96.055609 
L 461.902471 95.242806 
L 462.82942 95.437602 
L 464.683317 95.023112 
L 465.610266 94.395663 
L 466.537215 94.233755 
L 467.464164 94.587116 
L 468.391113 94.736776 
L 469.318061 92.901695 
L 470.24501 95.715905 
L 471.171959 93.742172 
L 472.098908 94.744163 
L 473.025857 95.282024 
L 473.952805 94.696022 
L 474.879754 94.560673 
L 475.806703 95.720892 
L 476.733652 96.620037 
L 477.660601 94.657275 
L 478.587549 94.656122 
L 479.514498 94.767928 
L 480.441447 94.388451 
L 481.368396 95.043339 
L 482.295344 94.806747 
L 483.222293 94.092453 
L 484.149242 94.401138 
L 485.076191 95.237364 
L 486.00314 94.932023 
L 486.930088 95.636231 
L 488.783986 95.270353 
L 489.710935 94.866249 
L 490.637884 94.583751 
L 491.564832 94.83221 
L 492.491781 94.175013 
L 493.41873 94.120626 
L 494.345679 95.002569 
L 495.272628 94.085957 
L 496.199576 93.949956 
L 497.126525 94.034509 
L 498.053474 94.398089 
L 498.980423 94.572904 
L 499.907372 94.944024 
L 500.83432 94.539842 
L 501.761269 94.962991 
L 502.688218 94.743002 
L 503.615167 93.935298 
L 505.469064 94.416791 
L 506.396013 94.11003 
L 507.322962 94.076512 
L 508.249911 93.91639 
L 509.17686 94.795783 
L 509.17686 94.795783 
" clip-path="url(#p47e42af438)" style="fill: none; stroke: #ff7f0e; stroke-width: 1.5; stroke-linecap: square"/>
   </g>
   <g id="line2d_31">
    <path d="M 324.71405 184.68 
L 325.640998 156.364373 
L 326.567947 145.96607 
L 327.494896 137.101028 
L 328.421845 133.093443 
L 329.348794 131.524472 
L 330.275742 128.243402 
L 331.202691 124.13581 
L 332.12964 122.827693 
L 333.056589 123.320281 
L 333.983538 121.428633 
L 334.910486 118.4016 
L 335.837435 118.768667 
L 336.764384 115.842467 
L 337.691333 117.108683 
L 338.618281 115.951646 
L 339.54523 113.522445 
L 340.472179 114.5641 
L 341.399128 112.56781 
L 342.326077 113.611041 
L 343.253025 113.105138 
L 344.179974 113.386219 
L 345.106923 112.633676 
L 346.033872 113.228649 
L 346.960821 112.457843 
L 347.887769 110.017395 
L 348.814718 114.007043 
L 349.741667 110.872324 
L 350.668616 110.14369 
L 351.595565 112.173314 
L 352.522513 109.891754 
L 353.449462 109.842997 
L 354.376411 112.276758 
L 355.30336 109.493629 
L 356.230309 109.005546 
L 357.157257 111.060957 
L 358.084206 112.254109 
L 359.011155 110.305183 
L 359.938104 109.29039 
L 360.865053 108.574492 
L 361.792001 108.410951 
L 362.71895 112.117912 
L 363.645899 109.157487 
L 364.572848 107.755506 
L 365.499797 107.871738 
L 366.426745 109.638498 
L 367.353694 107.334728 
L 368.280643 109.167139 
L 369.207592 108.21845 
L 370.13454 105.857385 
L 371.061489 108.197849 
L 371.988438 107.196073 
L 372.915387 105.89641 
L 373.842336 106.413361 
L 374.769284 103.30172 
L 375.696233 106.10198 
L 376.623182 107.763781 
L 377.550131 104.134517 
L 378.47708 107.606585 
L 379.404028 108.185017 
L 380.330977 106.691767 
L 381.257926 105.678978 
L 382.184875 108.82458 
L 383.111824 109.080594 
L 384.038772 107.77547 
L 384.965721 107.02067 
L 385.89267 108.494467 
L 386.819619 109.189558 
L 387.746568 107.158934 
L 388.673516 105.602451 
L 389.600465 108.414483 
L 390.527414 106.667727 
L 391.454363 105.918399 
L 392.381312 105.798509 
L 394.235209 109.632633 
L 395.162158 108.050245 
L 396.089107 105.807958 
L 397.016055 106.561086 
L 397.943004 108.182624 
L 398.869953 106.221915 
L 399.796902 108.017216 
L 400.723851 106.902037 
L 401.650799 104.58119 
L 402.577748 106.683627 
L 403.504697 105.17868 
L 404.431646 106.07078 
L 405.358595 107.154562 
L 406.285543 110.276208 
L 407.212492 103.128613 
L 408.139441 105.677409 
L 409.06639 105.584463 
L 409.993339 106.007531 
L 410.920287 108.486782 
L 411.847236 107.515543 
L 412.774185 106.118119 
L 413.701134 106.905466 
L 414.628083 105.931955 
L 415.555031 106.074261 
L 416.48198 105.950063 
L 417.408929 104.897226 
L 418.335878 104.049222 
L 419.262827 104.533018 
L 420.189775 105.517735 
L 421.116724 104.187123 
L 422.043673 104.086492 
L 422.970622 105.188965 
L 423.89757 104.969496 
L 424.824519 106.473107 
L 425.751468 106.014661 
L 426.678417 107.238567 
L 427.605366 105.119993 
L 428.532314 103.837918 
L 429.459263 104.874059 
L 430.386212 104.893543 
L 431.313161 106.530945 
L 432.24011 105.035109 
L 433.167058 105.470138 
L 434.094007 104.8264 
L 435.020956 103.699795 
L 435.947905 104.809911 
L 436.874854 104.985886 
L 437.801802 103.166501 
L 438.728751 105.48408 
L 439.6557 104.961178 
L 440.582649 104.664362 
L 441.509598 104.822636 
L 442.436546 104.267819 
L 443.363495 104.443823 
L 444.290444 106.149118 
L 445.217393 105.742112 
L 446.144342 105.089408 
L 447.07129 105.346355 
L 447.998239 104.716 
L 448.925188 104.735999 
L 449.852137 103.822414 
L 450.779086 103.789698 
L 451.706034 104.998774 
L 452.632983 105.31647 
L 453.559932 104.116069 
L 454.486881 103.146104 
L 455.413829 104.582369 
L 456.340778 101.913372 
L 457.267727 103.709859 
L 458.194676 103.406221 
L 459.121625 103.755277 
L 460.048573 102.079095 
L 460.975522 102.063583 
L 461.902471 102.844596 
L 462.82942 103.799237 
L 463.756369 103.470065 
L 464.683317 103.280728 
L 466.537215 103.875978 
L 467.464164 103.227716 
L 468.391113 104.944483 
L 469.318061 104.358858 
L 470.24501 103.239832 
L 471.171959 103.995001 
L 472.098908 103.944807 
L 473.025857 103.412344 
L 473.952805 102.667595 
L 475.806703 101.845723 
L 476.733652 102.845021 
L 477.660601 103.293133 
L 478.587549 102.833906 
L 479.514498 103.546927 
L 480.441447 103.415282 
L 482.295344 104.243802 
L 484.149242 103.050081 
L 485.076191 103.581371 
L 486.930088 103.068306 
L 487.857037 103.352753 
L 488.783986 102.886877 
L 489.710935 103.191993 
L 491.564832 102.294338 
L 493.41873 103.064629 
L 494.345679 103.797985 
L 495.272628 103.152247 
L 496.199576 102.738616 
L 497.126525 102.907522 
L 498.053474 102.898474 
L 498.980423 103.333714 
L 499.907372 103.412224 
L 500.83432 102.903277 
L 502.688218 103.042544 
L 503.615167 103.428214 
L 506.396013 103.253943 
L 507.322962 103.52894 
L 509.17686 103.039215 
L 509.17686 103.039215 
" clip-path="url(#p47e42af438)" style="fill: none; stroke: #2ca02c; stroke-width: 1.5; stroke-linecap: square"/>
   </g>
   <g id="patch_9">
    <path d="M 315.490909 192.24 
L 315.490909 25.92 
" style="fill: none; stroke: #000000; stroke-width: 0.8; stroke-linejoin: miter; stroke-linecap: square"/>
   </g>
   <g id="patch_10">
    <path d="M 518.4 192.24 
L 518.4 25.92 
" style="fill: none; stroke: #000000; stroke-width: 0.8; stroke-linejoin: miter; stroke-linecap: square"/>
   </g>
   <g id="patch_11">
    <path d="M 315.490909 192.24 
L 518.4 192.24 
" style="fill: none; stroke: #000000; stroke-width: 0.8; stroke-linejoin: miter; stroke-linecap: square"/>
   </g>
   <g id="patch_12">
    <path d="M 315.490909 25.92 
L 518.4 25.92 
" style="fill: none; stroke: #000000; stroke-width: 0.8; stroke-linejoin: miter; stroke-linecap: square"/>
   </g>
   <g id="text_29">
    <!-- Norm-Edit-Distance -->
    <g transform="translate(358.395767 19.92) scale(0.12 -0.12)">
     <defs>
      <path id="DejaVuSans-4e" d="M 628 4666 
L 1478 4666 
L 3547 763 
L 3547 4666 
L 4159 4666 
L 4159 0 
L 3309 0 
L 1241 3903 
L 1241 0 
L 628 0 
L 628 4666 
z
" transform="scale(0.015625)"/>
      <path id="DejaVuSans-6d" d="M 3328 2828 
Q 3544 3216 3844 3400 
Q 4144 3584 4550 3584 
Q 5097 3584 5394 3201 
Q 5691 2819 5691 2113 
L 5691 0 
L 5113 0 
L 5113 2094 
Q 5113 2597 4934 2840 
Q 4756 3084 4391 3084 
Q 3944 3084 3684 2787 
Q 3425 2491 3425 1978 
L 3425 0 
L 2847 0 
L 2847 2094 
Q 2847 2600 2669 2842 
Q 2491 3084 2119 3084 
Q 1678 3084 1418 2786 
Q 1159 2488 1159 1978 
L 1159 0 
L 581 0 
L 581 3500 
L 1159 3500 
L 1159 2956 
Q 1356 3278 1631 3431 
Q 1906 3584 2284 3584 
Q 2666 3584 2933 3390 
Q 3200 3197 3328 2828 
z
" transform="scale(0.015625)"/>
      <path id="DejaVuSans-2d" d="M 313 2009 
L 1997 2009 
L 1997 1497 
L 313 1497 
L 313 2009 
z
" transform="scale(0.015625)"/>
      <path id="DejaVuSans-64" d="M 2906 2969 
L 2906 4863 
L 3481 4863 
L 3481 0 
L 2906 0 
L 2906 525 
Q 2725 213 2448 61 
Q 2172 -91 1784 -91 
Q 1150 -91 751 415 
Q 353 922 353 1747 
Q 353 2572 751 3078 
Q 1150 3584 1784 3584 
Q 2172 3584 2448 3432 
Q 2725 3281 2906 2969 
z
M 947 1747 
Q 947 1113 1208 752 
Q 1469 391 1925 391 
Q 2381 391 2643 752 
Q 2906 1113 2906 1747 
Q 2906 2381 2643 2742 
Q 2381 3103 1925 3103 
Q 1469 3103 1208 2742 
Q 947 2381 947 1747 
z
" transform="scale(0.015625)"/>
      <path id="DejaVuSans-44" d="M 1259 4147 
L 1259 519 
L 2022 519 
Q 2988 519 3436 956 
Q 3884 1394 3884 2338 
Q 3884 3275 3436 3711 
Q 2988 4147 2022 4147 
L 1259 4147 
z
M 628 4666 
L 1925 4666 
Q 3281 4666 3915 4102 
Q 4550 3538 4550 2338 
Q 4550 1131 3912 565 
Q 3275 0 1925 0 
L 628 0 
L 628 4666 
z
" transform="scale(0.015625)"/>
     </defs>
     <use xlink:href="#DejaVuSans-4e"/>
     <use xlink:href="#DejaVuSans-6f" x="74.804688"/>
     <use xlink:href="#DejaVuSans-72" x="135.986328"/>
     <use xlink:href="#DejaVuSans-6d" x="175.349609"/>
     <use xlink:href="#DejaVuSans-2d" x="272.761719"/>
     <use xlink:href="#DejaVuSans-45" x="308.845703"/>
     <use xlink:href="#DejaVuSans-64" x="372.029297"/>
     <use xlink:href="#DejaVuSans-69" x="435.505859"/>
     <use xlink:href="#DejaVuSans-74" x="463.289062"/>
     <use xlink:href="#DejaVuSans-2d" x="502.498047"/>
     <use xlink:href="#DejaVuSans-44" x="538.582031"/>
     <use xlink:href="#DejaVuSans-69" x="615.583984"/>
     <use xlink:href="#DejaVuSans-73" x="643.367188"/>
     <use xlink:href="#DejaVuSans-74" x="695.466797"/>
     <use xlink:href="#DejaVuSans-61" x="734.675781"/>
     <use xlink:href="#DejaVuSans-6e" x="795.955078"/>
     <use xlink:href="#DejaVuSans-63" x="859.333984"/>
     <use xlink:href="#DejaVuSans-65" x="914.314453"/>
    </g>
   </g>
   <g id="legend_2">
    <g id="patch_13">
     <path d="M 456.125 187.24 
L 511.4 187.24 
Q 513.4 187.24 513.4 185.24 
L 513.4 142.205625 
Q 513.4 140.205625 511.4 140.205625 
L 456.125 140.205625 
Q 454.125 140.205625 454.125 142.205625 
L 454.125 185.24 
Q 454.125 187.24 456.125 187.24 
z
" style="fill: #ffffff; opacity: 0.8; stroke: #cccccc; stroke-linejoin: miter"/>
    </g>
    <g id="line2d_32">
     <path d="M 458.125 148.304062 
L 468.125 148.304062 
L 478.125 148.304062 
" style="fill: none; stroke: #1f77b4; stroke-width: 1.5; stroke-linecap: square"/>
    </g>
    <g id="text_30">
     <!-- train -->
     <g transform="translate(486.125 151.804062) scale(0.1 -0.1)">
      <use xlink:href="#DejaVuSans-74"/>
      <use xlink:href="#DejaVuSans-72" x="39.208984"/>
      <use xlink:href="#DejaVuSans-61" x="80.322266"/>
      <use xlink:href="#DejaVuSans-69" x="141.601562"/>
      <use xlink:href="#DejaVuSans-6e" x="169.384766"/>
     </g>
    </g>
    <g id="line2d_33">
     <path d="M 458.125 162.982188 
L 468.125 162.982188 
L 478.125 162.982188 
" style="fill: none; stroke: #ff7f0e; stroke-width: 1.5; stroke-linecap: square"/>
    </g>
    <g id="text_31">
     <!-- eval -->
     <g transform="translate(486.125 166.482188) scale(0.1 -0.1)">
      <use xlink:href="#DejaVuSans-65"/>
      <use xlink:href="#DejaVuSans-76" x="61.523438"/>
      <use xlink:href="#DejaVuSans-61" x="120.703125"/>
      <use xlink:href="#DejaVuSans-6c" x="181.982422"/>
     </g>
    </g>
    <g id="line2d_34">
     <path d="M 458.125 177.660313 
L 468.125 177.660313 
L 478.125 177.660313 
" style="fill: none; stroke: #2ca02c; stroke-width: 1.5; stroke-linecap: square"/>
    </g>
    <g id="text_32">
     <!-- test -->
     <g transform="translate(486.125 181.160313) scale(0.1 -0.1)">
      <use xlink:href="#DejaVuSans-74"/>
      <use xlink:href="#DejaVuSans-65" x="39.208984"/>
      <use xlink:href="#DejaVuSans-73" x="100.732422"/>
      <use xlink:href="#DejaVuSans-74" x="152.832031"/>
     </g>
    </g>
   </g>
  </g>
 </g>
 <defs>
  <clipPath id="p42c3fb996f">
   <rect x="72" y="25.92" width="202.909091" height="166.32"/>
  </clipPath>
  <clipPath id="p47e42af438">
   <rect x="315.490909" y="25.92" width="202.909091" height="166.32"/>
  </clipPath>
 </defs>
</svg>
